<svg width="1440" height="479" viewBox="0 0 1440 479" fill="none" xmlns="http://www.w3.org/2000/svg">
<path d="M1380.86 198.618C1389.66 202.993 1389.66 202.993 1396.38 207.675C1392.88 215.679 1389.38 223.683 1385.78 231.93C1384.59 230.233 1383.4 228.536 1382.18 226.787C1377.87 229.295 1373.56 231.802 1369.12 234.386C1371.87 233.98 1374.62 233.575 1377.45 233.158C1376.94 236.041 1376.43 238.924 1375.9 241.895C1374.35 242.475 1372.8 243.055 1371.2 243.652C1364.36 246.085 1364.36 246.085 1359.47 254.246C1353.03 262.686 1350.12 264.998 1339.91 267.057C1337.02 266.546 1334.14 266.035 1331.17 265.509C1324.01 267.682 1324.01 267.682 1317.7 270.331C1320.3 261.127 1323.95 254.255 1329.41 246.423C1330.95 244.211 1332.48 242 1334.07 239.721C1335.67 237.44 1337.28 235.159 1338.93 232.809C1340.53 230.509 1342.12 228.208 1343.76 225.838C1362.44 199.114 1362.44 199.114 1380.86 198.618Z" fill="#8AA5B9"/>
<path d="M1430.65 151.568C1430.92 153.4 1431.19 155.232 1431.46 157.12C1434.47 157.73 1434.47 157.73 1437.53 158.353C1447.66 161.02 1457.1 164.821 1466.71 168.942C1468.51 169.685 1470.32 170.428 1472.17 171.194C1476.7 173.125 1481.12 175.301 1485.52 177.514C1485.79 179.346 1486.06 181.178 1486.34 183.066C1480.57 182.044 1474.81 181.022 1468.87 179.969C1469.41 183.633 1469.95 187.298 1470.5 191.073C1459.4 192.71 1459.4 192.71 1453.45 188.446C1450.09 185.871 1450.09 185.871 1446.66 183.243C1443.6 182.291 1440.53 181.339 1437.37 180.358C1428.34 177.219 1425.89 175.378 1421.59 167.085C1414.4 169.081 1407.2 171.078 1399.79 173.135C1399.52 171.303 1399.25 169.471 1398.98 167.583C1389.68 168.017 1380.39 168.452 1370.81 168.899C1371.1 170.846 1371.38 172.793 1371.68 174.798C1369.5 186.261 1363.45 190.867 1355.09 198.64C1350.02 203.152 1350.02 203.152 1345.6 209.49C1342.85 209.895 1340.1 210.3 1337.27 210.717C1339.35 199.306 1342.8 192.01 1349.82 182.808C1351.42 180.659 1353.03 178.51 1354.68 176.296C1366.35 162.922 1376.88 161.675 1393.91 159.644C1406.95 158.019 1418.26 153.394 1430.65 151.568Z" fill="#92A0A7"/>
<path d="M1130.5 289.424C1117.72 303.04 1105.56 305.067 1087.7 308.566C1079.67 310.397 1079.67 310.397 1075.3 316.088C1067.05 323.711 1057.31 323.69 1046.57 324.845C1033.39 326.397 1021.78 328.173 1009.28 332.825C1002.48 331.168 1002.48 331.168 997.362 328.91C997.092 327.077 996.822 325.245 996.544 323.357C994.902 324.126 993.261 324.894 991.569 325.686C985.85 327.77 985.85 327.77 979.89 325.813C981.181 321.878 982.473 317.944 983.804 313.89C986.982 313.455 990.16 313.019 993.435 312.57C997.577 311.986 1001.72 311.401 1005.86 310.815C1007.96 310.53 1010.06 310.244 1012.22 309.95C1017.57 309.186 1022.89 308.275 1028.21 307.342C1029 306.291 1029.78 305.24 1030.58 304.157C1035.62 303.134 1040.7 302.296 1045.8 301.559C1048.57 301.142 1051.35 300.726 1054.21 300.297C1061.11 299.655 1061.11 299.655 1064.3 302.022C1071.04 301.39 1077.63 300.581 1084.32 299.601C1087.98 299.103 1091.63 298.604 1095.39 298.091C1108.34 295.38 1117.51 287.121 1130.5 289.424Z" fill="#B3C6D2"/>
<path d="M1455.04 105.425C1455.44 108.173 1455.85 110.921 1456.27 113.753C1453.04 113.293 1449.81 112.832 1446.49 112.358C1428.04 110.525 1409.11 113.022 1392.02 120.39C1397.87 124.738 1405.93 123.002 1412.96 122.975C1431.21 122.928 1431.21 122.928 1439.93 123.519C1448.27 123.776 1454.75 121.058 1462.64 118.486C1469.06 118.78 1469.06 118.78 1474.15 119.625C1475.98 119.355 1477.81 119.085 1479.7 118.807C1479.43 121.362 1479.17 123.917 1478.89 126.549C1479.47 137.499 1482.19 140.888 1489.75 148.525C1483.79 146.567 1477.83 144.61 1471.87 142.652C1473.65 145.198 1473.65 145.198 1475.47 147.795C1465.19 149.898 1459.46 149.144 1449.67 145.926C1442.2 146.553 1442.2 146.553 1435.79 147.973C1435.52 146.14 1435.25 144.308 1434.97 142.421C1437.72 142.015 1440.47 141.61 1443.3 141.193C1443.03 139.361 1442.76 137.528 1442.48 135.641C1438.68 135.265 1434.88 134.889 1430.97 134.502C1446.28 133.647 1446.28 133.647 1461.91 132.776C1454.22 131.414 1446.98 130.709 1439.21 130.273C1435.59 130.055 1435.59 130.055 1431.9 129.833C1424.6 129.768 1417.89 130.559 1410.72 131.814C1410.45 129.982 1410.18 128.15 1409.9 126.262C1404.58 127.846 1399.26 129.464 1393.95 131.096C1390.99 131.993 1388.03 132.89 1384.98 133.814C1376.98 136.115 1376.98 136.115 1372.68 143.096C1365.44 144.517 1365.44 144.517 1358.8 145.142C1364.21 136.617 1370.08 132.661 1378.96 127.988C1377.77 126.291 1376.59 124.594 1375.36 122.845C1403.83 104.07 1421.42 97.7462 1455.04 105.425Z" fill="#D2DBDE"/>
<path d="M1489.43 165.591C1505.12 176.853 1505.12 176.853 1506.92 186.169C1507.22 188.428 1507.53 190.687 1507.83 193.015C1508.14 195.287 1508.45 197.56 1508.77 199.901C1509 201.645 1509.22 203.389 1509.45 205.186C1507.35 203.624 1505.25 202.062 1503.08 200.452C1500.09 205.573 1497.1 210.693 1494.03 215.969C1492.84 214.272 1491.65 212.575 1490.43 210.826C1487.44 215.947 1484.45 221.068 1481.38 226.344C1482.56 228.041 1483.75 229.738 1484.97 231.487C1482.49 233.724 1480.01 235.961 1477.46 238.266C1477.6 239.182 1477.73 240.099 1477.87 241.042C1473.86 241.864 1469.83 242.622 1465.8 243.353C1463.56 243.782 1461.32 244.211 1459.02 244.653C1456.99 244.677 1454.97 244.701 1452.89 244.726C1450.65 242.248 1448.42 239.769 1446.11 237.216C1446.76 235.249 1447.4 233.282 1448.07 231.255C1450.82 230.85 1453.56 230.444 1456.39 230.027C1456.66 231.859 1456.93 233.691 1457.21 235.579C1460.88 235.039 1464.54 234.499 1468.32 233.942C1466.21 232.38 1464.11 230.818 1461.95 229.208C1463.52 227.163 1465.09 225.118 1466.7 223.011C1472.42 210.612 1470.76 201.653 1467.32 188.707C1466 186.094 1464.68 183.48 1463.31 180.788C1467.89 178.163 1467.89 178.163 1474.01 176.375C1480.84 179.445 1480.84 179.445 1486.34 183.066C1485.02 180.453 1483.7 177.84 1482.33 175.147C1485.08 174.742 1487.83 174.337 1490.66 173.919C1490.26 171.171 1489.85 168.423 1489.43 165.591Z" fill="#CDD9DF"/>
<path d="M1389.28 217.232C1392.16 217.743 1395.05 218.253 1398.02 218.78C1396.86 223.63 1395.7 228.481 1394.51 233.479C1398.04 232.022 1401.57 230.566 1405.2 229.066C1405.47 230.898 1405.74 232.73 1406.02 234.618C1409.82 234.993 1413.62 235.369 1417.53 235.757C1418.01 238.253 1418.01 238.253 1418.5 240.8C1421.48 255.165 1421.48 255.165 1430.54 266.28C1432.59 267.441 1434.63 268.602 1436.73 269.799C1437.92 271.496 1439.11 273.193 1440.33 274.942C1447.53 277.418 1447.53 277.418 1455.03 278.447C1456.72 277.261 1458.42 276.075 1460.17 274.853C1460.57 277.601 1460.98 280.35 1461.4 283.181C1458.3 283.58 1455.2 283.978 1452 284.389C1442.32 285.245 1442.32 285.245 1436.82 289.64C1420.75 282.199 1409.33 274.648 1398.52 260.498C1394.94 255.621 1394.94 255.621 1388.64 251.363C1384.24 240.571 1382.2 234.855 1385.79 223.597C1386.94 221.496 1388.09 219.396 1389.28 217.232Z" fill="#7E9CB3"/>
<path d="M1199.08 273.64C1213.58 270.271 1213.58 270.271 1221.28 270.366C1226.51 275.799 1226.51 275.799 1231.66 283.018C1247.87 294.466 1261.79 295.594 1281.3 292.717C1281.03 290.885 1280.76 289.053 1280.48 287.165C1285.29 285.314 1285.29 285.314 1290.21 283.426C1300.25 279.313 1308.62 274.136 1317.29 267.555C1319.07 270.101 1319.07 270.101 1320.89 272.698C1318.54 275.851 1316.2 279.005 1313.79 282.254C1316.67 282.765 1319.55 283.276 1322.52 283.802C1319.91 285.123 1317.3 286.445 1314.61 287.806C1324.2 285.203 1331 282.473 1339.21 276.733C1341.54 275.102 1343.87 273.471 1346.28 271.791C1348.24 272.437 1350.21 273.083 1352.24 273.748C1334.85 290.884 1316.78 297.104 1292.91 300.577C1290.58 300.918 1288.25 301.26 1285.85 301.611C1267.95 303.902 1253.51 302.791 1236.48 296.489C1219.35 291.137 1205.32 290.782 1187.65 292.342C1192.49 287.359 1196.97 282.768 1202.67 278.783C1201.48 277.085 1200.3 275.388 1199.08 273.64Z" fill="#7E97AE"/>
<path d="M1394.6 253.32C1400.4 258.933 1405.6 264.486 1410.65 270.809C1420.01 280.08 1426.6 282.829 1439.19 286.455C1441.8 285.134 1444.42 283.813 1447.11 282.452C1450.95 281.696 1454.82 281.072 1458.71 280.564C1463.96 279.878 1463.96 279.878 1469.31 279.177C1469.18 278.261 1469.04 277.345 1468.91 276.401C1478.85 274 1488.79 271.598 1499.03 269.124C1498.52 272.007 1498.01 274.89 1497.48 277.861C1499.31 277.591 1501.14 277.321 1503.03 277.042C1503.3 278.875 1503.57 280.707 1503.85 282.595C1505.27 281.566 1506.69 280.538 1508.15 279.478C1510.01 278.151 1511.87 276.824 1513.79 275.457C1515.63 274.132 1517.48 272.807 1519.38 271.442C1524.42 268.216 1524.42 268.216 1529.97 267.398C1529.59 271.197 1529.22 274.997 1528.83 278.911C1530.66 278.641 1532.5 278.371 1534.38 278.093C1533.62 282.418 1533.62 282.418 1532.84 286.83C1530.09 287.235 1527.34 287.64 1524.51 288.058C1526.69 293.352 1526.69 293.352 1528.92 298.753C1526.95 298.107 1524.99 297.461 1522.96 296.795C1522.69 294.963 1522.42 293.131 1522.14 291.243C1509.09 286.823 1499.09 288.986 1486.14 292.297C1457.67 298.813 1441.17 298.874 1415.92 283.516C1413.9 282.172 1411.88 280.828 1409.8 279.444C1408.03 278.308 1406.25 277.173 1404.43 276.003C1397.54 269.975 1396.72 261.954 1394.6 253.32Z" fill="#88A2B8"/>
<path d="M1419.92 186.91C1423.79 186.358 1427.66 185.82 1431.54 185.296C1433.52 185.017 1435.49 184.739 1437.53 184.452C1442.42 183.764 1447.32 183.093 1452.21 182.425C1454.58 185.819 1456.96 189.214 1459.4 192.711C1463.06 192.171 1466.73 191.63 1470.5 191.074C1474.55 211.423 1474.55 211.423 1470.64 220.836C1469.47 222.413 1468.29 223.99 1467.09 225.614C1459.62 225.778 1452.16 225.943 1444.47 226.112C1444.44 219.564 1444.41 213.017 1444.38 206.271C1438.11 208.132 1431.83 209.993 1425.36 211.911C1426.01 209.944 1426.65 207.977 1427.32 205.95C1433.73 205.005 1440.14 204.059 1446.75 203.085C1447.4 201.118 1448.04 199.151 1448.71 197.124C1444.3 198.098 1439.9 199.109 1435.5 200.134C1433.05 200.693 1430.6 201.252 1428.07 201.828C1420.63 203.722 1420.63 203.722 1413.85 210.772C1410.92 204.139 1409.28 199.026 1408.21 191.749C1410.58 188.564 1410.58 188.564 1419.92 186.91Z" fill="#8AA5B8"/>
<path d="M1448.71 197.123C1448.2 200.007 1447.69 202.89 1447.16 205.861C1446.24 205.996 1445.33 206.131 1444.39 206.27C1444.93 209.934 1445.47 213.599 1446.02 217.374C1444.19 217.644 1442.36 217.914 1440.47 218.193C1441.28 223.689 1442.09 229.186 1442.93 234.849C1441.1 235.119 1439.26 235.389 1437.38 235.667C1439.92 238.627 1439.92 238.627 1442.51 241.646C1447.75 248.32 1447.75 248.32 1448.57 253.872C1437.78 256.867 1437.78 256.867 1426.77 259.922C1415.16 247.059 1412.6 230.869 1411.49 213.957C1417.64 197.442 1433.18 198.333 1448.71 197.123Z" fill="#D1DADE"/>
<path d="M1204.8 294.014C1223.44 291.738 1238.08 296.797 1254.77 305.138C1255.04 306.97 1255.31 308.803 1255.59 310.69C1287.73 312.833 1317.77 305.484 1343.49 286.107C1347.91 282.895 1347.91 282.895 1355.83 278.892C1353.98 289.322 1350.23 291.657 1342.15 298.027C1327.01 307.585 1312.22 311.868 1294.76 314.31C1291.64 314.758 1291.64 314.758 1288.46 315.215C1272.89 317.212 1259.68 316.488 1244.49 312.327C1225.23 308.467 1203.44 309.196 1185.13 317.036C1180.24 318.964 1180.24 318.964 1171.5 317.416C1177.29 298.012 1185.49 297.052 1204.8 294.014Z" fill="#9DB0C3"/>
<path d="M808.619 356.738C822.897 354.342 837.01 352.487 851.479 351.792C872.506 350.528 893.295 347.735 914.155 344.911C918.285 344.361 922.416 343.811 926.547 343.263C937.301 341.832 948.053 340.388 958.805 338.94C969.824 337.459 980.845 335.991 991.865 334.523C1013.4 331.65 1034.94 328.763 1056.47 325.867C1056.74 327.699 1057.01 329.531 1057.29 331.419C1045.91 337.171 1033.74 338.831 1021.32 341.276C1012.66 343.03 1005.38 344.742 997.453 348.751C995.471 344.831 995.471 344.831 993.449 340.832C991.054 341.213 991.054 341.213 988.611 341.602C971.749 344.279 954.877 346.894 938 349.475C931.732 350.441 925.466 351.423 919.203 352.421C882.024 358.333 846.649 362.533 809.028 359.514C808.893 358.598 808.758 357.682 808.619 356.738Z" fill="#B9CBD9"/>
<path d="M1502.26 194.9C1503.18 194.765 1504.1 194.63 1505.04 194.491C1506.25 202.736 1507.47 210.981 1508.72 219.476C1506.89 219.746 1505.06 220.016 1503.17 220.294C1503.44 222.126 1503.71 223.958 1503.99 225.846C1501.24 226.251 1498.49 226.656 1495.66 227.074C1495.15 229.957 1494.64 232.841 1494.12 235.811C1491.37 236.216 1488.62 236.622 1485.79 237.039C1486.19 239.787 1486.6 242.536 1487.02 245.367C1483.78 247.36 1480.52 249.309 1477.25 251.239C1475.43 252.329 1473.62 253.42 1471.75 254.543C1465.24 257.31 1461.41 257.092 1454.53 255.83C1454.26 253.998 1453.99 252.166 1453.71 250.278C1450.83 249.767 1447.94 249.256 1444.97 248.73C1440.63 242.102 1440.63 242.102 1437.37 235.668C1439.21 235.398 1441.04 235.128 1442.93 234.85C1442.12 229.353 1441.3 223.857 1440.47 218.194C1441.79 220.807 1443.11 223.42 1444.47 226.112C1447.55 225.951 1450.63 225.79 1453.8 225.624C1463.9 226.008 1466.98 226.205 1473.87 233.124C1466.9 237.992 1460.4 238.131 1452.07 239.174C1453.77 237.988 1455.47 236.802 1457.21 235.58C1456.94 233.747 1456.67 231.915 1456.39 230.027C1453.65 230.433 1450.9 230.838 1448.07 231.255C1449.52 234.785 1450.98 238.314 1452.48 241.95C1462.03 241.015 1462.03 241.015 1471.91 239.085C1473.47 236.983 1475.03 234.881 1476.64 232.715C1479.39 232.31 1482.14 231.904 1484.97 231.487C1481.95 230.06 1478.93 228.633 1475.82 227.163C1480.37 219.94 1484.92 212.717 1489.61 205.275C1491.72 206.837 1493.82 208.399 1495.98 210.008C1496.96 207.524 1497.94 205.04 1498.95 202.48C1500.04 199.979 1501.14 197.478 1502.26 194.9Z" fill="#BCC7CD"/>
<path d="M1388.83 118.024C1386.22 119.345 1383.61 120.666 1380.92 122.027C1382.7 124.573 1382.7 124.573 1384.51 127.17C1382.47 128.436 1380.43 129.702 1378.33 131.007C1360.4 142.722 1346.26 153.812 1337.5 173.811C1337.35 175.873 1337.2 177.936 1337.04 180.061C1336.82 181.798 1336.59 183.535 1336.36 185.324C1333.75 186.645 1331.14 187.966 1328.45 189.328C1323.62 201.436 1325.31 213.216 1326.58 225.889C1326.26 232.196 1326.26 232.196 1318.75 238.976C1312.53 238.83 1312.53 238.83 1307.24 237.837C1311.55 235.329 1315.86 232.822 1320.3 230.239C1320.21 228.467 1320.12 226.696 1320.03 224.872C1319.78 219.831 1319.56 214.79 1319.35 209.748C1319.13 205.165 1318.84 200.583 1318.41 196.015C1316.97 177.328 1322.59 163.658 1333.8 149.062C1347.32 133.996 1366.99 113.859 1388.83 118.024Z" fill="#C0C9CD"/>
<path d="M1169.28 263.851C1175.62 263.624 1175.62 263.624 1180.79 264.99C1177.8 270.111 1174.81 275.232 1171.73 280.507C1179.7 277.46 1187.68 274.412 1195.89 271.272C1191.16 277.643 1191.16 277.643 1184.46 281.467C1177.59 284.604 1177.59 284.604 1176.14 291.202C1172 294.747 1167.77 298.189 1163.49 301.577C1161.31 303.734 1159.12 305.892 1156.87 308.115C1147.38 316.053 1138.6 320.209 1127.19 324.656C1125.36 325.417 1123.53 326.177 1121.64 326.96C1110.8 331.319 1100.67 334.047 1089.05 335.244C1089.7 333.277 1090.34 331.31 1091.01 329.283C1097.26 327.103 1103.61 325.208 1110 323.468C1121.95 321.249 1121.95 321.249 1131.41 314.816C1129.45 314.17 1127.48 313.524 1125.45 312.858C1125.18 311.026 1124.91 309.194 1124.63 307.306C1126.15 306.907 1127.68 306.507 1129.24 306.095C1137.81 301.587 1141.52 294.751 1147.16 286.967C1151.35 283.479 1155.57 280.018 1159.81 276.592C1161.39 274.253 1162.98 271.913 1164.61 269.502C1166.15 267.637 1167.69 265.772 1169.28 263.851Z" fill="#B8CBD6"/>
<path d="M1424.19 126.993C1430.63 127.076 1437.08 127.128 1443.53 127.154C1448.47 127.176 1448.47 127.176 1453.52 127.199C1456.02 127.207 1458.52 127.216 1461.09 127.224C1461.36 129.056 1461.63 130.889 1461.91 132.776C1457.55 133.112 1457.55 133.112 1453.1 133.454C1449.26 133.755 1445.42 134.055 1441.58 134.355C1438.71 134.575 1438.71 134.575 1435.78 134.8C1426.7 135.515 1417.78 136.446 1408.76 137.776C1411.78 139.203 1414.8 140.63 1417.91 142.1C1406.21 154.303 1396.45 158.69 1380.16 162.558C1378.14 163.074 1376.13 163.59 1374.06 164.121C1369.15 165.375 1364.22 166.573 1359.3 167.76C1362.53 155.423 1367.85 151.769 1378.64 145.054C1378.37 143.222 1378.1 141.39 1377.82 139.502C1391.09 125.455 1406.05 126.006 1424.19 126.993Z" fill="#F3F5F5"/>
<path d="M1346.01 212.266C1344.72 216.2 1343.43 220.135 1342.09 224.189C1339.35 224.594 1336.6 224.999 1333.77 225.416C1335.22 228.946 1336.68 232.475 1338.18 236.111C1330.28 245.916 1322.24 255.58 1314.11 265.188C1311.82 267.924 1309.53 270.66 1307.18 273.478C1294.65 281.642 1280.62 283.387 1265.78 283.659C1259.57 279.038 1256.43 275.02 1252.22 268.64C1254.13 269.237 1256.03 269.834 1257.99 270.449C1272.85 273.271 1289.32 274.176 1303.01 266.825C1303.65 264.858 1304.3 262.891 1304.96 260.864C1302.21 261.269 1299.47 261.674 1296.64 262.092C1296.36 260.259 1296.09 258.427 1295.82 256.539C1289.4 257.485 1282.99 258.43 1276.39 259.404C1276.25 258.488 1276.12 257.572 1275.98 256.628C1278.14 255.998 1280.31 255.368 1282.54 254.719C1305.08 248.48 1305.08 248.48 1323.89 235.381C1325.33 226.406 1325.33 226.406 1324.21 218.316C1326.96 217.911 1329.71 217.506 1332.54 217.088C1340.46 213.084 1340.46 213.084 1346.01 212.266Z" fill="#C9D2D7"/>
<path d="M1306.01 229.51C1305.5 232.393 1304.99 235.277 1304.46 238.247C1306.58 237.935 1308.7 237.623 1310.88 237.301C1316.14 236.525 1321.41 235.749 1326.67 234.973C1317.9 245.263 1307.63 250.343 1295.82 256.541C1296.09 258.373 1296.36 260.205 1296.63 262.093C1278.77 266.044 1267.44 264.484 1250.59 257.537C1255.92 269.274 1255.92 269.274 1264.96 278.108C1258.04 278.064 1258.04 278.064 1250.68 277.378C1245.16 269.487 1246.82 261.777 1246.99 252.394C1256.41 249.601 1256.41 249.601 1266.01 246.753C1266.28 248.585 1266.55 250.417 1266.83 252.305C1274.07 246.051 1274.07 246.051 1278.73 240.446C1286.73 233.32 1295.54 231.054 1306.01 229.51Z" fill="#D7E1E6"/>
<path d="M1316.53 185.413C1320.53 193.332 1320.53 193.332 1318.51 202.493C1314.66 211.216 1314.66 211.216 1309.54 214.984C1303.96 215.629 1303.96 215.629 1298.52 212.355C1297.16 211.092 1295.81 209.83 1294.41 208.529C1294.68 210.361 1294.95 212.193 1295.23 214.081C1293.74 214.849 1292.25 215.617 1290.71 216.409C1288.78 217.432 1286.85 218.455 1284.86 219.509C1282.94 220.517 1281.01 221.525 1279.03 222.563C1273.67 225.35 1273.67 225.35 1272.29 231.644C1276.87 230.969 1281.45 230.294 1286.17 229.598C1277.96 239.742 1269.75 242.122 1257.28 245.204C1254.77 240.894 1252.26 236.583 1249.68 232.142C1255.55 223.338 1259.52 218.047 1269.84 214.988C1269.43 212.24 1269.03 209.491 1268.61 206.66C1274.91 204.651 1281.25 202.774 1287.63 201.019C1288.68 201.8 1289.73 202.581 1290.82 203.386C1306.16 197.488 1306.16 197.488 1316.53 185.413Z" fill="#C6D4DE"/>
<path d="M1130.83 272.357C1133.44 271.036 1136.05 269.715 1138.74 268.354C1140.71 269 1142.68 269.646 1144.7 270.311C1135.46 288.078 1135.46 288.078 1125.11 292.522C1122.45 293.091 1119.78 293.659 1117.04 294.245C1115.54 294.937 1114.05 295.628 1112.52 296.341C1103.6 299.687 1094.43 300.823 1085.06 302.151C1083.15 302.444 1081.23 302.737 1079.27 303.038C1065.11 305.097 1065.11 305.097 1061.52 302.43C1056.76 302.472 1052 302.664 1047.24 302.941C1044.66 303.084 1042.07 303.228 1039.41 303.376C1036.41 303.559 1036.41 303.559 1033.36 303.747C1033.22 302.831 1033.09 301.915 1032.95 300.971C1038.76 299.561 1044.59 298.176 1050.41 296.8C1053.65 296.026 1056.9 295.252 1060.24 294.454C1068.62 292.874 1068.62 292.874 1074.58 294.832C1074.31 293 1074.04 291.168 1073.76 289.28C1075.73 288.884 1077.69 288.489 1079.71 288.081C1097.89 284.184 1097.89 284.184 1114.32 275.854C1122.09 270.809 1122.09 270.809 1130.83 272.357Z" fill="#95A1A5"/>
<path d="M1330.26 240.115C1332.23 240.761 1334.2 241.407 1336.22 242.073C1332.63 247.179 1329 252.258 1325.36 257.325C1323.34 260.156 1321.32 262.988 1319.24 265.905C1310.06 276.926 1302 283.713 1287.84 286.611C1284.2 286.885 1284.2 286.885 1280.48 287.165C1280.75 288.997 1281.02 290.829 1281.3 292.717C1269.4 297.56 1264.04 298.95 1251.65 294.784C1249.91 293.983 1248.18 293.182 1246.39 292.357C1239.06 289.188 1231.61 288.118 1223.74 287.022C1225.3 284.919 1226.86 282.817 1228.47 280.651C1224.4 278.443 1220.33 276.235 1216.14 273.96C1219.42 274.179 1219.42 274.179 1222.76 274.402C1230.57 274.929 1230.57 274.929 1238.75 273.462C1237.57 271.765 1236.38 270.068 1235.16 268.319C1242.65 270.523 1248.19 272.926 1254.89 277.11C1270.25 282.638 1283.17 280.424 1298.68 275.972C1312.21 266.966 1320.98 253.312 1330.26 240.115Z" fill="#6B7F90"/>
<path d="M1358.8 145.144C1357.07 154.93 1354.14 159.136 1347.79 166.622C1345.95 166.893 1344.12 167.163 1342.24 167.441C1341.17 177.588 1341.17 177.588 1343.91 187.226C1346.59 194.158 1344.82 197.67 1342 204.348C1343.49 203.31 1344.97 202.272 1346.5 201.203C1351.86 197.458 1357.22 193.714 1362.57 189.97C1359.19 207.82 1352.06 219 1340.55 232.927C1337.66 232.416 1334.78 231.905 1331.81 231.379C1332.32 228.495 1332.83 225.612 1333.36 222.641C1336.88 221.067 1340.44 219.593 1344.05 218.228C1344.7 216.261 1345.34 214.294 1346.01 212.267C1340 215.961 1334 219.654 1327.81 223.46C1322.25 208.824 1321.91 201.01 1328.04 186.553C1330.78 186.148 1333.53 185.742 1336.36 185.325C1336.08 182.969 1335.79 180.613 1335.49 178.186C1336.97 165.875 1344.98 147.181 1358.8 145.144Z" fill="#D7E1E6"/>
<path d="M1420.4 255.188C1422.77 256.276 1422.77 256.276 1425.19 257.385C1428.37 258.814 1428.37 258.814 1431.61 260.272C1433.69 261.216 1435.77 262.16 1437.91 263.132C1457.71 270.952 1475.09 269.864 1495.43 263.98C1505.74 257.886 1514.67 250.879 1523.51 242.822C1526.1 250.864 1526.1 250.864 1528.74 259.069C1525.64 261.922 1522.5 264.74 1519.36 267.544C1517.61 269.117 1515.87 270.69 1514.08 272.311C1508.58 276.223 1508.58 276.223 1497.48 277.86C1496.29 276.163 1495.11 274.466 1493.88 272.718C1487.61 274.579 1481.33 276.44 1474.86 278.358C1475 279.274 1475.13 280.191 1475.27 281.134C1470.69 281.81 1466.11 282.485 1461.4 283.181C1460.99 280.432 1460.59 277.684 1460.17 274.853C1459.52 276.82 1458.88 278.787 1458.21 280.814C1441.63 279.739 1432.05 272.766 1421.22 260.741C1420.95 258.908 1420.68 257.076 1420.4 255.188Z" fill="#6C869B"/>
<path d="M950.139 344.026C953.118 343.57 953.118 343.57 956.157 343.105C968.627 341.29 980.843 339.709 993.448 340.831C995.821 344.225 998.193 347.619 1000.64 351.117C978.654 354.358 956.671 357.599 934.021 360.939C933.751 359.106 933.481 357.274 933.203 355.387C931.371 355.657 929.539 355.927 927.651 356.205C927.921 358.037 928.192 359.869 928.47 361.757C920.024 361.599 920.024 361.599 911.407 361.437C911.136 359.604 910.866 357.772 910.588 355.885C908.621 355.239 906.654 354.593 904.627 353.927C919.751 349.455 934.534 346.24 950.139 344.026Z" fill="#627085"/>
<path d="M1027.4 301.789C1027.8 304.538 1028.21 307.286 1028.62 310.117C1009.39 312.954 990.153 315.79 970.335 318.712C970.875 322.376 971.415 326.04 971.972 329.816C966.611 331.542 961.25 333.269 955.727 335.047C955.457 333.215 955.187 331.383 954.909 329.495C947.446 329.66 939.983 329.824 932.294 329.993C932.94 328.026 933.586 326.059 934.251 324.032C940.663 323.087 947.075 322.141 953.681 321.167C953.41 319.335 953.14 317.503 952.862 315.615C976.474 301.473 1000.27 296.424 1027.4 301.789Z" fill="#829099"/>
<path d="M1367.26 260.189C1367.33 267.82 1366.71 270.992 1361.75 276.956C1356.65 281.318 1351.49 285.064 1345.96 288.857C1344.16 290.091 1342.37 291.324 1340.52 292.595C1317.42 307.84 1290.23 315.83 1262.42 312.52C1259.04 311.614 1259.04 311.614 1255.59 310.69C1255.32 308.858 1255.05 307.026 1254.77 305.138C1262.29 301.709 1268.82 299.99 1277.03 299.142C1312.64 295.006 1340.63 264.115 1367.26 260.189Z" fill="#6D8499"/>
<path d="M1254.73 208.706C1255.92 210.403 1257.1 212.1 1258.33 213.848C1261.72 211.476 1265.11 209.104 1268.61 206.659C1270.85 209.137 1273.08 211.616 1275.39 214.169C1268.09 220.763 1263.56 222.871 1254.41 225.771C1254.82 228.519 1255.22 231.268 1255.64 234.099C1256.18 237.764 1256.72 241.428 1257.28 245.203C1274.54 237.302 1274.54 237.302 1289.3 225.59C1296.05 219.632 1296.05 219.632 1302.74 219.354C1304.33 219.822 1305.92 220.289 1307.56 220.771C1309.15 225.217 1310.74 229.662 1312.38 234.242C1307.29 237.801 1307.29 237.801 1302.1 241.431C1303.39 237.497 1304.68 233.562 1306.01 229.509C1301.61 231.356 1297.22 233.253 1292.84 235.173C1289.18 236.75 1289.18 236.75 1285.44 238.359C1282.49 240.126 1282.49 240.126 1279.48 241.929C1278.97 244.813 1278.46 247.696 1277.94 250.667C1274.27 251.207 1270.61 251.747 1266.83 252.304C1266.56 250.471 1266.29 248.639 1266.01 246.752C1264.1 248.029 1262.18 249.306 1260.2 250.622C1252.4 254.636 1249.79 254.475 1241.44 253.211C1241.93 250.621 1241.93 250.621 1242.43 247.979C1244.61 236.145 1246.35 224.752 1246.81 212.709C1249.18 209.524 1249.18 209.524 1254.73 208.706Z" fill="#ACBDC7"/>
<path d="M1244.86 218.671C1249.72 228.284 1248.48 230.423 1245.4 240.396C1244.68 242.795 1243.95 245.194 1243.2 247.666C1242.62 249.496 1242.04 251.326 1241.44 253.211C1243.27 252.941 1245.1 252.671 1246.99 252.393C1247.94 258.805 1248.88 265.218 1249.86 271.825C1247.11 272.23 1244.36 272.635 1241.53 273.053C1239.05 275.29 1236.57 277.528 1234.02 279.833C1227.73 275.62 1227.73 275.62 1221.28 270.366C1220.88 267.617 1220.47 264.869 1220.05 262.037C1216.86 262.607 1216.86 262.607 1213.6 263.189C1210.82 263.649 1208.05 264.11 1205.19 264.584C1202.43 265.057 1199.67 265.53 1196.82 266.017C1189.52 266.539 1189.52 266.539 1183.15 261.806C1192.18 257.238 1199.6 256.266 1209.61 254.891C1214.52 254.205 1214.52 254.205 1219.54 253.505C1222.05 253.167 1224.56 252.829 1227.15 252.482C1228.44 248.547 1229.74 244.613 1231.07 240.559C1233.95 241.07 1236.83 241.581 1239.8 242.107C1239.76 239.423 1239.71 236.738 1239.67 233.973C1240.12 225.042 1240.12 225.042 1244.86 218.671Z" fill="#B8CFDD"/>
<path d="M1246.32 190.093C1246.59 191.925 1246.86 193.757 1247.13 195.645C1249.75 194.324 1252.36 193.002 1255.05 191.641C1257.15 193.203 1259.26 194.765 1261.42 196.375C1256.72 198.385 1256.72 198.385 1251.92 200.435C1237.47 208.318 1231.13 221.113 1224.7 235.826C1224.19 238.709 1223.68 241.593 1223.15 244.563C1214.77 244.863 1206.39 245.162 1197.76 245.47C1197.49 243.638 1197.22 241.806 1196.94 239.918C1190.67 241.78 1184.39 243.641 1177.92 245.559C1178.57 243.592 1179.21 241.625 1179.88 239.598C1184.4 238.325 1188.97 237.208 1193.55 236.164C1211.12 230.702 1217.29 220.796 1226.22 205.287C1231.84 195.809 1235.22 191.728 1246.32 190.093Z" fill="#C6D4DA"/>
<path d="M1323.94 158.791C1325.91 159.437 1327.88 160.083 1329.9 160.749C1314.9 194.023 1314.9 194.023 1307.47 200.93C1298.27 201.715 1290.74 200.668 1281.67 199.061C1267.9 199.636 1256.94 201.137 1245.36 208.847C1237.67 218.206 1232.96 227.205 1227.88 238.192C1226.7 236.494 1225.51 234.797 1224.29 233.049C1232.31 216.784 1238.82 204.259 1255.24 195.335C1273.12 189.953 1286.17 191.226 1303.87 195.787C1304.52 193.82 1305.17 191.852 1305.83 189.825C1302.56 189.079 1302.56 189.079 1299.23 188.317C1292.41 186.634 1285.85 184.692 1279.21 182.405C1278.94 180.572 1278.67 178.74 1278.39 176.853C1280.69 176.883 1282.99 176.914 1285.35 176.945C1302.14 177.362 1302.14 177.362 1316.98 171.03C1320.58 166.252 1320.58 166.252 1323.94 158.791Z" fill="#8898A2"/>
<path d="M1397.06 269.976C1398.36 270.849 1399.65 271.721 1400.99 272.62C1424.12 287.736 1444.56 295.823 1472.18 298.61C1469.57 299.931 1466.95 301.252 1464.26 302.613C1464.53 304.446 1464.8 306.278 1465.08 308.165C1460.59 308.58 1456.09 308.936 1451.59 309.267C1449.09 309.472 1446.59 309.677 1444.01 309.887C1435.88 309.423 1433.47 307.463 1427.36 302.382C1419.83 301.444 1419.83 301.444 1413.07 301.652C1411.62 298.122 1410.16 294.593 1408.66 290.957C1406.05 292.278 1403.43 293.599 1400.74 294.961C1393.23 289.376 1392.28 285.49 1389.55 276.756C1392.43 277.267 1395.32 277.778 1398.29 278.304C1397.88 275.556 1397.47 272.808 1397.06 269.976Z" fill="#586B7E"/>
<path d="M1433.33 131.317C1436.35 132.744 1439.37 134.171 1442.48 135.642C1442.75 137.474 1443.02 139.306 1443.3 141.194C1440.55 141.599 1437.8 142.004 1434.97 142.421C1435.24 144.254 1435.51 146.086 1435.79 147.974C1437.82 147.089 1439.86 146.204 1441.95 145.292C1449.26 143.151 1449.26 143.151 1458.4 147.476C1455.93 149.713 1453.45 151.95 1450.9 154.255C1448.76 158.783 1448.76 158.783 1446.57 163.402C1439.07 160.608 1439.07 160.608 1431.47 157.12C1431.2 155.288 1430.93 153.456 1430.65 151.568C1428.89 152.786 1427.12 154.003 1425.31 155.258C1416.01 159.963 1408.89 160.439 1398.52 160.913C1395.26 161.081 1391.99 161.249 1388.62 161.421C1386.14 161.517 1383.65 161.612 1381.09 161.711C1380.96 160.795 1380.82 159.879 1380.69 158.935C1384.08 158.142 1387.47 157.349 1390.97 156.532C1400.59 153.907 1406.09 150.988 1412.36 142.919C1411.17 141.222 1409.98 139.525 1408.76 137.777C1416.93 133.985 1424.33 131.945 1433.33 131.317Z" fill="#EAEAE8"/>
<path d="M1387.18 279.941C1389.96 286.084 1392.74 292.226 1395.6 298.555C1390.65 302.609 1385.69 306.646 1380.72 310.676C1377.96 312.925 1375.2 315.175 1372.36 317.493C1365.16 322.898 1365.16 322.898 1359.61 323.717C1359.06 320.052 1358.52 316.388 1357.97 312.613C1355.22 313.018 1352.47 313.423 1349.64 313.84C1351.74 301.991 1357.4 297.185 1365.8 288.767C1371.91 285.739 1371.91 285.739 1376.49 284.354C1378.86 281.169 1378.86 281.169 1387.18 279.941Z" fill="#354874"/>
<path d="M1178.17 233.999C1183.08 233.313 1183.08 233.313 1188.1 232.612C1190.61 232.275 1193.12 231.937 1195.71 231.589C1196.9 233.286 1198.09 234.983 1199.31 236.732C1196.21 237.54 1193.11 238.348 1189.92 239.18C1185.15 240.76 1185.15 240.76 1180.29 242.373C1179.64 244.34 1179 246.307 1178.33 248.334C1173.15 251.735 1173.15 251.735 1166.43 255.406C1157.46 260.417 1149.09 265.635 1140.84 271.767C1131.64 277.909 1131.64 277.909 1122.91 276.361C1125.52 275.04 1128.13 273.718 1130.82 272.357C1132.2 268.406 1133.5 264.428 1134.74 260.434C1138.56 255.141 1138.56 255.141 1142.98 250.179C1144.42 248.521 1145.87 246.863 1147.36 245.155C1156.42 236.317 1166.07 235.66 1178.17 233.999Z" fill="#D7DEDF"/>
<path d="M1375.49 239.119C1376.68 240.816 1377.86 242.513 1379.09 244.262C1376.37 252.53 1371.21 255.151 1364.48 260.597C1362.52 262.816 1360.57 265.035 1358.56 267.321C1351.62 274.38 1345.35 277.648 1336.4 281.755C1333.45 283.77 1333.45 283.77 1330.44 285.825C1320.17 290.93 1309.68 291.819 1298.36 293.037C1298.23 292.121 1298.09 291.205 1297.95 290.261C1303.31 288.535 1308.67 286.808 1314.2 285.029C1314.07 283.352 1313.94 281.675 1313.8 279.947C1315.34 273.516 1315.34 273.516 1322.23 267.359C1331.64 262.254 1334.78 262.938 1345.05 263.462C1355.34 257.566 1359.68 254.36 1364.8 243.532C1370.41 240.754 1370.41 240.754 1375.49 239.119Z" fill="#7090AB"/>
<path d="M1370.81 168.899C1380.89 167.414 1390.96 165.928 1401.34 164.397C1400.83 167.281 1400.32 170.164 1399.8 173.135C1407.77 170.087 1415.74 167.039 1423.96 163.899C1424.23 165.732 1424.5 167.564 1424.78 169.452C1420.33 171.043 1415.89 172.634 1411.31 174.274C1413.27 174.92 1415.24 175.566 1417.27 176.231C1416.76 179.115 1416.25 181.998 1415.72 184.969C1406.84 190.887 1406.84 190.887 1397.52 196.162C1394.97 197.941 1394.97 197.941 1392.38 199.756C1391.97 197.008 1391.57 194.26 1391.15 191.428C1384.72 188.537 1384.72 188.537 1377.27 193.474C1371.31 191.517 1371.31 191.517 1367.72 186.374C1371.11 184.002 1374.5 181.629 1378 179.185C1375.63 175.791 1373.26 172.396 1370.81 168.899Z" fill="#B4C3CD"/>
<path d="M1382.18 226.787C1384.37 231.417 1386.53 236.066 1388.67 240.722C1389.87 243.309 1391.07 245.895 1392.32 248.56C1394.97 255.995 1395.41 259.984 1393.87 267.609C1392.28 265.562 1390.69 263.515 1389.06 261.405C1384.16 254.608 1384.16 254.608 1377.54 252.999C1377.16 256.799 1376.79 260.598 1376.4 264.513C1380.2 264.889 1384 265.264 1387.91 265.652C1387.27 267.619 1386.62 269.586 1385.95 271.613C1385.04 271.748 1384.12 271.883 1383.18 272.022C1383.58 274.771 1383.99 277.519 1384.41 280.35C1379.55 285.854 1379.55 285.854 1374.53 290.316C1372.56 289.67 1370.6 289.024 1368.57 288.358C1370.13 286.256 1371.69 284.153 1373.3 281.987C1367.94 283.714 1362.58 285.44 1357.06 287.219C1359.25 279.896 1361.09 275.144 1365.71 268.926C1366.45 261.525 1366.45 261.525 1366.44 254.636C1369.96 253.18 1373.49 251.724 1377.13 250.223C1377.23 244.592 1377.34 238.96 1377.45 233.158C1373 234.749 1368.56 236.341 1363.98 237.98C1369.69 228.627 1370.35 228.531 1382.18 226.787Z" fill="#5A748D"/>
<path d="M1377.54 253C1387.6 254.783 1389.75 256.839 1396.24 264.424C1398.82 269.894 1398.82 269.894 1400.65 275.119C1401.97 277.733 1403.29 280.346 1404.65 283.038C1399.1 283.857 1399.1 283.857 1392.73 279.123C1393.5 280.861 1394.26 282.598 1395.05 284.388C1399.8 296.107 1402.72 303.663 1400.89 316.39C1396.51 323.949 1396.51 323.949 1389.41 327.478C1387.3 327.905 1385.2 328.332 1383.04 328.771C1383.14 323.14 1383.25 317.508 1383.36 311.706C1381.39 311.06 1379.42 310.414 1377.4 309.748C1389.35 299.476 1389.35 299.476 1395.6 298.555C1394.48 296.739 1393.36 294.922 1392.21 293.051C1390.78 290.68 1389.35 288.309 1387.88 285.866C1386.45 283.511 1385.01 281.155 1383.54 278.729C1380.4 272.432 1380.4 272.432 1382.36 266.471C1376.54 266.906 1376.54 266.906 1371.67 270.884C1373.62 264.922 1375.58 258.961 1377.54 253Z" fill="#6F8CAC"/>
<path d="M1142.52 313.179C1125.82 322.586 1110.13 327.939 1091.42 332.059C1107.7 328.254 1107.7 328.254 1124.31 324.372C1125.5 326.069 1126.69 327.767 1127.91 329.515C1129.87 330.161 1131.84 330.807 1133.87 331.473C1124.56 337.488 1117.13 340.298 1106.18 341.783C1103.46 342.164 1100.75 342.546 1097.95 342.939C1095.15 343.305 1092.35 343.671 1089.46 344.048C1086.61 344.443 1083.75 344.838 1080.81 345.245C1073.79 346.214 1066.77 347.156 1059.74 348.075C1059.61 347.158 1059.47 346.242 1059.34 345.299C1068.36 343.032 1077.38 340.765 1086.68 338.43C1073.91 337.505 1073.91 337.505 1060.88 336.561C1060.75 335.645 1060.61 334.729 1060.47 333.785C1062.13 333.298 1063.79 332.81 1065.5 332.308C1073.05 330.085 1080.61 327.855 1088.16 325.625C1092.08 324.475 1092.08 324.475 1096.07 323.302C1098.6 322.554 1101.13 321.806 1103.74 321.035C1106.06 320.352 1108.38 319.668 1110.77 318.964C1115.46 317.506 1120.11 315.897 1124.72 314.174C1131.41 311.901 1135.62 311.958 1142.52 313.179Z" fill="#CFDBE2"/>
<path d="M1456.27 113.754C1455.86 111.005 1455.46 108.257 1455.04 105.426C1457.92 105.936 1460.81 106.447 1463.78 106.974C1464.18 109.722 1464.59 112.47 1465 115.302C1454.45 123.209 1449.89 126.622 1436.46 126.07C1434.56 125.761 1432.67 125.451 1430.72 125.133C1416.23 123.219 1401.47 123.926 1386.88 123.985C1401.52 104.273 1435.43 107.943 1456.27 113.754Z" fill="#ACB9BF"/>
<path d="M1209.77 269.227C1207.56 270.732 1207.56 270.732 1205.3 272.268C1189.62 283.454 1177.77 294.636 1168.52 311.65C1162.77 321.175 1159.84 324.46 1149.35 328.613C1140.48 330.596 1131.8 332.128 1122.77 333.11C1123.28 330.227 1123.79 327.343 1124.31 324.373C1130.27 320.68 1130.27 320.68 1137.94 317.045C1151.16 310.34 1158.47 303.717 1167.82 292.431C1170.56 292.026 1173.31 291.621 1176.14 291.203C1176.65 288.32 1177.16 285.437 1177.69 282.466C1188.19 274.884 1196.72 269.954 1209.77 269.227Z" fill="#DEEAEF"/>
<path d="M1196.94 239.919C1197.21 241.751 1197.48 243.583 1197.76 245.471C1201.7 245.416 1201.7 245.416 1205.72 245.361C1214.82 245.791 1214.82 245.791 1223.97 250.116C1221.42 250.254 1218.87 250.392 1216.24 250.535C1196.69 251.767 1178.85 253.729 1160.13 259.528C1160.06 261.282 1159.99 263.036 1159.92 264.843C1158.54 273.994 1153.29 277.947 1146.75 284.192C1144.2 285.972 1144.2 285.972 1141.61 287.787C1140.07 288.89 1138.54 289.994 1136.96 291.131C1130.89 295.27 1124.64 298.943 1118.26 302.574C1121.42 298.327 1124.57 294.08 1127.73 289.833C1130.5 286.003 1130.5 286.003 1133.32 282.095C1149.98 260.233 1168.15 242.737 1196.94 239.919Z" fill="#728794"/>
<path d="M970.335 318.712C974.134 319.088 977.933 319.464 981.847 319.851C981.202 321.818 980.556 323.786 979.89 325.812C985.386 325.002 990.882 324.192 996.544 323.357C998.323 325.903 998.323 325.903 1000.14 328.5C1003.16 329.927 1006.17 331.354 1009.28 332.824C975.393 337.821 941.503 342.818 906.585 347.966C906.315 346.134 906.045 344.302 905.766 342.414C908.123 342.133 910.48 341.851 912.908 341.561C934.746 338.695 951.541 334.182 971.154 324.264C970.884 322.432 970.614 320.6 970.335 318.712Z" fill="#98B0BE"/>
<path d="M1023.89 316.487C1054.12 312.031 1084.35 307.574 1115.49 302.982C1117.47 306.902 1117.47 306.902 1119.49 310.901C1097.13 324.458 1072.6 323.76 1047.32 321.541C1047.19 320.625 1047.05 319.709 1046.92 318.765C1039.45 318.93 1031.99 319.094 1024.3 319.263C1024.17 318.347 1024.03 317.431 1023.89 316.487Z" fill="#849AAA"/>
<path d="M1290.34 197.783C1292.2 198.446 1294.05 199.108 1295.96 199.791C1293.41 201.571 1293.41 201.571 1290.82 203.386C1291.09 205.218 1291.36 207.05 1291.63 208.938C1287.05 209.613 1282.47 210.289 1277.76 210.984C1281.28 209.528 1284.81 208.072 1288.45 206.571C1288.18 204.739 1287.91 202.907 1287.63 201.019C1283.81 202.39 1280 203.784 1276.19 205.188C1274.07 205.961 1271.95 206.735 1269.76 207.532C1263.55 210.218 1258.57 213.383 1253.18 217.444C1253.69 214.56 1254.21 211.677 1254.73 208.706C1245.51 219.777 1241.31 227.725 1239.8 242.107C1235.36 243.699 1230.91 245.29 1226.34 246.93C1224.88 243.4 1223.42 239.871 1221.92 236.235C1223.75 235.965 1225.59 235.695 1227.47 235.416C1230.69 230.139 1230.69 230.139 1233.72 223.682C1246.22 200.216 1264.06 193.451 1290.34 197.783Z" fill="#A3BCCE"/>
<path d="M1377 133.95C1379.88 134.461 1382.77 134.972 1385.74 135.498C1383.83 146.255 1381.41 147.087 1372.75 153.191C1363.94 158.897 1363.94 158.897 1359.3 167.76C1361.26 168.406 1363.23 169.052 1365.26 169.718C1362.56 172.969 1359.84 176.202 1357.12 179.427C1354.85 182.131 1354.85 182.131 1352.54 184.889C1348.28 189.239 1348.28 189.239 1342.73 190.058C1340.05 183.894 1340.05 183.894 1337.91 176.587C1339.34 173.568 1340.76 170.55 1342.23 167.44C1344.07 167.17 1345.9 166.9 1347.79 166.621C1348.28 164.851 1348.78 163.081 1349.3 161.257C1354.4 147.321 1361.36 143.416 1374.63 137.135C1375.41 136.084 1376.2 135.033 1377 133.95Z" fill="#E5E9ED"/>
<path d="M1264.74 177.981C1268.34 177.378 1268.34 177.378 1272.02 176.762C1274.13 176.792 1276.23 176.822 1278.4 176.853C1280.63 179.331 1282.87 181.809 1285.17 184.363C1295.22 183.591 1295.22 183.591 1304.6 181.498C1303.04 183.6 1301.48 185.703 1299.87 187.869C1303.67 188.244 1307.47 188.62 1311.38 189.008C1308.12 192.296 1304.87 195.585 1301.51 198.973C1298.8 198.027 1296.08 197.082 1293.29 196.108C1278 191.946 1262.71 194.101 1247.13 195.644C1246.86 193.812 1246.59 191.98 1246.32 190.092C1244.35 189.446 1242.38 188.8 1240.36 188.135C1248.31 181.769 1254.7 179.507 1264.74 177.981Z" fill="#B8C7CE"/>
<path d="M1210.59 274.778C1204.79 280.018 1199.23 284.385 1192.8 288.747C1194.61 288.692 1196.43 288.636 1198.3 288.579C1221.24 288.535 1241.02 293.911 1262.69 301.134C1262.82 302.05 1262.96 302.966 1263.1 303.91C1251.13 304.688 1245.06 304.882 1234.09 299.5C1217.83 292.341 1197.04 297.229 1180.56 301.898C1175.7 306.516 1175.7 306.516 1173.46 311.454C1171.49 310.808 1169.52 310.162 1167.5 309.496C1178.71 290.216 1186.7 276.615 1210.59 274.778Z" fill="#576B7D"/>
<path d="M1409.67 196.851C1412.31 198.043 1412.31 198.043 1414.99 199.258C1414.85 201.278 1414.72 203.299 1414.58 205.38C1414.26 213.645 1414.57 221.661 1415.08 229.914C1415.33 234.028 1415.33 234.028 1415.59 238.226C1415.72 240.294 1415.85 242.363 1415.99 244.493C1414.53 240.964 1413.08 237.435 1411.58 233.798C1403.13 233.64 1403.13 233.64 1394.51 233.478C1394.67 231.349 1394.82 229.22 1394.98 227.027C1395.5 218.612 1395.5 218.612 1393.6 208.084C1393.33 206.252 1393.06 204.42 1392.79 202.532C1401.44 194.972 1401.44 194.972 1409.67 196.851Z" fill="#809BB2"/>
<path d="M1208.27 249.05C1215.15 248.572 1219.78 247.165 1225.93 244.153C1226.33 246.901 1226.74 249.65 1227.15 252.481C1224.83 252.995 1222.51 253.51 1220.12 254.04C1190.16 259.975 1190.16 259.975 1161.77 270.631C1159.23 276.679 1159.23 276.679 1157.85 282.554C1154.97 282.043 1152.09 281.532 1149.12 281.006C1151.41 278.123 1151.41 278.123 1153.75 275.181C1159.18 268.437 1159.18 268.437 1160.13 259.527C1174.66 250.131 1191.45 249.22 1208.27 249.05Z" fill="#99B2C2"/>
<path d="M1317.75 193.741C1322.27 202.67 1321.97 206.642 1321.28 216.444C1321.11 219.025 1320.93 221.606 1320.76 224.265C1320.61 226.237 1320.45 228.208 1320.3 230.239C1317.69 231.56 1315.07 232.881 1312.38 234.242C1309.87 229.932 1307.37 225.622 1304.78 221.181C1298.97 223.473 1294.09 225.593 1288.95 229.188C1283.41 230.118 1277.86 230.946 1272.29 231.644C1273.84 222.906 1273.84 222.906 1279.95 218.638C1286.9 215.308 1286.9 215.308 1295.23 214.08C1294.96 212.248 1294.69 210.416 1294.41 208.528C1297.11 209.621 1297.11 209.621 1299.87 210.736C1306.77 213.324 1306.77 213.324 1314.25 208.44C1316.61 200.988 1316.61 200.988 1317.75 193.741Z" fill="#D5DEE7"/>
<path d="M1507.17 228.213C1507.58 230.961 1507.99 233.709 1508.4 236.541C1502.46 240.266 1496.51 243.978 1490.55 247.683C1488.86 248.743 1487.17 249.804 1485.43 250.897C1472.63 258.834 1472.63 258.834 1466.45 259.745C1466.72 261.577 1466.99 263.409 1467.27 265.297C1463.6 265.837 1459.94 266.378 1456.16 266.934C1455.76 264.186 1455.35 261.438 1454.94 258.606C1453.37 260.708 1451.81 262.811 1450.2 264.977C1447.66 266.756 1447.66 266.756 1445.06 268.571C1439.94 265.582 1434.82 262.593 1429.55 259.513C1437.52 256.466 1445.49 253.418 1453.71 250.278C1453.98 252.11 1454.25 253.942 1454.53 255.83C1471.86 252.055 1496.36 242.774 1507.17 228.213Z" fill="#A2B1BA"/>
<path d="M1250.59 257.535C1252.83 258.082 1255.08 258.628 1257.39 259.191C1268.85 261.875 1278.33 262.576 1290.04 261.823C1292.83 261.649 1295.62 261.475 1298.5 261.295C1301.7 261.082 1301.7 261.082 1304.96 260.863C1304.45 263.747 1303.94 266.63 1303.41 269.601C1277.78 278.366 1277.78 278.366 1264.1 273.447C1255 268.23 1255 268.23 1251.48 262.368C1251.18 260.773 1250.89 259.178 1250.59 257.535Z" fill="#F1F6F7"/>
<path d="M1140.79 282.234C1143.67 282.745 1146.56 283.256 1149.53 283.782C1145.38 295.98 1140.96 301.723 1130.6 309.265C1128.65 311.131 1126.7 312.998 1124.69 314.921C1116.1 320.931 1108.84 321.597 1098.52 322.504C1103.77 315.426 1108.66 312.709 1116.31 308.535C1114.99 305.922 1113.67 303.308 1112.3 300.616C1114.78 299.958 1117.26 299.301 1119.81 298.623C1129.73 294.948 1134.59 290.583 1140.79 282.234Z" fill="#9DB5C7"/>
<path d="M1379.95 173.224C1381.14 174.921 1382.33 176.618 1383.55 178.367C1380.29 181.655 1377.03 184.944 1373.67 188.332C1376.42 187.927 1379.17 187.522 1382 187.104C1384.75 186.699 1387.5 186.294 1390.33 185.876C1391.21 191.862 1390.7 196.954 1390.01 202.942C1388.24 202.966 1386.46 202.989 1384.64 203.014C1382.33 203.066 1380.02 203.117 1377.63 203.171C1374.19 203.235 1374.19 203.235 1370.67 203.3C1364.41 203.363 1364.41 203.363 1359.48 207.444C1359.04 195.272 1361.8 189.613 1369.67 180.413C1368.48 178.716 1367.3 177.019 1366.08 175.27C1371.22 171.676 1371.22 171.676 1379.95 173.224ZM1390.74 188.652C1396.7 190.61 1396.7 190.61 1396.7 190.61L1390.74 188.652Z" fill="#D1DDE6"/>
<path d="M1199.62 261.682C1203.01 261.142 1206.4 260.602 1209.89 260.046C1219.16 259.3 1225.54 260.018 1234.34 262.767C1225.51 270.247 1218.07 271.276 1206.71 272.514C1191.82 274.436 1180.06 277.586 1166.59 284.103C1176.11 267.044 1180.33 264.63 1199.62 261.682Z" fill="#D4E5ED"/>
<path d="M1376.08 281.578C1373.8 283.552 1371.51 285.527 1369.16 287.561C1362.26 294.019 1356.92 300.128 1351.6 307.879C1349.36 305.401 1347.12 302.922 1344.82 300.369C1342.69 301.501 1340.57 302.634 1338.38 303.801C1334.16 306.002 1334.16 306.002 1329.85 308.249C1325.68 310.443 1325.68 310.443 1321.43 312.681C1313.72 316.127 1307.62 317.701 1299.27 318.431C1307.44 312.348 1315.92 307.913 1325.07 303.459C1336.31 297.859 1346.55 291.967 1356.65 284.443C1364.92 280.261 1367.34 280.216 1376.08 281.578Z" fill="#243353"/>
<path d="M1019.16 322.858C1020.35 324.556 1021.53 326.253 1022.75 328.001C1026.2 327.428 1029.64 326.854 1033.19 326.263C1057.98 322.281 1081.66 318.744 1106.84 321.276C1106.98 322.192 1107.11 323.108 1107.25 324.052C1088.05 329.004 1069.04 332.913 1049.37 335.422C1051.98 334.101 1054.6 332.78 1057.29 331.418C1057.02 329.586 1056.75 327.754 1056.47 325.866C1044.56 327.622 1032.66 329.378 1020.39 331.187C1019.98 328.438 1019.58 325.69 1019.16 322.858Z" fill="#B1C6D2"/>
<path d="M1427.55 169.043C1427.96 171.791 1428.36 174.539 1428.78 177.371C1434.55 178.393 1440.31 179.415 1446.25 180.467C1446.39 181.384 1446.52 182.3 1446.66 183.244C1444.29 183.666 1441.92 184.088 1439.48 184.524C1420.01 188.389 1407.99 192.218 1393.2 205.309C1390.31 204.798 1387.43 204.287 1384.46 203.761C1388.11 200.909 1391.77 198.067 1395.43 195.229C1397.47 193.645 1399.5 192.062 1401.6 190.43C1407.39 186.197 1407.39 186.197 1415.31 182.193C1415.96 180.226 1416.6 178.259 1417.27 176.232C1412.69 176.907 1408.11 177.582 1403.39 178.278C1411.99 170.515 1416.34 170.191 1427.55 169.043Z" fill="#5B778B"/>
<path d="M74.3702 149.576C65.5137 153.833 65.5137 153.833 58.7347 158.425C62.1263 166.476 65.518 174.526 69.0124 182.82C70.2212 181.139 71.4299 179.458 72.6753 177.726C76.951 180.291 81.2267 182.856 85.632 185.498C82.8898 185.056 80.1475 184.614 77.3222 184.159C77.7943 187.049 78.2663 189.939 78.7527 192.916C80.2971 193.517 81.8415 194.118 83.4326 194.737C90.2413 197.261 90.2413 197.261 95.0214 205.486C101.341 214.012 104.224 216.363 114.406 218.558C117.296 218.086 120.185 217.614 123.162 217.127C130.294 219.396 130.294 219.396 136.566 222.13C134.094 212.892 130.529 205.972 125.18 198.067C123.673 195.835 122.166 193.603 120.614 191.303C119.038 189.001 117.462 186.699 115.838 184.327C114.276 182.005 112.714 179.683 111.105 177.291C92.7898 150.32 92.7898 150.32 74.3702 149.576Z" fill="#8AA5B9"/>
<path d="M25.2233 101.864C24.9286 103.692 24.6339 105.52 24.3303 107.404C21.3206 107.974 21.3206 107.974 18.25 108.556C8.08333 111.087 -1.41051 114.761 -11.0683 118.753C-12.8821 119.472 -14.6959 120.191 -16.5647 120.931C-21.1172 122.802 -25.5673 124.918 -29.9931 127.072C-30.2877 128.9 -30.5824 130.729 -30.886 132.612C-25.1069 131.668 -19.3278 130.723 -13.3735 129.75C-13.9629 133.407 -14.5522 137.064 -15.1594 140.831C-4.07976 142.617 -4.07976 142.617 1.92309 138.433C5.32015 135.903 5.32015 135.903 8.78584 133.322C11.8633 132.411 14.9408 131.5 18.1116 130.561C27.182 127.544 29.6589 125.736 34.0706 117.501C41.2358 119.594 48.4011 121.686 55.7835 123.842C56.0781 122.014 56.3728 120.186 56.6764 118.302C65.9645 118.861 75.2526 119.42 84.8221 119.996C84.509 121.938 84.1959 123.881 83.8733 125.883C85.9038 137.373 91.8881 142.06 100.144 149.944C105.153 154.524 105.153 154.524 109.487 160.92C112.229 161.362 114.971 161.804 117.797 162.259C115.873 150.821 112.517 143.48 105.626 134.185C104.048 132.014 102.471 129.844 100.846 127.608C89.365 114.079 78.8501 112.69 61.8524 110.432C48.8352 108.632 37.5875 103.856 25.2233 101.864Z" fill="#92A0A7"/>
<path d="M323.491 243.729C336.089 257.515 348.226 259.705 366.039 263.443C374.043 265.381 374.043 265.381 378.332 271.131C386.475 278.863 396.217 278.973 406.943 280.272C420.103 282 431.681 283.931 444.119 288.75C450.943 287.185 450.943 287.185 456.092 284.995C456.386 283.167 456.681 281.338 456.985 279.455C458.616 280.245 460.247 281.036 461.927 281.85C467.618 284.011 467.618 284.011 473.604 282.133C472.365 278.182 471.127 274.23 469.85 270.159C466.678 269.681 463.506 269.202 460.237 268.71C456.103 268.07 451.97 267.43 447.836 266.789C445.742 266.475 443.647 266.161 441.49 265.838C436.153 265.003 430.839 264.02 425.531 263.016C424.765 261.955 423.998 260.893 423.208 259.8C418.18 258.709 413.111 257.804 408.029 256.998C405.26 256.544 402.49 256.091 399.636 255.623C392.739 254.889 392.739 254.889 389.522 257.213C382.792 256.491 376.206 255.593 369.53 254.524C365.885 253.977 362.24 253.43 358.485 252.866C345.578 249.981 336.515 241.6 323.491 243.729Z" fill="#B3C6D2"/>
<path d="M1.45152 55.3976C1.0095 58.1402 0.56749 60.8828 0.112082 63.7085C3.34442 63.2915 6.57676 62.8745 9.90704 62.4448C28.3763 60.8593 47.2771 63.6099 64.2667 71.2057C58.357 75.4756 50.3208 73.6311 43.2919 73.5098C25.0412 73.2183 25.0412 73.2183 16.3201 73.6928C7.97664 73.8376 1.53462 71.033 -6.32072 68.3562C-12.7484 68.5638 -12.7484 68.5638 -17.8469 69.3409C-19.675 69.0462 -21.5032 68.7516 -23.3867 68.4481C-23.1543 71.0062 -22.9218 73.5644 -22.6823 76.2002C-23.4027 87.1416 -26.1757 90.4934 -33.8378 98.0286C-27.8515 96.1511 -21.8652 94.2736 -15.8789 92.3962C-17.692 94.9178 -17.692 94.9178 -19.5417 97.4903C-9.29691 99.7308 -3.55966 99.0536 6.2805 95.9675C13.7429 96.6941 13.7429 96.6941 20.1301 98.1996C20.4248 96.3712 20.7195 94.5428 21.0231 92.659C18.2808 92.217 15.5386 91.7751 12.7133 91.3197C13.008 89.4913 13.3027 87.6629 13.6063 85.7791C17.4099 85.4542 21.2135 85.1292 25.1324 84.7945C9.8292 83.735 9.8292 83.735 -5.78319 82.6542C1.91846 81.3955 9.16904 80.7876 16.9508 80.456C20.5718 80.2866 20.5718 80.2866 24.266 80.1139C31.561 80.1467 38.2571 81.0269 45.4148 82.3788C45.7095 80.5504 46.0042 78.722 46.3078 76.8382C51.6105 78.4934 56.9028 80.1819 62.1904 81.8849C65.1386 82.8217 68.0868 83.7585 71.1244 84.7237C79.0904 87.1313 79.0904 87.1313 83.3008 94.1692C90.516 95.6873 90.516 95.6873 97.1504 96.4013C91.8497 87.8039 86.0425 83.7702 77.2234 78.9784C78.4321 77.2974 79.6409 75.6163 80.8863 73.8842C52.6747 54.7295 35.1701 48.1703 1.45152 55.3976Z" fill="#D2DBDE"/>
<path d="M-33.7467 115.098C-49.5812 126.148 -49.5812 126.148 -51.5118 135.439C-51.8423 137.694 -52.1728 139.949 -52.5132 142.273C-52.8531 144.541 -53.193 146.809 -53.5432 149.146C-53.7908 150.886 -54.0384 152.627 -54.2934 154.421C-52.1706 152.887 -50.0478 151.353 -47.8606 149.773C-44.941 154.933 -42.0214 160.093 -39.0134 165.41C-37.8046 163.729 -36.5959 162.048 -35.3505 160.316C-32.4309 165.476 -29.5113 170.636 -26.5032 175.953C-27.7119 177.634 -28.9207 179.315 -30.1661 181.047C-27.7185 183.318 -25.271 185.588 -22.7493 187.927C-22.8966 188.841 -23.0439 189.756 -23.1957 190.697C-19.1949 191.572 -15.1804 192.385 -11.161 193.17C-8.9271 193.629 -6.69316 194.088 -4.39153 194.561C-2.37025 194.612 -0.348974 194.663 1.73356 194.715C4.00372 192.267 6.27388 189.819 8.61283 187.297C7.99343 185.321 7.37404 183.346 6.73587 181.31C3.99365 180.868 1.25143 180.426 -1.57389 179.971C-1.86857 181.799 -2.16325 183.628 -2.46685 185.511C-6.12315 184.922 -9.77944 184.333 -13.5465 183.726C-11.4237 182.192 -9.30089 180.658 -7.11374 179.078C-8.65642 177.012 -10.1991 174.946 -11.7885 172.818C-17.3396 160.343 -15.5614 151.407 -11.9427 138.508C-10.5866 135.913 -9.23055 133.317 -7.83337 130.644C-12.3738 127.958 -12.3738 127.958 -18.4666 126.088C-25.3407 129.065 -25.3407 129.065 -30.8857 132.613C-29.5296 130.018 -28.1735 127.422 -26.7763 124.748C-29.5186 124.306 -32.2608 123.864 -35.0861 123.409C-34.6441 120.666 -34.2021 117.924 -33.7467 115.098Z" fill="#CDD9DF"/>
<path d="M65.7065 168.076C62.817 168.548 59.9274 169.02 56.9503 169.507C58.0418 174.373 59.1332 179.238 60.2578 184.251C56.7488 182.748 53.2398 181.244 49.6245 179.695C49.3299 181.524 49.0352 183.352 48.7316 185.236C44.928 185.561 41.1243 185.886 37.2054 186.221C36.6943 188.71 36.6943 188.71 36.1728 191.25C33.0026 205.575 33.0026 205.575 23.7891 216.567C21.7307 217.701 19.6723 218.834 17.5516 220.003C16.3428 221.684 15.1341 223.365 13.8887 225.097C6.65772 227.476 6.65772 227.476 -0.853842 228.405C-2.53465 227.196 -4.21546 225.988 -5.94721 224.742C-6.38922 227.485 -6.83123 230.227 -7.28664 233.053C-4.19243 233.493 -1.09822 233.933 2.08975 234.387C11.7557 235.372 11.7557 235.372 17.1962 239.841C33.3658 232.616 44.8903 225.218 55.8899 211.215C59.5335 206.386 59.5335 206.386 65.8886 202.212C70.4297 191.481 72.5521 185.793 69.1137 174.487C67.9893 172.372 66.865 170.256 65.7065 168.076Z" fill="#7E9CB3"/>
<path d="M255.136 227.028C240.677 223.465 240.677 223.465 232.977 223.457C227.672 228.819 227.672 228.819 222.435 235.969C206.068 247.199 192.139 248.14 172.667 245.002C172.962 243.173 173.256 241.345 173.56 239.461C168.769 237.546 168.769 237.546 163.882 235.592C153.899 231.345 145.594 226.056 137.013 219.36C135.2 221.882 135.2 221.882 133.351 224.454C135.651 227.639 137.951 230.823 140.321 234.104C137.431 234.577 134.542 235.049 131.565 235.535C134.16 236.891 136.754 238.248 139.428 239.645C129.869 236.914 123.111 234.093 114.978 228.243C112.667 226.581 110.356 224.919 107.975 223.207C105.999 223.826 104.024 224.446 101.989 225.084C119.144 242.452 137.13 248.913 160.946 252.706C163.274 253.078 165.601 253.451 167.999 253.835C185.862 256.365 200.317 255.447 217.432 249.374C234.628 244.252 248.665 244.085 266.307 245.882C261.539 240.834 257.12 236.184 251.473 232.122C252.682 230.441 253.891 228.76 255.136 227.028Z" fill="#7E97AE"/>
<path d="M59.9004 204.09C54.0234 209.624 48.7569 215.107 43.6179 221.361C34.1412 230.506 27.5152 233.167 14.8708 236.624C12.2759 235.268 9.68103 233.912 7.00751 232.515C3.1749 231.708 -0.68715 231.032 -4.56363 230.472C-9.8048 229.715 -9.8048 229.715 -15.1519 228.943C-15.0045 228.029 -14.8572 227.115 -14.7054 226.173C-24.6129 223.638 -34.5203 221.104 -44.728 218.492C-44.256 221.382 -43.7839 224.272 -43.2975 227.25C-45.1257 226.955 -46.9538 226.66 -48.8374 226.357C-49.1321 228.185 -49.4267 230.013 -49.7303 231.897C-51.1368 230.85 -52.5432 229.803 -53.9923 228.723C-55.8332 227.372 -57.6741 226.02 -59.5708 224.627C-61.3975 223.277 -63.2241 221.928 -65.1061 220.537C-70.1038 217.245 -70.1038 217.245 -75.6436 216.352C-75.3189 220.156 -74.9942 223.96 -74.6596 227.88C-76.4878 227.585 -78.3159 227.29 -80.1995 226.987C-79.4914 231.322 -79.4914 231.322 -78.769 235.744C-76.0268 236.186 -73.2845 236.628 -70.4592 237.083C-72.7144 242.348 -72.7144 242.348 -75.0151 247.718C-73.0396 247.099 -71.0641 246.479 -69.0287 245.841C-68.7341 244.012 -68.4394 242.184 -68.1358 240.3C-55.0269 236.055 -45.0516 238.352 -32.1496 241.836C-3.76651 248.733 12.7228 249.015 38.1845 233.998C40.2211 232.681 42.2576 231.364 44.3559 230.007C46.1433 228.896 47.9306 227.784 49.7721 226.639C56.7448 220.703 57.6681 212.694 59.9004 204.09Z" fill="#88A2B8"/>
<path d="M35.4802 137.346C31.6143 136.742 27.7462 136.152 23.8762 135.576C21.905 135.271 19.9338 134.966 17.9029 134.652C13.0195 133.898 8.13349 133.162 3.24704 132.429C0.829539 135.791 -1.58796 139.153 -4.07872 142.617C-7.73501 142.028 -11.3913 141.438 -15.1584 140.831C-19.4782 161.124 -19.4782 161.124 -15.6915 170.589C-14.5414 172.181 -13.3913 173.774 -12.2064 175.414C-4.74645 175.679 2.71348 175.943 10.3995 176.215C10.5168 169.669 10.6341 163.122 10.7549 156.377C17.0061 158.322 23.2573 160.268 29.6979 162.272C29.0785 160.296 28.4591 158.321 27.8209 156.285C21.4224 155.254 15.0239 154.223 8.43145 153.16C7.81205 151.184 7.19266 149.209 6.55449 147.173C10.949 148.206 15.3351 149.276 19.7173 150.36C22.1607 150.952 24.604 151.544 27.1214 152.153C34.5427 154.146 34.5427 154.146 41.224 161.287C44.2392 154.694 45.949 149.603 47.1193 142.342C44.7959 139.125 44.7959 139.125 35.4802 137.346Z" fill="#8AA5B8"/>
<path d="M6.55215 147.173C7.02421 150.063 7.49627 152.953 7.98263 155.93C8.89671 156.078 9.81078 156.225 10.7526 156.377C10.1632 160.033 9.57385 163.69 8.96664 167.458C10.7948 167.752 12.6229 168.047 14.5065 168.351C13.6225 173.836 12.7384 179.321 11.8276 184.972C13.6558 185.267 15.4839 185.562 17.3675 185.865C14.7859 188.791 14.7859 188.791 12.1522 191.775C6.8253 198.378 6.8253 198.378 5.93234 203.918C16.6802 207.057 16.6802 207.057 27.6452 210.26C39.4287 197.553 42.202 181.399 43.5451 164.504C37.6184 147.908 22.0596 148.591 6.55215 147.173Z" fill="#D1DADE"/>
<path d="M249.138 247.323C230.53 244.797 215.828 249.66 199.026 257.777C198.731 259.605 198.436 261.434 198.133 263.318C165.97 265.029 136.026 257.279 110.567 237.558C106.188 234.288 106.188 234.288 98.3246 230.178C100.032 240.633 103.753 243.018 111.752 249.496C126.76 259.255 141.488 263.736 158.914 266.412C162.027 266.902 162.027 266.902 165.202 267.402C180.749 269.607 193.965 269.06 209.212 265.103C228.516 261.501 250.298 262.523 268.504 270.607C273.367 272.601 273.367 272.601 282.123 271.169C276.59 251.69 268.408 250.62 249.138 247.323Z" fill="#9DB0C3"/>
<path d="M644.445 315.351C630.2 312.764 616.113 310.72 601.655 309.831C580.647 308.286 559.897 305.214 539.077 302.111C534.954 301.505 530.832 300.901 526.709 300.297C515.974 298.722 505.242 297.133 494.511 295.542C483.513 293.913 472.513 292.298 461.513 290.682C440.017 287.521 418.522 284.346 397.03 281.161C396.735 282.989 396.44 284.818 396.137 286.701C407.434 292.606 419.587 294.429 431.97 297.04C440.604 298.909 447.863 300.719 455.735 304.834C457.77 300.941 457.77 300.941 459.845 296.969C462.234 297.383 462.234 297.383 464.672 297.804C481.497 300.707 498.332 303.547 515.173 306.354C521.428 307.405 527.68 308.47 533.929 309.552C571.025 315.962 606.341 320.636 643.999 318.122C644.146 317.207 644.294 316.293 644.445 315.351Z" fill="#B9CBD9"/>
<path d="M-46.9677 144.232C-47.8818 144.085 -48.7959 143.938 -49.7377 143.786C-51.0637 152.014 -52.3898 160.241 -53.756 168.718C-51.9278 169.013 -50.0997 169.308 -48.2161 169.611C-48.5108 171.44 -48.8055 173.268 -49.1091 175.152C-46.3669 175.594 -43.6246 176.036 -40.7993 176.491C-40.3273 179.381 -39.8552 182.271 -39.3688 185.249C-36.6266 185.69 -33.8844 186.132 -31.0591 186.588C-31.5011 189.33 -31.9431 192.073 -32.3985 194.899C-29.1908 196.935 -25.9553 198.927 -22.7089 200.901C-20.9103 202.016 -19.1117 203.13 -17.2585 204.278C-10.7822 207.132 -6.94672 206.966 -0.0524216 205.796C0.242254 203.968 0.53693 202.139 0.840535 200.256C3.7301 199.783 6.61965 199.311 9.59678 198.825C14.0302 192.256 14.0302 192.256 17.369 185.866C15.5409 185.571 13.7127 185.277 11.8292 184.973C12.7132 179.488 13.5972 174.003 14.508 168.351C13.152 170.947 11.7959 173.542 10.3987 176.216C7.32477 176.013 4.25086 175.811 1.0838 175.603C-9.02523 175.851 -12.1105 176.006 -19.0864 182.833C-12.188 187.794 -5.68649 188.019 2.62645 189.174C0.945639 187.966 -0.735172 186.757 -2.46691 185.511C-2.17224 183.683 -1.87756 181.855 -1.57396 179.971C1.16826 180.413 3.91049 180.855 6.73581 181.31C5.23238 184.819 3.72895 188.329 2.17997 191.945C-7.35809 190.882 -7.35809 190.882 -17.2095 188.82C-18.7429 186.697 -20.2764 184.574 -21.8564 182.386C-24.5986 181.944 -27.3408 181.502 -30.1661 181.047C-27.1292 179.661 -24.0923 178.274 -20.9634 176.846C-25.4165 169.562 -29.8696 162.279 -34.4576 154.775C-36.5804 156.309 -38.7032 157.843 -40.8904 159.423C-41.836 156.926 -42.7816 154.428 -43.7559 151.855C-44.8158 149.34 -45.8757 146.824 -46.9677 144.232Z" fill="#BCC7CD"/>
<path d="M67.4825 68.8823C70.0774 70.2385 72.6723 71.5946 75.3458 72.9919C73.5327 75.5135 73.5327 75.5135 71.6829 78.0861C73.7055 79.3793 75.728 80.6725 77.8119 82.0049C95.5859 93.9597 109.578 105.238 118.061 125.352C118.186 127.417 118.311 129.481 118.44 131.609C118.64 133.348 118.839 135.088 119.045 136.88C121.64 138.236 124.235 139.592 126.908 140.989C131.576 153.161 129.724 164.918 128.283 177.572C128.521 183.883 128.521 183.883 135.937 190.763C142.164 190.701 142.164 190.701 147.464 189.778C143.188 187.213 138.912 184.649 134.507 182.006C134.62 180.236 134.733 178.466 134.849 176.643C135.163 171.607 135.456 166.569 135.731 161.53C136.012 156.95 136.362 152.373 136.854 147.811C138.542 129.144 133.111 115.401 122.097 100.655C108.776 85.4101 89.3783 65.0112 67.4825 68.8823Z" fill="#C0C9CD"/>
<path d="M285.067 217.639C278.723 217.328 278.723 217.328 273.54 218.624C276.46 223.784 279.38 228.945 282.388 234.261C274.456 231.107 266.524 227.953 258.351 224.703C262.998 231.136 262.998 231.136 269.65 235.051C276.478 238.279 276.478 238.279 277.832 244.896C281.928 248.496 286.115 251.994 290.342 255.439C292.499 257.626 294.656 259.813 296.878 262.066C306.259 270.13 314.986 274.403 326.33 279.003C328.153 279.788 329.975 280.573 331.853 281.381C342.632 285.885 352.729 288.749 364.328 290.101C363.709 288.125 363.089 286.15 362.451 284.114C356.228 281.851 349.901 279.871 343.536 278.046C331.621 275.666 331.621 275.666 322.242 269.107C324.217 268.487 326.193 267.868 328.228 267.23C328.523 265.401 328.817 263.573 329.121 261.689C327.606 261.269 326.091 260.849 324.53 260.416C316.023 255.793 312.404 248.908 306.871 241.049C302.726 237.505 298.557 233.989 294.36 230.506C292.807 228.146 291.253 225.785 289.652 223.352C288.139 221.467 286.626 219.582 285.067 217.639Z" fill="#B8CBD6"/>
<path d="M32.0115 77.3774C25.5632 77.3741 19.1149 77.3403 12.667 77.2797C7.72305 77.2358 7.72305 77.2358 2.67924 77.191C0.181235 77.1658 -2.31677 77.1406 -4.89047 77.1146C-5.18514 78.943 -5.47982 80.7714 -5.78342 82.6552C-1.42893 83.0493 -1.42893 83.0493 3.01353 83.4513C6.84962 83.8029 10.6857 84.1546 14.5217 84.5066C17.387 84.765 17.387 84.765 20.3101 85.0287C29.3855 85.8653 38.2875 86.9157 47.2916 88.3669C44.2547 89.7533 41.2178 91.1398 38.0888 92.5682C49.6244 104.926 59.3181 109.444 75.5624 113.53C77.5667 114.072 79.571 114.615 81.636 115.175C86.5294 116.494 91.4375 117.758 96.3482 119.011C93.2852 106.632 88.0155 102.906 77.3142 96.0477C77.6089 94.2193 77.9036 92.3909 78.2072 90.5071C65.1248 76.2836 50.159 76.6337 32.0115 77.3774Z" fill="#F3F5F5"/>
<path d="M109.04 163.691C110.278 167.642 111.517 171.594 112.794 175.665C115.536 176.107 118.278 176.549 121.103 177.004C119.6 180.514 118.097 184.023 116.548 187.639C124.311 197.549 132.224 207.32 140.228 217.036C142.479 219.802 144.729 222.568 147.048 225.418C159.463 233.749 173.466 235.681 188.301 236.152C194.58 231.616 197.768 227.639 202.06 221.316C200.151 221.888 198.241 222.46 196.274 223.049C181.373 225.671 164.894 226.355 151.308 218.821C150.689 216.846 150.069 214.87 149.431 212.834C152.173 213.276 154.916 213.718 157.741 214.174C158.036 212.345 158.33 210.517 158.634 208.633C165.032 209.664 171.431 210.695 178.023 211.758C178.171 210.844 178.318 209.93 178.47 208.988C176.312 208.328 174.154 207.669 171.931 206.99C149.478 200.45 149.478 200.45 130.844 187.101C129.523 178.106 129.523 178.106 130.753 170.032C128.01 169.59 125.268 169.148 122.443 168.693C114.58 164.584 114.58 164.584 109.04 163.691Z" fill="#C9D2D7"/>
<path d="M148.804 181.468C149.277 184.358 149.749 187.248 150.235 190.226C148.121 189.885 146.007 189.544 143.829 189.193C138.578 188.347 133.327 187.501 128.076 186.654C136.701 197.061 146.904 202.277 158.636 208.633C158.341 210.462 158.046 212.29 157.743 214.174C175.549 218.364 186.899 216.957 203.847 210.235C198.359 221.9 198.359 221.9 189.196 230.612C196.115 230.661 196.115 230.661 203.492 230.074C209.113 222.257 207.56 214.526 207.51 205.141C198.134 202.223 198.134 202.223 188.567 199.246C188.273 201.074 187.978 202.903 187.674 204.787C180.523 198.436 180.523 198.436 175.935 192.769C168.034 185.537 159.254 183.153 148.804 181.468Z" fill="#D7E1E6"/>
<path d="M138.88 137.235C134.771 145.099 134.771 145.099 136.665 154.287C140.402 163.061 140.402 163.061 145.467 166.897C151.035 167.617 151.035 167.617 156.524 164.415C157.897 163.171 159.27 161.927 160.684 160.645C160.39 162.473 160.095 164.302 159.791 166.185C161.273 166.974 162.754 167.762 164.28 168.574C166.195 169.623 168.111 170.672 170.084 171.752C171.995 172.786 173.905 173.819 175.874 174.884C181.195 177.743 181.195 177.743 182.488 184.055C177.918 183.318 173.348 182.582 168.639 181.823C176.715 192.076 184.894 194.566 197.322 197.814C199.887 193.538 202.452 189.262 205.094 184.856C199.342 175.974 195.439 170.63 185.167 167.433C185.609 164.69 186.051 161.948 186.507 159.122C180.234 157.029 173.916 155.067 167.564 153.227C166.502 153.994 165.441 154.761 164.347 155.551C149.079 149.448 149.079 149.448 138.88 137.235Z" fill="#C6D4DE"/>
<path d="M323.399 226.66C320.804 225.304 318.209 223.948 315.536 222.551C313.56 223.17 311.585 223.79 309.549 224.428C318.556 242.318 318.556 242.318 328.84 246.9C331.498 247.504 334.155 248.108 336.893 248.731C338.376 249.442 339.858 250.154 341.386 250.887C350.252 254.352 359.406 255.612 368.764 257.065C370.671 257.383 372.578 257.702 374.542 258.029C388.668 260.278 388.668 260.278 392.291 257.659C397.054 257.765 401.814 258.021 406.565 258.361C409.149 258.539 411.732 258.717 414.393 258.901C417.385 259.125 417.385 259.125 420.437 259.353C420.584 258.439 420.732 257.525 420.884 256.583C415.086 255.096 409.283 253.632 403.477 252.179C400.245 251.361 397.014 250.544 393.685 249.701C385.321 248.009 385.321 248.009 379.335 249.887C379.629 248.058 379.924 246.23 380.228 244.346C378.27 243.924 376.312 243.502 374.295 243.068C356.171 238.927 356.171 238.927 339.851 230.378C332.155 225.229 332.155 225.229 323.399 226.66Z" fill="#95A1A5"/>
<path d="M124.412 191.748C122.437 192.367 120.461 192.987 118.426 193.625C121.949 198.779 125.511 203.906 129.088 209.022C131.067 211.88 133.047 214.738 135.086 217.682C144.12 228.826 152.087 235.72 166.205 238.808C169.846 239.131 169.846 239.131 173.56 239.46C173.265 241.289 172.971 243.117 172.667 245.001C184.498 250.003 189.841 251.465 202.287 247.465C204.032 246.687 205.776 245.91 207.574 245.109C214.951 242.039 222.41 241.069 230.298 240.078C228.764 237.955 227.231 235.832 225.651 233.644C229.749 231.491 233.848 229.337 238.07 227.119C234.789 227.294 234.789 227.294 231.441 227.472C223.634 227.894 223.634 227.894 215.464 226.318C216.673 224.637 217.882 222.956 219.127 221.224C211.605 223.327 206.038 225.655 199.281 229.749C183.849 235.071 170.965 232.684 155.51 228.024C142.1 218.838 133.517 205.068 124.412 191.748Z" fill="#6B7F90"/>
<path d="M97.1508 96.4026C98.753 106.211 101.627 110.456 107.875 118.027C109.703 118.321 111.531 118.616 113.415 118.92C114.339 129.08 114.339 129.08 111.473 138.68C108.704 145.576 110.423 149.111 113.15 155.826C111.68 154.769 110.209 153.711 108.694 152.621C103.388 148.805 98.0826 144.99 92.777 141.174C95.9245 159.068 102.901 170.342 114.226 184.422C117.115 183.95 120.005 183.478 122.982 182.991C122.51 180.101 122.038 177.211 121.551 174.234C118.053 172.613 114.506 171.091 110.918 169.678C110.299 167.702 109.679 165.727 109.041 163.691C114.998 167.465 120.954 171.239 127.091 175.127C132.844 160.567 133.293 152.758 127.356 138.22C124.613 137.778 121.871 137.336 119.046 136.881C119.366 134.529 119.687 132.177 120.017 129.754C118.7 117.424 110.937 98.6245 97.1508 96.4026Z" fill="#D7E1E6"/>
<path d="M34.0801 205.611C31.6955 206.667 31.6955 206.667 29.2627 207.744C26.0664 209.13 26.0664 209.13 22.8056 210.545C20.7128 211.46 18.62 212.376 16.4637 213.32C-3.436 220.873 -20.7967 219.552 -41.0632 213.397C-51.2891 207.165 -60.1221 200.039 -68.8535 191.864C-71.5506 199.871 -71.5506 199.871 -74.3023 208.04C-71.2376 210.934 -68.1409 213.794 -65.0313 216.639C-63.3103 218.236 -61.5894 219.832 -59.8163 221.477C-54.3753 225.462 -54.3753 225.462 -43.2956 227.248C-42.0869 225.567 -40.8781 223.886 -39.6327 222.154C-33.3815 224.099 -27.1304 226.045 -20.6898 228.049C-20.8371 228.963 -20.9844 229.878 -21.1362 230.819C-16.5659 231.556 -11.9955 232.293 -7.28663 233.052C-6.84462 230.309 -6.40261 227.566 -5.9472 224.741C-5.3278 226.716 -4.7084 228.692 -4.07023 230.728C12.5216 229.875 22.1952 223.031 33.1871 211.152C33.4818 209.324 33.7765 207.495 34.0801 205.611Z" fill="#6C869B"/>
<path d="M503.108 300.744C500.136 300.249 500.136 300.249 497.103 299.743C484.658 297.761 472.464 296.016 459.845 296.969C457.428 300.331 455.01 303.694 452.519 307.158C474.457 310.693 496.395 314.229 518.998 317.872C519.292 316.043 519.587 314.215 519.891 312.331C521.719 312.626 523.547 312.92 525.43 313.224C525.136 315.052 524.841 316.881 524.537 318.764C532.985 318.719 532.985 318.719 541.603 318.673C541.898 316.844 542.193 315.016 542.496 313.132C544.472 312.512 546.447 311.893 548.483 311.255C533.42 306.58 518.682 303.167 503.108 300.744Z" fill="#627085"/>
<path d="M426.425 257.475C425.982 260.218 425.54 262.96 425.085 265.786C444.281 268.88 463.476 271.973 483.253 275.161C482.664 278.818 482.075 282.474 481.467 286.242C486.805 288.04 492.142 289.838 497.641 291.691C497.935 289.862 498.23 288.034 498.533 286.15C505.993 286.415 513.453 286.679 521.139 286.951C520.52 284.975 519.901 283 519.262 280.964C512.864 279.933 506.465 278.902 499.873 277.839C500.168 276.011 500.462 274.182 500.766 272.299C477.346 257.841 453.622 252.473 426.425 257.475Z" fill="#829099"/>
<path d="M-74.4847 173.904C-75.8242 182.215 -75.8242 182.215 -73.9472 188.202C-77.7508 188.527 -81.5545 188.852 -85.4734 189.187C-80.6996 207.249 -75.954 218.478 -59.9207 228.667C-55.2686 231.004 -55.2686 231.004 -49.7288 231.897C-49.4341 230.069 -49.1394 228.24 -48.8358 226.356C-56.3258 220.46 -63.8158 214.563 -71.5327 208.487C-69.882 204.063 -68.2312 199.64 -66.5304 195.082C-65.142 196.537 -63.7536 197.992 -62.3231 199.491C-47.0625 214.044 -34.4883 219.163 -13.7548 222.351C-3.89487 221.898 0.0603237 219.101 7.36451 212.676C4.76962 211.32 2.17474 209.964 -0.498778 208.566C-0.940791 211.309 -1.38281 214.052 -1.83821 216.877C-5.49451 216.288 -9.1508 215.699 -12.9179 215.092C-12.6232 213.263 -12.3285 211.435 -12.0249 209.551C-15.6332 209.266 -15.6332 209.266 -19.3144 208.976C-41.431 206.931 -41.431 206.931 -58.3493 193.914C-60.5763 190.673 -62.7229 187.374 -64.7445 184.001C-69.3914 177.567 -69.3914 177.567 -74.4847 173.904Z" fill="#A8C0D1"/>
<path d="M87.1536 211.324C86.98 218.952 87.5569 222.133 92.4325 228.162C97.4735 232.593 102.587 236.407 108.065 240.274C109.844 241.532 111.623 242.79 113.456 244.085C136.344 259.638 163.426 267.992 191.281 265.055C194.672 264.195 194.672 264.195 198.132 263.317C198.427 261.488 198.722 259.66 199.025 257.776C191.549 254.247 185.047 252.44 176.85 251.482C141.3 246.869 113.723 215.606 87.1536 211.324Z" fill="#6D8499"/>
<path d="M200.357 161.354C199.148 163.035 197.939 164.716 196.694 166.448C193.332 164.03 189.971 161.612 186.507 159.122C184.237 161.569 181.967 164.017 179.628 166.54C186.841 173.231 191.345 175.399 200.448 178.422C200.006 181.164 199.564 183.907 199.108 186.733C198.519 190.39 197.93 194.046 197.322 197.814C180.164 189.682 180.164 189.682 165.562 177.773C158.899 171.726 158.899 171.726 152.209 171.358C150.613 171.804 149.017 172.25 147.373 172.71C145.722 177.134 144.071 181.558 142.37 186.115C147.413 189.742 147.413 189.742 152.557 193.442C151.318 189.49 150.08 185.539 148.803 181.468C153.185 183.374 157.544 185.33 161.894 187.308C165.539 188.934 165.539 188.934 169.257 190.593C172.181 192.4 172.181 192.4 175.163 194.243C175.635 197.133 176.107 200.022 176.593 203C180.25 203.589 183.906 204.179 187.673 204.786C187.968 202.957 188.263 201.129 188.566 199.245C190.466 200.548 192.366 201.851 194.324 203.193C202.076 207.312 204.68 207.185 213.049 206.033C212.594 203.437 212.594 203.437 212.129 200.789C210.108 188.927 208.528 177.511 208.22 165.463C205.896 162.246 205.896 162.246 200.357 161.354Z" fill="#ACBDC7"/>
<path d="M210.097 171.45C205.109 180.997 206.314 183.152 209.262 193.165C209.954 195.574 210.647 197.983 211.36 200.465C211.917 202.302 212.475 204.14 213.049 206.033C211.221 205.738 209.393 205.444 207.509 205.14C206.478 211.54 205.447 217.939 204.384 224.532C207.126 224.974 209.868 225.416 212.694 225.872C215.141 228.142 217.589 230.412 220.11 232.751C226.46 228.623 226.46 228.623 232.976 223.456C233.418 220.713 233.86 217.971 234.316 215.145C237.503 215.758 237.503 215.758 240.754 216.382C243.524 216.88 246.294 217.378 249.148 217.891C251.901 218.4 254.655 218.91 257.491 219.435C264.785 220.055 264.785 220.055 271.217 215.408C262.247 210.72 254.848 209.648 244.858 208.14C239.952 207.387 239.952 207.387 234.946 206.62C232.438 206.249 229.929 205.877 227.345 205.495C226.106 201.543 224.868 197.592 223.591 193.521C220.702 193.993 217.812 194.465 214.835 194.952C214.916 192.268 214.997 189.585 215.08 186.82C214.744 177.884 214.744 177.884 210.097 171.45Z" fill="#B8CFDD"/>
<path d="M209.022 142.855C208.727 144.683 208.432 146.512 208.129 148.396C205.534 147.039 202.939 145.683 200.265 144.286C198.143 145.82 196.02 147.354 193.833 148.934C198.51 151.007 198.51 151.007 203.282 153.121C217.627 161.197 223.789 174.076 230.024 188.874C230.496 191.764 230.968 194.654 231.454 197.631C239.828 198.043 248.202 198.454 256.83 198.878C257.125 197.05 257.419 195.222 257.723 193.338C263.974 195.283 270.225 197.229 276.666 199.233C276.047 197.257 275.427 195.282 274.789 193.246C270.283 191.913 265.73 190.734 261.163 189.629C243.67 183.933 237.634 173.944 228.909 158.317C223.422 148.765 220.091 144.639 209.022 142.855Z" fill="#C6D4DA"/>
<path d="M131.82 110.516C129.844 111.135 127.869 111.755 125.833 112.393C140.389 145.865 140.389 145.865 147.728 152.871C156.915 153.78 164.459 152.834 173.551 151.348C187.307 152.108 198.247 153.755 209.728 161.62C217.29 171.082 221.882 180.143 226.808 191.196C228.017 189.515 229.225 187.834 230.471 186.102C222.664 169.731 216.324 157.12 200.026 147.977C182.222 142.355 169.151 143.454 151.391 147.777C150.772 145.801 150.153 143.826 149.514 141.79C152.793 141.087 152.793 141.087 156.137 140.37C162.98 138.779 169.564 136.925 176.23 134.726C176.524 132.898 176.819 131.07 177.123 129.186C174.826 129.186 172.529 129.186 170.162 129.185C153.373 129.377 153.373 129.377 138.613 122.846C135.079 118.021 135.079 118.021 131.82 110.516Z" fill="#8898A2"/>
<path d="M57.2225 220.711C55.9124 221.566 54.6023 222.421 53.2525 223.302C29.9196 238.106 9.38036 245.918 -18.2763 248.334C-15.6814 249.691 -13.0865 251.047 -10.413 252.444C-10.7076 254.272 -11.0023 256.101 -11.3059 257.985C-6.82074 258.459 -2.32936 258.876 2.16384 259.267C4.66417 259.505 7.16449 259.743 9.74058 259.989C17.8731 259.633 20.3138 257.706 26.489 252.707C34.03 251.87 34.03 251.87 40.785 252.169C42.2885 248.659 43.7919 245.15 45.3409 241.534C47.9358 242.89 50.5306 244.246 53.2042 245.643C60.7934 240.16 61.7924 236.287 64.6393 227.59C61.7497 228.063 58.8602 228.535 55.883 229.021C56.325 226.279 56.7671 223.536 57.2225 220.711Z" fill="#586B7E"/>
<path d="M-21.9576 77.2069C-32.7003 82.1113 -35.8501 86.9101 -42.149 96.6908C-42.4436 98.5192 -42.7383 100.348 -43.0419 102.231C-47.4654 107.377 -52.1319 112.24 -56.8235 117.142C-58.0247 118.798 -59.2258 120.455 -60.4634 122.162C-59.9913 125.052 -59.5192 127.942 -59.0329 130.919C-59.1936 135.797 -59.4537 140.672 -59.7909 145.541C-59.9611 148.075 -60.1313 150.608 -60.3067 153.219C-60.5151 156.114 -60.5151 156.114 -60.7277 159.069C-53.0396 153.514 -53.3925 152.037 -51.7607 143.105C-48.448 129.683 -41.9647 123.168 -31.5808 114.393C-27.3154 110.451 -27.3154 110.451 -26.4224 104.91C-24.5942 105.205 -22.7661 105.499 -20.8826 105.803C-20.5012 104.164 -20.1199 102.526 -19.7271 100.837C-16.5096 94.1408 -16.5096 94.1408 -7.0625 91.6871C-4.19323 90.9771 -1.32397 90.267 1.63224 89.5355C-2.96714 86.9401 -2.96714 86.9401 -9.00096 84.9796C-14.7691 86.8811 -14.7691 86.8811 -20.4765 90.0581C-22.3873 91.0948 -24.2981 92.1315 -26.2668 93.1995C-27.7043 94.0267 -29.1418 94.8539 -30.6228 95.7062C-27.9555 92.7946 -27.9555 92.7946 -25.2344 89.8242C-23.5337 87.6362 -21.8329 85.4482 -20.0806 83.1939C-20.7 81.2182 -21.3194 79.2424 -21.9576 77.2069Z" fill="#BACBD4"/>
<path d="M22.8077 81.5785C19.7708 82.9649 16.7339 84.3514 13.605 85.7798C13.3103 87.6082 13.0156 89.4366 12.712 91.3205C15.4542 91.7624 18.1965 92.2044 21.0218 92.6597C20.7271 94.4881 20.4324 96.3165 20.1288 98.2003C18.1071 97.2883 16.0854 96.3762 14.0024 95.4365C6.7257 93.1979 6.7257 93.1979 -2.47702 97.3993C-0.0294766 99.6696 2.41807 101.94 4.93979 104.279C7.01898 108.835 7.01898 108.835 9.14019 113.483C16.6789 110.79 16.6789 110.79 24.3292 107.404C24.6239 105.576 24.9186 103.747 25.2222 101.863C26.9674 103.105 28.7126 104.346 30.5107 105.625C39.7414 110.454 46.8557 111.025 57.2164 111.638C60.483 111.85 63.7496 112.061 67.1152 112.279C69.5965 112.408 72.0778 112.537 74.6343 112.669C74.7816 111.755 74.929 110.841 75.0808 109.899C71.699 109.061 68.3173 108.223 64.8331 107.359C55.2472 104.605 49.7834 101.612 43.6276 93.4607C44.8364 91.7796 46.0451 90.0986 47.2905 88.3665C39.1715 84.4658 31.8059 82.3271 22.8077 81.5785Z" fill="#EAEAE8"/>
<path d="M66.9629 230.808C64.1034 236.912 61.2439 243.017 58.2977 249.307C63.1902 253.426 68.0963 257.53 73.0083 261.626C75.739 263.912 78.4696 266.199 81.283 268.555C88.4114 274.056 88.4114 274.056 93.9513 274.949C94.5406 271.292 95.13 267.635 95.7372 263.868C98.4794 264.31 101.222 264.752 104.047 265.207C102.107 253.33 96.5099 248.449 88.2293 239.92C82.1587 236.81 82.1587 236.81 77.5961 235.364C75.2727 232.147 75.2727 232.147 66.9629 230.808Z" fill="#354874"/>
<path d="M276.576 187.672C271.669 186.919 271.669 186.919 266.663 186.152C264.155 185.78 261.647 185.409 259.063 185.027C257.854 186.708 256.645 188.389 255.4 190.121C258.487 190.97 261.574 191.819 264.754 192.694C269.501 194.339 269.501 194.339 274.343 196.016C274.962 197.992 275.582 199.967 276.22 202.003C281.356 205.473 281.356 205.473 288.021 209.234C296.925 214.364 305.23 219.695 313.392 225.936C322.507 232.201 322.507 232.201 331.263 230.77C328.668 229.414 326.073 228.058 323.4 226.66C322.079 222.692 320.835 218.697 319.646 214.686C315.9 209.342 315.9 209.342 311.547 204.321C310.121 202.644 308.696 200.967 307.227 199.24C298.285 190.28 288.649 189.495 276.576 187.672Z" fill="#D7DEDF"/>
<path d="M79.2002 190.146C77.9915 191.827 76.7827 193.508 75.5373 195.24C78.1407 203.544 83.2648 206.233 89.9245 211.77C91.8486 214.014 93.7728 216.259 95.7553 218.572C102.601 225.724 108.819 229.075 117.715 233.302C120.637 235.356 120.637 235.356 123.618 237.451C133.822 242.694 144.301 243.723 155.601 245.093C155.748 244.178 155.895 243.264 156.047 242.322C150.71 240.524 145.373 238.726 139.874 236.874C140.027 235.198 140.18 233.523 140.337 231.797C138.89 225.346 138.89 225.346 132.082 219.097C122.735 213.867 119.591 214.508 109.314 214.895C99.1003 208.861 94.8061 205.598 89.8334 194.702C84.2543 191.848 84.2543 191.848 79.2002 190.146Z" fill="#7090AB"/>
<path d="M84.8215 119.996C74.7667 118.375 64.7119 116.755 54.3524 115.085C54.8244 117.975 55.2965 120.865 55.7828 123.843C47.8509 120.688 39.9189 117.534 31.7465 114.284C31.4518 116.113 31.1572 117.941 30.8536 119.825C35.2766 121.476 39.6996 123.126 44.2567 124.827C42.2812 125.447 40.3057 126.066 38.2704 126.705C38.7424 129.595 39.2145 132.485 39.7008 135.462C48.4969 141.498 48.4969 141.498 57.7509 146.898C60.2721 148.711 60.2721 148.711 62.8442 150.561C63.2862 147.818 63.7282 145.076 64.1837 142.25C70.6543 139.446 70.6543 139.446 78.0333 144.482C84.0196 142.605 84.0196 142.605 87.6825 137.51C84.3208 135.093 80.9592 132.675 77.4957 130.184C79.9132 126.822 82.3307 123.46 84.8215 119.996Z" fill="#B4C3CD"/>
<path d="M72.676 177.725C70.4201 182.325 68.2036 186.944 66.004 191.572C64.7655 194.142 63.527 196.712 62.251 199.36C59.4925 206.758 59.0058 210.741 60.439 218.387C62.055 216.361 63.6709 214.335 65.3359 212.248C70.3206 205.516 70.3206 205.516 76.9674 203.997C77.2922 207.801 77.6169 211.605 77.9515 215.525C74.1478 215.85 70.3442 216.175 66.4253 216.509C67.0447 218.485 67.6641 220.461 68.3023 222.496C69.2163 222.644 70.1304 222.791 71.0722 222.943C70.6302 225.685 70.1881 228.428 69.7327 231.254C74.5191 236.821 74.5191 236.821 79.473 241.35C81.4485 240.731 83.424 240.111 85.4593 239.473C83.9258 237.35 82.3924 235.227 80.8124 233.039C86.1495 234.837 91.4866 236.636 96.9855 238.488C94.8972 231.137 93.1204 226.36 88.5847 220.081C87.9384 212.67 87.9384 212.67 88.0471 205.783C84.5382 204.279 81.0292 202.776 77.4139 201.227C77.3839 195.594 77.3538 189.962 77.3229 184.158C81.7459 185.809 86.1689 187.46 90.726 189.161C85.1396 179.732 84.4818 179.628 72.676 177.725Z" fill="#5A748D"/>
<path d="M76.9676 203.998C66.8831 205.646 64.7036 207.673 58.1157 215.171C55.4636 220.605 55.4636 220.605 53.5598 225.805C52.2037 228.401 50.8477 230.996 49.4505 233.67C54.9903 234.563 54.9903 234.563 61.4231 229.915C60.6356 231.642 59.848 233.369 59.0366 235.148C54.1299 246.803 51.1039 254.319 52.7709 267.069C57.0494 274.686 57.0494 274.686 64.1029 278.31C66.1983 278.765 68.2936 279.22 70.4525 279.689C70.4225 274.056 70.3924 268.424 70.3615 262.62C72.3369 262.001 74.3124 261.381 76.3478 260.743C64.5301 250.312 64.5301 250.312 58.2978 249.307C59.4417 247.506 60.5855 245.704 61.7641 243.848C63.2238 241.497 64.6834 239.145 66.1873 236.723C67.6518 234.387 69.1163 232.051 70.6252 229.644C73.8422 223.39 73.8422 223.39 71.9653 217.403C77.7781 217.916 77.7781 217.916 82.5985 221.959C80.7215 215.972 78.8445 209.985 76.9676 203.998Z" fill="#6F8CAC"/>
<path d="M311.163 267.322C327.729 276.951 343.346 282.514 362.005 286.885C345.773 282.862 345.773 282.862 329.213 278.757C328.004 280.438 326.795 282.12 325.55 283.852C323.574 284.471 321.599 285.091 319.564 285.729C328.789 291.869 336.179 294.778 347.116 296.409C349.823 296.827 352.531 297.245 355.321 297.676C358.119 298.079 360.917 298.483 363.799 298.898C366.647 299.332 369.495 299.765 372.43 300.211C379.436 301.274 386.445 302.31 393.459 303.323C393.606 302.409 393.753 301.495 393.905 300.553C384.912 298.165 375.918 295.778 366.652 293.318C379.434 292.564 379.434 292.564 392.475 291.795C392.622 290.881 392.769 289.967 392.921 289.025C391.27 288.515 389.618 288.006 387.917 287.481C380.392 285.156 372.868 282.826 365.344 280.495C361.447 279.292 361.447 279.292 357.471 278.066C354.95 277.284 352.43 276.502 349.832 275.697C347.522 274.982 345.211 274.267 342.83 273.531C338.155 272.01 333.526 270.34 328.944 268.555C322.28 266.192 318.072 266.192 311.163 267.322Z" fill="#CFDBE2"/>
<path d="M0.111519 63.7093C0.553532 60.9667 0.995546 58.2241 1.45095 55.3984C-1.43861 55.8706 -4.32817 56.3429 -7.30529 56.8294C-7.7473 59.572 -8.18932 62.3147 -8.64472 65.1404C1.80534 73.1885 6.32083 76.6615 19.7532 76.2899C21.6526 76.0061 23.552 75.7223 25.5089 75.43C40.0229 73.7108 54.7674 74.6151 69.3595 74.8697C54.9812 54.9634 21.0287 58.1788 0.111519 63.7093Z" fill="#ACB9BF"/>
<path d="M244.504 222.471C246.696 224.006 246.696 224.006 248.933 225.572C264.46 236.967 276.157 248.307 285.18 265.444C290.808 275.045 293.691 278.369 304.118 282.663C312.963 284.764 321.625 286.412 330.645 287.515C330.173 284.625 329.701 281.735 329.214 278.758C323.306 274.986 323.306 274.986 315.682 271.248C302.554 264.367 295.336 257.647 286.144 246.236C283.402 245.794 280.659 245.352 277.834 244.897C277.362 242.007 276.89 239.117 276.404 236.139C266.006 228.418 257.538 223.374 244.504 222.471Z" fill="#DEEAEF"/>
<path d="M257.725 193.338C257.43 195.166 257.136 196.995 256.832 198.878C252.893 198.771 252.893 198.771 248.874 198.662C239.766 198.97 239.766 198.97 230.563 203.172C233.111 203.344 235.658 203.516 238.283 203.694C257.815 205.189 275.628 207.39 294.271 213.439C294.315 215.194 294.358 216.948 294.402 218.756C295.662 227.925 300.859 231.947 307.319 238.28C309.84 240.093 309.84 240.093 312.412 241.943C313.931 243.067 315.45 244.191 317.014 245.349C323.026 249.569 329.223 253.325 335.556 257.042C332.458 252.753 329.36 248.464 326.262 244.175C323.544 240.308 323.544 240.308 320.772 236.362C304.413 214.28 286.472 196.542 257.725 193.338Z" fill="#728794"/>
<path d="M483.253 275.162C479.45 275.487 475.646 275.812 471.727 276.147C472.347 278.122 472.966 280.098 473.604 282.134C468.12 281.25 462.635 280.366 456.985 279.455C455.171 281.977 455.171 281.977 453.322 284.549C450.285 285.936 447.248 287.322 444.119 288.751C477.94 294.201 511.76 299.652 546.606 305.268C546.901 303.44 547.195 301.611 547.499 299.727C545.146 299.414 542.794 299.101 540.37 298.778C518.572 295.62 501.839 290.883 482.36 280.703C482.655 278.874 482.95 277.046 483.253 275.162Z" fill="#98B0BE"/>
<path d="M3.06367 98.2917C-1.2009 97.8585 -5.48533 97.6113 -9.76942 97.467C-13.2708 97.3368 -13.2708 97.3368 -16.8428 97.2041C-18.6477 97.1514 -20.4525 97.0986 -22.3121 97.0443C-21.84 99.9342 -21.368 102.824 -20.8816 105.802C-22.7098 105.507 -24.5379 105.212 -26.4214 104.909C-30.584 111.776 -34.5823 118.611 -38.303 125.732C-22.6823 124.398 -8.88514 120.905 5.92465 115.806C5.67755 101.911 5.67755 101.911 3.06367 98.2917Z" fill="#EAEFEF"/>
<path d="M429.73 272.22C399.566 267.358 369.402 262.497 338.323 257.488C336.289 261.381 336.289 261.381 334.214 265.352C356.395 279.208 380.931 278.839 406.232 276.959C406.379 276.045 406.526 275.131 406.678 274.189C414.138 274.453 421.598 274.718 429.284 274.99C429.431 274.076 429.579 273.162 429.73 272.22Z" fill="#849AAA"/>
<path d="M164.894 149.954C163.032 150.592 161.171 151.23 159.253 151.888C161.775 153.701 161.775 153.701 164.347 155.551C164.052 157.379 163.758 159.208 163.454 161.091C168.024 161.828 172.595 162.564 177.304 163.323C173.795 161.82 170.286 160.316 166.67 158.767C166.965 156.939 167.26 155.111 167.563 153.227C171.364 154.649 175.156 156.094 178.945 157.548C181.057 158.35 183.17 159.152 185.347 159.979C191.516 162.747 196.457 165.979 201.786 170.111C201.314 167.222 200.842 164.332 200.356 161.354C209.427 172.548 213.525 180.551 214.834 194.952C219.257 196.603 223.68 198.254 228.237 199.955C229.741 196.445 231.244 192.936 232.793 189.32C230.965 189.025 229.137 188.731 227.253 188.427C224.108 183.108 224.108 183.108 221.165 176.61C208.984 152.978 191.229 145.975 164.894 149.954Z" fill="#A3BCCE"/>
<path d="M79.1002 84.9667C76.2107 85.439 73.3211 85.9112 70.344 86.3978C72.1051 97.1794 74.5168 98.044 83.095 104.263C91.8262 110.086 91.8262 110.086 96.3483 119.011C94.3728 119.631 92.3973 120.251 90.362 120.889C93.0143 124.175 95.6881 127.445 98.371 130.706C100.601 133.44 100.601 133.44 102.876 136.229C107.073 140.636 107.073 140.636 112.612 141.528C115.376 135.401 115.376 135.401 117.615 128.123C116.229 125.086 114.842 122.049 113.414 118.92C111.586 118.625 109.758 118.33 107.874 118.027C107.399 116.25 106.923 114.473 106.433 112.643C101.519 98.6389 94.6148 94.6415 81.4237 88.1834C80.6569 87.1219 79.8902 86.0604 79.1002 84.9667Z" fill="#E5E9ED"/>
<path d="M190.764 130.498C187.166 129.846 187.166 129.846 183.494 129.182C181.391 129.184 179.288 129.185 177.121 129.187C174.851 131.635 172.581 134.083 170.242 136.605C160.204 135.699 160.204 135.699 150.853 133.48C152.386 135.603 153.92 137.726 155.5 139.914C151.696 140.239 147.892 140.564 143.973 140.898C147.188 144.23 150.402 147.562 153.714 150.995C156.439 150.086 159.165 149.177 161.973 148.24C177.317 144.284 192.576 146.643 208.128 148.396C208.423 146.567 208.717 144.739 209.021 142.855C210.997 142.236 212.972 141.616 215.007 140.978C207.138 134.506 200.783 132.159 190.764 130.498Z" fill="#B8C7CE"/>
<path d="M243.609 228.012C249.341 233.329 254.843 237.77 261.212 242.218C259.397 242.138 257.582 242.058 255.712 241.975C232.779 241.625 212.924 246.735 191.163 253.666C191.015 254.58 190.868 255.495 190.716 256.436C202.674 257.375 208.738 257.65 219.783 252.417C236.138 245.476 256.854 250.642 273.276 255.531C278.066 260.214 278.066 260.214 280.246 265.181C282.222 264.562 284.197 263.942 286.233 263.304C275.283 243.875 267.469 230.168 243.609 228.012Z" fill="#576B7D"/>
<path d="M45.5877 147.423C42.9396 148.579 42.9396 148.579 40.238 149.759C40.3481 151.781 40.4582 153.803 40.5716 155.886C40.778 164.154 40.3635 172.165 39.7385 180.41C39.4331 184.521 39.4331 184.521 39.1215 188.716C38.9607 190.782 38.7999 192.848 38.6342 194.977C40.1376 191.467 41.6411 187.958 43.19 184.342C51.6377 184.296 51.6377 184.296 60.256 184.25C60.1305 182.119 60.005 179.989 59.8757 177.794C59.473 169.372 59.473 169.372 61.5044 158.871C61.7991 157.042 62.0938 155.214 62.3974 153.33C53.8409 145.654 53.8409 145.654 45.5877 147.423Z" fill="#809BB2"/>
<path d="M246.273 202.317C239.402 201.747 234.79 200.277 228.684 197.184C228.242 199.926 227.8 202.669 227.345 205.495C229.66 206.04 231.975 206.585 234.361 207.147C264.234 213.484 264.234 213.484 292.483 224.52C294.939 230.6 294.939 230.6 296.237 236.494C299.127 236.021 302.016 235.549 304.993 235.063C302.737 232.149 302.737 232.149 300.436 229.177C295.096 222.36 295.096 222.36 294.269 213.438C279.869 203.848 263.091 202.713 246.273 202.317Z" fill="#99B2C2"/>
<path d="M137.542 145.546C132.908 154.413 133.149 158.389 133.713 168.2C133.85 170.783 133.987 173.366 134.128 176.027C134.253 178 134.378 179.973 134.508 182.006C137.102 183.362 139.697 184.718 142.371 186.115C144.936 181.839 147.5 177.563 150.143 173.157C155.924 175.527 160.775 177.712 165.87 181.376C171.39 182.379 176.931 183.282 182.489 184.054C181.059 175.297 181.059 175.297 175.01 170.947C168.102 167.524 168.102 167.524 159.792 166.185C160.087 164.357 160.382 162.528 160.685 160.645C157.965 161.701 157.965 161.701 155.19 162.779C148.264 165.274 148.264 165.274 140.849 160.29C138.592 152.808 138.592 152.808 137.542 145.546Z" fill="#D5DEE7"/>
<path d="M-52.3258 177.476C-52.7678 180.218 -53.2098 182.961 -53.6652 185.787C-47.771 189.591 -41.869 193.383 -35.9614 197.167C-34.286 198.25 -32.6107 199.334 -30.8845 200.45C-18.1927 208.557 -18.1927 208.557 -12.0253 209.551C-12.32 211.38 -12.6147 213.208 -12.9183 215.092C-9.26199 215.681 -5.60569 216.27 -1.8386 216.877C-1.39659 214.135 -0.954573 211.392 -0.499165 208.567C1.03431 210.69 2.56778 212.813 4.14772 215C6.66894 216.813 6.66894 216.813 9.24108 218.663C14.4008 215.743 19.5605 212.823 24.8766 209.814C16.9446 206.66 9.01262 203.505 0.84027 200.256C0.545595 202.084 0.250919 203.912 -0.0526862 205.796C-17.3297 201.79 -41.7043 192.181 -52.3258 177.476Z" fill="#A2B1BA"/>
<path d="M203.846 210.234C201.594 210.751 199.342 211.267 197.022 211.799C185.531 214.33 176.04 214.903 164.342 213.993C161.551 213.782 158.761 213.57 155.886 213.352C152.691 213.096 152.691 213.096 149.431 212.834C149.903 215.724 150.375 218.614 150.862 221.591C176.379 230.699 176.379 230.699 190.121 225.964C199.29 220.869 199.29 220.869 202.891 215.055C203.206 213.464 203.521 211.873 203.846 210.234Z" fill="#F1F6F7"/>
<path d="M313.303 236.402C310.413 236.874 307.524 237.347 304.547 237.833C308.533 250.085 312.87 255.887 323.134 263.567C325.057 265.46 326.979 267.352 328.959 269.302C337.475 275.426 344.722 276.19 355.034 277.235C349.871 270.088 345.026 267.305 337.43 263.029C338.786 260.433 340.143 257.838 341.54 255.164C339.072 254.473 336.604 253.783 334.062 253.071C324.195 249.263 319.393 244.834 313.303 236.402Z" fill="#9DB5C7"/>
<path d="M75.6196 124.197C74.4109 125.878 73.2021 127.559 71.9568 129.291C75.171 132.623 78.3853 135.955 81.697 139.387C78.9548 138.946 76.2126 138.504 73.3872 138.048C70.645 137.606 67.9028 137.164 65.0775 136.709C64.1147 142.683 64.5621 147.78 65.1685 153.777C66.9413 153.825 68.714 153.872 70.5404 153.921C72.8497 154.004 75.1589 154.087 77.5381 154.172C80.9822 154.282 80.9822 154.282 84.496 154.394C90.7614 154.541 90.7614 154.541 95.6377 158.688C96.236 146.523 93.5548 140.828 85.8064 131.523C87.0151 129.842 88.2239 128.161 89.4692 126.429C84.3759 122.766 84.3759 122.766 75.6196 124.197ZM64.631 139.479C58.6447 141.357 58.6447 141.357 58.6447 141.357L64.631 139.479Z" fill="#D1DDE6"/>
<path d="M254.754 215.064C251.372 214.479 247.99 213.894 244.505 213.29C235.246 212.421 228.857 213.053 220.019 215.684C228.754 223.281 236.172 224.41 247.518 225.8C262.381 227.921 274.094 231.229 287.481 237.925C278.185 220.74 274.007 218.271 254.754 215.064Z" fill="#D4E5ED"/>
<path d="M78.0429 232.594C80.2987 234.599 82.5546 236.604 84.8788 238.669C91.6959 245.219 96.9499 251.398 102.17 259.22C104.44 256.772 106.711 254.324 109.05 251.802C111.159 252.963 113.269 254.124 115.443 255.319C119.634 257.578 119.634 257.578 123.911 259.882C128.048 262.131 128.048 262.131 132.27 264.426C139.93 267.975 146.011 269.631 154.352 270.472C146.268 264.28 137.842 259.732 128.757 255.156C117.588 249.407 107.428 243.377 97.4323 235.718C89.2191 231.426 86.7983 231.349 78.0429 232.594Z" fill="#243353"/>
<path d="M434.378 278.653C433.169 280.334 431.96 282.015 430.715 283.748C427.28 283.128 423.845 282.508 420.305 281.87C395.567 277.556 371.933 273.702 346.724 275.896C346.577 276.81 346.43 277.724 346.278 278.666C365.407 283.875 384.366 288.039 404 290.811C401.405 289.455 398.81 288.099 396.137 286.701C396.431 284.873 396.726 283.045 397.03 281.161C408.912 283.076 420.795 284.991 433.038 286.964C433.481 284.222 433.923 281.479 434.378 278.653Z" fill="#B1C6D2"/>
<path d="M28.0834 119.378C27.6414 122.121 27.1994 124.864 26.744 127.689C20.9649 128.634 15.1858 129.578 9.23151 130.551C9.08417 131.466 8.93683 132.38 8.78503 133.322C11.148 133.776 13.5109 134.23 15.9455 134.698C35.3625 138.823 47.3326 142.814 61.9511 156.102C64.8406 155.629 67.7302 155.157 70.7073 154.67C67.0947 151.77 63.4742 148.879 59.8503 145.993C57.835 144.382 55.8196 142.771 53.7433 141.111C48.0104 136.801 48.0104 136.801 40.1471 132.692C39.5277 130.716 38.9083 128.74 38.2702 126.705C42.8405 127.441 47.4109 128.178 52.1198 128.937C43.627 121.059 39.2834 120.676 28.0834 119.378Z" fill="#5B778B"/>
</svg>
