<svg width="140" height="139" viewBox="0 0 140 139" fill="none" xmlns="http://www.w3.org/2000/svg">
<g filter="url(#filter0_d_813_7336)">
<path d="M79.1271 45.1631C82.6423 44.6798 84.4415 44.9956 87.7574 46.4087C92.0987 48.1492 96.1217 49.0038 100.728 49.7788C102.215 50.0339 103.703 50.289 105.236 50.5519C106.921 50.8282 106.921 50.8282 108.639 51.1101C107.608 52.0655 107.608 52.0655 106.556 53.0403C106.791 53.845 107.025 54.6497 107.267 55.4788C106.463 55.7134 105.658 55.948 104.829 56.1897C104.779 57.5141 104.728 58.8385 104.676 60.203C102.827 62.4373 102.827 62.4373 100.384 64.7619C97.6531 67.3939 95.0693 69.9704 92.5677 72.8289C91.8699 73.5235 91.1722 74.2181 90.4533 74.9337C89.5313 74.766 88.6094 74.5982 87.6596 74.4254C88.7491 73.6711 89.8387 72.9168 90.9613 72.1397C90.1892 71.7373 89.4171 71.3349 88.6216 70.9202C86.2375 69.5483 86.2375 69.5483 85.882 68.3291C83.3508 68.6306 80.8197 68.932 78.2119 69.2426C81.3208 65.5442 83.9518 63.9236 88.1235 61.5569C89.3557 60.8531 90.5879 60.1494 91.8575 59.4243C92.8023 58.893 93.7472 58.3617 94.7207 57.8143C94.6034 57.4119 94.486 57.0095 94.3652 56.595C96.2594 55.6061 98.1535 54.6172 100.105 53.5984C99.1698 53.455 98.2346 53.3116 97.2709 53.1639C84.4925 51.0536 84.4925 51.0536 79.8381 47.6016C79.6035 46.7969 79.3688 45.9922 79.1271 45.1631Z" fill="#AA7F38"/>
<path d="M54.2376 23.3154C55.0422 23.0808 55.8469 22.8462 56.6758 22.6044C57.0486 23.6605 57.4213 24.7166 57.8053 25.8046C58.3094 27.1942 58.8134 28.5837 59.3328 30.0153C59.826 31.391 60.3192 32.7666 60.8273 34.184C62.4351 37.9103 64.2277 40.3425 66.7325 43.4848C67.7547 45.7387 68.6986 48.0298 69.5609 50.3496C69.999 51.5128 70.437 52.676 70.8884 53.8744C71.3705 55.1945 71.3705 55.1945 71.8623 56.5412C70.1358 56.6081 68.4093 56.6749 66.6304 56.7438C65.0046 54.1619 63.3787 51.58 61.7036 48.9199C61.6152 49.6636 61.5269 50.4073 61.4358 51.1736C60.5349 57.3896 59.8951 61.5795 54.6425 65.5311C51.1717 67.2099 47.6508 68.6395 44.0261 69.9496C45.057 68.9941 45.057 68.9941 46.1088 68.0194C45.8741 67.2146 45.6395 66.4099 45.3978 65.5808C46.0969 65.1365 46.796 64.6922 47.5163 64.2344C48.4233 63.6374 49.3302 63.0404 50.2647 62.4254C51.6198 61.5468 51.6198 61.5468 53.0023 60.6504C55.7383 58.7111 55.7383 58.7111 56.6747 54.3551C56.0718 50.7764 55.2039 47.31 54.3323 43.788C54.2171 42.7319 54.1018 41.6758 53.983 40.5877C54.9553 39.4311 55.9276 38.2744 56.9293 37.0828C56.5658 34.3559 56.5658 34.3559 55.4818 31.5516C53.686 26.3491 53.686 26.3491 54.2376 23.3154Z" fill="#EAC55A"/>
<path d="M105.287 44.1494C107.248 44.8872 109.209 45.625 111.23 46.3853C111.182 47.6269 111.182 47.6269 111.134 48.8935C111.233 49.7925 111.331 50.6915 111.433 51.6178C112.472 52.1879 113.511 52.758 114.582 53.3454C113.375 53.6973 112.168 54.0492 110.924 54.4118C111.679 55.5015 112.433 56.5913 113.21 57.7141C111.483 60.8636 111.483 60.8636 108.137 62.9968C104.307 65.8635 104.557 66.5714 103.863 71.0229C102.099 72.4662 100.304 73.8729 98.4789 75.2388C98.0263 76.6805 97.5736 78.1222 97.1073 79.6075C95.4981 80.0768 93.8889 80.546 92.2309 81.0294C90.5997 83.3792 90.5997 83.3792 89.6402 85.7536C89.5732 84.0269 89.5062 82.3002 89.4372 80.5211C88.2303 80.873 87.0234 81.2249 85.7799 81.5875C84.1196 79.0124 84.1196 79.0124 82.7832 75.8467C83.5865 73.2146 83.5865 73.2146 85.3739 71.1225C86.9831 70.6532 88.5923 70.184 90.2503 69.7006C90.485 70.5053 90.7196 71.31 90.9614 72.1391C99.0743 65.1264 99.0743 65.1264 104.829 56.1891C105.634 55.9545 106.438 55.7199 107.267 55.4782C107.113 53.9678 107.113 53.9678 106.956 52.4269C106.709 49.0264 106.709 49.0264 107.217 46.2324C106.295 46.0647 105.373 45.8969 104.423 45.7241C104.708 45.2044 104.993 44.6848 105.287 44.1494Z" fill="#BCA967"/>
<path d="M81.0048 69.7509C83.0163 69.1644 85.0278 68.5779 87.1003 67.9736C86.5597 69.1135 86.019 70.2534 85.462 71.4279C83.5137 75.5976 83.5137 75.5976 85.4236 80.3688C87.3178 79.38 89.212 78.3911 91.1636 77.3722C90.4867 78.6064 89.8099 79.8406 89.1126 81.1122C86.3821 87.2287 87.3278 92.907 88.3182 99.3687C87.2286 100.123 86.1391 100.877 85.0165 101.654C85.4857 103.264 85.955 104.873 86.4385 106.531C85.2316 106.883 84.0247 107.235 82.7813 107.598C83.1332 108.805 83.4852 110.012 83.8478 111.256C79.9779 111.309 79.9779 111.309 75.8222 110.95C75.0679 109.86 74.3137 108.77 73.5366 107.648C74.2238 107.011 74.9111 106.374 75.6192 105.717C75.9712 106.925 76.3232 108.132 76.6858 109.375C78.1777 108.504 79.6696 107.632 81.2066 106.734C81.0149 105.305 80.8232 103.875 80.6256 102.402C79.3315 92.1771 78.2002 82.727 80.4968 72.5449C80.6644 71.6229 80.8321 70.7009 81.0048 69.7509Z" fill="#906A21"/>
<path d="M62.9735 57.8105C63.4427 59.4199 63.912 61.0293 64.3955 62.6875C65.2001 62.4529 66.0047 62.2183 66.8337 61.9766C67.0684 62.7813 67.303 63.586 67.5448 64.4151C66.5139 65.3706 66.5139 65.3706 65.4621 66.3453C65.5166 68.09 65.585 69.8342 65.6651 71.5779C63.9379 74.7273 63.9379 74.7273 60.7949 76.1399C56.3714 76.9037 53.6318 76.1777 49.3794 74.9468C44.57 74.1037 40.0262 75.3126 35.3403 76.4514C39.4929 71.5113 44.6923 69.489 50.3996 66.6084C55.1795 63.785 57.6899 59.3511 62.9735 57.8105Z" fill="#E7CA6E"/>
<path d="M61.3477 47.7012C65.6036 50.0358 66.9112 53.1407 69.4238 57.2527C70.8024 59.0683 72.1974 60.8724 73.6396 62.638C74.7292 61.8838 75.8187 61.1295 76.9413 60.3523C75.9021 59.7822 74.8628 59.2121 73.7921 58.6248C81.6064 56.8327 88.0221 56.0184 95.9388 57.4588C91.0047 63.3286 85.9472 64.4711 78.7189 66.4487C78.6016 66.0463 78.4843 65.644 78.3634 65.2294C74.9706 67.0294 73.4688 68.3152 70.8963 71.3755C66.528 70.0034 66.528 70.0034 64.9344 67.6568C64.5887 66.9391 64.243 66.2213 63.8868 65.4818C65.0937 65.1299 66.3006 64.778 67.5441 64.4154C67.3095 63.6107 67.0748 62.806 66.8331 61.9769C66.0285 62.2115 65.2239 62.4461 64.3949 62.6878C63.9256 61.0784 63.4563 59.4689 62.9728 57.8107C62.1682 58.0454 61.3636 58.28 60.5346 58.5217C60.002 54.2126 60.0137 51.95 61.3477 47.7012Z" fill="#EFD379"/>
<path d="M101.425 71.7344C106.081 71.8479 110.47 72.1603 115.038 73.0567C115.025 75.1829 115.011 77.3092 114.996 79.4354C114.988 80.6194 114.981 81.8035 114.973 83.0234C114.945 85.4593 114.876 87.8947 114.783 90.329C113.056 90.3959 111.33 90.4627 109.551 90.5316C109.316 89.7269 109.082 88.9222 108.84 88.0931C106.192 87.9922 103.543 87.8913 100.814 87.7874C100.747 86.0607 100.68 84.3339 100.611 82.5549C99.5805 83.5103 99.5805 83.5103 98.5288 84.4851C98.8218 79.8233 99.6048 76.0394 101.425 71.7344Z" fill="#B6B482"/>
<path d="M74.4547 20.0668C78.4943 22.2828 79.1433 24.6222 80.9561 28.7545C81.7607 28.5199 82.5653 28.2853 83.3943 28.0436C86.2959 30.3395 86.2959 30.3395 88.8292 33.0735C88.6615 33.9955 88.4939 34.9175 88.3211 35.8675C89.6454 35.9179 90.9696 35.9684 92.3339 36.0203C94.8704 39.3322 94.8704 39.3322 96.9052 42.625C91.548 42.375 87.4573 41.0708 82.5812 38.8641C83.0505 40.4735 83.5198 42.083 84.0033 43.7411C82.679 43.6907 81.3548 43.6403 79.9905 43.5883C79.4991 42.5583 79.0078 41.5283 78.5016 40.467C77.4185 38.2357 76.2978 36.0203 75.0859 33.8562C73.2756 30.1352 72.2311 26.3395 71.1529 22.3525C72.2425 21.5982 73.3321 20.844 74.4547 20.0668Z" fill="#DBC568"/>
<path d="M38.6924 83.4111C43.0674 83.4451 47.4423 83.4792 51.9499 83.5142C52.9388 85.4087 53.9277 87.3032 54.9466 89.2551C56.8285 91.3818 58.7503 93.4751 60.737 95.5042C61.8769 93.4256 63.0168 91.3469 64.1913 89.2053C65.3402 91.2595 65.3402 91.2595 66.5122 93.3551C67.5183 95.1461 68.5245 96.9371 69.5308 98.7279C70.0354 99.6312 70.5401 100.535 71.0601 101.465C71.5466 102.33 72.033 103.194 72.5342 104.084C73.2053 105.281 73.2053 105.281 73.89 106.502C75.0911 108.628 75.0911 108.628 77.0417 110.594C79.9032 111.259 79.9032 111.259 82.6291 111.611C80.7401 113.071 80.7401 113.071 78.1082 114.252C75.105 113.308 75.105 113.308 72.1653 112.016C70.8411 111.965 69.5168 111.915 68.1525 111.863C65.307 108.865 63.5542 105.767 61.5907 102.118C56.7597 93.754 49.9467 89.0612 41.1017 85.525C40.4239 85.2298 39.7462 84.9346 39.0479 84.6304C38.9306 84.228 38.8133 83.8257 38.6924 83.4111Z" fill="#AC9745"/>
<path d="M96.9037 74.375C97.8256 74.5427 98.7475 74.7104 99.6974 74.8833C99.6496 78.1218 99.6496 78.1218 99.0368 81.6905C97.5438 82.5944 96.035 83.4723 94.5159 84.3317C92.4837 88.4279 91.4389 91.279 91.2646 95.8631C92.2369 94.7065 93.2091 93.5499 94.2109 92.3582C96.5283 93.5015 96.5283 93.5015 98.9347 94.9496C99.1694 95.7543 99.404 96.559 99.6457 97.3881C98.8411 97.6227 98.0365 97.8573 97.2076 98.0991C97.9618 99.1888 98.7161 100.279 99.4932 101.401C97.3457 102.914 95.1946 104.422 93.0421 105.928C91.8446 106.769 90.6471 107.609 89.4133 108.475C86.2862 110.544 86.2862 110.544 83.848 111.255C83.496 110.048 83.144 108.841 82.7814 107.597C83.9883 107.245 85.1952 106.893 86.4387 106.531C85.9694 104.921 85.5001 103.312 85.0166 101.654C85.7039 101.017 86.3912 100.38 87.0993 99.7236C86.9338 96.4172 86.4628 93.1959 86.0121 89.9171C85.9823 86.82 85.9823 86.82 88.9285 83.315C89.4481 83.6001 89.9678 83.8851 90.5031 84.1788C90.9558 82.7372 91.4084 81.2955 91.8748 79.8101C93.484 79.3409 95.0932 78.8717 96.7511 78.3882C96.1142 77.7008 95.4772 77.0134 94.821 76.3052C95.5083 75.6682 96.1956 75.0312 96.9037 74.375Z" fill="#AFA45E"/>
<path d="M46.0076 49.5283C47.1641 50.5007 48.3207 51.4732 49.5123 52.4751C49.0417 57.6577 46.9041 60.6092 43.8228 64.7175C43.2529 65.7568 42.6829 66.7962 42.0957 67.867C40.7375 69.1857 39.3531 70.4786 37.9303 71.7274C38.165 72.5321 38.3996 73.3368 38.6414 74.1659C39.9656 74.2164 41.2898 74.2668 42.6542 74.3188C42.8888 75.1235 43.1235 75.9282 43.3652 76.7573C37.1246 77.8969 31.6009 78.5553 25.2313 78.0761C27.0902 75.5423 28.8148 73.2062 31.1238 71.0662C31.0245 67.7517 31.0245 67.7517 30.5653 64.6144C31.2459 64.3171 31.9265 64.0197 32.6277 63.7133C39.9499 60.1718 42.7018 56.9419 46.0076 49.5283Z" fill="#CCAA52"/>
<path d="M33.4597 83.6143C42.8604 84.1063 51.9127 88.1302 58.6282 94.7964C62.2583 99.1333 63.4654 103.438 64.6469 108.917C63.373 107.542 62.0991 106.167 60.7866 104.751C59.982 104.985 59.1774 105.22 58.3485 105.461C57.8362 104.763 57.324 104.065 56.7963 103.346C50.6937 95.8421 45.3971 93.3934 36.0071 91.3051C34.9484 91.0135 33.8898 90.7219 32.7991 90.4215C32.5644 89.6168 32.3298 88.8121 32.088 87.983C33.1776 87.2287 34.2672 86.4744 35.3898 85.6973C34.7529 85.0099 34.1159 84.3225 33.4597 83.6143Z" fill="#CABE79"/>
<path d="M87.7607 61.1659C85.5815 62.6744 83.4024 64.183 81.1572 65.7372C82.716 66.5924 84.2749 67.4475 85.881 68.3286C84.2718 68.7978 82.6626 69.2671 81.0046 69.7505C80.8634 70.5352 80.7222 71.3199 80.5767 72.1284C80.1835 74.2743 79.7786 76.4182 79.3622 78.5597C77.9846 85.7716 77.0355 92.7973 76.6351 100.129C75.8305 100.364 75.0259 100.598 74.1969 100.84C73.0237 96.8164 71.8505 92.7928 70.6417 88.6473C71.4463 88.4127 72.2509 88.1781 73.0799 87.9364C73.2087 85.9739 73.3223 84.0104 73.4294 82.0467C73.4942 80.9534 73.5591 79.8601 73.6259 78.7337C73.8443 75.7705 73.8443 75.7705 71.6074 73.8135C71.7853 70.4543 71.7853 70.4543 73.4871 66.6508C78.0225 63.2069 82.0163 60.9471 87.7607 61.1659Z" fill="#D9A844"/>
<path d="M48.8033 18.2851C49.8425 18.8552 50.8817 19.4253 51.9525 20.0127C52.4042 22.7491 52.4042 22.7491 52.511 26.4645C52.5855 27.9656 52.66 29.4668 52.7368 31.0134C53.034 40.077 53.0639 48.4749 50.9352 57.3513C49.7283 57.7032 48.5214 58.0552 47.2779 58.4177C47.7117 56.8178 47.7117 56.8178 48.1543 55.1856C50.0506 48.0262 50.0506 48.0262 48.7516 40.79C47.662 41.5442 46.5725 42.2985 45.4499 43.0756C45.0267 40.1122 44.6035 37.1488 44.1803 34.1853C43.8986 32.6576 43.6168 31.13 43.3265 29.556C42.7547 23.6955 42.781 20.0411 48.8033 18.2851Z" fill="#6E6343"/>
<path d="M67.4437 45.9228C68.3153 47.415 69.1869 48.9071 70.0849 50.4444C70.8895 50.2098 71.6941 49.9752 72.5231 49.7335C73.3035 50.3518 74.084 50.97 74.8881 51.607C77.9546 53.7955 79.1936 53.8792 82.8343 53.3415C81.5101 53.2911 80.1859 53.2406 78.8215 53.1887C78.8719 51.8643 78.9222 50.5399 78.9741 49.1754C79.871 49.3453 80.768 49.5152 81.6922 49.6903C88.6319 50.9828 95.5248 52.1254 102.543 52.8865C102.66 53.2888 102.777 53.6912 102.898 54.1058C94.0995 57.0014 85.8464 58.7118 76.5863 59.1321C78.0279 59.5849 79.4694 60.0377 80.9547 60.5042C78.5408 61.2081 76.127 61.9119 73.6401 62.6371C72.2489 60.8599 70.8577 59.0827 69.4243 57.2517C69.7093 56.732 69.9943 56.2124 70.2879 55.677C69.8942 54.0026 69.4274 52.3449 68.9198 50.7015C68.4327 49.1245 67.9456 47.5476 67.4437 45.9228Z" fill="#C38E2B"/>
<path d="M49.6144 39.2158C51.5802 44.296 51.1995 47.3369 49.5123 52.4748C48.473 51.9047 47.4338 51.3346 46.3631 50.7472C45.725 51.936 45.725 51.936 45.074 53.1488C39.589 62.6423 39.589 62.6423 34.3781 64.0812C33.1199 64.257 31.8616 64.4329 30.5653 64.6141C30.7999 65.4189 31.0346 66.2236 31.2763 67.0527C28.4826 66.5443 28.4826 66.5443 26.5525 64.4613C27.9543 63.234 27.9543 63.234 29.3844 61.9819C35.1097 56.4403 35.1097 56.4403 37.9819 49.2223C40.6673 47.9004 43.3945 46.6593 46.1601 45.5147C45.9254 44.71 45.6908 43.9053 45.449 43.0762C48.3953 39.5712 48.3953 39.5712 49.6144 39.2158Z" fill="#CEB867"/>
<path d="M42.6553 74.3184C46.0244 74.0017 48.6398 74.2593 52.0015 74.9004C55.8744 75.5724 58.8563 75.6179 62.7193 75.0826C63.0998 75.7851 63.4802 76.4876 63.8722 77.2114C64.3749 78.1341 64.8775 79.0568 65.3954 80.0074C65.8921 80.9216 66.3889 81.8358 66.9007 82.7776C68.4075 85.5227 68.4075 85.5227 70.6428 88.6474C71.3401 90.73 71.9759 92.8338 72.5633 94.9501C72.8726 96.0519 73.182 97.1537 73.5007 98.2889C73.7308 99.1308 73.9609 99.9726 74.198 100.84C73.5107 101.477 72.8235 102.114 72.1154 102.77C71.754 102.028 71.3927 101.286 71.0204 100.521C68.5989 95.6944 66.2692 91.1797 62.7411 87.0653C59.976 83.8201 59.976 83.8201 58.9095 80.1623C58.0253 80.311 57.141 80.4597 56.23 80.6128C51.5216 80.7471 48.0717 79.7408 43.7218 77.9761C43.3699 76.7691 43.0179 75.562 42.6553 74.3184Z" fill="#A4631C"/>
<path d="M29.7023 66.1892C30.6912 68.0837 31.6801 69.9781 32.699 71.93C30.9221 73.3213 29.1452 74.7125 27.3145 76.1459C29.1584 76.4814 31.0022 76.8169 32.902 77.1626C33.1366 77.9673 33.3712 78.772 33.613 79.6011C34.5349 79.7688 35.4568 79.9366 36.4067 80.1094C37.161 81.1992 37.9152 82.2889 38.6924 83.4117C37.4855 83.7636 36.2786 84.1155 35.0351 84.4781C36.0743 85.0482 37.1136 85.6183 38.1843 86.2057C36.1728 86.7922 34.1613 87.3788 32.0888 87.9831C31.4519 87.2957 30.815 86.6083 30.1587 85.9C27.2972 85.2349 27.2972 85.2349 24.5713 84.8834C25.9458 83.6094 27.3204 82.3355 28.7366 81.023C27.5297 81.3749 26.3228 81.7268 25.0793 82.0894C24.7274 80.8823 24.3754 79.6752 24.0128 78.4316C22.6886 78.3811 21.3643 78.3307 20 78.2787C20.0226 73.9398 20.368 71.8716 22.9655 68.3189C25.6895 66.0363 25.6895 66.0363 29.7023 66.1892Z" fill="#A08F52"/>
<path d="M30.3613 91.1318C38.1897 90.0831 45.8518 91.8152 52.3647 96.4208C55.4322 99.283 57.1658 101.404 58.3489 105.461C59.1535 105.226 59.9581 104.992 60.7871 104.75C61.776 106.644 62.7649 108.539 63.7838 110.491C61.0757 111.694 61.0757 111.694 57.6883 112.268C54.6342 110.041 52.5824 107.683 50.3423 104.653C47.227 100.868 43.6399 97.6682 39.4535 95.0953C38.1293 95.0449 36.805 94.9944 35.4407 94.9425C32.6502 93.0276 32.6502 93.0276 30.3613 91.1318Z" fill="#8D905E"/>
<path d="M63.3802 36.5244C64.3022 36.6922 65.2241 36.8599 66.1739 37.0327C66.4086 37.8374 66.6432 38.6422 66.885 39.4713C67.8069 39.639 68.7288 39.8068 69.6787 39.9796C71.3516 42.8818 71.3516 42.8818 72.6754 45.7204C73.0777 45.6031 73.48 45.4858 73.8945 45.365C73.5929 42.8335 73.2912 40.3021 72.9805 37.6939C77.2902 39.7807 79.9517 41.2182 81.9201 45.6707C82.1547 46.4754 82.3894 47.2801 82.6311 48.1092C84.366 49.5679 84.366 49.5679 86.1359 51.056C82.7667 50.7288 82.7667 50.7288 79.3294 50.3949C79.1617 51.3169 78.9941 52.2389 78.8213 53.1889C79.8459 53.0538 80.8705 52.9188 81.9262 52.7796C83.5825 52.7059 83.5825 52.7059 85.2723 52.6308C85.9093 53.3182 86.5462 54.0056 87.2024 54.7138C76.9919 55.1547 76.9919 55.1547 73.2339 52.1722C72.9992 51.3675 72.7646 50.5628 72.5229 49.7337C71.7183 49.9683 70.9136 50.2029 70.0847 50.4446C66.3385 44.3336 66.3385 44.3336 62.5167 38.0991C62.8016 37.5795 63.0866 37.0598 63.3802 36.5244Z" fill="#A06E1E"/>
<path d="M65.309 70.3584C67.6837 69.9967 67.6837 69.9967 70.5409 70.1558C73.4393 72.3302 74.2785 73.7318 75.0169 77.2843C74.9498 81.3729 74.2763 85.1597 73.4355 89.1557C69.4227 89.0028 69.4227 89.0028 67.3442 86.8183C65.3562 83.8766 63.5971 81.1494 62.2102 77.8766C63.3088 73.4221 63.3088 73.4221 65.309 70.3584Z" fill="#E3BA54"/>
<path d="M57.1839 19.811C57.5862 19.6937 57.9885 19.5764 58.4029 19.4555C58.9896 21.4673 59.5762 23.4791 60.1805 25.5518C61.9071 25.485 63.6336 25.4181 65.4124 25.3492C65.5801 24.4272 65.7478 23.5052 65.9205 22.5552C68.133 27.1489 70.3454 31.7426 72.6249 36.4754C70.7308 37.4643 68.8366 38.4532 66.885 39.472C65.8457 38.9019 64.8065 38.3318 63.7358 37.7445C62.9312 37.9791 62.1265 38.2137 61.2976 38.4554C60.5758 36.1028 59.8634 33.7473 59.1549 31.3907C58.7572 30.0793 58.3594 28.7679 57.9497 27.4167C57.0313 23.8242 57.0313 23.8242 57.1839 19.811Z" fill="#897637"/>
<path d="M63.2796 18.0332C64.2016 18.2009 65.1235 18.3687 66.0734 18.5415C67.5685 20.8341 67.5685 20.8341 68.7145 23.0631C69.1672 21.6214 69.6198 20.1797 70.0862 18.6944C72.8852 25.2998 75.6843 31.9053 78.5682 38.7109C77.8809 39.3479 77.1936 39.9848 76.4855 40.6411C75.8486 39.9537 75.2116 39.2663 74.5554 38.5581C74.4547 41.2068 74.354 43.8556 74.2503 46.5846C72.8088 46.1318 71.3672 45.679 69.882 45.2125C68.9938 40.6692 68.1055 36.126 67.1904 31.4451C67.5927 31.3278 67.995 31.2105 68.4095 31.0896C69.3984 32.9841 70.3873 34.8786 71.4062 36.8305C68.7244 30.6274 66.0427 24.4243 63.2796 18.0332Z" fill="#B5A768"/>
<path d="M33.9678 80.8203C42.2227 78.7979 49.2697 80.3559 57.181 83.3121C60.1094 85.1506 60.1094 85.1506 62.2604 87.1228C63.1651 91.3177 63.1747 92.9257 61.0918 96.724C59.527 95.2884 57.9774 93.8361 56.4346 92.3769C55.5702 91.5699 54.7057 90.763 53.815 89.9316C51.7966 87.528 51.7966 87.528 51.9491 83.5148C50.6626 83.7808 49.3761 84.0467 48.0506 84.3208C42.6489 84.8219 39.3235 84.0314 34.3233 82.0396C34.206 81.6372 34.0887 81.2349 33.9678 80.8203Z" fill="#D0AC5B"/>
<path d="M52.1056 16C55.6104 18.9468 55.6104 18.9468 56.677 22.6046C55.8723 22.8392 55.0677 23.0738 54.2388 23.3156C54.5553 24.2431 54.8717 25.1706 55.1978 26.1262C55.5874 27.3394 55.9769 28.5525 56.3783 29.8024C56.7754 31.0066 57.1726 32.2107 57.5817 33.4513C57.7691 34.5324 57.9565 35.6136 58.1495 36.7275C57.1772 37.8841 56.205 39.0407 55.2032 40.2324C55.2765 43.1143 55.2765 43.1143 56.0094 46.1159C56.2198 47.1357 56.4302 48.1555 56.647 49.2063C56.8242 49.9834 57.0013 50.7605 57.1838 51.5612C55.407 52.9525 53.6301 54.3437 51.7994 55.7771C51.0581 42.3961 51.0277 29.3661 52.1056 16Z" fill="#CC9C40"/>
<path d="M87.6095 33.4287C93.1969 34.4453 98.7843 35.462 104.372 36.4786C103.644 36.8819 102.915 37.2852 102.165 37.7008C99.8133 38.8795 99.8133 38.8795 98.9873 40.6945C106.001 42.559 112.514 43.5071 119.762 43.8973C117.133 45.7887 115.78 46.574 112.497 46.3569C111.548 46.139 110.6 45.921 109.622 45.6964C105.238 44.7234 101.492 44.1437 96.9853 44.7975C92.913 44.9334 90.6955 43.9217 87.079 42.0997C86.0011 41.5665 84.9231 41.0333 83.8125 40.4839C82.5992 39.8579 82.5992 39.8579 81.3615 39.2193C81.5291 38.2973 81.6968 37.3753 81.8695 36.4253C85.9092 38.3034 89.9489 40.1814 94.1109 42.1164C93.4805 39.9544 92.3533 38.2399 91.1142 36.3755C90.1923 36.2078 89.2704 36.0401 88.3205 35.8672C88.0859 35.0625 87.8512 34.2578 87.6095 33.4287Z" fill="#9C8947"/>
<path d="M84.5105 40.9463C85.4997 41.3741 85.4997 41.3741 86.5089 41.8105C92.7674 44.2978 95.6127 44.4856 102.136 42.4215C105.143 43.9427 105.143 43.9427 107.216 46.2321C107.165 47.5565 107.115 48.8809 107.063 50.2454C102.447 50.822 98.685 50.656 94.1517 49.628C92.5524 49.2834 92.5524 49.2834 90.9209 48.9319C87.6126 47.8225 85.4443 46.3242 82.7833 44.0958C83.3533 43.0564 83.9232 42.0171 84.5105 40.9463Z" fill="#D9BB63"/>
<path d="M78.77 75.6943C81.5578 79.7221 80.9219 81.7014 80.4399 86.4006C80.0482 93.1821 80.7189 99.968 81.2071 106.734C79.7152 107.606 78.2233 108.477 76.6862 109.375C75.4627 106.676 74.2391 103.977 72.9785 101.196C74.1854 100.844 75.3923 100.492 76.6358 100.129C76.5884 99.4525 76.5411 98.7756 76.4924 98.0782C76.4154 93.9687 76.7584 89.9496 77.103 85.8543C77.2316 84.2837 77.3601 82.7131 77.4926 81.0949C77.9065 77.269 77.9065 77.269 78.77 75.6943Z" fill="#B88225"/>
<path d="M33.2568 78.3818C40.5445 76.674 45.2416 76.8312 52.3367 79.2263C55.0898 80.1889 55.0898 80.1889 58.9083 80.1627C66.5255 88.0138 71.4833 96.9265 74.7553 107.292C70.2412 103.497 67.9401 98.8321 65.1913 93.7097C62.0028 88.1315 59.0791 85.6047 53.1683 83.1593C49.7707 82.2531 46.3717 81.6454 42.8983 81.1103C42.0011 80.9601 41.1039 80.8098 40.1795 80.6551C37.9925 80.2908 35.8027 79.9441 33.6124 79.6011C33.495 79.1987 33.3777 78.7964 33.2568 78.3818Z" fill="#6D3909"/>
<path d="M57.1824 51.5615C57.1604 55.7809 56.8374 57.9287 54.347 61.4007C51.3448 63.9286 49.2098 64.8155 45.3974 65.5812C45.6321 66.3859 45.8667 67.1907 46.1085 68.0198C42.7054 71.7816 39.5044 72.8286 34.6286 74.013C36.4591 71.4545 38.1766 69.1639 40.5433 67.0793C42.8154 65.0725 42.8154 65.0725 44.3086 61.8472C46.1934 58.5361 47.2775 57.806 50.5789 56.1328C51.3091 55.456 52.0393 54.7793 52.7917 54.082C54.7442 52.2724 54.7442 52.2724 57.1824 51.5615Z" fill="#D5A635"/>
<path d="M97.4623 80.8274C98.0993 81.5148 98.7362 82.2022 99.3925 82.9105C100.599 82.5586 101.806 82.2066 103.05 81.8441C102.312 83.8054 101.575 85.7668 100.815 87.7875C101.736 87.9553 102.658 88.123 103.608 88.2959C102.268 88.8914 102.268 88.8914 100.9 89.4989C97.6758 91.4063 96.7309 92.6421 95.2776 96.0167C94.6406 95.3293 94.0037 94.6419 93.3474 93.9336C92.8445 96.6997 92.3415 99.4657 91.8233 102.316C89.8338 99.6172 89.1059 98.3823 89.5443 94.996C89.8533 94.0209 90.1624 93.0457 90.4808 92.041C90.7763 91.0663 91.0718 90.0917 91.3763 89.0875C94.1004 81.8077 94.1004 81.8077 97.4623 80.8274Z" fill="#9A8E49"/>
</g>
<defs>
<filter id="filter0_d_813_7336" x="-14.2207" y="-15.9961" width="169.626" height="167.045" filterUnits="userSpaceOnUse" color-interpolation-filters="sRGB">
<feFlood flood-opacity="0" result="BackgroundImageFix"/>
<feColorMatrix in="SourceAlpha" type="matrix" values="0 0 0 0 0 0 0 0 0 0 0 0 0 0 0 0 0 0 127 0" result="hardAlpha"/>
<feOffset dy="4"/>
<feGaussianBlur stdDeviation="10"/>
<feComposite in2="hardAlpha" operator="out"/>
<feColorMatrix type="matrix" values="0 0 0 0 1 0 0 0 0 1 0 0 0 0 0 0 0 0 0.75 0"/>
<feBlend mode="normal" in2="BackgroundImageFix" result="effect1_dropShadow_813_7336"/>
<feBlend mode="normal" in="SourceGraphic" in2="effect1_dropShadow_813_7336" result="shape"/>
</filter>
</defs>
</svg>
