<svg xmlns="http://www.w3.org/2000/svg" version="1.1" xmlns:xlink="http://www.w3.org/1999/xlink" width="1000" height="1000"><metadata><rdf:RDF xmlns:rdf="http://www.w3.org/1999/02/22-rdf-syntax-ns#" xmlns:dc="http://purl.org/dc/elements/1.1/"><rdf:Description><dc:creator>RealFaviconGenerator</dc:creator><dc:source>https://realfavicongenerator.net</dc:source></rdf:Description></rdf:RDF></metadata><style>
    #light-icon {
      display: inline;
    }
    #dark-icon {
      display: none;
    }

    @media (prefers-color-scheme: dark) {
      #light-icon {
        display: none;
      }
      #dark-icon {
        display: inline;
      }
    }
  </style><g id="light-icon"><svg xmlns="http://www.w3.org/2000/svg" version="1.1" xmlns:xlink="http://www.w3.org/1999/xlink" width="1000" height="1000"><g clip-path="url(#SvgjsClipPath1164)"><rect width="1000" height="1000" fill="#ffffff"></rect><g transform="matrix(0.9695290858725761,0,0,0.9695290858725761,192.65927977839334,150)"><svg xmlns="http://www.w3.org/2000/svg" width="634" height="722" viewBox="0 0 634 722" fill="none"><path d="M24.4257 356.078C24.0359 336.589 25.776 306.325 38.2629 272.595C66.1878 197.159 135.722 137.37 216.379 122.252C223.924 120.846 346.301 99.4913 391.626 168.218C413.245 201.015 407.482 237.863 406.953 240.995C398.295 291.5 350.686 320.58 279.593 362.607C217.437 399.358 199.019 397.854 134.037 441.134C109.203 457.671 82.7674 477.244 60.2019 510.194C49.9424 525.173 33.2932 550.481 30.8292 584.253C30.2167 592.591 29.1309 610.034 36.6759 630.428C40.1561 639.838 44.4576 647.132 47.8543 652.13C38.4578 642.163 25.776 626.488 15.8227 604.786C-12.8401 542.24 4.90881 481.156 11.4655 462.196C31.4695 404.272 73.7468 371.864 117.764 338.663C198.49 277.774 266.925 264.159 264.071 234.397C262.456 217.581 239.125 206.347 236.41 205.024C215.738 195.057 194.927 201.001 171.721 208.003C163.438 210.509 123.541 223.079 81.8626 259.635C65.2273 274.224 48.077 289.579 35.966 316.112C28.7133 331.912 25.7621 346.222 24.4257 356.078Z" fill="url(#paint0_radial_134_179)"></path><path d="M264.058 234.411C266.939 230.666 284.744 206.806 277.672 178.77C269.236 145.318 232.513 134.154 227.543 132.65C177.471 117.421 127.621 158.264 105.208 176.612C69.0839 206.207 51.335 239.979 43.6925 257.004C24.9552 298.752 23.7163 336.283 24.4401 356.092C25.2893 350.524 26.7092 343.41 29.1871 335.336C30.2172 331.967 34.2542 319.23 42.3561 305.086C54.8151 283.3 70.2533 269.797 83.4501 258.257C102.438 241.636 119.602 231.474 128.303 226.657C138.882 220.796 157.021 210.913 182.677 204.69C209.836 198.092 221.404 199.957 227.042 201.586C237.135 204.495 245.626 210.231 248.55 212.333C255.329 217.177 257.946 220.782 259.004 222.342C262.095 226.935 263.431 231.432 264.058 234.411Z" fill="url(#paint1_radial_134_179)"></path><path d="M529.595 574.856C511.289 599.412 480.566 634.52 433.876 664.686C400.661 686.138 336.57 727.636 254.062 720.439C175.911 713.618 79.2453 663.197 74.039 597.227C71.4775 564.917 91.5651 537.465 106.599 516.793C114.66 505.698 134.497 480.891 212.578 438.266C264.892 409.715 271.268 412.513 349.335 372.866C398.99 347.656 425.913 329.949 441.449 319.522C502.407 278.623 520.059 254.512 529.233 239.506C543.32 216.453 549.807 194.542 553.065 179.494C552.578 202.268 549.265 237.209 534.342 276.535C508.379 344.941 463.109 384.866 443.37 401.877C423.449 419.041 399.575 432.934 351.757 460.609C266.214 510.139 235.255 518.004 226.624 549.98C220.026 574.452 228.304 600.506 241 616C263.83 643.869 302.044 646.567 337.5 647.5C399.893 649.156 447.796 624.289 470.07 613.18C496.241 600.136 516.161 585.742 529.595 574.856Z" fill="url(#paint2_linear_134_179)"></path><path d="M225.691 553.934C221.961 558.611 196.43 591.812 205.673 635.259C212.648 668.042 235.144 686.57 241.923 691.721C263.347 707.994 285.634 710.597 297.467 711.836C355.224 717.836 402.164 686.167 437.175 662.543C461.063 646.423 496.032 618.888 529.595 574.87C508.741 591.77 489.531 603.116 475.304 610.521C466.937 614.865 415.333 641.077 347.887 645.616C334.997 646.479 317.749 646.813 297.146 642.901C281.499 639.936 269.806 637.709 257.096 628.966C249.482 623.732 234.64 608.106 228 586C223.448 570.854 224.397 560.783 225.691 553.934Z" fill="url(#paint3_radial_134_179)"></path><path d="M634.001 78.2762C628.892 78.3876 592.239 79.8493 569.158 110.196C555.07 128.725 553.288 148.506 553.038 156.552C552.773 148.492 551.005 128.725 536.918 110.196C513.851 79.8493 477.184 78.4015 472.075 78.2762H469.959C475.068 78.1649 511.721 76.7032 534.802 46.356C548.889 27.8275 550.671 8.04618 550.922 0C551.186 8.0601 552.954 27.8275 567.042 46.356C590.109 76.7032 626.776 78.1509 631.885 78.2762" fill="url(#paint4_radial_134_179)"></path><path d="M574.114 568.035C593.996 568.035 610.113 551.918 610.113 532.036C610.113 512.154 593.996 496.037 574.114 496.037C554.233 496.037 538.115 512.154 538.115 532.036C538.115 551.918 554.233 568.035 574.114 568.035Z" fill="url(#paint5_radial_134_179)"></path><defs>
<radialGradient id="paint0_radial_134_179" cx="0" cy="0" r="1" gradientTransform="matrix(102.801 214.251 -502.62 241.199 -5.39503 288.058)" gradientUnits="userSpaceOnUse">
<stop stop-color="#3E7DA8"></stop>
<stop offset="0.1825" stop-color="#3A79A7"></stop>
<stop offset="0.3686" stop-color="#2F6DA3"></stop>
<stop offset="0.5559" stop-color="#1C589D"></stop>
<stop offset="0.6168" stop-color="#14509B"></stop>
<stop offset="1" stop-color="#0B1E38"></stop>
</radialGradient>
<radialGradient id="paint1_radial_134_179" cx="0" cy="0" r="1" gradientUnits="userSpaceOnUse" gradientTransform="translate(91.7894 295.042) scale(232.141 232.141)">
<stop stop-color="#4888C8"></stop>
<stop offset="0.4409" stop-color="#4888C8"></stop>
<stop offset="0.9963" stop-color="#0B1E38"></stop>
</radialGradient>
<linearGradient id="paint2_linear_134_179" x1="54.5" y1="965" x2="553" y2="228.5" gradientUnits="userSpaceOnUse">
<stop offset="0.0192308" stop-color="#92CFE3"></stop>
<stop offset="0.259615" stop-color="#7FC5DC"></stop>
<stop offset="0.6128" stop-color="#4888C8"></stop>
<stop offset="0.9454" stop-color="#0B1E38"></stop>
</linearGradient>
<radialGradient id="paint3_radial_134_179" cx="0" cy="0" r="1" gradientUnits="userSpaceOnUse" gradientTransform="translate(475.793 628.781) scale(292.183 292.183)">
<stop stop-color="#7FC5DC"></stop>
<stop offset="0.3689" stop-color="#4888C8"></stop>
<stop offset="1" stop-color="#0B1E38"></stop>
</radialGradient>
<radialGradient id="paint4_radial_134_179" cx="0" cy="0" r="1" gradientUnits="userSpaceOnUse" gradientTransform="translate(551.976 78.2982) scale(102.615 108.792)">
<stop stop-color="#E8E163"></stop>
<stop offset="0.1391" stop-color="#E4CA4F"></stop>
<stop offset="0.3382" stop-color="#E0B139"></stop>
<stop offset="0.5444" stop-color="#DD9E29"></stop>
<stop offset="0.7599" stop-color="#DC941F"></stop>
<stop offset="1" stop-color="#DB901C"></stop>
</radialGradient>
<radialGradient id="paint5_radial_134_179" cx="0" cy="0" r="1" gradientTransform="matrix(-50.3624 24.6582 -24.1796 -49.3845 559 549.5)" gradientUnits="userSpaceOnUse">
<stop stop-color="#18548F"></stop>
<stop offset="0.8658" stop-color="#7FC5DC"></stop>
</radialGradient>
<clipPath id="SvgjsClipPath1164"><rect width="1000" height="1000" x="0" y="0" rx="300" ry="300"></rect></clipPath></defs></svg></g></g></svg></g><g id="dark-icon"><svg xmlns="http://www.w3.org/2000/svg" version="1.1" xmlns:xlink="http://www.w3.org/1999/xlink" width="1000" height="1000"><g clip-path="url(#SvgjsClipPath1165)"><rect width="1000" height="1000" fill="#ffffff"></rect><g transform="matrix(0.9695290858725761,0,0,0.9695290858725761,192.65927977839334,150)"><svg xmlns="http://www.w3.org/2000/svg" width="634" height="722" viewBox="0 0 634 722" fill="none"><path d="M24.4257 356.078C24.0359 336.589 25.776 306.325 38.2629 272.595C66.1878 197.159 135.722 137.37 216.379 122.252C223.924 120.846 346.301 99.4913 391.626 168.218C413.245 201.015 407.482 237.863 406.953 240.995C398.295 291.5 350.686 320.58 279.593 362.607C217.437 399.358 199.019 397.854 134.037 441.134C109.203 457.671 82.7674 477.244 60.2019 510.194C49.9424 525.173 33.2932 550.481 30.8292 584.253C30.2167 592.591 29.1309 610.034 36.6759 630.428C40.1561 639.838 44.4576 647.132 47.8543 652.13C38.4578 642.163 25.776 626.488 15.8227 604.786C-12.8401 542.24 4.90881 481.156 11.4655 462.196C31.4695 404.272 73.7468 371.864 117.764 338.663C198.49 277.774 266.925 264.159 264.071 234.397C262.456 217.581 239.125 206.347 236.41 205.024C215.738 195.057 194.927 201.001 171.721 208.003C163.438 210.509 123.541 223.079 81.8626 259.635C65.2273 274.224 48.077 289.579 35.966 316.112C28.7133 331.912 25.7621 346.222 24.4257 356.078Z" fill="url(#paint0_radial_134_179)"></path><path d="M264.058 234.411C266.939 230.666 284.744 206.806 277.672 178.77C269.236 145.318 232.513 134.154 227.543 132.65C177.471 117.421 127.621 158.264 105.208 176.612C69.0839 206.207 51.335 239.979 43.6925 257.004C24.9552 298.752 23.7163 336.283 24.4401 356.092C25.2893 350.524 26.7092 343.41 29.1871 335.336C30.2172 331.967 34.2542 319.23 42.3561 305.086C54.8151 283.3 70.2533 269.797 83.4501 258.257C102.438 241.636 119.602 231.474 128.303 226.657C138.882 220.796 157.021 210.913 182.677 204.69C209.836 198.092 221.404 199.957 227.042 201.586C237.135 204.495 245.626 210.231 248.55 212.333C255.329 217.177 257.946 220.782 259.004 222.342C262.095 226.935 263.431 231.432 264.058 234.411Z" fill="url(#paint1_radial_134_179)"></path><path d="M529.595 574.856C511.289 599.412 480.566 634.52 433.876 664.686C400.661 686.138 336.57 727.636 254.062 720.439C175.911 713.618 79.2453 663.197 74.039 597.227C71.4775 564.917 91.5651 537.465 106.599 516.793C114.66 505.698 134.497 480.891 212.578 438.266C264.892 409.715 271.268 412.513 349.335 372.866C398.99 347.656 425.913 329.949 441.449 319.522C502.407 278.623 520.059 254.512 529.233 239.506C543.32 216.453 549.807 194.542 553.065 179.494C552.578 202.268 549.265 237.209 534.342 276.535C508.379 344.941 463.109 384.866 443.37 401.877C423.449 419.041 399.575 432.934 351.757 460.609C266.214 510.139 235.255 518.004 226.624 549.98C220.026 574.452 228.304 600.506 241 616C263.83 643.869 302.044 646.567 337.5 647.5C399.893 649.156 447.796 624.289 470.07 613.18C496.241 600.136 516.161 585.742 529.595 574.856Z" fill="url(#paint2_linear_134_179)"></path><path d="M225.691 553.934C221.961 558.611 196.43 591.812 205.673 635.259C212.648 668.042 235.144 686.57 241.923 691.721C263.347 707.994 285.634 710.597 297.467 711.836C355.224 717.836 402.164 686.167 437.175 662.543C461.063 646.423 496.032 618.888 529.595 574.87C508.741 591.77 489.531 603.116 475.304 610.521C466.937 614.865 415.333 641.077 347.887 645.616C334.997 646.479 317.749 646.813 297.146 642.901C281.499 639.936 269.806 637.709 257.096 628.966C249.482 623.732 234.64 608.106 228 586C223.448 570.854 224.397 560.783 225.691 553.934Z" fill="url(#paint3_radial_134_179)"></path><path d="M634.001 78.2762C628.892 78.3876 592.239 79.8493 569.158 110.196C555.07 128.725 553.288 148.506 553.038 156.552C552.773 148.492 551.005 128.725 536.918 110.196C513.851 79.8493 477.184 78.4015 472.075 78.2762H469.959C475.068 78.1649 511.721 76.7032 534.802 46.356C548.889 27.8275 550.671 8.04618 550.922 0C551.186 8.0601 552.954 27.8275 567.042 46.356C590.109 76.7032 626.776 78.1509 631.885 78.2762" fill="url(#paint4_radial_134_179)"></path><path d="M574.114 568.035C593.996 568.035 610.113 551.918 610.113 532.036C610.113 512.154 593.996 496.037 574.114 496.037C554.233 496.037 538.115 512.154 538.115 532.036C538.115 551.918 554.233 568.035 574.114 568.035Z" fill="url(#paint5_radial_134_179)"></path><defs>
<radialGradient id="paint0_radial_134_179" cx="0" cy="0" r="1" gradientTransform="matrix(102.801 214.251 -502.62 241.199 -5.39503 288.058)" gradientUnits="userSpaceOnUse">
<stop stop-color="#3E7DA8"></stop>
<stop offset="0.1825" stop-color="#3A79A7"></stop>
<stop offset="0.3686" stop-color="#2F6DA3"></stop>
<stop offset="0.5559" stop-color="#1C589D"></stop>
<stop offset="0.6168" stop-color="#14509B"></stop>
<stop offset="1" stop-color="#0B1E38"></stop>
</radialGradient>
<radialGradient id="paint1_radial_134_179" cx="0" cy="0" r="1" gradientUnits="userSpaceOnUse" gradientTransform="translate(91.7894 295.042) scale(232.141 232.141)">
<stop stop-color="#4888C8"></stop>
<stop offset="0.4409" stop-color="#4888C8"></stop>
<stop offset="0.9963" stop-color="#0B1E38"></stop>
</radialGradient>
<linearGradient id="paint2_linear_134_179" x1="54.5" y1="965" x2="553" y2="228.5" gradientUnits="userSpaceOnUse">
<stop offset="0.0192308" stop-color="#92CFE3"></stop>
<stop offset="0.259615" stop-color="#7FC5DC"></stop>
<stop offset="0.6128" stop-color="#4888C8"></stop>
<stop offset="0.9454" stop-color="#0B1E38"></stop>
</linearGradient>
<radialGradient id="paint3_radial_134_179" cx="0" cy="0" r="1" gradientUnits="userSpaceOnUse" gradientTransform="translate(475.793 628.781) scale(292.183 292.183)">
<stop stop-color="#7FC5DC"></stop>
<stop offset="0.3689" stop-color="#4888C8"></stop>
<stop offset="1" stop-color="#0B1E38"></stop>
</radialGradient>
<radialGradient id="paint4_radial_134_179" cx="0" cy="0" r="1" gradientUnits="userSpaceOnUse" gradientTransform="translate(551.976 78.2982) scale(102.615 108.792)">
<stop stop-color="#E8E163"></stop>
<stop offset="0.1391" stop-color="#E4CA4F"></stop>
<stop offset="0.3382" stop-color="#E0B139"></stop>
<stop offset="0.5444" stop-color="#DD9E29"></stop>
<stop offset="0.7599" stop-color="#DC941F"></stop>
<stop offset="1" stop-color="#DB901C"></stop>
</radialGradient>
<radialGradient id="paint5_radial_134_179" cx="0" cy="0" r="1" gradientTransform="matrix(-50.3624 24.6582 -24.1796 -49.3845 559 549.5)" gradientUnits="userSpaceOnUse">
<stop stop-color="#18548F"></stop>
<stop offset="0.8658" stop-color="#7FC5DC"></stop>
</radialGradient>
<clipPath id="SvgjsClipPath1165"><rect width="1000" height="1000" x="0" y="0" rx="300" ry="300"></rect></clipPath></defs></svg></g></g></svg></g></svg>