<svg width="96" height="105" viewBox="0 0 96 105" fill="none" xmlns="http://www.w3.org/2000/svg">
<path d="M3.69853 51.7843C3.6395 48.95 3.90299 44.5487 5.79375 39.6435C10.0221 28.6728 20.551 19.9777 32.764 17.7791C33.9065 17.5746 52.4367 14.469 59.2998 24.4639C62.5734 29.2336 61.7007 34.5923 61.6206 35.048C60.3097 42.3927 53.1007 46.6218 42.3358 52.7338C32.9242 58.0785 30.1354 57.8597 20.2958 64.1539C16.5355 66.559 12.5326 69.4054 9.11574 74.1973C7.56225 76.3757 5.04124 80.0562 4.66814 84.9676C4.5754 86.1802 4.41099 88.7169 5.55345 91.6828C6.08042 93.0513 6.73175 94.1122 7.24608 94.8389C5.82326 93.3894 3.90299 91.1098 2.39586 87.9537C-1.94424 78.8577 0.743288 69.9743 1.7361 67.2169C4.7651 58.7931 11.1667 54.08 17.8318 49.2516C30.0553 40.3966 40.4177 38.4167 39.9855 34.0883C39.741 31.6427 36.2082 30.009 35.7971 29.8166C32.667 28.3671 29.5158 29.2315 26.0019 30.2498C24.7477 30.6143 18.7065 32.4425 12.3956 37.7586C9.87669 39.8803 7.2798 42.1134 5.44595 45.972C4.34775 48.2698 3.90088 50.3509 3.69853 51.7843Z" fill="url(#paint0_radial_53_2)"/>
<path d="M39.9834 34.0902C40.4198 33.5455 43.1156 30.0756 42.0448 25.9983C40.7676 21.1334 35.207 19.5099 34.4544 19.2913C26.8724 17.0764 19.3241 23.0163 15.9305 25.6845C10.4606 29.9886 7.77303 34.8999 6.61581 37.3759C3.77861 43.4474 3.59102 48.9054 3.70062 51.7862C3.8292 50.9764 4.0442 49.9418 4.4194 48.7676C4.5754 48.2777 5.18666 46.4253 6.41345 44.3684C8.3 41.2002 10.6376 39.2363 12.6359 37.5581C15.5109 35.1409 18.1101 33.6631 19.4274 32.9625C21.0294 32.1103 23.776 30.6729 27.6607 29.7679C31.7733 28.8083 33.5249 29.0796 34.3786 29.3165C35.9067 29.7395 37.1926 30.5737 37.6352 30.8794C38.6618 31.5838 39.0581 32.1083 39.2183 32.335C39.6861 33.0031 39.8886 33.6569 39.9834 34.0902Z" fill="url(#paint1_radial_53_2)"/>
<path d="M80.191 83.601C77.4191 87.1722 72.7671 92.2779 65.6973 96.6651C60.6679 99.7847 50.9633 105.82 38.4699 104.773C26.6364 103.781 11.9993 96.4484 11.2109 86.8544C10.8231 82.1556 13.8647 78.1633 16.1412 75.1569C17.3618 73.5434 20.3655 69.9357 32.1885 63.7368C40.1098 59.5846 41.0753 59.9916 52.8961 54.2259C60.4149 50.5595 64.4916 47.9843 66.844 46.4679C76.0742 40.52 78.7471 37.0137 80.1362 34.8313C82.2693 31.4787 83.2515 28.2922 83.7449 26.1038C83.6711 29.4158 83.1694 34.4972 80.9098 40.2164C76.9785 50.1648 70.1237 55.9709 67.1349 58.4448C64.1185 60.9411 60.5035 62.9614 53.2629 66.9861C40.31 74.1892 35.6222 75.333 34.3153 79.9833C33.3162 83.5424 34.5697 87.3313 36.4921 89.5845C39.949 93.6375 45.7354 94.0299 51.1041 94.1656C60.5516 94.4065 67.8051 90.79 71.1778 89.1744C75.1406 87.2775 78.1569 85.1841 80.191 83.601Z" fill="url(#paint2_linear_53_2)"/>
<path d="M34.5236 79.4771C33.9587 80.1572 29.7433 86.0667 31.1429 92.3851C32.1991 97.1528 35.6054 99.8473 36.6319 100.596C39.8759 102.963 43.2506 103.342 45.0423 103.522C53.7878 104.394 60.8955 99.7886 66.1968 96.3531C69.8139 94.0088 75.1089 90.0042 80.191 83.6029C77.0333 86.0606 74.1245 87.7105 71.9703 88.7876C70.7035 89.4192 62.8895 93.2313 52.677 93.8913C50.7251 94.0168 48.1134 94.0654 44.9939 93.4966C42.6246 93.0654 40.8539 92.7414 38.9295 91.47C37.7764 90.7089 35.5291 88.4364 34.5236 85.2215C33.8344 83.0188 34.3276 80.4731 34.5236 79.4771Z" fill="url(#paint3_radial_53_2)"/>
<path d="M96 11.3837C95.2264 11.3999 89.6764 11.6124 86.1815 16.0257C84.0483 18.7204 83.7785 21.5971 83.7406 22.7673C83.7005 21.5951 83.4328 18.7204 81.2997 16.0257C77.8069 11.6124 72.2548 11.4019 71.4812 11.3837H71.1608C71.9344 11.3675 77.4844 11.1549 80.9793 6.74152C83.1125 4.04694 83.3822 1.17015 83.4202 0C83.4602 1.17218 83.7279 4.04694 85.8611 6.74152C89.3539 11.1549 94.906 11.3654 95.6796 11.3837" fill="url(#paint4_radial_53_2)"/>
<path d="M86.9321 82.609C89.9425 82.609 92.383 80.2652 92.383 77.3737C92.383 74.4823 89.9425 72.1384 86.9321 72.1384C83.9216 72.1384 81.4811 74.4823 81.4811 77.3737C81.4811 80.2652 83.9216 82.609 86.9321 82.609Z" fill="url(#paint5_radial_53_2)"/>
<defs>
<radialGradient id="paint0_radial_53_2" cx="0" cy="0" r="1" gradientTransform="matrix(15.5661 31.1584 -76.1065 35.0774 -0.816916 41.8922)" gradientUnits="userSpaceOnUse">
<stop stop-color="#3E7DA8"/>
<stop offset="0.1825" stop-color="#3A79A7"/>
<stop offset="0.3686" stop-color="#2F6DA3"/>
<stop offset="0.5559" stop-color="#1C589D"/>
<stop offset="0.6168" stop-color="#14509B"/>
<stop offset="1" stop-color="#0B1E38"/>
</radialGradient>
<radialGradient id="paint1_radial_53_2" cx="0" cy="0" r="1" gradientUnits="userSpaceOnUse" gradientTransform="translate(13.8986 42.9077) scale(35.1507 33.7601)">
<stop stop-color="#4888C8"/>
<stop offset="0.4409" stop-color="#4888C8"/>
<stop offset="0.9963" stop-color="#0B1E38"/>
</radialGradient>
<linearGradient id="paint2_linear_53_2" x1="8.25236" y1="140.339" x2="79.6199" y2="30.5556" gradientUnits="userSpaceOnUse">
<stop offset="0.0192308" stop-color="#92CFE3"/>
<stop offset="0.259615" stop-color="#7FC5DC"/>
<stop offset="0.6128" stop-color="#4888C8"/>
<stop offset="0.9454" stop-color="#0B1E38"/>
</linearGradient>
<radialGradient id="paint3_radial_53_2" cx="0" cy="0" r="1" gradientUnits="userSpaceOnUse" gradientTransform="translate(72.0443 91.4431) scale(44.2422 42.492)">
<stop stop-color="#7FC5DC"/>
<stop offset="0.3689" stop-color="#4888C8"/>
<stop offset="1" stop-color="#0B1E38"/>
</radialGradient>
<radialGradient id="paint4_radial_53_2" cx="0" cy="0" r="1" gradientUnits="userSpaceOnUse" gradientTransform="translate(83.5798 11.3869) scale(15.5379 15.8216)">
<stop stop-color="#E8E163"/>
<stop offset="0.1391" stop-color="#E4CA4F"/>
<stop offset="0.3382" stop-color="#E0B139"/>
<stop offset="0.5444" stop-color="#DD9E29"/>
<stop offset="0.7599" stop-color="#DC941F"/>
<stop offset="1" stop-color="#DB901C"/>
</radialGradient>
<radialGradient id="paint5_radial_53_2" cx="0" cy="0" r="1" gradientTransform="matrix(-7.62585 3.58603 -3.66126 -7.18195 84.6435 79.9135)" gradientUnits="userSpaceOnUse">
<stop stop-color="#18548F"/>
<stop offset="0.8658" stop-color="#7FC5DC"/>
</radialGradient>
</defs>
</svg>
