<svg width="186" height="46" viewBox="4 0 186 46" fill="none" xmlns="http://www.w3.org/2000/svg">
<g>
<g clip-path="url(#clip0_158_38)">
<g>
<mask id="mask0_158_38" style="mask-type:luminance" maskUnits="userSpaceOnUse" x="4" y="0" width="40" height="46">
<path d="M44 0H4V46H44V0Z" fill="white"/>
</mask>
<g mask="url(#mask0_158_38)">
<path d="M5.54105 22.6864C5.51646 21.4447 5.62625 19.5165 6.41406 17.3676C8.17589 12.5614 12.5629 8.75212 17.6517 7.78892C18.1277 7.69934 25.8487 6.33879 28.7083 10.7175C30.0723 12.8071 29.7087 15.1547 29.6752 15.3543C29.129 18.572 26.1254 20.4248 21.6399 23.1025C17.7184 25.4438 16.5564 25.3481 12.4566 28.1056C10.8898 29.1591 9.22192 30.4061 7.79822 32.5054C7.15094 33.4598 6.10053 35.0722 5.94505 37.224C5.90641 37.7551 5.83792 38.8664 6.31393 40.1658C6.53351 40.7653 6.80489 41.23 7.0192 41.5484C6.42636 40.9135 5.62625 39.9148 4.99828 38.5321C3.1899 34.5472 4.3097 30.6553 4.72338 29.4473C5.98545 25.7569 8.65279 23.6922 11.4299 21.5768C16.523 17.6975 20.8407 16.8302 20.6606 14.9339C20.5587 13.8625 19.0868 13.1468 18.9155 13.0625C17.6112 12.4275 16.2982 12.8062 14.8341 13.2523C14.3115 13.4119 11.7944 14.2129 9.16484 16.5419C8.11529 17.4713 7.03324 18.4496 6.26915 20.1401C5.81156 21.1468 5.62537 22.0584 5.54105 22.6864Z" fill="url(#paint0_radial_158_38)"/>
<path d="M20.6598 14.9348C20.8416 14.6962 21.9649 13.176 21.5187 11.3898C20.9865 9.25847 18.6696 8.54719 18.356 8.45144C15.1969 7.48111 12.0517 10.0834 10.6377 11.2523C8.35858 13.1379 7.23878 15.2895 6.7566 16.3742C5.57444 19.0342 5.49627 21.4253 5.54194 22.6873C5.59551 22.3325 5.6851 21.8793 5.84144 21.3649C5.90642 21.1503 6.16113 20.3388 6.67229 19.4376C7.45834 18.0496 8.43236 17.1893 9.26497 16.454C10.4629 15.3951 11.5459 14.7476 12.0948 14.4407C12.7623 14.0674 13.9067 13.4377 15.5253 13.0412C17.2389 12.6208 17.9687 12.7396 18.3244 12.8434C18.9612 13.0288 19.4969 13.3942 19.6813 13.5281C20.1091 13.8368 20.2742 14.0665 20.341 14.1658C20.5359 14.4585 20.6203 14.745 20.6598 14.9348Z" fill="url(#paint1_radial_158_38)"/>
<path d="M37.4128 36.6253C36.2579 38.1897 34.3195 40.4266 31.3739 42.3486C29.2782 43.7152 25.2348 46.359 20.0291 45.9005C15.0985 45.4659 8.99969 42.2536 8.67121 38.0505C8.5096 35.992 9.77695 34.2429 10.7255 32.9259C11.2341 32.219 12.4856 30.6385 17.4118 27.9228C20.7124 26.1038 21.1147 26.282 26.04 23.7561C29.1728 22.1499 30.8715 21.0217 31.8516 20.3573C35.6976 17.7516 36.8112 16.2155 37.39 15.2594C38.2788 13.7906 38.6882 12.3946 38.8936 11.4359C38.863 12.8869 38.654 15.113 37.7125 17.6186C36.0744 21.977 33.2183 24.5205 31.9728 25.6043C30.7159 26.6979 29.2098 27.583 26.1929 29.3463C20.7958 32.5019 18.8426 33.0031 18.298 35.0403C17.8818 36.5995 18.404 38.2594 19.205 39.2466C20.6454 41.0222 23.0563 41.194 25.2933 41.2534C29.2299 41.359 32.2521 39.7746 33.6574 39.0669C35.3085 38.2358 36.5654 37.3187 37.4128 36.6253Z" fill="url(#paint2_linear_158_38)"/>
<path d="M18.3849 34.8186C18.1495 35.1167 16.3931 37.7056 16.9762 40.4735C17.4163 42.5623 18.8356 43.7427 19.2633 44.0709C20.615 45.1077 22.0211 45.2734 22.7676 45.3525C26.4116 45.7347 29.3732 43.7171 31.5821 42.2119C33.0892 41.1849 35.2955 39.4305 37.4129 36.626C36.0973 37.7028 34.8852 38.4256 33.9877 38.8975C33.4598 39.1741 30.204 40.8443 25.9488 41.1334C25.1355 41.1883 24.0473 41.2098 22.7475 40.9605C21.7603 40.7715 21.0225 40.6297 20.2207 40.0727C19.7402 39.7392 18.8038 38.7436 18.3849 37.3352C18.0977 36.3702 18.3032 35.255 18.3849 34.8186Z" fill="url(#paint3_radial_158_38)"/>
<path d="M44 4.98712C43.6777 4.99422 41.3652 5.08736 39.9089 7.0208C39.0201 8.20132 38.9076 9.4616 38.8919 9.97422C38.8752 9.4607 38.7636 8.20132 37.8748 7.0208C36.4196 5.08736 34.1062 4.99512 33.7839 4.98712H33.6504C33.9727 4.98004 36.2852 4.88691 37.7413 2.95342C38.6303 1.77294 38.7426 0.512638 38.7585 0C38.775 0.513524 38.8866 1.77294 39.7756 2.95342C41.2308 4.88691 43.5442 4.97914 43.8665 4.98712" fill="url(#paint4_radial_158_38)"/>
<path d="M40.2218 36.1905C41.4761 36.1905 42.493 35.1639 42.493 33.8971C42.493 32.6304 41.4761 31.6035 40.2218 31.6035C38.9674 31.6035 37.9506 32.6304 37.9506 33.8971C37.9506 35.1639 38.9674 36.1905 40.2218 36.1905Z" fill="url(#paint5_radial_158_38)"/>
</g>
</g>
</g>
</g>
<mask id="path-8-outside-1_158_38" maskUnits="userSpaceOnUse" x="47" y="11" width="123" height="23" fill="black">
<rect fill="white" x="47" y="11" width="123" height="23"/>
<path d="M55.6284 26.32H63.0204C63.1964 26.32 63.3484 26.384 63.4764 26.512C63.6044 26.64 63.6684 26.792 63.6684 26.968V30.352C63.6684 30.528 63.6044 30.68 63.4764 30.808C63.3484 30.936 63.1964 31 63.0204 31H50.5164C50.3404 31 50.1884 30.936 50.0604 30.808C49.9324 30.68 49.8684 30.528 49.8684 30.352V14.848C49.8684 14.672 49.9324 14.52 50.0604 14.392C50.1884 14.264 50.3404 14.2 50.5164 14.2H62.8284C63.0044 14.2 63.1564 14.264 63.2844 14.392C63.4124 14.52 63.4764 14.672 63.4764 14.848V18.232C63.4764 18.408 63.4124 18.56 63.2844 18.688C63.1564 18.816 63.0044 18.88 62.8284 18.88H55.6284V20.392H62.3004C62.4764 20.392 62.6284 20.456 62.7564 20.584C62.8844 20.712 62.9484 20.864 62.9484 21.04V24.16C62.9484 24.336 62.8844 24.488 62.7564 24.616C62.6284 24.744 62.4764 24.808 62.3004 24.808H55.6284V26.32ZM76.3479 14.2H80.8119C80.9559 14.2 81.0759 14.256 81.1719 14.368C81.2839 14.464 81.3399 14.56 81.3399 14.656C81.3399 14.752 81.3319 14.832 81.3159 14.896L76.8039 30.208C76.6599 30.736 76.2999 31 75.7239 31H70.2519C69.6759 31 69.3159 30.736 69.1719 30.208L64.6599 14.896C64.6439 14.832 64.6359 14.752 64.6359 14.656C64.6359 14.56 64.6839 14.464 64.7799 14.368C64.8919 14.256 65.0199 14.2 65.1639 14.2H69.6279C70.2039 14.2 70.5639 14.464 70.7079 14.992L72.9879 23.92L75.2679 14.992C75.4119 14.464 75.7719 14.2 76.3479 14.2ZM87.786 14.2H92.994C93.57 14.2 93.93 14.464 94.074 14.992L99.426 30.304C99.442 30.352 99.45 30.432 99.45 30.544C99.45 30.64 99.394 30.744 99.282 30.856C99.186 30.952 99.066 31 98.922 31H94.482C94.002 31 93.69 30.8 93.546 30.4L92.97 28.816H87.81L87.234 30.4C87.09 30.8 86.778 31 86.298 31H81.858C81.714 31 81.586 30.952 81.474 30.856C81.378 30.744 81.33 30.64 81.33 30.544C81.33 30.432 81.338 30.352 81.354 30.304L86.706 14.992C86.85 14.464 87.21 14.2 87.786 14.2ZM89.034 24.136H91.746L90.378 19.672L89.034 24.136ZM100.222 19.48C100.222 17.848 100.894 16.52 102.238 15.496C103.598 14.472 105.374 13.96 107.566 13.96C109.774 13.96 111.574 14.496 112.966 15.568C114.374 16.64 115.078 17.76 115.078 18.928C115.078 19.072 115.022 19.2 114.91 19.312C114.814 19.408 114.702 19.456 114.574 19.456H109.774C109.406 19.456 109.07 19.32 108.766 19.048C108.462 18.776 108.054 18.64 107.542 18.64C106.774 18.64 106.39 18.864 106.39 19.312C106.39 19.552 106.574 19.752 106.942 19.912C107.326 20.072 108.03 20.216 109.054 20.344C111.438 20.648 113.134 21.208 114.142 22.024C115.166 22.824 115.678 24.048 115.678 25.696C115.678 27.328 114.926 28.664 113.422 29.704C111.934 30.728 109.982 31.24 107.566 31.24C105.15 31.24 103.254 30.744 101.878 29.752C100.502 28.76 99.8138 27.552 99.8138 26.128C99.8138 25.984 99.8618 25.864 99.9578 25.768C100.07 25.656 100.198 25.6 100.342 25.6H104.902C105.238 25.6 105.606 25.76 106.006 26.08C106.422 26.4 106.99 26.56 107.71 26.56C108.91 26.56 109.51 26.336 109.51 25.888C109.51 25.6 109.294 25.384 108.862 25.24C108.43 25.08 107.614 24.92 106.414 24.76C102.286 24.216 100.222 22.456 100.222 19.48ZM117.039 14.2H131.103C131.279 14.2 131.431 14.264 131.559 14.392C131.687 14.52 131.751 14.672 131.751 14.848V18.712C131.751 18.888 131.687 19.04 131.559 19.168C131.431 19.296 131.279 19.36 131.103 19.36H127.119V30.352C127.119 30.528 127.055 30.68 126.927 30.808C126.799 30.936 126.647 31 126.471 31H121.671C121.495 31 121.343 30.936 121.215 30.808C121.087 30.68 121.023 30.528 121.023 30.352V19.36H117.039C116.863 19.36 116.711 19.296 116.583 19.168C116.455 19.04 116.391 18.888 116.391 18.712V14.848C116.391 14.672 116.455 14.52 116.583 14.392C116.711 14.264 116.863 14.2 117.039 14.2ZM148.771 30.208C148.819 30.304 148.843 30.408 148.843 30.52C148.843 30.632 148.787 30.744 148.675 30.856C148.579 30.952 148.459 31 148.315 31H143.395C142.899 31 142.555 30.784 142.363 30.352L140.299 25.768H139.315V30.352C139.315 30.528 139.251 30.68 139.123 30.808C138.995 30.936 138.843 31 138.667 31H133.963C133.787 31 133.635 30.936 133.507 30.808C133.379 30.68 133.315 30.528 133.315 30.352V14.848C133.315 14.672 133.379 14.52 133.507 14.392C133.635 14.264 133.787 14.2 133.963 14.2H141.067C143.371 14.2 145.171 14.72 146.467 15.76C147.763 16.784 148.411 18.264 148.411 20.2C148.411 22.12 147.547 23.632 145.819 24.736L148.771 30.208ZM139.315 18.664V21.208H141.067C141.419 21.208 141.691 21.096 141.883 20.872C142.075 20.632 142.171 20.336 142.171 19.984C142.171 19.632 142.075 19.328 141.883 19.072C141.707 18.8 141.435 18.664 141.067 18.664H139.315ZM155.664 14.2H160.872C161.448 14.2 161.808 14.464 161.952 14.992L167.304 30.304C167.32 30.352 167.328 30.432 167.328 30.544C167.328 30.64 167.272 30.744 167.16 30.856C167.064 30.952 166.944 31 166.8 31H162.36C161.88 31 161.568 30.8 161.424 30.4L160.848 28.816H155.688L155.112 30.4C154.968 30.8 154.656 31 154.176 31H149.736C149.592 31 149.464 30.952 149.352 30.856C149.256 30.744 149.208 30.64 149.208 30.544C149.208 30.432 149.216 30.352 149.232 30.304L154.584 14.992C154.728 14.464 155.088 14.2 155.664 14.2ZM156.912 24.136H159.624L158.256 19.672L156.912 24.136Z"/>
</mask>
<path d="M55.6284 26.32H63.0204C63.1964 26.32 63.3484 26.384 63.4764 26.512C63.6044 26.64 63.6684 26.792 63.6684 26.968V30.352C63.6684 30.528 63.6044 30.68 63.4764 30.808C63.3484 30.936 63.1964 31 63.0204 31H50.5164C50.3404 31 50.1884 30.936 50.0604 30.808C49.9324 30.68 49.8684 30.528 49.8684 30.352V14.848C49.8684 14.672 49.9324 14.52 50.0604 14.392C50.1884 14.264 50.3404 14.2 50.5164 14.2H62.8284C63.0044 14.2 63.1564 14.264 63.2844 14.392C63.4124 14.52 63.4764 14.672 63.4764 14.848V18.232C63.4764 18.408 63.4124 18.56 63.2844 18.688C63.1564 18.816 63.0044 18.88 62.8284 18.88H55.6284V20.392H62.3004C62.4764 20.392 62.6284 20.456 62.7564 20.584C62.8844 20.712 62.9484 20.864 62.9484 21.04V24.16C62.9484 24.336 62.8844 24.488 62.7564 24.616C62.6284 24.744 62.4764 24.808 62.3004 24.808H55.6284V26.32ZM76.3479 14.2H80.8119C80.9559 14.2 81.0759 14.256 81.1719 14.368C81.2839 14.464 81.3399 14.56 81.3399 14.656C81.3399 14.752 81.3319 14.832 81.3159 14.896L76.8039 30.208C76.6599 30.736 76.2999 31 75.7239 31H70.2519C69.6759 31 69.3159 30.736 69.1719 30.208L64.6599 14.896C64.6439 14.832 64.6359 14.752 64.6359 14.656C64.6359 14.56 64.6839 14.464 64.7799 14.368C64.8919 14.256 65.0199 14.2 65.1639 14.2H69.6279C70.2039 14.2 70.5639 14.464 70.7079 14.992L72.9879 23.92L75.2679 14.992C75.4119 14.464 75.7719 14.2 76.3479 14.2ZM87.786 14.2H92.994C93.57 14.2 93.93 14.464 94.074 14.992L99.426 30.304C99.442 30.352 99.45 30.432 99.45 30.544C99.45 30.64 99.394 30.744 99.282 30.856C99.186 30.952 99.066 31 98.922 31H94.482C94.002 31 93.69 30.8 93.546 30.4L92.97 28.816H87.81L87.234 30.4C87.09 30.8 86.778 31 86.298 31H81.858C81.714 31 81.586 30.952 81.474 30.856C81.378 30.744 81.33 30.64 81.33 30.544C81.33 30.432 81.338 30.352 81.354 30.304L86.706 14.992C86.85 14.464 87.21 14.2 87.786 14.2ZM89.034 24.136H91.746L90.378 19.672L89.034 24.136ZM100.222 19.48C100.222 17.848 100.894 16.52 102.238 15.496C103.598 14.472 105.374 13.96 107.566 13.96C109.774 13.96 111.574 14.496 112.966 15.568C114.374 16.64 115.078 17.76 115.078 18.928C115.078 19.072 115.022 19.2 114.91 19.312C114.814 19.408 114.702 19.456 114.574 19.456H109.774C109.406 19.456 109.07 19.32 108.766 19.048C108.462 18.776 108.054 18.64 107.542 18.64C106.774 18.64 106.39 18.864 106.39 19.312C106.39 19.552 106.574 19.752 106.942 19.912C107.326 20.072 108.03 20.216 109.054 20.344C111.438 20.648 113.134 21.208 114.142 22.024C115.166 22.824 115.678 24.048 115.678 25.696C115.678 27.328 114.926 28.664 113.422 29.704C111.934 30.728 109.982 31.24 107.566 31.24C105.15 31.24 103.254 30.744 101.878 29.752C100.502 28.76 99.8138 27.552 99.8138 26.128C99.8138 25.984 99.8618 25.864 99.9578 25.768C100.07 25.656 100.198 25.6 100.342 25.6H104.902C105.238 25.6 105.606 25.76 106.006 26.08C106.422 26.4 106.99 26.56 107.71 26.56C108.91 26.56 109.51 26.336 109.51 25.888C109.51 25.6 109.294 25.384 108.862 25.24C108.43 25.08 107.614 24.92 106.414 24.76C102.286 24.216 100.222 22.456 100.222 19.48ZM117.039 14.2H131.103C131.279 14.2 131.431 14.264 131.559 14.392C131.687 14.52 131.751 14.672 131.751 14.848V18.712C131.751 18.888 131.687 19.04 131.559 19.168C131.431 19.296 131.279 19.36 131.103 19.36H127.119V30.352C127.119 30.528 127.055 30.68 126.927 30.808C126.799 30.936 126.647 31 126.471 31H121.671C121.495 31 121.343 30.936 121.215 30.808C121.087 30.68 121.023 30.528 121.023 30.352V19.36H117.039C116.863 19.36 116.711 19.296 116.583 19.168C116.455 19.04 116.391 18.888 116.391 18.712V14.848C116.391 14.672 116.455 14.52 116.583 14.392C116.711 14.264 116.863 14.2 117.039 14.2ZM148.771 30.208C148.819 30.304 148.843 30.408 148.843 30.52C148.843 30.632 148.787 30.744 148.675 30.856C148.579 30.952 148.459 31 148.315 31H143.395C142.899 31 142.555 30.784 142.363 30.352L140.299 25.768H139.315V30.352C139.315 30.528 139.251 30.68 139.123 30.808C138.995 30.936 138.843 31 138.667 31H133.963C133.787 31 133.635 30.936 133.507 30.808C133.379 30.68 133.315 30.528 133.315 30.352V14.848C133.315 14.672 133.379 14.52 133.507 14.392C133.635 14.264 133.787 14.2 133.963 14.2H141.067C143.371 14.2 145.171 14.72 146.467 15.76C147.763 16.784 148.411 18.264 148.411 20.2C148.411 22.12 147.547 23.632 145.819 24.736L148.771 30.208ZM139.315 18.664V21.208H141.067C141.419 21.208 141.691 21.096 141.883 20.872C142.075 20.632 142.171 20.336 142.171 19.984C142.171 19.632 142.075 19.328 141.883 19.072C141.707 18.8 141.435 18.664 141.067 18.664H139.315ZM155.664 14.2H160.872C161.448 14.2 161.808 14.464 161.952 14.992L167.304 30.304C167.32 30.352 167.328 30.432 167.328 30.544C167.328 30.64 167.272 30.744 167.16 30.856C167.064 30.952 166.944 31 166.8 31H162.36C161.88 31 161.568 30.8 161.424 30.4L160.848 28.816H155.688L155.112 30.4C154.968 30.8 154.656 31 154.176 31H149.736C149.592 31 149.464 30.952 149.352 30.856C149.256 30.744 149.208 30.64 149.208 30.544C149.208 30.432 149.216 30.352 149.232 30.304L154.584 14.992C154.728 14.464 155.088 14.2 155.664 14.2ZM156.912 24.136H159.624L158.256 19.672L156.912 24.136Z" fill="#173679"/>
<path d="M55.6284 26.32H53.6284V28.32H55.6284V26.32ZM50.0604 30.808L51.4747 29.3938L51.4747 29.3938L50.0604 30.808ZM50.0604 14.392L51.4747 15.8062L51.4747 15.8062L50.0604 14.392ZM63.2844 14.392L61.8702 15.8062L61.8702 15.8062L63.2844 14.392ZM63.2844 18.688L61.8702 17.2738L61.8702 17.2738L63.2844 18.688ZM55.6284 18.88V16.88H53.6284V18.88H55.6284ZM55.6284 20.392H53.6284V22.392H55.6284V20.392ZM62.7564 20.584L64.1707 19.1698L64.1707 19.1698L62.7564 20.584ZM62.7564 24.616L64.1707 26.0302L64.1707 26.0302L62.7564 24.616ZM55.6284 24.808V22.808H53.6284V24.808H55.6284ZM55.6284 26.32V28.32H63.0204V26.32V24.32H55.6284V26.32ZM63.0204 26.32V28.32C62.86 28.32 62.6762 28.2895 62.4903 28.2113C62.3056 28.1335 62.1633 28.0272 62.0622 27.9262L63.4764 26.512L64.8906 25.0978C64.3995 24.6067 63.7436 24.32 63.0204 24.32V26.32ZM63.4764 26.512L62.0622 27.9262C61.9612 27.8252 61.855 27.6829 61.7772 27.4981C61.6989 27.3123 61.6684 27.1284 61.6684 26.968H63.6684H65.6684C65.6684 26.2449 65.3818 25.5889 64.8906 25.0978L63.4764 26.512ZM63.6684 26.968H61.6684V30.352H63.6684H65.6684V26.968H63.6684ZM63.6684 30.352H61.6684C61.6684 30.1916 61.6989 30.0077 61.7772 29.8219C61.855 29.6371 61.9612 29.4948 62.0622 29.3938L63.4764 30.808L64.8906 32.2222C65.3818 31.7311 65.6684 31.0751 65.6684 30.352H63.6684ZM63.4764 30.808L62.0622 29.3938C62.1633 29.2928 62.3056 29.1865 62.4903 29.1087C62.6762 29.0305 62.86 29 63.0204 29V31V33C63.7436 33 64.3995 32.7133 64.8906 32.2222L63.4764 30.808ZM63.0204 31V29H50.5164V31V33H63.0204V31ZM50.5164 31V29C50.6769 29 50.8607 29.0305 51.0466 29.1087C51.2313 29.1865 51.3736 29.2928 51.4747 29.3938L50.0604 30.808L48.6462 32.2222C49.1373 32.7133 49.7933 33 50.5164 33V31ZM50.0604 30.808L51.4747 29.3938C51.5757 29.4948 51.6819 29.6371 51.7597 29.8219C51.838 30.0077 51.8684 30.1916 51.8684 30.352H49.8684H47.8684C47.8684 31.0751 48.1551 31.7311 48.6462 32.2222L50.0604 30.808ZM49.8684 30.352H51.8684V14.848H49.8684H47.8684V30.352H49.8684ZM49.8684 14.848H51.8684C51.8684 15.0084 51.838 15.1923 51.7597 15.3781C51.6819 15.5629 51.5757 15.7052 51.4747 15.8062L50.0604 14.392L48.6462 12.9778C48.1551 13.4689 47.8684 14.1249 47.8684 14.848H49.8684ZM50.0604 14.392L51.4747 15.8062C51.3736 15.9072 51.2313 16.0135 51.0466 16.0913C50.8607 16.1695 50.6769 16.2 50.5164 16.2V14.2V12.2C49.7933 12.2 49.1373 12.4867 48.6462 12.9778L50.0604 14.392ZM50.5164 14.2V16.2H62.8284V14.2V12.2H50.5164V14.2ZM62.8284 14.2V16.2C62.668 16.2 62.4842 16.1695 62.2983 16.0913C62.1136 16.0135 61.9712 15.9072 61.8702 15.8062L63.2844 14.392L64.6987 12.9778C64.2076 12.4867 63.5516 12.2 62.8284 12.2V14.2ZM63.2844 14.392L61.8702 15.8062C61.7692 15.7052 61.663 15.5629 61.5852 15.3781C61.5069 15.1923 61.4764 15.0084 61.4764 14.848H63.4764H65.4764C65.4764 14.1249 65.1898 13.4689 64.6987 12.9778L63.2844 14.392ZM63.4764 14.848H61.4764V18.232H63.4764H65.4764V14.848H63.4764ZM63.4764 18.232H61.4764C61.4764 18.0716 61.5069 17.8877 61.5852 17.7019C61.663 17.5171 61.7692 17.3748 61.8702 17.2738L63.2844 18.688L64.6987 20.1022C65.1898 19.6111 65.4764 18.9551 65.4764 18.232H63.4764ZM63.2844 18.688L61.8702 17.2738C61.9712 17.1728 62.1136 17.0665 62.2983 16.9887C62.4842 16.9105 62.668 16.88 62.8284 16.88V18.88V20.88C63.5516 20.88 64.2076 20.5933 64.6987 20.1022L63.2844 18.688ZM62.8284 18.88V16.88H55.6284V18.88V20.88H62.8284V18.88ZM55.6284 18.88H53.6284V20.392H55.6284H57.6284V18.88H55.6284ZM55.6284 20.392V22.392H62.3004V20.392V18.392H55.6284V20.392ZM62.3004 20.392V22.392C62.14 22.392 61.9562 22.3615 61.7703 22.2833C61.5856 22.2055 61.4433 22.0992 61.3422 21.9982L62.7564 20.584L64.1707 19.1698C63.6795 18.6787 63.0236 18.392 62.3004 18.392V20.392ZM62.7564 20.584L61.3422 21.9982C61.2412 21.8972 61.135 21.7549 61.0572 21.5701C60.9789 21.3843 60.9484 21.2004 60.9484 21.04H62.9484H64.9484C64.9484 20.3169 64.6618 19.6609 64.1707 19.1698L62.7564 20.584ZM62.9484 21.04H60.9484V24.16H62.9484H64.9484V21.04H62.9484ZM62.9484 24.16H60.9484C60.9484 23.9996 60.9789 23.8157 61.0572 23.6299C61.135 23.4451 61.2412 23.3028 61.3422 23.2018L62.7564 24.616L64.1707 26.0302C64.6618 25.5391 64.9484 24.8831 64.9484 24.16H62.9484ZM62.7564 24.616L61.3422 23.2018C61.4433 23.1008 61.5856 22.9945 61.7703 22.9167C61.9562 22.8385 62.14 22.808 62.3004 22.808V24.808V26.808C63.0236 26.808 63.6795 26.5213 64.1707 26.0302L62.7564 24.616ZM62.3004 24.808V22.808H55.6284V24.808V26.808H62.3004V24.808ZM55.6284 24.808H53.6284V26.32H55.6284H57.6284V24.808H55.6284ZM81.1719 14.368L79.6534 15.6696L79.7535 15.7864L79.8704 15.8865L81.1719 14.368ZM81.3159 14.896L83.2344 15.4613L83.2461 15.4214L83.2562 15.3811L81.3159 14.896ZM76.8039 30.208L74.8855 29.6427L74.8798 29.6622L74.8744 29.6818L76.8039 30.208ZM69.1719 30.208L71.1015 29.6818L71.0961 29.6622L71.0904 29.6427L69.1719 30.208ZM64.6599 14.896L62.7197 15.3811L62.7297 15.4214L62.7415 15.4613L64.6599 14.896ZM64.7799 14.368L66.1941 15.7822L66.1942 15.7822L64.7799 14.368ZM70.7079 14.992L72.6457 14.4971L72.6417 14.4814L72.6375 14.4658L70.7079 14.992ZM72.9879 23.92L71.0501 24.4149H74.9257L72.9879 23.92ZM75.2679 14.992L73.3384 14.4658L73.3341 14.4814L73.3301 14.4971L75.2679 14.992ZM76.3479 14.2V16.2H80.8119V14.2V12.2H76.3479V14.2ZM80.8119 14.2V16.2C80.6176 16.2 80.3915 16.1605 80.1642 16.0544C79.9381 15.9489 79.7695 15.805 79.6534 15.6696L81.1719 14.368L82.6904 13.0664C82.2251 12.5236 81.556 12.2 80.8119 12.2V14.2ZM81.1719 14.368L79.8704 15.8865C79.7776 15.807 79.3399 15.3981 79.3399 14.656H81.3399H83.3399C83.3399 13.7219 82.7902 13.121 82.4735 12.8495L81.1719 14.368ZM81.3399 14.656H79.3399C79.3399 14.6498 79.3401 14.6263 79.3439 14.589C79.3475 14.5526 79.3557 14.4907 79.3757 14.4109L81.3159 14.896L83.2562 15.3811C83.3254 15.1045 83.3399 14.8485 83.3399 14.656H81.3399ZM81.3159 14.896L79.3975 14.3307L74.8855 29.6427L76.8039 30.208L78.7224 30.7733L83.2344 15.4613L81.3159 14.896ZM76.8039 30.208L74.8744 29.6818C74.8937 29.611 74.982 29.3807 75.2432 29.1892C75.4941 29.0052 75.7102 29 75.7239 29V31V33C76.3136 33 76.9978 32.8628 77.6087 32.4148C78.2298 31.9593 78.5702 31.333 78.7335 30.7342L76.8039 30.208ZM75.7239 31V29H70.2519V31V33H75.7239V31ZM70.2519 31V29C70.2656 29 70.4818 29.0052 70.7327 29.1892C70.9938 29.3807 71.0822 29.611 71.1015 29.6818L69.1719 30.208L67.2424 30.7342C67.4057 31.333 67.746 31.9593 68.3672 32.4148C68.9781 32.8628 69.6622 33 70.2519 33V31ZM69.1719 30.208L71.0904 29.6427L66.5784 14.3307L64.6599 14.896L62.7415 15.4613L67.2535 30.7733L69.1719 30.208ZM64.6599 14.896L66.6002 14.4109C66.6201 14.4906 66.6284 14.5526 66.632 14.589C66.6357 14.6263 66.6359 14.6498 66.6359 14.656H64.6359H62.6359C62.6359 14.8485 62.6505 15.1045 62.7197 15.3811L64.6599 14.896ZM64.6359 14.656H66.6359C66.6359 15.2775 66.3161 15.6602 66.1941 15.7822L64.7799 14.368L63.3657 12.9538C63.0517 13.2678 62.6359 13.8425 62.6359 14.656H64.6359ZM64.7799 14.368L66.1942 15.7822C66.0972 15.8792 65.9545 15.9899 65.7616 16.0743C65.565 16.1603 65.3592 16.2 65.1639 16.2V14.2V12.2C64.434 12.2 63.8116 12.5079 63.3657 12.9538L64.7799 14.368ZM65.1639 14.2V16.2H69.6279V14.2V12.2H65.1639V14.2ZM69.6279 14.2V16.2C69.6142 16.2 69.3981 16.1948 69.1472 16.0108C68.886 15.8193 68.7977 15.589 68.7784 15.5182L70.7079 14.992L72.6375 14.4658C72.4742 13.867 72.1338 13.2407 71.5127 12.7852C70.9018 12.3372 70.2176 12.2 69.6279 12.2V14.2ZM70.7079 14.992L68.7701 15.4869L71.0501 24.4149L72.9879 23.92L74.9257 23.4251L72.6457 14.4971L70.7079 14.992ZM72.9879 23.92L74.9257 24.4149L77.2057 15.4869L75.2679 14.992L73.3301 14.4971L71.0501 23.4251L72.9879 23.92ZM75.2679 14.992L77.1975 15.5182C77.1782 15.589 77.0898 15.8193 76.8287 16.0108C76.5778 16.1948 76.3616 16.2 76.3479 16.2V14.2V12.2C75.7582 12.2 75.0741 12.3372 74.4632 12.7852C73.842 13.2407 73.5017 13.867 73.3384 14.4658L75.2679 14.992ZM94.074 14.992L92.1445 15.5182L92.1629 15.5858L92.186 15.6519L94.074 14.992ZM99.426 30.304L101.323 29.6716L101.319 29.6578L101.314 29.6441L99.426 30.304ZM99.282 30.856L97.8678 29.4418L97.8678 29.4418L99.282 30.856ZM93.546 30.4L95.4278 29.7226L95.4256 29.7165L93.546 30.4ZM92.97 28.816L94.8496 28.1325L94.3709 26.816H92.97V28.816ZM87.81 28.816V26.816H86.4091L85.9304 28.1325L87.81 28.816ZM87.234 30.4L85.3544 29.7165L85.3522 29.7226L87.234 30.4ZM81.474 30.856L79.9555 32.1576L80.0556 32.2744L80.1724 32.3745L81.474 30.856ZM81.354 30.304L79.466 29.6441L79.4612 29.6578L79.4566 29.6715L81.354 30.304ZM86.706 14.992L88.594 15.6519L88.6171 15.5858L88.6355 15.5182L86.706 14.992ZM89.034 24.136L87.1189 23.5594L86.3432 26.136H89.034V24.136ZM91.746 24.136V26.136H94.4507L93.6582 23.55L91.746 24.136ZM90.378 19.672L92.2902 19.086L90.3611 12.7908L88.4629 19.0954L90.378 19.672ZM87.786 14.2V16.2H92.994V14.2V12.2H87.786V14.2ZM92.994 14.2V16.2C92.9803 16.2 92.7642 16.1948 92.5133 16.0108C92.2521 15.8193 92.1638 15.589 92.1445 15.5182L94.074 14.992L96.0035 14.4658C95.8402 13.867 95.4999 13.2407 94.8787 12.7852C94.2678 12.3372 93.5837 12.2 92.994 12.2V14.2ZM94.074 14.992L92.186 15.6519L97.538 30.9639L99.426 30.304L101.314 29.6441L95.962 14.3321L94.074 14.992ZM99.426 30.304L97.5286 30.9364C97.4971 30.8418 97.48 30.7641 97.4708 30.7146C97.4611 30.6632 97.4564 30.6233 97.4539 30.599C97.4493 30.5529 97.45 30.5308 97.45 30.544H99.45H101.45C101.45 30.4135 101.45 30.0507 101.323 29.6716L99.426 30.304ZM99.45 30.544H97.45C97.45 30.1931 97.5538 29.9189 97.6471 29.7458C97.7367 29.5794 97.8298 29.4797 97.8678 29.4418L99.282 30.856L100.696 32.2702C100.952 32.0147 101.45 31.4265 101.45 30.544H99.45ZM99.282 30.856L97.8678 29.4418C98.0015 29.3081 98.1731 29.1887 98.3772 29.107C98.579 29.0263 98.7686 29 98.922 29V31V33C99.5607 33 100.201 32.7658 100.696 32.2702L99.282 30.856ZM98.922 31V29H94.482V31V33H98.922V31ZM94.482 31V29C94.5133 29 94.7188 29.0069 94.9673 29.1662C95.2357 29.3383 95.3735 29.5717 95.4278 29.7226L93.546 30.4L91.6642 31.0774C91.8625 31.6283 92.2283 32.1617 92.8087 32.5338C93.3692 32.8931 93.9707 33 94.482 33V31ZM93.546 30.4L95.4256 29.7165L94.8496 28.1325L92.97 28.816L91.0904 29.4995L91.6664 31.0835L93.546 30.4ZM92.97 28.816V26.816H87.81V28.816V30.816H92.97V28.816ZM87.81 28.816L85.9304 28.1325L85.3544 29.7165L87.234 30.4L89.1136 31.0835L89.6896 29.4995L87.81 28.816ZM87.234 30.4L85.3522 29.7226C85.4065 29.5717 85.5443 29.3383 85.8127 29.1662C86.0612 29.0069 86.2668 29 86.298 29V31V33C86.8093 33 87.4108 32.8931 87.9713 32.5338C88.5517 32.1617 88.9175 31.6283 89.1158 31.0774L87.234 30.4ZM86.298 31V29H81.858V31V33H86.298V31ZM81.858 31V29C82.0129 29 82.1839 29.0267 82.3562 29.0913C82.5279 29.1557 82.6681 29.2454 82.7756 29.3375L81.474 30.856L80.1724 32.3745C80.6372 32.7729 81.224 33 81.858 33V31ZM81.474 30.856L82.9925 29.5544C83.0476 29.6187 83.33 29.9642 83.33 30.544H81.33H79.33C79.33 31.3158 79.7084 31.8693 79.9555 32.1576L81.474 30.856ZM81.33 30.544H83.33C83.33 30.5308 83.3307 30.5529 83.3261 30.599C83.3237 30.6233 83.3189 30.6632 83.3092 30.7146C83.3 30.7641 83.2829 30.8418 83.2514 30.9365L81.354 30.304L79.4566 29.6715C79.3303 30.0507 79.33 30.4135 79.33 30.544H81.33ZM81.354 30.304L83.242 30.9639L88.594 15.6519L86.706 14.992L84.818 14.3321L79.466 29.6441L81.354 30.304ZM86.706 14.992L88.6355 15.5182C88.6162 15.589 88.5279 15.8193 88.2667 16.0108C88.0158 16.1948 87.7997 16.2 87.786 16.2V14.2V12.2C87.1963 12.2 86.5122 12.3372 85.9013 12.7852C85.2801 13.2407 84.9398 13.867 84.7765 14.4658L86.706 14.992ZM89.034 24.136V26.136H91.746V24.136V22.136H89.034V24.136ZM91.746 24.136L93.6582 23.55L92.2902 19.086L90.378 19.672L88.4658 20.258L89.8338 24.722L91.746 24.136ZM90.378 19.672L88.4629 19.0954L87.1189 23.5594L89.034 24.136L90.9491 24.7126L92.2931 20.2486L90.378 19.672ZM102.238 15.496L101.035 13.8982L101.026 13.9051L102.238 15.496ZM112.966 15.568L111.745 17.1526L111.754 17.1593L112.966 15.568ZM114.91 19.312L116.324 20.7262V20.7262L114.91 19.312ZM108.766 19.048L107.432 20.5385V20.5385L108.766 19.048ZM106.942 19.912L106.144 21.7461L106.158 21.7523L106.173 21.7582L106.942 19.912ZM109.054 20.344L109.307 18.3601L109.302 18.3594L109.054 20.344ZM114.142 22.024L112.883 23.5785L112.897 23.5894L112.91 23.6L114.142 22.024ZM113.422 29.704L114.556 31.3516L114.559 31.349L113.422 29.704ZM101.878 29.752L100.708 31.3744V31.3744L101.878 29.752ZM99.9577 25.768L101.372 27.1822V27.1822L99.9577 25.768ZM106.006 26.08L104.756 27.6417L104.771 27.6536L104.786 27.6652L106.006 26.08ZM108.862 25.24L108.167 27.1155L108.198 27.1269L108.229 27.1374L108.862 25.24ZM106.414 24.76L106.678 22.7775L106.675 22.7771L106.414 24.76ZM100.222 19.48H102.222C102.222 18.4975 102.582 17.7482 103.45 17.0869L102.238 15.496L101.026 13.9051C99.2057 15.2918 98.2217 17.1985 98.2217 19.48H100.222ZM102.238 15.496L103.441 17.0937C104.366 16.3974 105.682 15.96 107.566 15.96V13.96V11.96C105.065 11.96 102.83 12.5466 101.035 13.8983L102.238 15.496ZM107.566 13.96V15.96C109.447 15.96 110.785 16.4127 111.745 17.1526L112.966 15.568L114.186 13.9834C112.363 12.5793 110.1 11.96 107.566 11.96V13.96ZM112.966 15.568L111.754 17.1593C112.929 18.0536 113.078 18.6542 113.078 18.928H115.078H117.078C117.078 16.8658 115.819 15.2264 114.177 13.9767L112.966 15.568ZM115.078 18.928H113.078C113.078 18.7328 113.117 18.527 113.203 18.3304C113.288 18.1374 113.399 17.9947 113.496 17.8978L114.91 19.312L116.324 20.7262C116.77 20.2803 117.078 19.658 117.078 18.928H115.078ZM114.91 19.312L113.496 17.8978C113.607 17.7864 113.763 17.6688 113.966 17.5817C114.171 17.4937 114.381 17.456 114.574 17.456V19.456V21.456C115.267 21.456 115.878 21.172 116.324 20.7262L114.91 19.312ZM114.574 19.456V17.456H109.774V19.456V21.456H114.574V19.456ZM109.774 19.456V17.456C109.843 17.456 109.922 17.4701 109.996 17.5001C110.067 17.5288 110.101 17.5588 110.099 17.5575L108.766 19.048L107.432 20.5385C108.06 21.1002 108.859 21.456 109.774 21.456V19.456ZM108.766 19.048L110.099 17.5575C109.342 16.8798 108.416 16.64 107.542 16.64V18.64V20.64C107.623 20.64 107.634 20.6509 107.599 20.6394C107.582 20.6335 107.555 20.6228 107.524 20.6048C107.492 20.5867 107.461 20.5643 107.432 20.5385L108.766 19.048ZM107.542 18.64V16.64C107.029 16.64 106.317 16.7032 105.67 17.0804C104.858 17.5543 104.39 18.3835 104.39 19.312H106.39H108.39C108.39 19.4926 108.349 19.7473 108.198 20.0103C108.048 20.274 107.847 20.4414 107.685 20.5356C107.537 20.6224 107.43 20.6433 107.419 20.6452C107.406 20.6478 107.441 20.64 107.542 20.64V18.64ZM106.39 19.312H104.39C104.39 20.8022 105.581 21.5013 106.144 21.7461L106.942 19.912L107.739 18.0779C107.7 18.0606 107.835 18.1089 108 18.2879C108.199 18.5045 108.39 18.8632 108.39 19.312H106.39ZM106.942 19.912L106.173 21.7582C106.836 22.0347 107.79 22.2015 108.806 22.3286L109.054 20.344L109.302 18.3594C108.821 18.2993 108.443 18.2389 108.159 18.1806C108.017 18.1516 107.908 18.1252 107.828 18.1028C107.745 18.0795 107.711 18.0656 107.711 18.0658L106.942 19.912ZM109.054 20.344L108.801 22.3279C111.084 22.6191 112.319 23.1219 112.883 23.5785L114.142 22.024L115.4 20.4695C113.948 19.2941 111.792 18.6769 109.307 18.3601L109.054 20.344ZM114.142 22.024L112.91 23.6C113.323 23.9221 113.678 24.4827 113.678 25.696H115.678H117.678C117.678 23.6133 117.009 21.7259 115.373 20.448L114.142 22.024ZM115.678 25.696H113.678C113.678 26.5842 113.324 27.3401 112.284 28.059L113.422 29.704L114.559 31.349C116.528 29.9879 117.678 28.0718 117.678 25.696H115.678ZM113.422 29.704L112.288 28.0564C111.229 28.785 109.711 29.24 107.566 29.24V31.24V33.24C110.252 33.24 112.638 32.671 114.556 31.3516L113.422 29.704ZM107.566 31.24V29.24C105.398 29.24 103.966 28.7918 103.047 28.1296L101.878 29.752L100.708 31.3744C102.542 32.6962 104.902 33.24 107.566 33.24V31.24ZM101.878 29.752L103.047 28.1296C102.08 27.432 101.814 26.7813 101.814 26.128H99.8138H97.8138C97.8138 28.3227 98.9239 30.088 100.708 31.3744L101.878 29.752ZM99.8138 26.128H101.814C101.814 26.2814 101.787 26.471 101.707 26.6728C101.625 26.8769 101.506 27.0485 101.372 27.1822L99.9577 25.768L98.5435 24.3538C98.0479 24.8494 97.8138 25.4893 97.8138 26.128H99.8138ZM99.9577 25.768L101.372 27.1822C101.275 27.2792 101.132 27.3899 100.939 27.4743C100.743 27.5603 100.537 27.6 100.342 27.6V25.6V23.6C99.6118 23.6 98.9894 23.9079 98.5435 24.3538L99.9577 25.768ZM100.342 25.6V27.6H104.902V25.6V23.6H100.342V25.6ZM104.902 25.6V27.6C104.747 27.6 104.652 27.5627 104.632 27.5541C104.617 27.5474 104.658 27.5633 104.756 27.6417L106.006 26.08L107.255 24.5183C106.678 24.0562 105.876 23.6 104.902 23.6V25.6ZM106.006 26.08L104.786 27.6652C105.662 28.3385 106.71 28.56 107.71 28.56V26.56V24.56C107.269 24.56 107.182 24.4615 107.225 24.4948L106.006 26.08ZM107.71 26.56V28.56C108.377 28.56 109.117 28.5053 109.759 28.2657C110.093 28.141 110.526 27.9207 110.889 27.514C111.289 27.0657 111.51 26.4943 111.51 25.888H109.51H107.51C107.51 25.5057 107.655 25.1303 107.905 24.85C108.118 24.6113 108.326 24.531 108.36 24.5183C108.403 24.5025 108.379 24.5173 108.25 24.5333C108.128 24.5485 107.952 24.56 107.71 24.56V26.56ZM109.51 25.888H111.51C111.51 24.2715 110.188 23.5737 109.494 23.3426L108.862 25.24L108.229 27.1374C108.283 27.1554 108.126 27.1169 107.934 26.9242C107.828 26.8188 107.715 26.6695 107.631 26.4733C107.546 26.2749 107.51 26.0729 107.51 25.888H109.51ZM108.862 25.24L109.556 23.3645C108.888 23.1169 107.862 22.9354 106.678 22.7775L106.414 24.76L106.149 26.7425C107.365 26.9046 107.972 27.0431 108.167 27.1155L108.862 25.24ZM106.414 24.76L106.675 22.7771C104.804 22.5306 103.688 22.0392 103.067 21.5102C102.528 21.0499 102.222 20.4466 102.222 19.48H100.222H98.2217C98.2217 21.4894 98.9478 23.2541 100.472 24.5538C101.916 25.7848 103.896 26.4454 106.152 26.7429L106.414 24.76ZM131.559 14.392L132.973 12.9778V12.9778L131.559 14.392ZM131.559 19.168L132.973 20.5822V20.5822L131.559 19.168ZM127.119 19.36V17.36H125.119V19.36H127.119ZM126.927 30.808L125.512 29.3938L125.512 29.3938L126.927 30.808ZM121.023 19.36H123.023V17.36H121.023V19.36ZM117.039 14.2V16.2H131.103V14.2V12.2H117.039V14.2ZM131.103 14.2V16.2C130.942 16.2 130.758 16.1695 130.573 16.0913C130.388 16.0135 130.245 15.9072 130.144 15.8062L131.559 14.392L132.973 12.9778C132.482 12.4867 131.826 12.2 131.103 12.2V14.2ZM131.559 14.392L130.144 15.8062C130.043 15.7052 129.937 15.5629 129.859 15.3781C129.781 15.1923 129.751 15.0084 129.751 14.848H131.751H133.751C133.751 14.1249 133.464 13.4689 132.973 12.9778L131.559 14.392ZM131.751 14.848H129.751V18.712H131.751H133.751V14.848H131.751ZM131.751 18.712H129.751C129.751 18.5516 129.781 18.3677 129.859 18.1819C129.937 17.9971 130.043 17.8548 130.144 17.7538L131.559 19.168L132.973 20.5822C133.464 20.0911 133.751 19.4351 133.751 18.712H131.751ZM131.559 19.168L130.144 17.7538C130.245 17.6528 130.388 17.5465 130.573 17.4687C130.758 17.3905 130.942 17.36 131.103 17.36V19.36V21.36C131.826 21.36 132.482 21.0733 132.973 20.5822L131.559 19.168ZM131.103 19.36V17.36H127.119V19.36V21.36H131.103V19.36ZM127.119 19.36H125.119V30.352H127.119H129.119V19.36H127.119ZM127.119 30.352H125.119C125.119 30.1916 125.149 30.0077 125.227 29.8219C125.305 29.6371 125.411 29.4948 125.512 29.3938L126.927 30.808L128.341 32.2222C128.832 31.7311 129.119 31.0751 129.119 30.352H127.119ZM126.927 30.808L125.512 29.3938C125.613 29.2928 125.756 29.1865 125.941 29.1087C126.126 29.0305 126.31 29 126.471 29V31V33C127.194 33 127.85 32.7133 128.341 32.2222L126.927 30.808ZM126.471 31V29H121.671V31V33H126.471V31ZM121.671 31V29C121.831 29 122.015 29.0305 122.201 29.1087C122.385 29.1865 122.528 29.2928 122.629 29.3938L121.215 30.808L119.8 32.2222C120.292 32.7133 120.948 33 121.671 33V31ZM121.215 30.808L122.629 29.3938C122.73 29.4948 122.836 29.6371 122.914 29.8219C122.992 30.0077 123.023 30.1916 123.023 30.352H121.023H119.023C119.023 31.0751 119.309 31.7311 119.8 32.2222L121.215 30.808ZM121.023 30.352H123.023V19.36H121.023H119.023V30.352H121.023ZM121.023 19.36V17.36H117.039V19.36V21.36H121.023V19.36ZM117.039 19.36V17.36C117.199 17.36 117.383 17.3905 117.569 17.4687C117.753 17.5465 117.896 17.6528 117.997 17.7538L116.583 19.168L115.168 20.5822C115.66 21.0733 116.315 21.36 117.039 21.36V19.36ZM116.583 19.168L117.997 17.7538C118.098 17.8548 118.204 17.9971 118.282 18.1819C118.36 18.3677 118.391 18.5516 118.391 18.712H116.391H114.391C114.391 19.4351 114.677 20.0911 115.168 20.5822L116.583 19.168ZM116.391 18.712H118.391V14.848H116.391H114.391V18.712H116.391ZM116.391 14.848H118.391C118.391 15.0084 118.36 15.1923 118.282 15.3781C118.204 15.5629 118.098 15.7052 117.997 15.8062L116.583 14.392L115.168 12.9778C114.677 13.4689 114.391 14.1249 114.391 14.848H116.391ZM116.583 14.392L117.997 15.8062C117.896 15.9072 117.753 16.0135 117.569 16.0913C117.383 16.1695 117.199 16.2 117.039 16.2V14.2V12.2C116.315 12.2 115.66 12.4867 115.168 12.9778L116.583 14.392ZM148.771 30.208L150.56 29.3136L150.546 29.2858L150.532 29.2584L148.771 30.208ZM148.675 30.856L150.09 32.2702V32.2702L148.675 30.856ZM142.363 30.352L144.191 29.5397L144.187 29.5309L142.363 30.352ZM140.299 25.768L142.123 24.9469L141.592 23.768H140.299V25.768ZM139.315 25.768V23.768H137.315V25.768H139.315ZM139.123 30.808L137.709 29.3938V29.3938L139.123 30.808ZM133.507 30.808L134.922 29.3938V29.3938L133.507 30.808ZM133.507 14.392L134.922 15.8062V15.8062L133.507 14.392ZM146.467 15.76L145.216 17.3199L145.221 17.3246L145.227 17.3293L146.467 15.76ZM145.819 24.736L144.743 23.0506L143.177 24.0507L144.059 25.6856L145.819 24.736ZM139.315 18.664V16.664H137.315V18.664H139.315ZM139.315 21.208H137.315V23.208H139.315V21.208ZM141.883 20.872L143.402 22.1736L143.424 22.1479L143.445 22.1214L141.883 20.872ZM141.883 19.072L140.204 20.1585L140.242 20.2166L140.283 20.272L141.883 19.072ZM148.771 30.208L146.982 31.1024C146.886 30.9085 146.843 30.7046 146.843 30.52H148.843H150.843C150.843 30.1114 150.753 29.6995 150.56 29.3136L148.771 30.208ZM148.843 30.52H146.843C146.843 29.9145 147.155 29.5478 147.261 29.4418L148.675 30.856L150.09 32.2702C150.42 31.9402 150.843 31.3495 150.843 30.52H148.843ZM148.675 30.856L147.261 29.4418C147.395 29.3081 147.566 29.1887 147.771 29.107C147.972 29.0263 148.162 29 148.315 29V31V33C148.954 33 149.594 32.7658 150.09 32.2702L148.675 30.856ZM148.315 31V29H143.395V31V33H148.315V31ZM143.395 31V29C143.44 29 143.618 29.012 143.829 29.1442C144.046 29.2805 144.153 29.4535 144.191 29.5397L142.363 30.352L140.536 31.1643C140.766 31.6825 141.141 32.1795 141.702 32.5318C142.256 32.88 142.855 33 143.395 33V31ZM142.363 30.352L144.187 29.5309L142.123 24.9469L140.299 25.768L138.476 26.5891L140.54 31.1731L142.363 30.352ZM140.299 25.768V23.768H139.315V25.768V27.768H140.299V25.768ZM139.315 25.768H137.315V30.352H139.315H141.315V25.768H139.315ZM139.315 30.352H137.315C137.315 30.1916 137.346 30.0077 137.424 29.8219C137.502 29.6371 137.608 29.4948 137.709 29.3938L139.123 30.808L140.538 32.2222C141.029 31.7311 141.315 31.0751 141.315 30.352H139.315ZM139.123 30.808L137.709 29.3938C137.81 29.2928 137.952 29.1865 138.137 29.1087C138.323 29.0305 138.507 29 138.667 29V31V33C139.39 33 140.046 32.7133 140.538 32.2222L139.123 30.808ZM138.667 31V29H133.963V31V33H138.667V31ZM133.963 31V29C134.124 29 134.308 29.0305 134.493 29.1087C134.678 29.1865 134.82 29.2928 134.922 29.3938L133.507 30.808L132.093 32.2222C132.584 32.7133 133.24 33 133.963 33V31ZM133.507 30.808L134.922 29.3938C135.023 29.4948 135.129 29.6371 135.207 29.8219C135.285 30.0077 135.315 30.1916 135.315 30.352H133.315H131.315C131.315 31.0751 131.602 31.7311 132.093 32.2222L133.507 30.808ZM133.315 30.352H135.315V14.848H133.315H131.315V30.352H133.315ZM133.315 14.848H135.315C135.315 15.0084 135.285 15.1923 135.207 15.3781C135.129 15.5629 135.023 15.7052 134.922 15.8062L133.507 14.392L132.093 12.9778C131.602 13.4689 131.315 14.1249 131.315 14.848H133.315ZM133.507 14.392L134.922 15.8062C134.82 15.9072 134.678 16.0135 134.493 16.0913C134.308 16.1695 134.124 16.2 133.963 16.2V14.2V12.2C133.24 12.2 132.584 12.4867 132.093 12.9778L133.507 14.392ZM133.963 14.2V16.2H141.067V14.2V12.2H133.963V14.2ZM141.067 14.2V16.2C143.09 16.2 144.39 16.6572 145.216 17.3199L146.467 15.76L147.719 14.2001C145.953 12.7828 143.653 12.2 141.067 12.2V14.2ZM146.467 15.76L145.227 17.3293C145.958 17.9063 146.411 18.7577 146.411 20.2H148.411H150.411C150.411 17.7703 149.569 15.6617 147.707 14.1907L146.467 15.76ZM148.411 20.2H146.411C146.411 21.3836 145.942 22.2841 144.743 23.0506L145.819 24.736L146.896 26.4214C149.152 24.9799 150.411 22.8564 150.411 20.2H148.411ZM145.819 24.736L144.059 25.6856L147.011 31.1576L148.771 30.208L150.532 29.2584L147.58 23.7864L145.819 24.736ZM139.315 18.664H137.315V21.208H139.315H141.315V18.664H139.315ZM139.315 21.208V23.208H141.067V21.208V19.208H139.315V21.208ZM141.067 21.208V23.208C141.879 23.208 142.756 22.9271 143.402 22.1736L141.883 20.872L140.365 19.5704C140.474 19.4434 140.617 19.3393 140.774 19.2746C140.922 19.2137 141.032 19.208 141.067 19.208V21.208ZM141.883 20.872L143.445 22.1214C143.961 21.4761 144.171 20.7208 144.171 19.984H142.171H140.171C140.171 19.9776 140.172 19.9285 140.197 19.853C140.222 19.7743 140.265 19.6935 140.322 19.6226L141.883 20.872ZM142.171 19.984H144.171C144.171 19.2449 143.961 18.509 143.483 17.872L141.883 19.072L140.283 20.272C140.244 20.2202 140.212 20.1582 140.192 20.0943C140.173 20.0323 140.171 19.9912 140.171 19.984H142.171ZM141.883 19.072L143.562 17.9855C142.963 17.0586 142.005 16.664 141.067 16.664V18.664V20.664C141.005 20.664 140.847 20.6519 140.653 20.5549C140.448 20.4525 140.297 20.3022 140.204 20.1585L141.883 19.072ZM141.067 18.664V16.664H139.315V18.664V20.664H141.067V18.664ZM161.952 14.992L160.022 15.5182L160.041 15.5858L160.064 15.6519L161.952 14.992ZM167.304 30.304L169.201 29.6716L169.197 29.6578L169.192 29.6441L167.304 30.304ZM167.16 30.856L165.746 29.4418L165.746 29.4418L167.16 30.856ZM161.424 30.4L163.306 29.7226L163.303 29.7165L161.424 30.4ZM160.848 28.816L162.727 28.1325L162.249 26.816H160.848V28.816ZM155.688 28.816V26.816H154.287L153.808 28.1325L155.688 28.816ZM155.112 30.4L153.232 29.7165L153.23 29.7226L155.112 30.4ZM149.352 30.856L147.833 32.1576L147.933 32.2744L148.05 32.3745L149.352 30.856ZM149.232 30.304L147.344 29.6441L147.339 29.6578L147.334 29.6715L149.232 30.304ZM154.584 14.992L156.472 15.6519L156.495 15.5858L156.513 15.5182L154.584 14.992ZM156.912 24.136L154.997 23.5594L154.221 26.136H156.912V24.136ZM159.624 24.136V26.136H162.329L161.536 23.55L159.624 24.136ZM158.256 19.672L160.168 19.086L158.239 12.7908L156.341 19.0954L158.256 19.672ZM155.664 14.2V16.2H160.872V14.2V12.2H155.664V14.2ZM160.872 14.2V16.2C160.858 16.2 160.642 16.1948 160.391 16.0108C160.13 15.8193 160.042 15.589 160.022 15.5182L161.952 14.992L163.881 14.4658C163.718 13.867 163.378 13.2407 162.757 12.7852C162.146 12.3372 161.462 12.2 160.872 12.2V14.2ZM161.952 14.992L160.064 15.6519L165.416 30.9639L167.304 30.304L169.192 29.6441L163.84 14.3321L161.952 14.992ZM167.304 30.304L165.406 30.9364C165.375 30.8418 165.358 30.7641 165.349 30.7146C165.339 30.6632 165.334 30.6233 165.332 30.599C165.327 30.5529 165.328 30.5308 165.328 30.544H167.328H169.328C169.328 30.4135 169.328 30.0507 169.201 29.6716L167.304 30.304ZM167.328 30.544H165.328C165.328 30.1931 165.432 29.9189 165.525 29.7458C165.614 29.5794 165.708 29.4797 165.746 29.4418L167.16 30.856L168.574 32.2702C168.83 32.0147 169.328 31.4265 169.328 30.544H167.328ZM167.16 30.856L165.746 29.4418C165.879 29.3081 166.051 29.1887 166.255 29.107C166.457 29.0263 166.646 29 166.8 29V31V33C167.439 33 168.078 32.7658 168.574 32.2702L167.16 30.856ZM166.8 31V29H162.36V31V33H166.8V31ZM162.36 31V29C162.391 29 162.597 29.0069 162.845 29.1662C163.114 29.3383 163.251 29.5717 163.306 29.7226L161.424 30.4L159.542 31.0774C159.74 31.6283 160.106 32.1617 160.686 32.5338C161.247 32.8931 161.849 33 162.36 33V31ZM161.424 30.4L163.303 29.7165L162.727 28.1325L160.848 28.816L158.968 29.4995L159.544 31.0835L161.424 30.4ZM160.848 28.816V26.816H155.688V28.816V30.816H160.848V28.816ZM155.688 28.816L153.808 28.1325L153.232 29.7165L155.112 30.4L156.991 31.0835L157.567 29.4995L155.688 28.816ZM155.112 30.4L153.23 29.7226C153.284 29.5717 153.422 29.3383 153.69 29.1662C153.939 29.0069 154.145 29 154.176 29V31V33C154.687 33 155.289 32.8931 155.849 32.5338C156.43 32.1617 156.795 31.6283 156.994 31.0774L155.112 30.4ZM154.176 31V29H149.736V31V33H154.176V31ZM149.736 31V29C149.891 29 150.062 29.0267 150.234 29.0913C150.406 29.1557 150.546 29.2454 150.653 29.3375L149.352 30.856L148.05 32.3745C148.515 32.7729 149.102 33 149.736 33V31ZM149.352 30.856L150.87 29.5544C150.925 29.6187 151.208 29.9642 151.208 30.544H149.208H147.208C147.208 31.3158 147.586 31.8693 147.833 32.1576L149.352 30.856ZM149.208 30.544H151.208C151.208 30.5308 151.208 30.5529 151.204 30.599C151.201 30.6233 151.197 30.6632 151.187 30.7146C151.178 30.7641 151.161 30.8418 151.129 30.9365L149.232 30.304L147.334 29.6715C147.208 30.0507 147.208 30.4135 147.208 30.544H149.208ZM149.232 30.304L151.12 30.9639L156.472 15.6519L154.584 14.992L152.696 14.3321L147.344 29.6441L149.232 30.304ZM154.584 14.992L156.513 15.5182C156.494 15.589 156.406 15.8193 156.145 16.0108C155.894 16.1948 155.678 16.2 155.664 16.2V14.2V12.2C155.074 12.2 154.39 12.3372 153.779 12.7852C153.158 13.2407 152.818 13.867 152.654 14.4658L154.584 14.992ZM156.912 24.136V26.136H159.624V24.136V22.136H156.912V24.136ZM159.624 24.136L161.536 23.55L160.168 19.086L158.256 19.672L156.344 20.258L157.712 24.722L159.624 24.136ZM158.256 19.672L156.341 19.0954L154.997 23.5594L156.912 24.136L158.827 24.7126L160.171 20.2486L158.256 19.672Z" fill="#FFFCF2" mask="url(#path-8-outside-1_158_38)"/>
<path d="M174.364 8C174.408 16.9187 181.622 24.1406 190.537 24.1992C181.869 24.231 174.796 31.0369 174.338 39.5986C174.354 39.8917 174.363 40.1874 174.363 40.4844C174.363 40.5113 174.362 40.5386 174.362 40.5654H174.316C174.316 40.5379 174.315 40.51 174.315 40.4824C174.315 40.1862 174.322 39.8909 174.338 39.5986C173.878 31.0179 166.776 24.2012 158.08 24.2012C158.053 24.2012 158.027 24.202 158 24.2021V24.2002C158.027 24.2003 158.054 24.2012 158.081 24.2012C167.047 24.2009 174.319 16.9553 174.362 8H174.364Z" fill="#FFFDDD"/>
<path d="M174.34 12.958C174.37 19.1676 179.398 24.194 185.607 24.2246V24.2275C179.379 24.2582 174.339 29.3155 174.339 35.5508C174.339 35.5697 174.34 35.5886 174.34 35.6074H174.338C174.338 35.5886 174.339 35.5697 174.339 35.5508C174.339 29.2967 169.269 24.2268 163.015 24.2266C162.996 24.2266 162.977 24.2274 162.958 24.2275V24.2246C162.977 24.2247 162.995 24.2266 163.014 24.2266C169.249 24.2266 174.307 19.1864 174.338 12.958H174.34Z" fill="url(#paint6_radial_158_38)"/>
<defs>
<radialGradient id="paint0_radial_158_38" cx="0" cy="0" r="1" gradientTransform="matrix(6.48587 13.6503 -31.7111 15.3673 3.65962 18.3528)" gradientUnits="userSpaceOnUse">
<stop stop-color="#3E7DA8"/>
<stop offset="0.1825" stop-color="#3A79A7"/>
<stop offset="0.3686" stop-color="#2F6DA3"/>
<stop offset="0.5559" stop-color="#1C589D"/>
<stop offset="0.6168" stop-color="#14509B"/>
<stop offset="1" stop-color="#0B1E38"/>
</radialGradient>
<radialGradient id="paint1_radial_158_38" cx="0" cy="0" r="1" gradientUnits="userSpaceOnUse" gradientTransform="translate(9.7911 18.7976) scale(14.6461 14.7902)">
<stop stop-color="#4888C8"/>
<stop offset="0.4409" stop-color="#4888C8"/>
<stop offset="0.9963" stop-color="#0B1E38"/>
</radialGradient>
<linearGradient id="paint2_linear_158_38" x1="7.43847" y1="61.4819" x2="39.3133" y2="14.8478" gradientUnits="userSpaceOnUse">
<stop offset="0.0192308" stop-color="#92CFE3"/>
<stop offset="0.259615" stop-color="#7FC5DC"/>
<stop offset="0.6128" stop-color="#4888C8"/>
<stop offset="0.9454" stop-color="#0B1E38"/>
</linearGradient>
<radialGradient id="paint3_radial_158_38" cx="0" cy="0" r="1" gradientUnits="userSpaceOnUse" gradientTransform="translate(34.0185 40.0608) scale(18.4342 18.6155)">
<stop stop-color="#7FC5DC"/>
<stop offset="0.3689" stop-color="#4888C8"/>
<stop offset="1" stop-color="#0B1E38"/>
</radialGradient>
<radialGradient id="paint4_radial_158_38" cx="0" cy="0" r="1" gradientUnits="userSpaceOnUse" gradientTransform="translate(38.825 4.98853) scale(6.47413 6.93134)">
<stop stop-color="#E8E163"/>
<stop offset="0.1391" stop-color="#E4CA4F"/>
<stop offset="0.3382" stop-color="#E0B139"/>
<stop offset="0.5444" stop-color="#DD9E29"/>
<stop offset="0.7599" stop-color="#DC941F"/>
<stop offset="1" stop-color="#DB901C"/>
</radialGradient>
<radialGradient id="paint5_radial_158_38" cx="0" cy="0" r="1" gradientTransform="matrix(-3.17745 1.57102 -1.52553 -3.14639 39.2681 35.0098)" gradientUnits="userSpaceOnUse">
<stop stop-color="#18548F"/>
<stop offset="0.8658" stop-color="#7FC5DC"/>
</radialGradient>
<radialGradient id="paint6_radial_158_38" cx="0" cy="0" r="1" gradientUnits="userSpaceOnUse" gradientTransform="translate(174.283 24.2828) rotate(90) scale(11.3248)">
<stop stop-color="#E8E163"/>
<stop offset="1" stop-color="#DB901C"/>
</radialGradient>
<clipPath id="clip0_158_38">
<rect width="40" height="46" fill="white" transform="translate(4)"/>
</clipPath>
</defs>
</svg>
