<svg width="792" height="79" viewBox="0 0 792 79" fill="none" xmlns="http://www.w3.org/2000/svg">
<mask id="path-1-outside-1_3_12491" maskUnits="userSpaceOnUse" x="-0.550049" y="3" width="707" height="76" fill="black">
<rect fill="white" x="-0.550049" y="3" width="707" height="76"/>
<path d="M6.88995 11H27.75C34.47 11 39.72 12.4467 43.5 15.34C47.28 18.2333 49.17 22.5033 49.17 28.15C49.17 33.7967 47.28 37.9733 43.5 40.68C39.7666 43.3867 34.5166 44.74 27.75 44.74H23.2V58.11C23.2 58.6233 23.0133 59.0667 22.64 59.44C22.2666 59.8133 21.8233 60 21.31 60H6.88995C6.37662 60 5.93328 59.8133 5.55995 59.44C5.18662 59.0667 4.99995 58.6233 4.99995 58.11V12.89C4.99995 12.3767 5.18662 11.9333 5.55995 11.56C5.93328 11.1867 6.37662 11 6.88995 11ZM22.85 24.02V31.79H27.75C28.59 31.79 29.3366 31.4867 29.99 30.88C30.6433 30.2267 30.97 29.3167 30.97 28.15C30.97 26.9833 30.7133 26.0033 30.2 25.21C29.6866 24.4167 28.87 24.02 27.75 24.02H22.85ZM70.071 25.49V27.94C73.3376 25.0467 76.9776 23.6 80.991 23.6H84.351C84.8643 23.6 85.3076 23.7867 85.681 24.16C86.0543 24.5333 86.241 24.9767 86.241 25.49V36.41C86.241 36.9233 86.0543 37.3667 85.681 37.74C85.3076 38.1133 84.8643 38.3 84.351 38.3H75.321C74.061 38.3 73.0576 38.6033 72.311 39.21C71.611 39.77 71.2143 40.54 71.121 41.52V58.11C71.121 58.6233 70.9343 59.0667 70.561 59.44C70.1876 59.8133 69.7443 60 69.231 60H55.931C55.4176 60 54.9743 59.8133 54.601 59.44C54.2276 59.0667 54.041 58.6233 54.041 58.11V25.49C54.041 24.9767 54.2276 24.5333 54.601 24.16C54.9743 23.7867 55.4176 23.6 55.931 23.6H68.181C68.6943 23.6 69.1376 23.7867 69.511 24.16C69.8843 24.5333 70.071 24.9767 70.071 25.49ZM90.8101 44.18V39.42C90.8101 34.1 92.7001 30.0167 96.4801 27.17C100.26 24.3233 105.137 22.9 111.11 22.9C117.083 22.9 121.96 24.3233 125.74 27.17C129.52 30.0167 131.41 34.1 131.41 39.42V44.18C131.41 49.5467 129.59 53.6533 125.95 56.5C122.31 59.3 117.363 60.7 111.11 60.7C104.857 60.7 99.9101 59.3 96.2701 56.5C92.6301 53.6533 90.8101 49.5467 90.8101 44.18ZM114.26 44.74V38.86C114.26 37.0867 114.027 35.85 113.56 35.15C113.093 34.45 112.277 34.1 111.11 34.1C109.943 34.1 109.127 34.45 108.66 35.15C108.193 35.85 107.96 37.0867 107.96 38.86V44.74C107.96 46.6067 108.193 47.8667 108.66 48.52C109.127 49.1733 109.943 49.5 111.11 49.5C112.277 49.5 113.093 49.15 113.56 48.45C114.027 47.75 114.26 46.5133 114.26 44.74ZM157.687 22.76V23.6H165.597C166.111 23.6 166.554 23.7867 166.927 24.16C167.301 24.5333 167.487 24.9767 167.487 25.49V33.96C167.487 34.4733 167.301 34.9167 166.927 35.29C166.554 35.6633 166.111 35.85 165.597 35.85H157.687V58.11C157.687 58.6233 157.501 59.0667 157.127 59.44C156.754 59.8133 156.311 60 155.797 60H143.547C143.034 60 142.591 59.8133 142.217 59.44C141.844 59.0667 141.657 58.6233 141.657 58.11V35.85H136.827C136.314 35.85 135.871 35.6633 135.497 35.29C135.124 34.9167 134.937 34.4733 134.937 33.96V25.49C134.937 24.9767 135.124 24.5333 135.497 24.16C135.871 23.7867 136.314 23.6 136.827 23.6H141.657V22.41C141.657 17.09 143.267 13.4033 146.487 11.35C149.707 9.25 154.164 8.2 159.857 8.2H166.367C166.881 8.2 167.324 8.38666 167.697 8.76C168.071 9.13333 168.257 9.57666 168.257 10.09V18.56C168.257 19.0733 168.071 19.5167 167.697 19.89C167.324 20.2633 166.881 20.45 166.367 20.45H160.697C158.691 20.45 157.687 21.22 157.687 22.76ZM187.559 60H175.029C174.516 60 174.073 59.8133 173.699 59.44C173.326 59.0667 173.139 58.6233 173.139 58.11V25.49C173.139 24.9767 173.326 24.5333 173.699 24.16C174.073 23.7867 174.516 23.6 175.029 23.6H187.559C188.073 23.6 188.516 23.7867 188.889 24.16C189.263 24.5333 189.449 24.9767 189.449 25.49V58.11C189.449 58.6233 189.263 59.0667 188.889 59.44C188.516 59.8133 188.073 60 187.559 60ZM189.099 10.09V18.56C189.099 19.0733 188.913 19.5167 188.539 19.89C188.166 20.2633 187.723 20.45 187.209 20.45H175.379C174.866 20.45 174.423 20.2633 174.049 19.89C173.676 19.5167 173.489 19.0733 173.489 18.56V10.09C173.489 9.57666 173.676 9.13333 174.049 8.76C174.423 8.38666 174.866 8.2 175.379 8.2H187.209C187.723 8.2 188.166 8.38666 188.539 8.76C188.913 9.13333 189.099 9.57666 189.099 10.09ZM210.87 60H198.34C197.827 60 197.383 59.8133 197.01 59.44C196.637 59.0667 196.45 58.6233 196.45 58.11V12.19C196.45 11.6767 196.637 11.2333 197.01 10.86C197.383 10.4867 197.827 10.3 198.34 10.3H210.87C211.383 10.3 211.827 10.4867 212.2 10.86C212.573 11.2333 212.76 11.6767 212.76 12.19V58.11C212.76 58.6233 212.573 59.0667 212.2 59.44C211.827 59.8133 211.383 60 210.87 60ZM243.003 11H263.163C269.977 11 275.577 12.7033 279.963 16.11C284.397 19.47 286.613 24.1833 286.613 30.25V40.68C286.613 47.0267 284.467 51.8333 280.173 55.1C275.88 58.3667 270.233 60 263.233 60H243.003C242.49 60 242.047 59.8133 241.673 59.44C241.3 59.0667 241.113 58.6233 241.113 58.11V12.89C241.113 12.3767 241.3 11.9333 241.673 11.56C242.047 11.1867 242.49 11 243.003 11ZM258.613 24.65V46.35H263.163C264.75 46.35 266.01 45.8833 266.943 44.95C267.923 43.97 268.413 42.5467 268.413 40.68V30.25C268.413 26.5167 266.663 24.65 263.163 24.65H258.613ZM330.207 45.93H309.347V46.28C309.347 49.1267 310.257 50.55 312.077 50.55C312.59 50.55 313.22 50.1767 313.967 49.43C314.713 48.6833 315.53 48.31 316.417 48.31H329.647C330.673 48.31 331.187 48.8233 331.187 49.85C331.187 52.1367 329.46 54.5167 326.007 56.99C322.6 59.4633 317.957 60.7 312.077 60.7C306.243 60.7 301.46 59.1833 297.727 56.15C294.04 53.07 292.197 48.8467 292.197 43.48V40.12C292.197 35.0333 294.087 30.9033 297.867 27.73C301.647 24.51 306.593 22.9 312.707 22.9C318.867 22.9 323.627 24.6967 326.987 28.29C330.393 31.8833 332.097 36.4333 332.097 41.94V44.04C332.097 44.5533 331.91 44.9967 331.537 45.37C331.163 45.7433 330.72 45.93 330.207 45.93ZM314.947 36.9C314.947 34.1 314.013 32.7 312.147 32.7C310.28 32.7 309.347 34.1 309.347 36.9V37.18H314.947V36.9ZM378.902 39.07V44.6C378.902 49.8267 377.502 53.8167 374.702 56.57C371.902 59.3233 368.472 60.7 364.412 60.7C360.399 60.7 357.179 59.6033 354.752 57.41V71.41C354.752 71.9233 354.566 72.3667 354.192 72.74C353.819 73.1133 353.376 73.3 352.862 73.3H339.912C339.399 73.3 338.956 73.1133 338.582 72.74C338.209 72.3667 338.022 71.9233 338.022 71.41V25.49C338.022 24.9767 338.209 24.5333 338.582 24.16C338.956 23.7867 339.399 23.6 339.912 23.6H351.812C352.326 23.6 352.769 23.7867 353.142 24.16C353.516 24.5333 353.702 24.9767 353.702 25.49V27.59C356.129 24.4633 359.559 22.9 363.992 22.9C368.426 22.9 372.019 24.23 374.772 26.89C377.526 29.5033 378.902 33.5633 378.902 39.07ZM354.752 39.49V44.67C354.892 47.0033 356.059 48.17 358.252 48.17C360.586 48.17 361.752 46.8167 361.752 44.11V39.49C361.752 36.7833 360.586 35.43 358.252 35.43C355.919 35.43 354.752 36.7833 354.752 39.49ZM383.798 49.57C383.798 43.27 388.908 39.2333 399.128 37.46L406.548 36.27C406.548 34.87 406.432 33.9367 406.198 33.47C405.965 32.9567 405.405 32.7 404.518 32.7C403.678 32.7 402.838 33.0733 401.998 33.82C401.158 34.5667 400.365 34.94 399.618 34.94H387.718C386.692 34.94 386.178 34.45 386.178 33.47C386.178 32.4433 386.528 31.37 387.228 30.25C387.975 29.0833 389.025 27.94 390.378 26.82C391.778 25.7 393.715 24.7667 396.188 24.02C398.708 23.2733 401.508 22.9 404.588 22.9C410.842 22.9 415.532 24.2067 418.658 26.82C421.785 29.4333 423.348 33.1667 423.348 38.02V58.11C423.348 58.6233 423.162 59.0667 422.788 59.44C422.415 59.8133 421.972 60 421.458 60H409.208C408.695 60 408.252 59.8133 407.878 59.44C407.505 59.0667 407.318 58.6233 407.318 58.11V56.15C405.125 59.1833 401.928 60.7 397.728 60.7C393.528 60.7 390.145 59.65 387.578 57.55C385.058 55.4033 383.798 52.7433 383.798 49.57ZM402.208 50.34C405.242 50.34 406.758 48.52 406.758 44.88L402.628 45.79C400.575 46.2567 399.548 47.12 399.548 48.38C399.548 48.94 399.782 49.4067 400.248 49.78C400.715 50.1533 401.368 50.34 402.208 50.34ZM445.296 25.49V27.94C448.562 25.0467 452.202 23.6 456.216 23.6H459.576C460.089 23.6 460.532 23.7867 460.906 24.16C461.279 24.5333 461.466 24.9767 461.466 25.49V36.41C461.466 36.9233 461.279 37.3667 460.906 37.74C460.532 38.1133 460.089 38.3 459.576 38.3H450.546C449.286 38.3 448.282 38.6033 447.536 39.21C446.836 39.77 446.439 40.54 446.346 41.52V58.11C446.346 58.6233 446.159 59.0667 445.786 59.44C445.412 59.8133 444.969 60 444.456 60H431.156C430.642 60 430.199 59.8133 429.826 59.44C429.452 59.0667 429.266 58.6233 429.266 58.11V25.49C429.266 24.9767 429.452 24.5333 429.826 24.16C430.199 23.7867 430.642 23.6 431.156 23.6H443.406C443.919 23.6 444.362 23.7867 444.736 24.16C445.109 24.5333 445.296 24.9767 445.296 25.49ZM488.085 35.85V43.55C488.085 45.8833 489.088 47.05 491.095 47.05H497.465C497.978 47.05 498.421 47.2367 498.795 47.61C499.168 47.9833 499.355 48.4267 499.355 48.94V58.11C499.355 58.6233 499.168 59.0667 498.795 59.44C498.421 59.8133 497.978 60 497.465 60H489.555C477.888 60 472.055 54.9833 472.055 44.95V35.85H466.525C466.011 35.85 465.568 35.6633 465.195 35.29C464.821 34.9167 464.635 34.4733 464.635 33.96V25.49C464.635 24.9767 464.821 24.5333 465.195 24.16C465.568 23.7867 466.011 23.6 466.525 23.6H472.055V12.19C472.055 11.6767 472.241 11.2333 472.615 10.86C472.988 10.4867 473.431 10.3 473.945 10.3H486.195C486.708 10.3 487.151 10.4867 487.525 10.86C487.898 11.2333 488.085 11.6767 488.085 12.19V23.6H496.905C497.418 23.6 497.861 23.7867 498.235 24.16C498.608 24.5333 498.795 24.9767 498.795 25.49V33.96C498.795 34.4733 498.608 34.9167 498.235 35.29C497.861 35.6633 497.418 35.85 496.905 35.85H488.085ZM541.232 45.93H520.372V46.28C520.372 49.1267 521.282 50.55 523.102 50.55C523.616 50.55 524.246 50.1767 524.992 49.43C525.739 48.6833 526.556 48.31 527.442 48.31H540.672C541.699 48.31 542.212 48.8233 542.212 49.85C542.212 52.1367 540.486 54.5167 537.032 56.99C533.626 59.4633 528.982 60.7 523.102 60.7C517.269 60.7 512.486 59.1833 508.752 56.15C505.066 53.07 503.222 48.8467 503.222 43.48V40.12C503.222 35.0333 505.112 30.9033 508.892 27.73C512.672 24.51 517.619 22.9 523.732 22.9C529.892 22.9 534.652 24.6967 538.012 28.29C541.419 31.8833 543.122 36.4333 543.122 41.94V44.04C543.122 44.5533 542.936 44.9967 542.562 45.37C542.189 45.7433 541.746 45.93 541.232 45.93ZM525.972 36.9C525.972 34.1 525.039 32.7 523.172 32.7C521.306 32.7 520.372 34.1 520.372 36.9V37.18H525.972V36.9ZM589.858 35.43C589.111 35.43 588.458 35.71 587.898 36.27C587.384 36.83 587.128 37.67 587.128 38.79V58.11C587.128 58.6233 586.941 59.0667 586.568 59.44C586.194 59.8133 585.751 60 585.238 60H572.918C572.404 60 571.961 59.8133 571.588 59.44C571.214 59.0667 571.028 58.6233 571.028 58.11V39.28C571.028 36.7133 570.094 35.43 568.228 35.43C567.434 35.43 566.758 35.7333 566.198 36.34C565.684 36.9 565.428 37.6933 565.428 38.72V58.11C565.428 58.6233 565.241 59.0667 564.868 59.44C564.494 59.8133 564.051 60 563.538 60H550.938C550.424 60 549.981 59.8133 549.608 59.44C549.234 59.0667 549.048 58.6233 549.048 58.11V25.49C549.048 24.9767 549.234 24.5333 549.608 24.16C549.981 23.7867 550.424 23.6 550.938 23.6H562.488C563.001 23.6 563.444 23.7867 563.818 24.16C564.191 24.5333 564.378 24.9767 564.378 25.49V27.8C565.311 26.5867 566.641 25.49 568.368 24.51C570.281 23.4367 572.428 22.9 574.808 22.9C579.941 22.9 583.394 24.8133 585.168 28.64C586.288 27.0067 587.828 25.6533 589.788 24.58C591.748 23.46 593.778 22.9 595.878 22.9C599.658 22.9 602.738 24.23 605.118 26.89C607.544 29.55 608.758 33.5167 608.758 38.79V58.11C608.758 58.6233 608.571 59.0667 608.198 59.44C607.824 59.8133 607.381 60 606.868 60H594.548C594.034 60 593.591 59.8133 593.218 59.44C592.844 59.0667 592.658 58.6233 592.658 58.11V39.28C592.658 36.7133 591.724 35.43 589.858 35.43ZM652.385 45.93H631.525V46.28C631.525 49.1267 632.435 50.55 634.255 50.55C634.768 50.55 635.398 50.1767 636.145 49.43C636.891 48.6833 637.708 48.31 638.595 48.31H651.825C652.851 48.31 653.365 48.8233 653.365 49.85C653.365 52.1367 651.638 54.5167 648.185 56.99C644.778 59.4633 640.135 60.7 634.255 60.7C628.421 60.7 623.638 59.1833 619.905 56.15C616.218 53.07 614.375 48.8467 614.375 43.48V40.12C614.375 35.0333 616.265 30.9033 620.045 27.73C623.825 24.51 628.771 22.9 634.885 22.9C641.045 22.9 645.805 24.6967 649.165 28.29C652.571 31.8833 654.275 36.4333 654.275 41.94V44.04C654.275 44.5533 654.088 44.9967 653.715 45.37C653.341 45.7433 652.898 45.93 652.385 45.93ZM637.125 36.9C637.125 34.1 636.191 32.7 634.325 32.7C632.458 32.7 631.525 34.1 631.525 36.9V37.18H637.125V36.9ZM701.43 38.79V58.11C701.43 58.6233 701.243 59.0667 700.87 59.44C700.497 59.8133 700.053 60 699.54 60H686.17C685.657 60 685.213 59.8133 684.84 59.44C684.467 59.0667 684.28 58.6233 684.28 58.11V39.28C684.28 36.7133 683.113 35.43 680.78 35.43C678.447 35.43 677.28 36.7133 677.28 39.28V58.11C677.28 58.6233 677.093 59.0667 676.72 59.44C676.347 59.8133 675.903 60 675.39 60H662.09C661.577 60 661.133 59.8133 660.76 59.44C660.387 59.0667 660.2 58.6233 660.2 58.11V25.49C660.2 24.9767 660.387 24.5333 660.76 24.16C661.133 23.7867 661.577 23.6 662.09 23.6H674.34C674.853 23.6 675.297 23.7867 675.67 24.16C676.043 24.5333 676.23 24.9767 676.23 25.49V27.8C677.443 26.3533 679.077 25.1867 681.13 24.3C683.23 23.3667 685.47 22.9 687.85 22.9C691.677 22.9 694.897 24.2533 697.51 26.96C700.123 29.62 701.43 33.5633 701.43 38.79Z"/>
</mask>
<path d="M6.88995 11H27.75C34.47 11 39.72 12.4467 43.5 15.34C47.28 18.2333 49.17 22.5033 49.17 28.15C49.17 33.7967 47.28 37.9733 43.5 40.68C39.7666 43.3867 34.5166 44.74 27.75 44.74H23.2V58.11C23.2 58.6233 23.0133 59.0667 22.64 59.44C22.2666 59.8133 21.8233 60 21.31 60H6.88995C6.37662 60 5.93328 59.8133 5.55995 59.44C5.18662 59.0667 4.99995 58.6233 4.99995 58.11V12.89C4.99995 12.3767 5.18662 11.9333 5.55995 11.56C5.93328 11.1867 6.37662 11 6.88995 11ZM22.85 24.02V31.79H27.75C28.59 31.79 29.3366 31.4867 29.99 30.88C30.6433 30.2267 30.97 29.3167 30.97 28.15C30.97 26.9833 30.7133 26.0033 30.2 25.21C29.6866 24.4167 28.87 24.02 27.75 24.02H22.85ZM70.071 25.49V27.94C73.3376 25.0467 76.9776 23.6 80.991 23.6H84.351C84.8643 23.6 85.3076 23.7867 85.681 24.16C86.0543 24.5333 86.241 24.9767 86.241 25.49V36.41C86.241 36.9233 86.0543 37.3667 85.681 37.74C85.3076 38.1133 84.8643 38.3 84.351 38.3H75.321C74.061 38.3 73.0576 38.6033 72.311 39.21C71.611 39.77 71.2143 40.54 71.121 41.52V58.11C71.121 58.6233 70.9343 59.0667 70.561 59.44C70.1876 59.8133 69.7443 60 69.231 60H55.931C55.4176 60 54.9743 59.8133 54.601 59.44C54.2276 59.0667 54.041 58.6233 54.041 58.11V25.49C54.041 24.9767 54.2276 24.5333 54.601 24.16C54.9743 23.7867 55.4176 23.6 55.931 23.6H68.181C68.6943 23.6 69.1376 23.7867 69.511 24.16C69.8843 24.5333 70.071 24.9767 70.071 25.49ZM90.8101 44.18V39.42C90.8101 34.1 92.7001 30.0167 96.4801 27.17C100.26 24.3233 105.137 22.9 111.11 22.9C117.083 22.9 121.96 24.3233 125.74 27.17C129.52 30.0167 131.41 34.1 131.41 39.42V44.18C131.41 49.5467 129.59 53.6533 125.95 56.5C122.31 59.3 117.363 60.7 111.11 60.7C104.857 60.7 99.9101 59.3 96.2701 56.5C92.6301 53.6533 90.8101 49.5467 90.8101 44.18ZM114.26 44.74V38.86C114.26 37.0867 114.027 35.85 113.56 35.15C113.093 34.45 112.277 34.1 111.11 34.1C109.943 34.1 109.127 34.45 108.66 35.15C108.193 35.85 107.96 37.0867 107.96 38.86V44.74C107.96 46.6067 108.193 47.8667 108.66 48.52C109.127 49.1733 109.943 49.5 111.11 49.5C112.277 49.5 113.093 49.15 113.56 48.45C114.027 47.75 114.26 46.5133 114.26 44.74ZM157.687 22.76V23.6H165.597C166.111 23.6 166.554 23.7867 166.927 24.16C167.301 24.5333 167.487 24.9767 167.487 25.49V33.96C167.487 34.4733 167.301 34.9167 166.927 35.29C166.554 35.6633 166.111 35.85 165.597 35.85H157.687V58.11C157.687 58.6233 157.501 59.0667 157.127 59.44C156.754 59.8133 156.311 60 155.797 60H143.547C143.034 60 142.591 59.8133 142.217 59.44C141.844 59.0667 141.657 58.6233 141.657 58.11V35.85H136.827C136.314 35.85 135.871 35.6633 135.497 35.29C135.124 34.9167 134.937 34.4733 134.937 33.96V25.49C134.937 24.9767 135.124 24.5333 135.497 24.16C135.871 23.7867 136.314 23.6 136.827 23.6H141.657V22.41C141.657 17.09 143.267 13.4033 146.487 11.35C149.707 9.25 154.164 8.2 159.857 8.2H166.367C166.881 8.2 167.324 8.38666 167.697 8.76C168.071 9.13333 168.257 9.57666 168.257 10.09V18.56C168.257 19.0733 168.071 19.5167 167.697 19.89C167.324 20.2633 166.881 20.45 166.367 20.45H160.697C158.691 20.45 157.687 21.22 157.687 22.76ZM187.559 60H175.029C174.516 60 174.073 59.8133 173.699 59.44C173.326 59.0667 173.139 58.6233 173.139 58.11V25.49C173.139 24.9767 173.326 24.5333 173.699 24.16C174.073 23.7867 174.516 23.6 175.029 23.6H187.559C188.073 23.6 188.516 23.7867 188.889 24.16C189.263 24.5333 189.449 24.9767 189.449 25.49V58.11C189.449 58.6233 189.263 59.0667 188.889 59.44C188.516 59.8133 188.073 60 187.559 60ZM189.099 10.09V18.56C189.099 19.0733 188.913 19.5167 188.539 19.89C188.166 20.2633 187.723 20.45 187.209 20.45H175.379C174.866 20.45 174.423 20.2633 174.049 19.89C173.676 19.5167 173.489 19.0733 173.489 18.56V10.09C173.489 9.57666 173.676 9.13333 174.049 8.76C174.423 8.38666 174.866 8.2 175.379 8.2H187.209C187.723 8.2 188.166 8.38666 188.539 8.76C188.913 9.13333 189.099 9.57666 189.099 10.09ZM210.87 60H198.34C197.827 60 197.383 59.8133 197.01 59.44C196.637 59.0667 196.45 58.6233 196.45 58.11V12.19C196.45 11.6767 196.637 11.2333 197.01 10.86C197.383 10.4867 197.827 10.3 198.34 10.3H210.87C211.383 10.3 211.827 10.4867 212.2 10.86C212.573 11.2333 212.76 11.6767 212.76 12.19V58.11C212.76 58.6233 212.573 59.0667 212.2 59.44C211.827 59.8133 211.383 60 210.87 60ZM243.003 11H263.163C269.977 11 275.577 12.7033 279.963 16.11C284.397 19.47 286.613 24.1833 286.613 30.25V40.68C286.613 47.0267 284.467 51.8333 280.173 55.1C275.88 58.3667 270.233 60 263.233 60H243.003C242.49 60 242.047 59.8133 241.673 59.44C241.3 59.0667 241.113 58.6233 241.113 58.11V12.89C241.113 12.3767 241.3 11.9333 241.673 11.56C242.047 11.1867 242.49 11 243.003 11ZM258.613 24.65V46.35H263.163C264.75 46.35 266.01 45.8833 266.943 44.95C267.923 43.97 268.413 42.5467 268.413 40.68V30.25C268.413 26.5167 266.663 24.65 263.163 24.65H258.613ZM330.207 45.93H309.347V46.28C309.347 49.1267 310.257 50.55 312.077 50.55C312.59 50.55 313.22 50.1767 313.967 49.43C314.713 48.6833 315.53 48.31 316.417 48.31H329.647C330.673 48.31 331.187 48.8233 331.187 49.85C331.187 52.1367 329.46 54.5167 326.007 56.99C322.6 59.4633 317.957 60.7 312.077 60.7C306.243 60.7 301.46 59.1833 297.727 56.15C294.04 53.07 292.197 48.8467 292.197 43.48V40.12C292.197 35.0333 294.087 30.9033 297.867 27.73C301.647 24.51 306.593 22.9 312.707 22.9C318.867 22.9 323.627 24.6967 326.987 28.29C330.393 31.8833 332.097 36.4333 332.097 41.94V44.04C332.097 44.5533 331.91 44.9967 331.537 45.37C331.163 45.7433 330.72 45.93 330.207 45.93ZM314.947 36.9C314.947 34.1 314.013 32.7 312.147 32.7C310.28 32.7 309.347 34.1 309.347 36.9V37.18H314.947V36.9ZM378.902 39.07V44.6C378.902 49.8267 377.502 53.8167 374.702 56.57C371.902 59.3233 368.472 60.7 364.412 60.7C360.399 60.7 357.179 59.6033 354.752 57.41V71.41C354.752 71.9233 354.566 72.3667 354.192 72.74C353.819 73.1133 353.376 73.3 352.862 73.3H339.912C339.399 73.3 338.956 73.1133 338.582 72.74C338.209 72.3667 338.022 71.9233 338.022 71.41V25.49C338.022 24.9767 338.209 24.5333 338.582 24.16C338.956 23.7867 339.399 23.6 339.912 23.6H351.812C352.326 23.6 352.769 23.7867 353.142 24.16C353.516 24.5333 353.702 24.9767 353.702 25.49V27.59C356.129 24.4633 359.559 22.9 363.992 22.9C368.426 22.9 372.019 24.23 374.772 26.89C377.526 29.5033 378.902 33.5633 378.902 39.07ZM354.752 39.49V44.67C354.892 47.0033 356.059 48.17 358.252 48.17C360.586 48.17 361.752 46.8167 361.752 44.11V39.49C361.752 36.7833 360.586 35.43 358.252 35.43C355.919 35.43 354.752 36.7833 354.752 39.49ZM383.798 49.57C383.798 43.27 388.908 39.2333 399.128 37.46L406.548 36.27C406.548 34.87 406.432 33.9367 406.198 33.47C405.965 32.9567 405.405 32.7 404.518 32.7C403.678 32.7 402.838 33.0733 401.998 33.82C401.158 34.5667 400.365 34.94 399.618 34.94H387.718C386.692 34.94 386.178 34.45 386.178 33.47C386.178 32.4433 386.528 31.37 387.228 30.25C387.975 29.0833 389.025 27.94 390.378 26.82C391.778 25.7 393.715 24.7667 396.188 24.02C398.708 23.2733 401.508 22.9 404.588 22.9C410.842 22.9 415.532 24.2067 418.658 26.82C421.785 29.4333 423.348 33.1667 423.348 38.02V58.11C423.348 58.6233 423.162 59.0667 422.788 59.44C422.415 59.8133 421.972 60 421.458 60H409.208C408.695 60 408.252 59.8133 407.878 59.44C407.505 59.0667 407.318 58.6233 407.318 58.11V56.15C405.125 59.1833 401.928 60.7 397.728 60.7C393.528 60.7 390.145 59.65 387.578 57.55C385.058 55.4033 383.798 52.7433 383.798 49.57ZM402.208 50.34C405.242 50.34 406.758 48.52 406.758 44.88L402.628 45.79C400.575 46.2567 399.548 47.12 399.548 48.38C399.548 48.94 399.782 49.4067 400.248 49.78C400.715 50.1533 401.368 50.34 402.208 50.34ZM445.296 25.49V27.94C448.562 25.0467 452.202 23.6 456.216 23.6H459.576C460.089 23.6 460.532 23.7867 460.906 24.16C461.279 24.5333 461.466 24.9767 461.466 25.49V36.41C461.466 36.9233 461.279 37.3667 460.906 37.74C460.532 38.1133 460.089 38.3 459.576 38.3H450.546C449.286 38.3 448.282 38.6033 447.536 39.21C446.836 39.77 446.439 40.54 446.346 41.52V58.11C446.346 58.6233 446.159 59.0667 445.786 59.44C445.412 59.8133 444.969 60 444.456 60H431.156C430.642 60 430.199 59.8133 429.826 59.44C429.452 59.0667 429.266 58.6233 429.266 58.11V25.49C429.266 24.9767 429.452 24.5333 429.826 24.16C430.199 23.7867 430.642 23.6 431.156 23.6H443.406C443.919 23.6 444.362 23.7867 444.736 24.16C445.109 24.5333 445.296 24.9767 445.296 25.49ZM488.085 35.85V43.55C488.085 45.8833 489.088 47.05 491.095 47.05H497.465C497.978 47.05 498.421 47.2367 498.795 47.61C499.168 47.9833 499.355 48.4267 499.355 48.94V58.11C499.355 58.6233 499.168 59.0667 498.795 59.44C498.421 59.8133 497.978 60 497.465 60H489.555C477.888 60 472.055 54.9833 472.055 44.95V35.85H466.525C466.011 35.85 465.568 35.6633 465.195 35.29C464.821 34.9167 464.635 34.4733 464.635 33.96V25.49C464.635 24.9767 464.821 24.5333 465.195 24.16C465.568 23.7867 466.011 23.6 466.525 23.6H472.055V12.19C472.055 11.6767 472.241 11.2333 472.615 10.86C472.988 10.4867 473.431 10.3 473.945 10.3H486.195C486.708 10.3 487.151 10.4867 487.525 10.86C487.898 11.2333 488.085 11.6767 488.085 12.19V23.6H496.905C497.418 23.6 497.861 23.7867 498.235 24.16C498.608 24.5333 498.795 24.9767 498.795 25.49V33.96C498.795 34.4733 498.608 34.9167 498.235 35.29C497.861 35.6633 497.418 35.85 496.905 35.85H488.085ZM541.232 45.93H520.372V46.28C520.372 49.1267 521.282 50.55 523.102 50.55C523.616 50.55 524.246 50.1767 524.992 49.43C525.739 48.6833 526.556 48.31 527.442 48.31H540.672C541.699 48.31 542.212 48.8233 542.212 49.85C542.212 52.1367 540.486 54.5167 537.032 56.99C533.626 59.4633 528.982 60.7 523.102 60.7C517.269 60.7 512.486 59.1833 508.752 56.15C505.066 53.07 503.222 48.8467 503.222 43.48V40.12C503.222 35.0333 505.112 30.9033 508.892 27.73C512.672 24.51 517.619 22.9 523.732 22.9C529.892 22.9 534.652 24.6967 538.012 28.29C541.419 31.8833 543.122 36.4333 543.122 41.94V44.04C543.122 44.5533 542.936 44.9967 542.562 45.37C542.189 45.7433 541.746 45.93 541.232 45.93ZM525.972 36.9C525.972 34.1 525.039 32.7 523.172 32.7C521.306 32.7 520.372 34.1 520.372 36.9V37.18H525.972V36.9ZM589.858 35.43C589.111 35.43 588.458 35.71 587.898 36.27C587.384 36.83 587.128 37.67 587.128 38.79V58.11C587.128 58.6233 586.941 59.0667 586.568 59.44C586.194 59.8133 585.751 60 585.238 60H572.918C572.404 60 571.961 59.8133 571.588 59.44C571.214 59.0667 571.028 58.6233 571.028 58.11V39.28C571.028 36.7133 570.094 35.43 568.228 35.43C567.434 35.43 566.758 35.7333 566.198 36.34C565.684 36.9 565.428 37.6933 565.428 38.72V58.11C565.428 58.6233 565.241 59.0667 564.868 59.44C564.494 59.8133 564.051 60 563.538 60H550.938C550.424 60 549.981 59.8133 549.608 59.44C549.234 59.0667 549.048 58.6233 549.048 58.11V25.49C549.048 24.9767 549.234 24.5333 549.608 24.16C549.981 23.7867 550.424 23.6 550.938 23.6H562.488C563.001 23.6 563.444 23.7867 563.818 24.16C564.191 24.5333 564.378 24.9767 564.378 25.49V27.8C565.311 26.5867 566.641 25.49 568.368 24.51C570.281 23.4367 572.428 22.9 574.808 22.9C579.941 22.9 583.394 24.8133 585.168 28.64C586.288 27.0067 587.828 25.6533 589.788 24.58C591.748 23.46 593.778 22.9 595.878 22.9C599.658 22.9 602.738 24.23 605.118 26.89C607.544 29.55 608.758 33.5167 608.758 38.79V58.11C608.758 58.6233 608.571 59.0667 608.198 59.44C607.824 59.8133 607.381 60 606.868 60H594.548C594.034 60 593.591 59.8133 593.218 59.44C592.844 59.0667 592.658 58.6233 592.658 58.11V39.28C592.658 36.7133 591.724 35.43 589.858 35.43ZM652.385 45.93H631.525V46.28C631.525 49.1267 632.435 50.55 634.255 50.55C634.768 50.55 635.398 50.1767 636.145 49.43C636.891 48.6833 637.708 48.31 638.595 48.31H651.825C652.851 48.31 653.365 48.8233 653.365 49.85C653.365 52.1367 651.638 54.5167 648.185 56.99C644.778 59.4633 640.135 60.7 634.255 60.7C628.421 60.7 623.638 59.1833 619.905 56.15C616.218 53.07 614.375 48.8467 614.375 43.48V40.12C614.375 35.0333 616.265 30.9033 620.045 27.73C623.825 24.51 628.771 22.9 634.885 22.9C641.045 22.9 645.805 24.6967 649.165 28.29C652.571 31.8833 654.275 36.4333 654.275 41.94V44.04C654.275 44.5533 654.088 44.9967 653.715 45.37C653.341 45.7433 652.898 45.93 652.385 45.93ZM637.125 36.9C637.125 34.1 636.191 32.7 634.325 32.7C632.458 32.7 631.525 34.1 631.525 36.9V37.18H637.125V36.9ZM701.43 38.79V58.11C701.43 58.6233 701.243 59.0667 700.87 59.44C700.497 59.8133 700.053 60 699.54 60H686.17C685.657 60 685.213 59.8133 684.84 59.44C684.467 59.0667 684.28 58.6233 684.28 58.11V39.28C684.28 36.7133 683.113 35.43 680.78 35.43C678.447 35.43 677.28 36.7133 677.28 39.28V58.11C677.28 58.6233 677.093 59.0667 676.72 59.44C676.347 59.8133 675.903 60 675.39 60H662.09C661.577 60 661.133 59.8133 660.76 59.44C660.387 59.0667 660.2 58.6233 660.2 58.11V25.49C660.2 24.9767 660.387 24.5333 660.76 24.16C661.133 23.7867 661.577 23.6 662.09 23.6H674.34C674.853 23.6 675.297 23.7867 675.67 24.16C676.043 24.5333 676.23 24.9767 676.23 25.49V27.8C677.443 26.3533 679.077 25.1867 681.13 24.3C683.23 23.3667 685.47 22.9 687.85 22.9C691.677 22.9 694.897 24.2533 697.51 26.96C700.123 29.62 701.43 33.5633 701.43 38.79Z" fill="#173679"/>
<path d="M43.5 15.34L40.4609 19.3104L40.4609 19.3104L43.5 15.34ZM43.5 40.68L40.589 36.6147L40.577 36.6233L40.5651 36.6319L43.5 40.68ZM23.2 44.74V39.74H18.2V44.74H23.2ZM22.64 59.44L19.1044 55.9045L19.1044 55.9045L22.64 59.44ZM5.55995 59.44L9.09549 55.9045L9.09549 55.9045L5.55995 59.44ZM5.55995 11.56L9.09549 15.0955H9.09549L5.55995 11.56ZM22.85 24.02V19.02H17.85V24.02H22.85ZM22.85 31.79H17.85V36.79H22.85V31.79ZM29.99 30.88L33.3922 34.544L33.46 34.481L33.5255 34.4155L29.99 30.88ZM30.2 25.21L26.0021 27.9263L26.0021 27.9263L30.2 25.21ZM6.88995 11V16H27.75V11V6H6.88995V11ZM27.75 11V16C33.8124 16 37.8485 17.3108 40.4609 19.3104L43.5 15.34L46.539 11.3696C41.5914 7.58255 35.1275 6 27.75 6V11ZM43.5 15.34L40.4609 19.3104C42.7673 21.0758 44.17 23.7341 44.17 28.15H49.17H54.17C54.17 21.2726 51.7926 15.3909 46.539 11.3696L43.5 15.34ZM49.17 28.15H44.17C44.17 32.5747 42.7694 35.0534 40.589 36.6147L43.5 40.68L46.4109 44.7453C51.7905 40.8932 54.17 35.0186 54.17 28.15H49.17ZM43.5 40.68L40.5651 36.6319C38.0003 38.4914 33.933 39.74 27.75 39.74V44.74V49.74C35.1003 49.74 41.5329 48.2819 46.4348 44.7281L43.5 40.68ZM27.75 44.74V39.74H23.2V44.74V49.74H27.75V44.74ZM23.2 44.74H18.2V58.11H23.2H28.2V44.74H23.2ZM23.2 58.11H18.2C18.2 57.7456 18.2695 57.3202 18.4518 56.8872C18.6329 56.457 18.8785 56.1304 19.1044 55.9045L22.64 59.44L26.1755 62.9755C27.4566 61.6944 28.2 59.9911 28.2 58.11H23.2ZM22.64 59.44L19.1044 55.9045C19.3303 55.6786 19.657 55.433 20.0872 55.2518C20.5201 55.0695 20.9456 55 21.31 55V60V65C23.1911 65 24.8944 64.2566 26.1755 62.9755L22.64 59.44ZM21.31 60V55H6.88995V60V65H21.31V60ZM6.88995 60V55C7.25435 55 7.67976 55.0695 8.11274 55.2518C8.54293 55.433 8.86958 55.6786 9.09549 55.9045L5.55995 59.44L2.02442 62.9755C3.30551 64.2566 5.00881 65 6.88995 65V60ZM5.55995 59.44L9.09549 55.9045C9.32139 56.1304 9.567 56.457 9.74813 56.8872C9.93043 57.3202 9.99995 57.7456 9.99995 58.11H4.99995H-4.84586e-05C-4.84586e-05 59.9911 0.743325 61.6944 2.02442 62.9755L5.55995 59.44ZM4.99995 58.11H9.99995V12.89H4.99995H-4.84586e-05V58.11H4.99995ZM4.99995 12.89H9.99995C9.99995 13.2544 9.93043 13.6798 9.74813 14.1128C9.567 14.543 9.32139 14.8696 9.09549 15.0955L5.55995 11.56L2.02441 8.02447C0.743327 9.30556 -4.84586e-05 11.0089 -4.84586e-05 12.89H4.99995ZM5.55995 11.56L9.09549 15.0955C8.86959 15.3214 8.54293 15.567 8.11274 15.7482C7.67976 15.9305 7.25435 16 6.88995 16V11V6C5.00881 6 3.30551 6.74337 2.02441 8.02447L5.55995 11.56ZM22.85 24.02H17.85V31.79H22.85H27.85V24.02H22.85ZM22.85 31.79V36.79H27.75V31.79V26.79H22.85V31.79ZM27.75 31.79V36.79C29.9345 36.79 31.8763 35.9516 33.3922 34.544L29.99 30.88L26.5877 27.216C26.6579 27.1508 26.8135 27.0295 27.0581 26.9302C27.3076 26.8288 27.5526 26.79 27.75 26.79V31.79ZM29.99 30.88L33.5255 34.4155C35.3474 32.5936 35.97 30.276 35.97 28.15H30.97H25.97C25.97 28.2729 25.9522 28.2041 26.019 28.0182C26.093 27.812 26.2353 27.5636 26.4544 27.3445L29.99 30.88ZM30.97 28.15H35.97C35.97 26.2463 35.5456 24.2677 34.3978 22.4937L30.2 25.21L26.0021 27.9263C25.95 27.8457 25.9372 27.7937 25.9406 27.8068C25.9457 27.8263 25.97 27.931 25.97 28.15H30.97ZM30.2 25.21L34.3978 22.4937C32.7812 19.9953 30.2015 19.02 27.75 19.02V24.02V29.02C27.7263 29.02 27.4306 29.0155 27.0179 28.815C26.5708 28.5978 26.2202 28.2633 26.0021 27.9263L30.2 25.21ZM27.75 24.02V19.02H22.85V24.02V29.02H27.75V24.02ZM70.071 27.94H65.071V39.0478L73.3861 31.6829L70.071 27.94ZM85.681 37.74L82.1454 34.2045V34.2045L85.681 37.74ZM72.311 39.21L75.4344 43.1143L75.4492 43.1025L75.4639 43.0906L72.311 39.21ZM71.121 41.52L66.1435 41.046L66.121 41.2824V41.52H71.121ZM70.561 59.44L74.0965 62.9755L74.0965 62.9755L70.561 59.44ZM54.601 59.44L51.0654 62.9755V62.9755L54.601 59.44ZM54.601 24.16L51.0654 20.6245V20.6245L54.601 24.16ZM69.511 24.16L65.9754 27.6955L65.9754 27.6955L69.511 24.16ZM70.071 25.49H65.071V27.94H70.071H75.071V25.49H70.071ZM70.071 27.94L73.3861 31.6829C75.8248 29.523 78.3099 28.6 80.991 28.6V23.6V18.6C75.6454 18.6 70.8504 20.5704 66.7558 24.1971L70.071 27.94ZM80.991 23.6V28.6H84.351V23.6V18.6H80.991V23.6ZM84.351 23.6V28.6C83.9866 28.6 83.5612 28.5305 83.1282 28.3482C82.698 28.167 82.3713 27.9214 82.1454 27.6955L85.681 24.16L89.2165 20.6245C87.9354 19.3434 86.2321 18.6 84.351 18.6V23.6ZM85.681 24.16L82.1454 27.6955C81.9195 27.4696 81.6739 27.143 81.4928 26.7128C81.3105 26.2798 81.241 25.8544 81.241 25.49H86.241H91.241C91.241 23.6089 90.4976 21.9056 89.2165 20.6245L85.681 24.16ZM86.241 25.49H81.241V36.41H86.241H91.241V25.49H86.241ZM86.241 36.41H81.241C81.241 36.0456 81.3105 35.6202 81.4928 35.1872C81.6739 34.757 81.9195 34.4304 82.1454 34.2045L85.681 37.74L89.2165 41.2755C90.4976 39.9944 91.241 38.2911 91.241 36.41H86.241ZM85.681 37.74L82.1454 34.2045C82.3713 33.9786 82.698 33.733 83.1282 33.5518C83.5612 33.3695 83.9866 33.3 84.351 33.3V38.3V43.3C86.2321 43.3 87.9354 42.5566 89.2165 41.2755L85.681 37.74ZM84.351 38.3V33.3H75.321V38.3V43.3H84.351V38.3ZM75.321 38.3V33.3C73.2716 33.3 71.0395 33.8007 69.158 35.3294L72.311 39.21L75.4639 43.0906C75.3815 43.1575 75.2997 43.2096 75.2259 43.248C75.1529 43.2859 75.0979 43.3052 75.0704 43.3136C75.0194 43.329 75.0855 43.3 75.321 43.3V38.3ZM72.311 39.21L69.1875 35.3057C67.3214 36.7985 66.3512 38.8648 66.1435 41.046L71.121 41.52L76.0984 41.994C76.0929 42.0518 76.0636 42.2445 75.9333 42.4973C75.7983 42.7594 75.6139 42.9708 75.4344 43.1143L72.311 39.21ZM71.121 41.52H66.121V58.11H71.121H76.121V41.52H71.121ZM71.121 58.11H66.121C66.121 57.7456 66.1905 57.3202 66.3728 56.8872C66.5539 56.457 66.7995 56.1304 67.0254 55.9045L70.561 59.44L74.0965 62.9755C75.3776 61.6944 76.121 59.9911 76.121 58.11H71.121ZM70.561 59.44L67.0254 55.9045C67.2513 55.6786 67.578 55.433 68.0082 55.2518C68.4412 55.0695 68.8666 55 69.231 55V60V65C71.1121 65 72.8154 64.2566 74.0965 62.9755L70.561 59.44ZM69.231 60V55H55.931V60V65H69.231V60ZM55.931 60V55C56.2954 55 56.7208 55.0695 57.1538 55.2518C57.5839 55.433 57.9106 55.6786 58.1365 55.9045L54.601 59.44L51.0654 62.9755C52.3465 64.2566 54.0498 65 55.931 65V60ZM54.601 59.44L58.1365 55.9045C58.3624 56.1304 58.608 56.457 58.7891 56.8872C58.9715 57.3202 59.041 57.7456 59.041 58.11H54.041H49.041C49.041 59.9911 49.7843 61.6944 51.0654 62.9755L54.601 59.44ZM54.041 58.11H59.041V25.49H54.041H49.041V58.11H54.041ZM54.041 25.49H59.041C59.041 25.8544 58.9715 26.2798 58.7891 26.7128C58.608 27.143 58.3624 27.4696 58.1365 27.6955L54.601 24.16L51.0654 20.6245C49.7843 21.9056 49.041 23.6089 49.041 25.49H54.041ZM54.601 24.16L58.1365 27.6955C57.9106 27.9214 57.5839 28.167 57.1538 28.3482C56.7208 28.5305 56.2954 28.6 55.931 28.6V23.6V18.6C54.0498 18.6 52.3465 19.3434 51.0654 20.6245L54.601 24.16ZM55.931 23.6V28.6H68.181V23.6V18.6H55.931V23.6ZM68.181 23.6V28.6C67.8166 28.6 67.3912 28.5305 66.9582 28.3482C66.528 28.167 66.2013 27.9214 65.9754 27.6955L69.511 24.16L73.0465 20.6245C71.7654 19.3434 70.0621 18.6 68.181 18.6V23.6ZM69.511 24.16L65.9754 27.6955C65.7495 27.4696 65.5039 27.143 65.3228 26.7128C65.1405 26.2798 65.071 25.8544 65.071 25.49H70.071H75.071C75.071 23.6089 74.3276 21.9056 73.0465 20.6245L69.511 24.16ZM96.4801 27.17L99.488 31.1641V31.1641L96.4801 27.17ZM125.74 27.17L128.748 23.1759V23.1759L125.74 27.17ZM125.95 56.5L128.999 60.4631L129.015 60.4509L129.03 60.4386L125.95 56.5ZM96.2701 56.5L93.1899 60.4386L93.2057 60.4509L93.2216 60.4631L96.2701 56.5ZM113.56 35.15L117.72 32.3765V32.3765L113.56 35.15ZM108.66 35.15L112.82 37.9235V37.9235L108.66 35.15ZM108.66 48.52L112.729 45.6138V45.6138L108.66 48.52ZM90.8101 44.18H95.8101V39.42H90.8101H85.8101V44.18H90.8101ZM90.8101 39.42H95.8101C95.8101 35.4467 97.1309 32.9392 99.488 31.1641L96.4801 27.17L93.4722 23.1759C88.2694 27.0941 85.8101 32.7533 85.8101 39.42H90.8101ZM96.4801 27.17L99.488 31.1641C102.196 29.1246 105.934 27.9 111.11 27.9V22.9V17.9C104.34 17.9 98.3241 19.522 93.4722 23.1759L96.4801 27.17ZM111.11 22.9V27.9C116.286 27.9 120.024 29.1246 122.732 31.1641L125.74 27.17L128.748 23.1759C123.896 19.522 117.88 17.9 111.11 17.9V22.9ZM125.74 27.17L122.732 31.1641C125.089 32.9392 126.41 35.4467 126.41 39.42H131.41H136.41C136.41 32.7533 133.951 27.0941 128.748 23.1759L125.74 27.17ZM131.41 39.42H126.41V44.18H131.41H136.41V39.42H131.41ZM131.41 44.18H126.41C126.41 48.2882 125.094 50.8223 122.87 52.5614L125.95 56.5L129.03 60.4386C134.087 56.4843 136.41 50.8051 136.41 44.18H131.41ZM125.95 56.5L122.902 52.5369C120.404 54.4583 116.655 55.7 111.11 55.7V60.7V65.7C118.072 65.7 124.216 64.1417 128.999 60.4631L125.95 56.5ZM111.11 60.7V55.7C105.565 55.7 101.816 54.4583 99.3187 52.5369L96.2701 56.5L93.2216 60.4631C98.0037 64.1417 104.148 65.7 111.11 65.7V60.7ZM96.2701 56.5L99.3503 52.5614C97.1266 50.8223 95.8101 48.2882 95.8101 44.18H90.8101H85.8101C85.8101 50.8051 88.1336 56.4843 93.1899 60.4386L96.2701 56.5ZM114.26 44.74H119.26V38.86H114.26H109.26V44.74H114.26ZM114.26 38.86H119.26C119.26 36.9798 119.076 34.4092 117.72 32.3765L113.56 35.15L109.4 37.9235C109.25 37.6989 109.184 37.5307 109.164 37.4752C109.143 37.4178 109.153 37.4277 109.172 37.5295C109.213 37.7466 109.26 38.169 109.26 38.86H114.26ZM113.56 35.15L117.72 32.3765C115.993 29.7859 113.242 29.1 111.11 29.1V34.1V39.1C111.218 39.1 111.004 39.1194 110.628 38.9582C110.197 38.7737 109.735 38.4268 109.4 37.9235L113.56 35.15ZM111.11 34.1V29.1C108.978 29.1 106.227 29.7859 104.5 32.3765L108.66 35.15L112.82 37.9235C112.485 38.4268 112.023 38.7737 111.592 38.9582C111.216 39.1194 111.002 39.1 111.11 39.1V34.1ZM108.66 35.15L104.5 32.3765C103.145 34.4092 102.96 36.9798 102.96 38.86H107.96H112.96C112.96 38.169 113.007 37.7466 113.048 37.5295C113.068 37.4277 113.077 37.4178 113.056 37.4752C113.036 37.5307 112.97 37.6989 112.82 37.9235L108.66 35.15ZM107.96 38.86H102.96V44.74H107.96H112.96V38.86H107.96ZM107.96 44.74H102.96C102.96 45.8539 103.028 46.9633 103.219 47.9954C103.398 48.9635 103.754 50.2537 104.591 51.4262L108.66 48.52L112.729 45.6138C112.933 45.8993 113.022 46.1225 113.049 46.1983C113.079 46.2785 113.071 46.2814 113.052 46.1746C113.009 45.9467 112.96 45.4928 112.96 44.74H107.96ZM108.66 48.52L104.591 51.4262C106.371 53.9176 109.104 54.5 111.11 54.5V49.5V44.5C110.967 44.5 111.139 44.4764 111.48 44.6126C111.871 44.7693 112.353 45.0883 112.729 45.6138L108.66 48.52ZM111.11 49.5V54.5C113.242 54.5 115.993 53.8141 117.72 51.2235L113.56 48.45L109.4 45.6765C109.735 45.1732 110.197 44.8263 110.628 44.6418C111.004 44.4806 111.218 44.5 111.11 44.5V49.5ZM113.56 48.45L117.72 51.2235C119.076 49.1908 119.26 46.6202 119.26 44.74H114.26H109.26C109.26 45.431 109.213 45.8534 109.172 46.0705C109.153 46.1723 109.143 46.1822 109.164 46.1248C109.184 46.0693 109.25 45.9011 109.4 45.6765L113.56 48.45ZM157.687 23.6H152.687V28.6H157.687V23.6ZM166.927 24.16L170.463 20.6245L170.463 20.6245L166.927 24.16ZM166.927 35.29L170.463 38.8255L170.463 38.8255L166.927 35.29ZM157.687 35.85V30.85H152.687V35.85H157.687ZM157.127 59.44L160.663 62.9755L160.663 62.9755L157.127 59.44ZM142.217 59.44L138.682 62.9755V62.9755L142.217 59.44ZM141.657 35.85H146.657V30.85H141.657V35.85ZM135.497 35.29L131.962 38.8255V38.8255L135.497 35.29ZM135.497 24.16L139.033 27.6955V27.6955L135.497 24.16ZM141.657 23.6V28.6H146.657V23.6H141.657ZM146.487 11.35L149.176 15.5658L149.197 15.552L149.219 15.5381L146.487 11.35ZM167.697 8.75999L171.233 5.22446L171.233 5.22446L167.697 8.75999ZM167.697 19.89L164.162 16.3545L164.162 16.3545L167.697 19.89ZM157.687 22.76H152.687V23.6H157.687H162.687V22.76H157.687ZM157.687 23.6V28.6H165.597V23.6V18.6H157.687V23.6ZM165.597 23.6V28.6C165.233 28.6 164.808 28.5305 164.375 28.3482C163.944 28.167 163.618 27.9214 163.392 27.6955L166.927 24.16L170.463 20.6245C169.182 19.3434 167.479 18.6 165.597 18.6V23.6ZM166.927 24.16L163.392 27.6955C163.166 27.4696 162.92 27.143 162.739 26.7128C162.557 26.2798 162.487 25.8544 162.487 25.49H167.487H172.487C172.487 23.6089 171.744 21.9056 170.463 20.6245L166.927 24.16ZM167.487 25.49H162.487V33.96H167.487H172.487V25.49H167.487ZM167.487 33.96H162.487C162.487 33.5956 162.557 33.1702 162.739 32.7372C162.92 32.307 163.166 31.9804 163.392 31.7545L166.927 35.29L170.463 38.8255C171.744 37.5444 172.487 35.8411 172.487 33.96H167.487ZM166.927 35.29L163.392 31.7545C163.618 31.5286 163.944 31.2829 164.375 31.1018C164.808 30.9195 165.233 30.85 165.597 30.85V35.85V40.85C167.479 40.85 169.182 40.1066 170.463 38.8255L166.927 35.29ZM165.597 35.85V30.85H157.687V35.85V40.85H165.597V35.85ZM157.687 35.85H152.687V58.11H157.687H162.687V35.85H157.687ZM157.687 58.11H152.687C152.687 57.7456 152.757 57.3202 152.939 56.8872C153.12 56.457 153.366 56.1304 153.592 55.9045L157.127 59.44L160.663 62.9755C161.944 61.6944 162.687 59.9911 162.687 58.11H157.687ZM157.127 59.44L153.592 55.9045C153.818 55.6786 154.144 55.433 154.575 55.2518C155.008 55.0695 155.433 55 155.797 55V60V65C157.679 65 159.382 64.2566 160.663 62.9755L157.127 59.44ZM155.797 60V55H143.547V60V65H155.797V60ZM143.547 60V55C143.912 55 144.337 55.0695 144.77 55.2518C145.2 55.433 145.527 55.6786 145.753 55.9045L142.217 59.44L138.682 62.9755C139.963 64.2566 141.666 65 143.547 65V60ZM142.217 59.44L145.753 55.9045C145.979 56.1304 146.225 56.457 146.406 56.8872C146.588 57.3202 146.657 57.7456 146.657 58.11H141.657H136.657C136.657 59.9911 137.401 61.6944 138.682 62.9755L142.217 59.44ZM141.657 58.11H146.657V35.85H141.657H136.657V58.11H141.657ZM141.657 35.85V30.85H136.827V35.85V40.85H141.657V35.85ZM136.827 35.85V30.85C137.192 30.85 137.617 30.9195 138.05 31.1018C138.48 31.283 138.807 31.5286 139.033 31.7545L135.497 35.29L131.962 38.8255C133.243 40.1066 134.946 40.85 136.827 40.85V35.85ZM135.497 35.29L139.033 31.7545C139.259 31.9804 139.505 32.307 139.686 32.7372C139.868 33.1702 139.937 33.5956 139.937 33.96H134.937H129.937C129.937 35.8411 130.681 37.5444 131.962 38.8255L135.497 35.29ZM134.937 33.96H139.937V25.49H134.937H129.937V33.96H134.937ZM134.937 25.49H139.937C139.937 25.8544 139.868 26.2798 139.686 26.7128C139.505 27.143 139.259 27.4696 139.033 27.6955L135.497 24.16L131.962 20.6245C130.681 21.9056 129.937 23.6089 129.937 25.49H134.937ZM135.497 24.16L139.033 27.6955C138.807 27.9214 138.48 28.167 138.05 28.3482C137.617 28.5305 137.192 28.6 136.827 28.6V23.6V18.6C134.946 18.6 133.243 19.3434 131.962 20.6245L135.497 24.16ZM136.827 23.6V28.6H141.657V23.6V18.6H136.827V23.6ZM141.657 23.6H146.657V22.41H141.657H136.657V23.6H141.657ZM141.657 22.41H146.657C146.657 18.06 147.924 16.3642 149.176 15.5658L146.487 11.35L143.799 7.13421C138.611 10.4424 136.657 16.12 136.657 22.41H141.657ZM146.487 11.35L149.219 15.5381C151.324 14.1653 154.695 13.2 159.857 13.2V8.2V3.2C153.633 3.2 148.091 4.33468 143.756 7.16194L146.487 11.35ZM159.857 8.2V13.2H166.367V8.2V3.2H159.857V8.2ZM166.367 8.2V13.2C166.003 13.2 165.578 13.1305 165.145 12.9482C164.714 12.767 164.388 12.5214 164.162 12.2955L167.697 8.75999L171.233 5.22446C169.952 3.94336 168.249 3.2 166.367 3.2V8.2ZM167.697 8.75999L164.162 12.2955C163.936 12.0696 163.69 11.743 163.509 11.3128C163.327 10.8798 163.257 10.4544 163.257 10.09H168.257H173.257C173.257 8.20885 172.514 6.50555 171.233 5.22446L167.697 8.75999ZM168.257 10.09H163.257V18.56H168.257H173.257V10.09H168.257ZM168.257 18.56H163.257C163.257 18.1956 163.327 17.7702 163.509 17.3372C163.69 16.907 163.936 16.5804 164.162 16.3545L167.697 19.89L171.233 23.4255C172.514 22.1444 173.257 20.4411 173.257 18.56H168.257ZM167.697 19.89L164.162 16.3545C164.388 16.1286 164.714 15.883 165.145 15.7018C165.578 15.5195 166.003 15.45 166.367 15.45V20.45V25.45C168.249 25.45 169.952 24.7066 171.233 23.4255L167.697 19.89ZM166.367 20.45V15.45H160.697V20.45V25.45H166.367V20.45ZM160.697 20.45V15.45C159.195 15.45 157.151 15.714 155.396 17.061C153.39 18.6003 152.687 20.8126 152.687 22.76H157.687H162.687C162.687 22.9113 162.663 23.2779 162.462 23.7413C162.247 24.2345 161.903 24.6722 161.484 24.994C160.732 25.571 160.193 25.45 160.697 25.45V20.45ZM173.699 59.44L177.235 55.9045V55.9045L173.699 59.44ZM173.699 24.16L177.235 27.6955V27.6955L173.699 24.16ZM188.889 24.16L185.354 27.6955V27.6955L188.889 24.16ZM188.889 59.44L185.354 55.9045L185.354 55.9045L188.889 59.44ZM188.539 19.89L185.004 16.3545L185.004 16.3545L188.539 19.89ZM174.049 19.89L170.514 23.4255V23.4255L174.049 19.89ZM174.049 8.75999L170.514 5.22445L170.514 5.22447L174.049 8.75999ZM188.539 8.75999L192.075 5.22446V5.22446L188.539 8.75999ZM187.559 60V55H175.029V60V65H187.559V60ZM175.029 60V55C175.394 55 175.819 55.0695 176.252 55.2518C176.682 55.433 177.009 55.6786 177.235 55.9045L173.699 59.44L170.164 62.9755C171.445 64.2566 173.148 65 175.029 65V60ZM173.699 59.44L177.235 55.9045C177.461 56.1304 177.706 56.457 177.888 56.8872C178.07 57.3202 178.139 57.7456 178.139 58.11H173.139H168.139C168.139 59.9911 168.883 61.6944 170.164 62.9755L173.699 59.44ZM173.139 58.11H178.139V25.49H173.139H168.139V58.11H173.139ZM173.139 25.49H178.139C178.139 25.8544 178.07 26.2798 177.888 26.7128C177.706 27.143 177.461 27.4696 177.235 27.6955L173.699 24.16L170.164 20.6245C168.883 21.9056 168.139 23.6089 168.139 25.49H173.139ZM173.699 24.16L177.235 27.6955C177.009 27.9214 176.682 28.167 176.252 28.3482C175.819 28.5305 175.394 28.6 175.029 28.6V23.6V18.6C173.148 18.6 171.445 19.3434 170.164 20.6245L173.699 24.16ZM175.029 23.6V28.6H187.559V23.6V18.6H175.029V23.6ZM187.559 23.6V28.6C187.195 28.6 186.77 28.5305 186.337 28.3482C185.906 28.167 185.58 27.9214 185.354 27.6955L188.889 24.16L192.425 20.6245C191.144 19.3434 189.441 18.6 187.559 18.6V23.6ZM188.889 24.16L185.354 27.6955C185.128 27.4696 184.882 27.143 184.701 26.7128C184.519 26.2798 184.449 25.8544 184.449 25.49H189.449H194.449C194.449 23.6089 193.706 21.9056 192.425 20.6245L188.889 24.16ZM189.449 25.49H184.449V58.11H189.449H194.449V25.49H189.449ZM189.449 58.11H184.449C184.449 57.7456 184.519 57.3202 184.701 56.8872C184.882 56.457 185.128 56.1304 185.354 55.9045L188.889 59.44L192.425 62.9755C193.706 61.6944 194.449 59.9911 194.449 58.11H189.449ZM188.889 59.44L185.354 55.9045C185.58 55.6786 185.906 55.433 186.337 55.2518C186.77 55.0695 187.195 55 187.559 55V60V65C189.441 65 191.144 64.2566 192.425 62.9755L188.889 59.44ZM189.099 10.09H184.099V18.56H189.099H194.099V10.09H189.099ZM189.099 18.56H184.099C184.099 18.1956 184.169 17.7702 184.351 17.3372C184.532 16.907 184.778 16.5804 185.004 16.3545L188.539 19.89L192.075 23.4255C193.356 22.1444 194.099 20.4411 194.099 18.56H189.099ZM188.539 19.89L185.004 16.3545C185.23 16.1286 185.556 15.883 185.987 15.7018C186.42 15.5195 186.845 15.45 187.209 15.45V20.45V25.45C189.091 25.45 190.794 24.7066 192.075 23.4255L188.539 19.89ZM187.209 20.45V15.45H175.379V20.45V25.45H187.209V20.45ZM175.379 20.45V15.45C175.744 15.45 176.169 15.5195 176.602 15.7018C177.032 15.883 177.359 16.1286 177.585 16.3545L174.049 19.89L170.514 23.4255C171.795 24.7066 173.498 25.45 175.379 25.45V20.45ZM174.049 19.89L177.585 16.3545C177.811 16.5804 178.056 16.907 178.238 17.3372C178.42 17.7702 178.489 18.1956 178.489 18.56H173.489H168.489C168.489 20.4411 169.233 22.1444 170.514 23.4255L174.049 19.89ZM173.489 18.56H178.489V10.09H173.489H168.489V18.56H173.489ZM173.489 10.09H178.489C178.489 10.4544 178.42 10.8798 178.238 11.3128C178.056 11.743 177.811 12.0696 177.585 12.2955L174.049 8.75999L170.514 5.22447C169.233 6.50556 168.489 8.20885 168.489 10.09H173.489ZM174.049 8.75999L177.585 12.2955C177.359 12.5214 177.032 12.767 176.602 12.9482C176.169 13.1305 175.744 13.2 175.379 13.2V8.2V3.2C173.498 3.2 171.795 3.94336 170.514 5.22445L174.049 8.75999ZM175.379 8.2V13.2H187.209V8.2V3.2H175.379V8.2ZM187.209 8.2V13.2C186.845 13.2 186.42 13.1305 185.987 12.9482C185.556 12.767 185.23 12.5214 185.004 12.2955L188.539 8.75999L192.075 5.22446C190.794 3.94336 189.091 3.2 187.209 3.2V8.2ZM188.539 8.75999L185.004 12.2955C184.778 12.0696 184.532 11.743 184.351 11.3128C184.169 10.8798 184.099 10.4544 184.099 10.09H189.099H194.099C194.099 8.20885 193.356 6.50555 192.075 5.22446L188.539 8.75999ZM197.01 59.44L200.545 55.9045V55.9045L197.01 59.44ZM197.01 10.86L200.545 14.3955V14.3955L197.01 10.86ZM212.2 10.86L208.664 14.3955V14.3955L212.2 10.86ZM212.2 59.44L208.664 55.9045L208.664 55.9045L212.2 59.44ZM210.87 60V55H198.34V60V65H210.87V60ZM198.34 60V55C198.704 55 199.13 55.0695 199.563 55.2518C199.993 55.433 200.32 55.6786 200.545 55.9045L197.01 59.44L193.474 62.9755C194.756 64.2566 196.459 65 198.34 65V60ZM197.01 59.44L200.545 55.9045C200.771 56.1304 201.017 56.457 201.198 56.8872C201.38 57.3202 201.45 57.7456 201.45 58.11H196.45H191.45C191.45 59.9911 192.193 61.6944 193.474 62.9755L197.01 59.44ZM196.45 58.11H201.45V12.19H196.45H191.45V58.11H196.45ZM196.45 12.19H201.45C201.45 12.5544 201.38 12.9798 201.198 13.4128C201.017 13.843 200.771 14.1696 200.545 14.3955L197.01 10.86L193.474 7.32447C192.193 8.60556 191.45 10.3089 191.45 12.19H196.45ZM197.01 10.86L200.545 14.3955C200.32 14.6214 199.993 14.867 199.563 15.0482C199.13 15.2305 198.704 15.3 198.34 15.3V10.3V5.3C196.459 5.3 194.756 6.04337 193.474 7.32447L197.01 10.86ZM198.34 10.3V15.3H210.87V10.3V5.3H198.34V10.3ZM210.87 10.3V15.3C210.506 15.3 210.08 15.2305 209.647 15.0482C209.217 14.867 208.89 14.6214 208.664 14.3955L212.2 10.86L215.735 7.32447C214.454 6.04337 212.751 5.3 210.87 5.3V10.3ZM212.2 10.86L208.664 14.3955C208.439 14.1696 208.193 13.843 208.012 13.4128C207.829 12.9798 207.76 12.5544 207.76 12.19H212.76H217.76C217.76 10.3089 217.017 8.60555 215.735 7.32446L212.2 10.86ZM212.76 12.19H207.76V58.11H212.76H217.76V12.19H212.76ZM212.76 58.11H207.76C207.76 57.7456 207.829 57.3202 208.012 56.8872C208.193 56.457 208.439 56.1304 208.664 55.9045L212.2 59.44L215.735 62.9755C217.017 61.6944 217.76 59.9911 217.76 58.11H212.76ZM212.2 59.44L208.664 55.9045C208.89 55.6786 209.217 55.433 209.647 55.2518C210.08 55.0695 210.506 55 210.87 55V60V65C212.751 65 214.454 64.2566 215.735 62.9755L212.2 59.44ZM279.963 16.11L276.896 20.059L276.92 20.0771L276.943 20.0948L279.963 16.11ZM241.673 59.44L245.209 55.9045V55.9045L241.673 59.44ZM241.673 11.56L245.209 15.0955V15.0955L241.673 11.56ZM258.613 24.65V19.65H253.613V24.65H258.613ZM258.613 46.35H253.613V51.35H258.613V46.35ZM266.943 44.95L263.408 41.4145V41.4145L266.943 44.95ZM243.003 11V16H263.163V11V6H243.003V11ZM263.163 11V16C269.124 16 273.571 17.4766 276.896 20.059L279.963 16.11L283.03 12.161C277.582 7.93004 270.829 6 263.163 6V11ZM279.963 16.11L276.943 20.0948C280.004 22.4149 281.613 25.5846 281.613 30.25H286.613H291.613C291.613 22.7821 288.789 16.5251 282.983 12.1251L279.963 16.11ZM286.613 30.25H281.613V40.68H286.613H291.613V30.25H286.613ZM286.613 40.68H281.613C281.613 45.7759 279.968 48.9734 277.146 51.1209L280.173 55.1L283.201 59.0791C288.965 54.6933 291.613 48.2774 291.613 40.68H286.613ZM280.173 55.1L277.146 51.1209C273.951 53.5514 269.466 55 263.233 55V60V65C271 65 277.809 63.1819 283.201 59.0791L280.173 55.1ZM263.233 60V55H243.003V60V65H263.233V60ZM243.003 60V55C243.368 55 243.793 55.0695 244.226 55.2518C244.656 55.433 244.983 55.6786 245.209 55.9045L241.673 59.44L238.138 62.9755C239.419 64.2566 241.122 65 243.003 65V60ZM241.673 59.44L245.209 55.9045C245.435 56.1304 245.68 56.457 245.861 56.8872C246.044 57.3202 246.113 57.7456 246.113 58.11H241.113H236.113C236.113 59.9911 236.857 61.6944 238.138 62.9755L241.673 59.44ZM241.113 58.11H246.113V12.89H241.113H236.113V58.11H241.113ZM241.113 12.89H246.113C246.113 13.2544 246.044 13.6798 245.861 14.1128C245.68 14.543 245.435 14.8696 245.209 15.0955L241.673 11.56L238.138 8.02447C236.857 9.30556 236.113 11.0089 236.113 12.89H241.113ZM241.673 11.56L245.209 15.0955C244.983 15.3214 244.656 15.567 244.226 15.7482C243.793 15.9305 243.368 16 243.003 16V11V6C241.122 6 239.419 6.74337 238.138 8.02447L241.673 11.56ZM258.613 24.65H253.613V46.35H258.613H263.613V24.65H258.613ZM258.613 46.35V51.35H263.163V46.35V41.35H258.613V46.35ZM263.163 46.35V51.35C265.789 51.35 268.423 50.5415 270.479 48.4855L266.943 44.95L263.408 41.4145C263.427 41.3952 263.456 41.3708 263.492 41.3479C263.527 41.3252 263.554 41.3142 263.562 41.3113C263.578 41.3052 263.469 41.35 263.163 41.35V46.35ZM266.943 44.95L270.479 48.4855C272.685 46.2791 273.413 43.3992 273.413 40.68H268.413H263.413C263.413 41.1871 263.345 41.4404 263.318 41.5199C263.299 41.5763 263.315 41.5068 263.408 41.4145L266.943 44.95ZM268.413 40.68H273.413V30.25H268.413H263.413V40.68H268.413ZM268.413 30.25H273.413C273.413 27.69 272.82 24.8395 270.748 22.6303C268.62 20.3604 265.77 19.65 263.163 19.65V24.65V29.65C263.38 29.65 263.537 29.6646 263.641 29.6804C263.744 29.6962 263.787 29.7118 263.785 29.7111C263.781 29.7096 263.736 29.6929 263.667 29.6489C263.597 29.6038 263.522 29.5433 263.453 29.4697C263.305 29.3113 263.286 29.2052 263.313 29.2914C263.346 29.3979 263.413 29.6916 263.413 30.25H268.413ZM263.163 24.65V19.65H258.613V24.65V29.65H263.163V24.65ZM309.347 45.93V40.93H304.347V45.93H309.347ZM326.007 56.99L323.095 52.925L323.082 52.9344L323.069 52.9439L326.007 56.99ZM297.727 56.15L294.521 59.9871L294.547 60.009L294.574 60.0306L297.727 56.15ZM297.867 27.73L301.082 31.5595L301.095 31.5479L301.109 31.5362L297.867 27.73ZM326.987 28.29L323.335 31.705L323.346 31.7175L323.358 31.73L326.987 28.29ZM331.537 45.37L328.001 41.8345V41.8345L331.537 45.37ZM309.347 37.18H304.347V42.18H309.347V37.18ZM314.947 37.18V42.18H319.947V37.18H314.947ZM330.207 45.93V40.93H309.347V45.93V50.93H330.207V45.93ZM309.347 45.93H304.347V46.28H309.347H314.347V45.93H309.347ZM309.347 46.28H304.347C304.347 48.0754 304.605 50.2801 305.817 52.1758C307.272 54.4527 309.619 55.55 312.077 55.55V50.55V45.55C312.28 45.55 312.702 45.5931 313.194 45.8495C313.702 46.1142 314.046 46.4825 314.242 46.7892C314.416 47.0622 314.431 47.2161 314.408 47.106C314.385 46.9999 314.347 46.7407 314.347 46.28H309.347ZM312.077 50.55V55.55C313.534 55.55 314.708 55.0309 315.483 54.5715C316.278 54.1008 316.952 53.5164 317.502 52.9655L313.967 49.43L310.431 45.8945C310.236 46.0903 310.221 46.0659 310.385 45.9685C310.531 45.8824 311.133 45.55 312.077 45.55V50.55ZM313.967 49.43L317.502 52.9655C317.527 52.941 317.438 53.0369 317.218 53.1374C316.983 53.245 316.7 53.31 316.417 53.31V48.31V43.31C313.955 43.31 311.924 44.4022 310.431 45.8945L313.967 49.43ZM316.417 48.31V53.31H329.647V48.31V43.31H316.417V48.31ZM329.647 48.31V53.31C329.389 53.31 328.278 53.2423 327.266 52.2305C326.255 51.2188 326.187 50.1074 326.187 49.85H331.187H336.187C336.187 48.5659 335.862 46.6845 334.337 45.1595C332.812 43.6344 330.931 43.31 329.647 43.31V48.31ZM331.187 49.85H326.187C326.187 49.6721 326.266 49.8331 325.845 50.4139C325.403 51.0225 324.562 51.8747 323.095 52.925L326.007 56.99L328.918 61.055C332.615 58.407 336.187 54.721 336.187 49.85H331.187ZM326.007 56.99L323.069 52.9439C320.796 54.5945 317.309 55.7 312.077 55.7V60.7V65.7C318.605 65.7 324.404 64.3322 328.944 61.0361L326.007 56.99ZM312.077 60.7V55.7C307.139 55.7 303.544 54.4338 300.88 52.2694L297.727 56.15L294.574 60.0306C299.377 63.9329 305.348 65.7 312.077 65.7V60.7ZM297.727 56.15L300.933 52.3129C298.525 50.3015 297.197 47.5606 297.197 43.48H292.197H287.197C287.197 50.1328 289.555 55.8385 294.521 59.9871L297.727 56.15ZM292.197 43.48H297.197V40.12H292.197H287.197V43.48H292.197ZM292.197 40.12H297.197C297.197 36.4587 298.473 33.7498 301.082 31.5595L297.867 27.73L294.652 23.9005C289.701 28.0569 287.197 33.6079 287.197 40.12H292.197ZM297.867 27.73L301.109 31.5362C303.789 29.2533 307.497 27.9 312.707 27.9V22.9V17.9C305.69 17.9 299.505 19.7667 294.624 23.9238L297.867 27.73ZM312.707 22.9V27.9C317.855 27.9 321.148 29.366 323.335 31.705L326.987 28.29L330.639 24.875C326.106 20.0273 319.879 17.9 312.707 17.9V22.9ZM326.987 28.29L323.358 31.73C325.783 34.2872 327.097 37.5574 327.097 41.94H332.097H337.097C337.097 35.3093 335.004 29.4794 330.615 24.85L326.987 28.29ZM332.097 41.94H327.097V44.04H332.097H337.097V41.94H332.097ZM332.097 44.04H327.097C327.097 43.6756 327.166 43.2502 327.349 42.8172C327.53 42.387 327.775 42.0604 328.001 41.8345L331.537 45.37L335.072 48.9055C336.353 47.6244 337.097 45.9211 337.097 44.04H332.097ZM331.537 45.37L328.001 41.8345C328.227 41.6086 328.554 41.363 328.984 41.1818C329.417 40.9995 329.842 40.93 330.207 40.93V45.93V50.93C332.088 50.93 333.791 50.1866 335.072 48.9055L331.537 45.37ZM314.947 36.9H319.947C319.947 35.1024 319.676 32.8797 318.407 30.9765C316.9 28.7155 314.537 27.7 312.147 27.7V32.7V37.7C311.986 37.7 311.601 37.6675 311.136 37.4346C310.649 37.1914 310.299 36.8414 310.087 36.5235C309.897 36.2389 309.872 36.0644 309.891 36.1472C309.909 36.228 309.947 36.462 309.947 36.9H314.947ZM312.147 32.7V27.7C309.757 27.7 307.394 28.7155 305.887 30.9765C304.618 32.8797 304.347 35.1024 304.347 36.9H309.347H314.347C314.347 36.462 314.385 36.228 314.403 36.1472C314.421 36.0644 314.397 36.2389 314.207 36.5235C313.995 36.8414 313.644 37.1914 313.158 37.4346C312.692 37.6675 312.308 37.7 312.147 37.7V32.7ZM309.347 36.9H304.347V37.18H309.347H314.347V36.9H309.347ZM309.347 37.18V42.18H314.947V37.18V32.18H309.347V37.18ZM314.947 37.18H319.947V36.9H314.947H309.947V37.18H314.947ZM374.702 56.57L371.197 53.0049V53.0049L374.702 56.57ZM354.752 57.41L358.105 53.7006L349.752 46.1511V57.41H354.752ZM354.192 72.74L357.728 76.2755V76.2755L354.192 72.74ZM338.582 72.74L342.118 69.2045V69.2045L338.582 72.74ZM338.582 24.16L342.118 27.6955V27.6955L338.582 24.16ZM353.142 24.16L349.607 27.6955V27.6955L353.142 24.16ZM353.702 27.59H348.702V42.1873L357.652 30.6556L353.702 27.59ZM374.772 26.89L371.298 30.486L371.314 30.5013L371.33 30.5165L374.772 26.89ZM354.752 44.67H349.752V44.8199L349.761 44.9695L354.752 44.67ZM378.902 39.07H373.902V44.6H378.902H383.902V39.07H378.902ZM378.902 44.6H373.902C373.902 48.9459 372.756 51.4713 371.197 53.0049L374.702 56.57L378.208 60.1351C382.248 56.1621 383.902 50.7074 383.902 44.6H378.902ZM374.702 56.57L371.197 53.0049C369.366 54.8045 367.21 55.7 364.412 55.7V60.7V65.7C369.734 65.7 374.438 63.8422 378.208 60.1351L374.702 56.57ZM364.412 60.7V55.7C361.343 55.7 359.415 54.8851 358.105 53.7006L354.752 57.41L351.4 61.1194C354.942 64.3216 359.454 65.7 364.412 65.7V60.7ZM354.752 57.41H349.752V71.41H354.752H359.752V57.41H354.752ZM354.752 71.41H349.752C349.752 71.0456 349.822 70.6202 350.004 70.1872C350.185 69.757 350.431 69.4304 350.657 69.2045L354.192 72.74L357.728 76.2755C359.009 74.9944 359.752 73.2911 359.752 71.41H354.752ZM354.192 72.74L350.657 69.2045C350.883 68.9786 351.209 68.733 351.639 68.5518C352.072 68.3695 352.498 68.3 352.862 68.3V73.3V78.3C354.743 78.3 356.447 77.5566 357.728 76.2755L354.192 72.74ZM352.862 73.3V68.3H339.912V73.3V78.3H352.862V73.3ZM339.912 73.3V68.3C340.277 68.3 340.702 68.3695 341.135 68.5518C341.565 68.733 341.892 68.9786 342.118 69.2045L338.582 72.74L335.047 76.2755C336.328 77.5566 338.031 78.3 339.912 78.3V73.3ZM338.582 72.74L342.118 69.2045C342.344 69.4304 342.589 69.757 342.77 70.1872C342.953 70.6202 343.022 71.0456 343.022 71.41H338.022H333.022C333.022 73.2911 333.766 74.9944 335.047 76.2755L338.582 72.74ZM338.022 71.41H343.022V25.49H338.022H333.022V71.41H338.022ZM338.022 25.49H343.022C343.022 25.8544 342.953 26.2798 342.77 26.7128C342.589 27.143 342.344 27.4696 342.118 27.6955L338.582 24.16L335.047 20.6245C333.766 21.9056 333.022 23.6089 333.022 25.49H338.022ZM338.582 24.16L342.118 27.6955C341.892 27.9214 341.565 28.167 341.135 28.3482C340.702 28.5305 340.277 28.6 339.912 28.6V23.6V18.6C338.031 18.6 336.328 19.3434 335.047 20.6245L338.582 24.16ZM339.912 23.6V28.6H351.812V23.6V18.6H339.912V23.6ZM351.812 23.6V28.6C351.448 28.6 351.022 28.5305 350.589 28.3482C350.159 28.167 349.833 27.9214 349.607 27.6955L353.142 24.16L356.678 20.6245C355.397 19.3434 353.693 18.6 351.812 18.6V23.6ZM353.142 24.16L349.607 27.6955C349.381 27.4696 349.135 27.143 348.954 26.7128C348.772 26.2798 348.702 25.8544 348.702 25.49H353.702H358.702C358.702 23.6089 357.959 21.9056 356.678 20.6245L353.142 24.16ZM353.702 25.49H348.702V27.59H353.702H358.702V25.49H353.702ZM353.702 27.59L357.652 30.6556C359.009 28.9074 360.892 27.9 363.992 27.9V22.9V17.9C358.226 17.9 353.249 20.0193 349.752 24.5244L353.702 27.59ZM363.992 22.9V27.9C367.35 27.9 369.624 28.869 371.298 30.486L374.772 26.89L378.246 23.294C374.413 19.591 369.501 17.9 363.992 17.9V22.9ZM374.772 26.89L371.33 30.5165C372.712 31.8286 373.902 34.3109 373.902 39.07H378.902H383.902C383.902 32.8158 382.339 27.1781 378.214 23.2635L374.772 26.89ZM354.752 39.49H349.752V44.67H354.752H359.752V39.49H354.752ZM354.752 44.67L349.761 44.9695C349.874 46.8516 350.448 49.0818 352.197 50.8305C353.995 52.6288 356.281 53.17 358.252 53.17V48.17V43.17C358.137 43.17 358.226 43.1536 358.44 43.2279C358.677 43.3101 358.985 43.4763 359.268 43.7595C359.85 44.3415 359.77 44.8217 359.743 44.3705L354.752 44.67ZM358.252 48.17V53.17C360.399 53.17 362.86 52.5128 364.664 50.4197C366.346 48.4686 366.752 46.0673 366.752 44.11H361.752H356.752C356.752 44.8594 356.575 44.4881 357.09 43.8903C357.362 43.5751 357.691 43.3645 357.98 43.2527C358.239 43.1526 358.364 43.17 358.252 43.17V48.17ZM361.752 44.11H366.752V39.49H361.752H356.752V44.11H361.752ZM361.752 39.49H366.752C366.752 37.5327 366.346 35.1314 364.664 33.1803C362.86 31.0872 360.399 30.43 358.252 30.43V35.43V40.43C358.364 40.43 358.239 40.4474 357.98 40.3473C357.691 40.2355 357.362 40.0249 357.09 39.7097C356.575 39.1119 356.752 38.7406 356.752 39.49H361.752ZM358.252 35.43V30.43C356.105 30.43 353.645 31.0872 351.84 33.1803C350.158 35.1314 349.752 37.5327 349.752 39.49H354.752H359.752C359.752 38.7406 359.93 39.1119 359.414 39.7097C359.143 40.0249 358.813 40.2355 358.524 40.3473C358.265 40.4474 358.141 40.43 358.252 40.43V35.43ZM399.128 37.46L398.337 32.5231L398.305 32.5281L398.274 32.5336L399.128 37.46ZM406.548 36.27L407.34 41.2069L411.548 40.532V36.27H406.548ZM406.198 33.47L401.647 35.539L401.685 35.6233L401.726 35.7061L406.198 33.47ZM387.228 30.25L383.017 27.5547L383.003 27.5773L382.988 27.6L387.228 30.25ZM390.378 26.82L387.255 22.9157L387.223 22.9416L387.191 22.968L390.378 26.82ZM396.188 24.02L394.768 19.226L394.756 19.2297L394.743 19.2334L396.188 24.02ZM418.658 26.82L421.865 22.9836V22.9836L418.658 26.82ZM422.788 59.44L419.253 55.9045L419.253 55.9045L422.788 59.44ZM407.878 59.44L404.343 62.9755V62.9755L407.878 59.44ZM407.318 56.15H412.318V40.7019L403.267 53.2203L407.318 56.15ZM387.578 57.55L384.336 61.3562L384.374 61.3884L384.412 61.4198L387.578 57.55ZM406.758 44.88H411.758V38.6584L405.682 39.9971L406.758 44.88ZM402.628 45.79L401.552 40.9071L401.536 40.9107L401.52 40.9143L402.628 45.79ZM383.798 49.57H388.798C388.798 48.0086 389.329 46.8482 390.73 45.741C392.355 44.4572 395.256 43.2066 399.983 42.3864L399.128 37.46L398.274 32.5336C392.781 33.4867 388.016 35.1411 384.531 37.894C380.823 40.8235 378.798 44.8314 378.798 49.57H383.798ZM399.128 37.46L399.92 42.3969L407.34 41.2069L406.548 36.27L405.757 31.3331L398.337 32.5231L399.128 37.46ZM406.548 36.27H411.548C411.548 35.4523 411.515 34.6453 411.422 33.8998C411.341 33.2466 411.168 32.2283 410.671 31.2339L406.198 33.47L401.726 35.7061C401.645 35.5443 401.593 35.4102 401.561 35.3186C401.529 35.2258 401.51 35.1571 401.501 35.1202C401.484 35.0519 401.488 35.0502 401.5 35.1402C401.51 35.2253 401.523 35.3612 401.533 35.5572C401.542 35.7513 401.548 35.9875 401.548 36.27H406.548ZM406.198 33.47L410.75 31.401C409.292 28.1921 406.117 27.7 404.518 27.7V32.7V37.7C404.505 37.7 404.408 37.6995 404.249 37.6712C404.089 37.643 403.831 37.5804 403.52 37.4378C402.815 37.1147 402.075 36.4824 401.647 35.539L406.198 33.47ZM404.518 32.7V27.7C402.091 27.7 400.118 28.8015 398.677 30.083L401.998 33.82L405.32 37.557C405.438 37.4526 405.431 37.486 405.289 37.5491C405.131 37.6195 404.862 37.7 404.518 37.7V32.7ZM401.998 33.82L398.677 30.083C398.519 30.2229 398.506 30.2011 398.644 30.1359C398.799 30.0634 399.138 29.94 399.618 29.94V34.94V39.94C402.08 39.94 404.013 38.7186 405.32 37.557L401.998 33.82ZM399.618 34.94V29.94H387.718V34.94V39.94H399.618V34.94ZM387.718 34.94V29.94C387.919 29.94 388.998 29.9841 390.016 30.9557C391.077 31.9689 391.178 33.1285 391.178 33.47H386.178H381.178C381.178 34.7915 381.536 36.6861 383.111 38.1893C384.642 39.6509 386.491 39.94 387.718 39.94V34.94ZM386.178 33.47H391.178C391.178 33.6139 391.125 33.4497 391.468 32.9L387.228 30.25L382.988 27.6C381.932 29.2903 381.178 31.2728 381.178 33.47H386.178ZM387.228 30.25L391.44 32.9453C391.844 32.3137 392.51 31.546 393.566 30.672L390.378 26.82L387.191 22.968C385.54 24.334 384.106 25.853 383.017 27.5547L387.228 30.25ZM390.378 26.82L393.502 30.7243C394.236 30.1374 395.524 29.4436 397.633 28.8066L396.188 24.02L394.743 19.2334C391.907 20.0898 389.321 21.2626 387.255 22.9157L390.378 26.82ZM396.188 24.02L397.609 28.814C399.597 28.225 401.909 27.9 404.588 27.9V22.9V17.9C401.108 17.9 397.82 18.3216 394.768 19.226L396.188 24.02ZM404.588 22.9V27.9C410.268 27.9 413.596 29.1054 415.452 30.6564L418.658 26.82L421.865 22.9836C417.467 19.308 411.416 17.9 404.588 17.9V22.9ZM418.658 26.82L415.452 30.6564C417.222 32.1359 418.348 34.3353 418.348 38.02H423.348H428.348C428.348 31.9981 426.348 26.7307 421.865 22.9836L418.658 26.82ZM423.348 38.02H418.348V58.11H423.348H428.348V38.02H423.348ZM423.348 58.11H418.348C418.348 57.7456 418.418 57.3202 418.6 56.8872C418.781 56.457 419.027 56.1304 419.253 55.9045L422.788 59.44L426.324 62.9755C427.605 61.6944 428.348 59.9911 428.348 58.11H423.348ZM422.788 59.44L419.253 55.9045C419.479 55.6786 419.805 55.433 420.236 55.2518C420.669 55.0695 421.094 55 421.458 55V60V65C423.34 65 425.043 64.2566 426.324 62.9755L422.788 59.44ZM421.458 60V55H409.208V60V65H421.458V60ZM409.208 60V55C409.573 55 409.998 55.0695 410.431 55.2518C410.861 55.433 411.188 55.6786 411.414 55.9045L407.878 59.44L404.343 62.9755C405.624 64.2566 407.327 65 409.208 65V60ZM407.878 59.44L411.414 55.9045C411.64 56.1304 411.885 56.457 412.067 56.8872C412.249 57.3202 412.318 57.7456 412.318 58.11H407.318H402.318C402.318 59.9911 403.062 61.6944 404.343 62.9755L407.878 59.44ZM407.318 58.11H412.318V56.15H407.318H402.318V58.11H407.318ZM407.318 56.15L403.267 53.2203C402.139 54.7803 400.55 55.7 397.728 55.7V60.7V65.7C403.307 65.7 408.112 63.5863 411.37 59.0797L407.318 56.15ZM397.728 60.7V55.7C394.368 55.7 392.202 54.8724 390.745 53.6802L387.578 57.55L384.412 61.4198C388.088 64.4276 392.688 65.7 397.728 65.7V60.7ZM387.578 57.55L390.821 53.7438C389.361 52.5001 388.798 51.2075 388.798 49.57H383.798H378.798C378.798 54.2792 380.756 58.3065 384.336 61.3562L387.578 57.55ZM402.208 50.34V55.34C404.76 55.34 407.499 54.531 409.462 52.1759C411.279 49.9954 411.758 47.2712 411.758 44.88H406.758H401.758C401.758 45.4591 401.696 45.787 401.656 45.9305C401.62 46.0617 401.625 45.9598 401.78 45.7741C401.856 45.6831 401.95 45.5931 402.06 45.5145C402.168 45.4364 402.268 45.3862 402.342 45.3564C402.486 45.2987 402.477 45.34 402.208 45.34V50.34ZM406.758 44.88L405.682 39.9971L401.552 40.9071L402.628 45.79L403.704 50.6729L407.834 49.7629L406.758 44.88ZM402.628 45.79L401.52 40.9143C400.116 41.2336 398.474 41.8056 397.1 42.9607C395.541 44.2723 394.548 46.1684 394.548 48.38H399.548H404.548C404.548 48.7661 404.464 49.2267 404.242 49.6859C404.024 50.1365 403.745 50.4389 403.536 50.6143C403.189 50.9061 403.088 50.8131 403.737 50.6657L402.628 45.79ZM399.548 48.38H394.548C394.548 50.5726 395.564 52.4355 397.125 53.6843L400.248 49.78L403.372 45.8757C403.621 46.0753 403.945 46.4123 404.196 46.9139C404.451 47.4251 404.548 47.942 404.548 48.38H399.548ZM400.248 49.78L397.125 53.6843C398.776 55.0055 400.685 55.34 402.208 55.34V50.34V45.34C402.052 45.34 402.654 45.3011 403.372 45.8757L400.248 49.78ZM445.296 27.94H440.296V39.0478L448.611 31.6829L445.296 27.94ZM460.906 37.74L457.37 34.2045L457.37 34.2045L460.906 37.74ZM447.536 39.21L450.659 43.1143L450.674 43.1025L450.689 43.0906L447.536 39.21ZM446.346 41.52L441.368 41.046L441.346 41.2824V41.52H446.346ZM445.786 59.44L449.321 62.9755V62.9755L445.786 59.44ZM429.826 59.44L426.29 62.9755V62.9755L429.826 59.44ZM429.826 24.16L426.29 20.6245V20.6245L429.826 24.16ZM444.736 24.16L441.2 27.6955V27.6955L444.736 24.16ZM445.296 25.49H440.296V27.94H445.296H450.296V25.49H445.296ZM445.296 27.94L448.611 31.6829C451.049 29.523 453.534 28.6 456.216 28.6V23.6V18.6C450.87 18.6 446.075 20.5704 441.98 24.1971L445.296 27.94ZM456.216 23.6V28.6H459.576V23.6V18.6H456.216V23.6ZM459.576 23.6V28.6C459.211 28.6 458.786 28.5305 458.353 28.3482C457.923 28.167 457.596 27.9214 457.37 27.6955L460.906 24.16L464.441 20.6245C463.16 19.3434 461.457 18.6 459.576 18.6V23.6ZM460.906 24.16L457.37 27.6955C457.144 27.4696 456.899 27.143 456.717 26.7128C456.535 26.2798 456.466 25.8544 456.466 25.49H461.466H466.466C466.466 23.6089 465.722 21.9056 464.441 20.6245L460.906 24.16ZM461.466 25.49H456.466V36.41H461.466H466.466V25.49H461.466ZM461.466 36.41H456.466C456.466 36.0456 456.535 35.6202 456.717 35.1872C456.899 34.757 457.144 34.4304 457.37 34.2045L460.906 37.74L464.441 41.2755C465.722 39.9944 466.466 38.2911 466.466 36.41H461.466ZM460.906 37.74L457.37 34.2045C457.596 33.9786 457.923 33.733 458.353 33.5518C458.786 33.3695 459.211 33.3 459.576 33.3V38.3V43.3C461.457 43.3 463.16 42.5566 464.441 41.2755L460.906 37.74ZM459.576 38.3V33.3H450.546V38.3V43.3H459.576V38.3ZM450.546 38.3V33.3C448.496 33.3 446.264 33.8007 444.383 35.3294L447.536 39.21L450.689 43.0906C450.606 43.1575 450.524 43.2096 450.45 43.248C450.377 43.2859 450.323 43.3052 450.295 43.3136C450.244 43.329 450.31 43.3 450.546 43.3V38.3ZM447.536 39.21L444.412 35.3057C442.546 36.7985 441.576 38.8648 441.368 41.046L446.346 41.52L451.323 41.994C451.318 42.0518 451.288 42.2445 451.158 42.4973C451.023 42.7594 450.838 42.9708 450.659 43.1143L447.536 39.21ZM446.346 41.52H441.346V58.11H446.346H451.346V41.52H446.346ZM446.346 58.11H441.346C441.346 57.7456 441.415 57.3202 441.597 56.8872C441.779 56.457 442.024 56.1304 442.25 55.9045L445.786 59.44L449.321 62.9755C450.602 61.6944 451.346 59.9911 451.346 58.11H446.346ZM445.786 59.44L442.25 55.9045C442.476 55.6786 442.803 55.433 443.233 55.2518C443.666 55.0695 444.091 55 444.456 55V60V65C446.337 65 448.04 64.2566 449.321 62.9755L445.786 59.44ZM444.456 60V55H431.156V60V65H444.456V60ZM431.156 60V55C431.52 55 431.945 55.0695 432.378 55.2518C432.809 55.433 433.135 55.6786 433.361 55.9045L429.826 59.44L426.29 62.9755C427.571 64.2566 429.274 65 431.156 65V60ZM429.826 59.44L433.361 55.9045C433.587 56.1304 433.833 56.457 434.014 56.8872C434.196 57.3202 434.266 57.7456 434.266 58.11H429.266H424.266C424.266 59.9911 425.009 61.6944 426.29 62.9755L429.826 59.44ZM429.266 58.11H434.266V25.49H429.266H424.266V58.11H429.266ZM429.266 25.49H434.266C434.266 25.8544 434.196 26.2798 434.014 26.7128C433.833 27.143 433.587 27.4696 433.361 27.6955L429.826 24.16L426.29 20.6245C425.009 21.9056 424.266 23.6089 424.266 25.49H429.266ZM429.826 24.16L433.361 27.6955C433.135 27.9214 432.809 28.167 432.378 28.3482C431.945 28.5305 431.52 28.6 431.156 28.6V23.6V18.6C429.274 18.6 427.571 19.3434 426.29 20.6245L429.826 24.16ZM431.156 23.6V28.6H443.406V23.6V18.6H431.156V23.6ZM443.406 23.6V28.6C443.041 28.6 442.616 28.5305 442.183 28.3482C441.753 28.167 441.426 27.9214 441.2 27.6955L444.736 24.16L448.271 20.6245C446.99 19.3434 445.287 18.6 443.406 18.6V23.6ZM444.736 24.16L441.2 27.6955C440.974 27.4696 440.729 27.143 440.547 26.7128C440.365 26.2798 440.296 25.8544 440.296 25.49H445.296H450.296C450.296 23.6089 449.552 21.9056 448.271 20.6245L444.736 24.16ZM488.085 35.85V30.85H483.085V35.85H488.085ZM498.795 47.61L495.259 51.1455V51.1455L498.795 47.61ZM498.795 59.44L495.259 55.9045V55.9045L498.795 59.44ZM472.055 35.85H477.055V30.85H472.055V35.85ZM465.195 35.29L461.659 38.8255V38.8255L465.195 35.29ZM465.195 24.16L468.73 27.6955V27.6955L465.195 24.16ZM472.055 23.6V28.6H477.055V23.6H472.055ZM487.525 10.86L483.989 14.3955L483.989 14.3955L487.525 10.86ZM488.085 23.6H483.085V28.6H488.085V23.6ZM498.235 24.16L501.77 20.6245V20.6245L498.235 24.16ZM498.235 35.29L501.77 38.8255V38.8255L498.235 35.29ZM488.085 35.85H483.085V43.55H488.085H493.085V35.85H488.085ZM488.085 43.55H483.085C483.085 45.3182 483.449 47.5776 485.046 49.4352C486.768 51.4371 489.107 52.05 491.095 52.05V47.05V42.05C491.066 42.05 491.264 42.0447 491.585 42.1692C491.936 42.3054 492.316 42.5524 492.628 42.9148C493.222 43.6057 493.085 44.1151 493.085 43.55H488.085ZM491.095 47.05V52.05H497.465V47.05V42.05H491.095V47.05ZM497.465 47.05V52.05C497.1 52.05 496.675 51.9805 496.242 51.7982C495.812 51.617 495.485 51.3714 495.259 51.1455L498.795 47.61L502.33 44.0745C501.049 42.7934 499.346 42.05 497.465 42.05V47.05ZM498.795 47.61L495.259 51.1455C495.033 50.9196 494.788 50.593 494.607 50.1628C494.424 49.7298 494.355 49.3044 494.355 48.94H499.355H504.355C504.355 47.0589 503.611 45.3556 502.33 44.0745L498.795 47.61ZM499.355 48.94H494.355V58.11H499.355H504.355V48.94H499.355ZM499.355 58.11H494.355C494.355 57.7456 494.424 57.3202 494.607 56.8872C494.788 56.457 495.033 56.1304 495.259 55.9045L498.795 59.44L502.33 62.9755C503.611 61.6944 504.355 59.9911 504.355 58.11H499.355ZM498.795 59.44L495.259 55.9045C495.485 55.6786 495.812 55.433 496.242 55.2518C496.675 55.0695 497.1 55 497.465 55V60V65C499.346 65 501.049 64.2566 502.33 62.9755L498.795 59.44ZM497.465 60V55H489.555V60V65H497.465V60ZM489.555 60V55C484.323 55 481.332 53.8591 479.69 52.4466C478.192 51.1582 477.055 48.9826 477.055 44.95H472.055H467.055C467.055 50.9507 468.834 56.3001 473.17 60.0284C477.36 63.6326 483.12 65 489.555 65V60ZM472.055 44.95H477.055V35.85H472.055H467.055V44.95H472.055ZM472.055 35.85V30.85H466.525V35.85V40.85H472.055V35.85ZM466.525 35.85V30.85C466.889 30.85 467.315 30.9195 467.747 31.1018C468.178 31.283 468.504 31.5286 468.73 31.7545L465.195 35.29L461.659 38.8255C462.94 40.1066 464.644 40.85 466.525 40.85V35.85ZM465.195 35.29L468.73 31.7545C468.956 31.9804 469.202 32.307 469.383 32.7372C469.565 33.1702 469.635 33.5956 469.635 33.96H464.635H459.635C459.635 35.8411 460.378 37.5444 461.659 38.8255L465.195 35.29ZM464.635 33.96H469.635V25.49H464.635H459.635V33.96H464.635ZM464.635 25.49H469.635C469.635 25.8544 469.565 26.2798 469.383 26.7128C469.202 27.143 468.956 27.4696 468.73 27.6955L465.195 24.16L461.659 20.6245C460.378 21.9056 459.635 23.6089 459.635 25.49H464.635ZM465.195 24.16L468.73 27.6955C468.504 27.9214 468.178 28.167 467.747 28.3482C467.315 28.5305 466.889 28.6 466.525 28.6V23.6V18.6C464.644 18.6 462.94 19.3434 461.659 20.6245L465.195 24.16ZM466.525 23.6V28.6H472.055V23.6V18.6H466.525V23.6ZM472.055 23.6H477.055V12.19H472.055H467.055V23.6H472.055ZM472.055 12.19H477.055C477.055 12.5544 476.985 12.9798 476.803 13.4128C476.622 13.843 476.376 14.1696 476.15 14.3955L472.615 10.86L469.079 7.32447C467.798 8.60556 467.055 10.3089 467.055 12.19H472.055ZM472.615 10.86L476.15 14.3955C475.924 14.6214 475.598 14.867 475.168 15.0482C474.735 15.2305 474.309 15.3 473.945 15.3V10.3V5.3C472.064 5.3 470.36 6.04337 469.079 7.32447L472.615 10.86ZM473.945 10.3V15.3H486.195V10.3V5.3H473.945V10.3ZM486.195 10.3V15.3C485.83 15.3 485.405 15.2305 484.972 15.0482C484.542 14.867 484.215 14.6214 483.989 14.3955L487.525 10.86L491.06 7.32447C489.779 6.04337 488.076 5.3 486.195 5.3V10.3ZM487.525 10.86L483.989 14.3955C483.763 14.1696 483.518 13.843 483.337 13.4128C483.154 12.9798 483.085 12.5544 483.085 12.19H488.085H493.085C493.085 10.3089 492.341 8.60555 491.06 7.32446L487.525 10.86ZM488.085 12.19H483.085V23.6H488.085H493.085V12.19H488.085ZM488.085 23.6V28.6H496.905V23.6V18.6H488.085V23.6ZM496.905 23.6V28.6C496.54 28.6 496.115 28.5305 495.682 28.3482C495.252 28.167 494.925 27.9214 494.699 27.6955L498.235 24.16L501.77 20.6245C500.489 19.3434 498.786 18.6 496.905 18.6V23.6ZM498.235 24.16L494.699 27.6955C494.473 27.4696 494.228 27.143 494.047 26.7128C493.864 26.2798 493.795 25.8544 493.795 25.49H498.795H503.795C503.795 23.6089 503.051 21.9056 501.77 20.6245L498.235 24.16ZM498.795 25.49H493.795V33.96H498.795H503.795V25.49H498.795ZM498.795 33.96H493.795C493.795 33.5956 493.864 33.1702 494.047 32.7372C494.228 32.307 494.473 31.9804 494.699 31.7545L498.235 35.29L501.77 38.8255C503.051 37.5444 503.795 35.8411 503.795 33.96H498.795ZM498.235 35.29L494.699 31.7545C494.925 31.5286 495.252 31.2829 495.682 31.1018C496.115 30.9195 496.54 30.85 496.905 30.85V35.85V40.85C498.786 40.85 500.489 40.1066 501.77 38.8255L498.235 35.29ZM496.905 35.85V30.85H488.085V35.85V40.85H496.905V35.85ZM520.372 45.93V40.93H515.372V45.93H520.372ZM537.032 56.99L534.121 52.925L534.108 52.9344L534.095 52.9439L537.032 56.99ZM508.752 56.15L505.547 59.9871L505.573 60.009L505.599 60.0306L508.752 56.15ZM508.892 27.73L512.107 31.5595L512.121 31.5479L512.135 31.5362L508.892 27.73ZM538.012 28.29L534.36 31.705L534.372 31.7175L534.384 31.73L538.012 28.29ZM542.562 45.37L539.027 41.8345V41.8345L542.562 45.37ZM520.372 37.18H515.372V42.18H520.372V37.18ZM525.972 37.18V42.18H530.972V37.18H525.972ZM541.232 45.93V40.93H520.372V45.93V50.93H541.232V45.93ZM520.372 45.93H515.372V46.28H520.372H525.372V45.93H520.372ZM520.372 46.28H515.372C515.372 48.0754 515.63 50.2801 516.842 52.1758C518.298 54.4527 520.644 55.55 523.102 55.55V50.55V45.55C523.306 45.55 523.728 45.5931 524.219 45.8495C524.727 46.1142 525.071 46.4825 525.267 46.7892C525.442 47.0622 525.456 47.2161 525.433 47.106C525.41 46.9999 525.372 46.7407 525.372 46.28H520.372ZM523.102 50.55V55.55C524.559 55.55 525.733 55.0309 526.509 54.5715C527.303 54.1008 527.977 53.5164 528.528 52.9655L524.992 49.43L521.457 45.8945C521.261 46.0903 521.246 46.0659 521.411 45.9685C521.556 45.8824 522.159 45.55 523.102 45.55V50.55ZM524.992 49.43L528.528 52.9655C528.552 52.941 528.463 53.0369 528.244 53.1374C528.008 53.245 527.726 53.31 527.442 53.31V48.31V43.31C524.981 43.31 522.949 44.4022 521.457 45.8945L524.992 49.43ZM527.442 48.31V53.31H540.672V48.31V43.31H527.442V48.31ZM540.672 48.31V53.31C540.415 53.31 539.303 53.2423 538.292 52.2305C537.28 51.2188 537.212 50.1074 537.212 49.85H542.212H547.212C547.212 48.5659 546.888 46.6845 545.363 45.1595C543.838 43.6344 541.956 43.31 540.672 43.31V48.31ZM542.212 49.85H537.212C537.212 49.6721 537.291 49.8331 536.87 50.4139C536.429 51.0225 535.587 51.8747 534.121 52.925L537.032 56.99L539.944 61.055C543.641 58.407 547.212 54.721 547.212 49.85H542.212ZM537.032 56.99L534.095 52.9439C531.821 54.5945 528.334 55.7 523.102 55.7V60.7V65.7C529.63 65.7 535.43 64.3322 539.97 61.0361L537.032 56.99ZM523.102 60.7V55.7C518.164 55.7 514.569 54.4338 511.905 52.2694L508.752 56.15L505.599 60.0306C510.402 63.9329 516.373 65.7 523.102 65.7V60.7ZM508.752 56.15L511.958 52.3129C509.55 50.3015 508.222 47.5606 508.222 43.48H503.222H498.222C498.222 50.1328 500.581 55.8385 505.547 59.9871L508.752 56.15ZM503.222 43.48H508.222V40.12H503.222H498.222V43.48H503.222ZM503.222 40.12H508.222C508.222 36.4587 509.498 33.7498 512.107 31.5595L508.892 27.73L505.677 23.9005C500.726 28.0569 498.222 33.6079 498.222 40.12H503.222ZM508.892 27.73L512.135 31.5362C514.815 29.2533 518.522 27.9 523.732 27.9V22.9V17.9C516.715 17.9 510.53 19.7667 505.65 23.9238L508.892 27.73ZM523.732 22.9V27.9C528.88 27.9 532.173 29.366 534.36 31.705L538.012 28.29L541.664 24.875C537.131 20.0273 530.904 17.9 523.732 17.9V22.9ZM538.012 28.29L534.384 31.73C536.808 34.2872 538.122 37.5574 538.122 41.94H543.122H548.122C548.122 35.3093 546.03 29.4794 541.641 24.85L538.012 28.29ZM543.122 41.94H538.122V44.04H543.122H548.122V41.94H543.122ZM543.122 44.04H538.122C538.122 43.6756 538.192 43.2502 538.374 42.8172C538.555 42.387 538.801 42.0604 539.027 41.8345L542.562 45.37L546.098 48.9055C547.379 47.6244 548.122 45.9211 548.122 44.04H543.122ZM542.562 45.37L539.027 41.8345C539.253 41.6086 539.579 41.363 540.009 41.1818C540.442 40.9995 540.868 40.93 541.232 40.93V45.93V50.93C543.113 50.93 544.817 50.1866 546.098 48.9055L542.562 45.37ZM525.972 36.9H530.972C530.972 35.1024 530.701 32.8797 529.432 30.9765C527.925 28.7155 525.562 27.7 523.172 27.7V32.7V37.7C523.011 37.7 522.627 37.6675 522.161 37.4346C521.675 37.1914 521.324 36.8414 521.112 36.5235C520.922 36.2389 520.898 36.0644 520.916 36.1472C520.934 36.228 520.972 36.462 520.972 36.9H525.972ZM523.172 32.7V27.7C520.782 27.7 518.419 28.7155 516.912 30.9765C515.643 32.8797 515.372 35.1024 515.372 36.9H520.372H525.372C525.372 36.462 525.41 36.228 525.428 36.1472C525.447 36.0644 525.422 36.2389 525.232 36.5235C525.021 36.8414 524.67 37.1914 524.183 37.4346C523.718 37.6675 523.334 37.7 523.172 37.7V32.7ZM520.372 36.9H515.372V37.18H520.372H525.372V36.9H520.372ZM520.372 37.18V42.18H525.972V37.18V32.18H520.372V37.18ZM525.972 37.18H530.972V36.9H525.972H520.972V37.18H525.972ZM587.898 36.27L584.362 32.7345L584.285 32.8113L584.212 32.8914L587.898 36.27ZM571.588 59.44L568.052 62.9755V62.9755L571.588 59.44ZM566.198 36.34L562.524 32.9486L562.518 32.955L562.512 32.9614L566.198 36.34ZM564.868 59.44L568.403 62.9755V62.9755L564.868 59.44ZM549.608 59.44L553.143 55.9045V55.9045L549.608 59.44ZM549.608 24.16L553.143 27.6955V27.6955L549.608 24.16ZM563.818 24.16L560.282 27.6955L560.282 27.6955L563.818 24.16ZM564.378 27.8H559.378V42.5006L568.341 30.8485L564.378 27.8ZM568.368 24.51L565.921 20.1493L565.91 20.1554L565.9 20.1616L568.368 24.51ZM585.168 28.64L580.631 30.7423L584.324 38.7114L589.291 31.4676L585.168 28.64ZM589.788 24.58L592.189 28.9655L592.229 28.9437L592.268 28.9212L589.788 24.58ZM605.118 26.89L601.391 30.224L601.408 30.242L601.424 30.2598L605.118 26.89ZM593.218 59.44L596.753 55.9045V55.9045L593.218 59.44ZM589.858 35.43V30.43C587.698 30.43 585.797 31.2999 584.362 32.7345L587.898 36.27L591.433 39.8055C591.315 39.924 591.098 40.0981 590.777 40.2357C590.45 40.3758 590.127 40.43 589.858 40.43V35.43ZM587.898 36.27L584.212 32.8914C582.528 34.7281 582.128 37.0019 582.128 38.79H587.128H592.128C592.128 38.596 592.152 38.6182 592.102 38.7811C592.046 38.9629 591.903 39.2995 591.583 39.6486L587.898 36.27ZM587.128 38.79H582.128V58.11H587.128H592.128V38.79H587.128ZM587.128 58.11H582.128C582.128 57.7456 582.197 57.3202 582.379 56.8872C582.561 56.457 582.806 56.1304 583.032 55.9045L586.568 59.44L590.103 62.9755C591.384 61.6944 592.128 59.9911 592.128 58.11H587.128ZM586.568 59.44L583.032 55.9045C583.258 55.6786 583.585 55.433 584.015 55.2518C584.448 55.0695 584.873 55 585.238 55V60V65C587.119 65 588.822 64.2566 590.103 62.9755L586.568 59.44ZM585.238 60V55H572.918V60V65H585.238V60ZM572.918 60V55C573.282 55 573.707 55.0695 574.14 55.2518C574.571 55.433 574.897 55.6786 575.123 55.9045L571.588 59.44L568.052 62.9755C569.333 64.2566 571.036 65 572.918 65V60ZM571.588 59.44L575.123 55.9045C575.349 56.1304 575.595 56.457 575.776 56.8872C575.958 57.3202 576.028 57.7456 576.028 58.11H571.028H566.028C566.028 59.9911 566.771 61.6944 568.052 62.9755L571.588 59.44ZM571.028 58.11H576.028V39.28H571.028H566.028V58.11H571.028ZM571.028 39.28H576.028C576.028 37.5393 575.738 35.3305 574.371 33.4516C572.79 31.2769 570.44 30.43 568.228 30.43V35.43V40.43C568.125 40.43 567.797 40.4118 567.369 40.216C566.915 40.0075 566.539 39.6848 566.284 39.3334C566.05 39.012 565.994 38.7753 565.993 38.7736C565.992 38.769 566.001 38.8062 566.011 38.8944C566.02 38.9821 566.028 39.1089 566.028 39.28H571.028ZM568.228 35.43V30.43C565.976 30.43 563.987 31.3637 562.524 32.9486L566.198 36.34L569.872 39.7314C569.745 39.8681 569.515 40.0656 569.17 40.22C568.821 40.3765 568.486 40.43 568.228 40.43V35.43ZM566.198 36.34L562.512 32.9614C560.894 34.7267 560.428 36.8885 560.428 38.72H565.428H570.428C570.428 38.6132 570.442 38.694 570.377 38.8941C570.306 39.1131 570.157 39.4197 569.883 39.7186L566.198 36.34ZM565.428 38.72H560.428V58.11H565.428H570.428V38.72H565.428ZM565.428 58.11H560.428C560.428 57.7456 560.497 57.3202 560.679 56.8872C560.861 56.457 561.106 56.1304 561.332 55.9045L564.868 59.44L568.403 62.9755C569.684 61.6944 570.428 59.9911 570.428 58.11H565.428ZM564.868 59.44L561.332 55.9045C561.558 55.6786 561.885 55.433 562.315 55.2518C562.748 55.0695 563.173 55 563.538 55V60V65C565.419 65 567.122 64.2566 568.403 62.9755L564.868 59.44ZM563.538 60V55H550.938V60V65H563.538V60ZM550.938 60V55C551.302 55 551.727 55.0695 552.16 55.2518C552.591 55.433 552.917 55.6786 553.143 55.9045L549.608 59.44L546.072 62.9755C547.353 64.2566 549.056 65 550.938 65V60ZM549.608 59.44L553.143 55.9045C553.369 56.1304 553.615 56.457 553.796 56.8872C553.978 57.3202 554.048 57.7456 554.048 58.11H549.048H544.048C544.048 59.9911 544.791 61.6944 546.072 62.9755L549.608 59.44ZM549.048 58.11H554.048V25.49H549.048H544.048V58.11H549.048ZM549.048 25.49H554.048C554.048 25.8544 553.978 26.2798 553.796 26.7128C553.615 27.143 553.369 27.4696 553.143 27.6955L549.608 24.16L546.072 20.6245C544.791 21.9056 544.048 23.6089 544.048 25.49H549.048ZM549.608 24.16L553.143 27.6955C552.917 27.9214 552.591 28.167 552.16 28.3482C551.727 28.5305 551.302 28.6 550.938 28.6V23.6V18.6C549.056 18.6 547.353 19.3434 546.072 20.6245L549.608 24.16ZM550.938 23.6V28.6H562.488V23.6V18.6H550.938V23.6ZM562.488 23.6V28.6C562.123 28.6 561.698 28.5305 561.265 28.3482C560.835 28.167 560.508 27.9214 560.282 27.6955L563.818 24.16L567.353 20.6245C566.072 19.3434 564.369 18.6 562.488 18.6V23.6ZM563.818 24.16L560.282 27.6955C560.056 27.4696 559.811 27.143 559.629 26.7128C559.447 26.2798 559.378 25.8544 559.378 25.49H564.378H569.378C569.378 23.6089 568.634 21.9056 567.353 20.6245L563.818 24.16ZM564.378 25.49H559.378V27.8H564.378H569.378V25.49H564.378ZM564.378 27.8L568.341 30.8485C568.766 30.2956 569.525 29.6026 570.836 28.8584L568.368 24.51L565.9 20.1616C563.757 21.3774 561.856 22.8777 560.414 24.7514L564.378 27.8ZM568.368 24.51L570.814 28.8707C571.917 28.2517 573.21 27.9 574.808 27.9V22.9V17.9C571.646 17.9 568.644 18.6217 565.921 20.1493L568.368 24.51ZM574.808 22.9V27.9C576.774 27.9 578.029 28.268 578.824 28.7086C579.559 29.1154 580.158 29.7213 580.631 30.7423L585.168 28.64L589.704 26.5377C588.404 23.732 586.39 21.468 583.671 19.9614C581.013 18.4887 577.975 17.9 574.808 17.9V22.9ZM585.168 28.64L589.291 31.4676C589.913 30.5605 590.828 29.7107 592.189 28.9655L589.788 24.58L587.386 20.1945C584.827 21.596 582.662 23.4529 581.044 25.8124L585.168 28.64ZM589.788 24.58L592.268 28.9212C593.531 28.1995 594.713 27.9 595.878 27.9V22.9V17.9C592.842 17.9 589.964 18.7205 587.307 20.2388L589.788 24.58ZM595.878 22.9V27.9C598.33 27.9 600.021 28.6928 601.391 30.224L605.118 26.89L608.844 23.556C605.454 19.7672 600.985 17.9 595.878 17.9V22.9ZM605.118 26.89L601.424 30.2598C602.692 31.65 603.758 34.1934 603.758 38.79H608.758H613.758C613.758 32.8399 612.397 27.45 608.811 23.5202L605.118 26.89ZM608.758 38.79H603.758V58.11H608.758H613.758V38.79H608.758ZM608.758 58.11H603.758C603.758 57.7456 603.827 57.3202 604.009 56.8872C604.191 56.457 604.436 56.1304 604.662 55.9045L608.198 59.44L611.733 62.9755C613.014 61.6944 613.758 59.9911 613.758 58.11H608.758ZM608.198 59.44L604.662 55.9045C604.888 55.6786 605.215 55.433 605.645 55.2518C606.078 55.0695 606.503 55 606.868 55V60V65C608.749 65 610.452 64.2566 611.733 62.9755L608.198 59.44ZM606.868 60V55H594.548V60V65H606.868V60ZM594.548 60V55C594.912 55 595.337 55.0695 595.77 55.2518C596.201 55.433 596.527 55.6786 596.753 55.9045L593.218 59.44L589.682 62.9755C590.963 64.2566 592.667 65 594.548 65V60ZM593.218 59.44L596.753 55.9045C596.979 56.1304 597.225 56.457 597.406 56.8872C597.588 57.3202 597.658 57.7456 597.658 58.11H592.658H587.658C587.658 59.9911 588.401 61.6944 589.682 62.9755L593.218 59.44ZM592.658 58.11H597.658V39.28H592.658H587.658V58.11H592.658ZM592.658 39.28H597.658C597.658 37.5393 597.368 35.3305 596.001 33.4516C594.42 31.2769 592.07 30.43 589.858 30.43V35.43V40.43C589.755 40.43 589.427 40.4118 588.999 40.216C588.545 40.0075 588.169 39.6848 587.914 39.3334C587.68 39.012 587.624 38.7753 587.623 38.7736C587.622 38.769 587.631 38.8062 587.641 38.8944C587.65 38.9821 587.658 39.1089 587.658 39.28H592.658ZM631.525 45.93V40.93H626.525V45.93H631.525ZM648.185 56.99L645.273 52.925L645.26 52.9344L645.247 52.9439L648.185 56.99ZM619.905 56.15L616.699 59.9871L616.725 60.009L616.752 60.0306L619.905 56.15ZM620.045 27.73L623.259 31.5595L623.273 31.5479L623.287 31.5362L620.045 27.73ZM649.165 28.29L645.512 31.705L645.524 31.7175L645.536 31.73L649.165 28.29ZM653.715 45.37L650.179 41.8345V41.8345L653.715 45.37ZM631.525 37.18H626.525V42.18H631.525V37.18ZM637.125 37.18V42.18H642.125V37.18H637.125ZM652.385 45.93V40.93H631.525V45.93V50.93H652.385V45.93ZM631.525 45.93H626.525V46.28H631.525H636.525V45.93H631.525ZM631.525 46.28H626.525C626.525 48.0754 626.782 50.2801 627.994 52.1758C629.45 54.4527 631.797 55.55 634.255 55.55V50.55V45.55C634.458 45.55 634.88 45.5931 635.372 45.8495C635.879 46.1142 636.224 46.4825 636.42 46.7892C636.594 47.0622 636.609 47.2161 636.585 47.106C636.563 46.9999 636.525 46.7407 636.525 46.28H631.525ZM634.255 50.55V55.55C635.712 55.55 636.886 55.0309 637.661 54.5715C638.455 54.1008 639.129 53.5164 639.68 52.9655L636.145 49.43L632.609 45.8945C632.413 46.0903 632.399 46.0659 632.563 45.9685C632.708 45.8824 633.311 45.55 634.255 45.55V50.55ZM636.145 49.43L639.68 52.9655C639.705 52.941 639.616 53.0369 639.396 53.1374C639.16 53.245 638.878 53.31 638.595 53.31V48.31V43.31C636.133 43.31 634.101 44.4022 632.609 45.8945L636.145 49.43ZM638.595 48.31V53.31H651.825V48.31V43.31H638.595V48.31ZM651.825 48.31V53.31C651.567 53.31 650.456 53.2423 649.444 52.2305C648.432 51.2188 648.365 50.1074 648.365 49.85H653.365H658.365C658.365 48.5659 658.04 46.6845 656.515 45.1595C654.99 43.6344 653.109 43.31 651.825 43.31V48.31ZM653.365 49.85H648.365C648.365 49.6721 648.444 49.8331 648.022 50.4139C647.581 51.0225 646.74 51.8747 645.273 52.925L648.185 56.99L651.096 61.055C654.793 58.407 658.365 54.721 658.365 49.85H653.365ZM648.185 56.99L645.247 52.9439C642.974 54.5945 639.487 55.7 634.255 55.7V60.7V65.7C640.783 65.7 646.582 64.3322 651.122 61.0361L648.185 56.99ZM634.255 60.7V55.7C629.317 55.7 625.721 54.4338 623.057 52.2694L619.905 56.15L616.752 60.0306C621.554 63.9329 627.526 65.7 634.255 65.7V60.7ZM619.905 56.15L623.11 52.3129C620.703 50.3015 619.375 47.5606 619.375 43.48H614.375H609.375C609.375 50.1328 611.733 55.8385 616.699 59.9871L619.905 56.15ZM614.375 43.48H619.375V40.12H614.375H609.375V43.48H614.375ZM614.375 40.12H619.375C619.375 36.4587 620.65 33.7498 623.259 31.5595L620.045 27.73L616.83 23.9005C611.879 28.0569 609.375 33.6079 609.375 40.12H614.375ZM620.045 27.73L623.287 31.5362C625.967 29.2533 629.675 27.9 634.885 27.9V22.9V17.9C627.868 17.9 621.682 19.7667 616.802 23.9238L620.045 27.73ZM634.885 22.9V27.9C640.033 27.9 643.325 29.366 645.512 31.705L649.165 28.29L652.817 24.875C648.284 20.0273 642.056 17.9 634.885 17.9V22.9ZM649.165 28.29L645.536 31.73C647.96 34.2872 649.275 37.5574 649.275 41.94H654.275H659.275C659.275 35.3093 657.182 29.4794 652.793 24.85L649.165 28.29ZM654.275 41.94H649.275V44.04H654.275H659.275V41.94H654.275ZM654.275 44.04H649.275C649.275 43.6756 649.344 43.2502 649.526 42.8172C649.708 42.387 649.953 42.0604 650.179 41.8345L653.715 45.37L657.25 48.9055C658.531 47.6244 659.275 45.9211 659.275 44.04H654.275ZM653.715 45.37L650.179 41.8345C650.405 41.6086 650.732 41.363 651.162 41.1818C651.595 40.9995 652.02 40.93 652.385 40.93V45.93V50.93C654.266 50.93 655.969 50.1866 657.25 48.9055L653.715 45.37ZM637.125 36.9H642.125C642.125 35.1024 641.854 32.8797 640.585 30.9765C639.077 28.7155 636.714 27.7 634.325 27.7V32.7V37.7C634.163 37.7 633.779 37.6675 633.313 37.4346C632.827 37.1914 632.476 36.8414 632.264 36.5235C632.075 36.2389 632.05 36.0644 632.069 36.1472C632.087 36.228 632.125 36.462 632.125 36.9H637.125ZM634.325 32.7V27.7C631.935 27.7 629.572 28.7155 628.064 30.9765C626.795 32.8797 626.525 35.1024 626.525 36.9H631.525H636.525C636.525 36.462 636.562 36.228 636.581 36.1472C636.599 36.0644 636.575 36.2389 636.385 36.5235C636.173 36.8414 635.822 37.1914 635.336 37.4346C634.87 37.6675 634.486 37.7 634.325 37.7V32.7ZM631.525 36.9H626.525V37.18H631.525H636.525V36.9H631.525ZM631.525 37.18V42.18H637.125V37.18V32.18H631.525V37.18ZM637.125 37.18H642.125V36.9H637.125H632.125V37.18H637.125ZM684.84 59.44L681.304 62.9755V62.9755L684.84 59.44ZM676.72 59.44L673.184 55.9045L676.72 59.44ZM660.76 59.44L664.295 55.9045V55.9045L660.76 59.44ZM660.76 24.16L664.295 27.6955V27.6955L660.76 24.16ZM675.67 24.16L679.206 20.6245V20.6245L675.67 24.16ZM676.23 27.8H671.23V41.5423L680.061 31.0131L676.23 27.8ZM681.13 24.3L683.112 28.8903L683.136 28.8798L683.161 28.8691L681.13 24.3ZM697.51 26.96L693.913 30.433L693.928 30.4486L693.943 30.4641L697.51 26.96ZM701.43 38.79H696.43V58.11H701.43H706.43V38.79H701.43ZM701.43 58.11H696.43C696.43 57.7456 696.499 57.3202 696.682 56.8872C696.863 56.457 697.109 56.1304 697.334 55.9045L700.87 59.44L704.405 62.9755C705.687 61.6944 706.43 59.9911 706.43 58.11H701.43ZM700.87 59.44L697.334 55.9045C697.56 55.6786 697.887 55.433 698.317 55.2518C698.75 55.0695 699.176 55 699.54 55V60V65C701.421 65 703.124 64.2566 704.405 62.9755L700.87 59.44ZM699.54 60V55H686.17V60V65H699.54V60ZM686.17 60V55C686.534 55 686.96 55.0695 687.393 55.2518C687.823 55.433 688.15 55.6786 688.375 55.9045L684.84 59.44L681.304 62.9755C682.586 64.2566 684.289 65 686.17 65V60ZM684.84 59.44L688.375 55.9045C688.601 56.1304 688.847 56.457 689.028 56.8872C689.21 57.3202 689.28 57.7456 689.28 58.11H684.28H679.28C679.28 59.9911 680.023 61.6944 681.304 62.9755L684.84 59.44ZM684.28 58.11H689.28V39.28H684.28H679.28V58.11H684.28ZM684.28 39.28H689.28C689.28 37.3376 688.849 34.9476 687.105 33.0291C685.278 31.0203 682.847 30.43 680.78 30.43V35.43V40.43C680.918 40.43 680.823 40.4504 680.59 40.365C680.328 40.2691 679.996 40.0759 679.705 39.7559C679.128 39.1207 679.28 38.6557 679.28 39.28H684.28ZM680.78 35.43V30.43C678.713 30.43 676.281 31.0203 674.455 33.0291C672.711 34.9476 672.28 37.3376 672.28 39.28H677.28H682.28C682.28 38.6557 682.432 39.1207 681.855 39.7559C681.564 40.0759 681.232 40.2691 680.97 40.365C680.737 40.4504 680.642 40.43 680.78 40.43V35.43ZM677.28 39.28H672.28V58.11H677.28H682.28V39.28H677.28ZM677.28 58.11H672.28C672.28 57.7456 672.349 57.3202 672.532 56.8872C672.713 56.457 672.958 56.1304 673.184 55.9045L676.72 59.44L680.255 62.9755C681.537 61.6944 682.28 59.9911 682.28 58.11H677.28ZM676.72 59.44L673.184 55.9045C673.41 55.6786 673.737 55.433 674.167 55.2518C674.6 55.0695 675.026 55 675.39 55V60V65C677.271 65 678.974 64.2566 680.255 62.9755L676.72 59.44ZM675.39 60V55H662.09V60V65H675.39V60ZM662.09 60V55C662.454 55 662.88 55.0695 663.313 55.2518C663.743 55.433 664.07 55.6786 664.295 55.9045L660.76 59.44L657.224 62.9755C658.505 64.2566 660.209 65 662.09 65V60ZM660.76 59.44L664.295 55.9045C664.521 56.1304 664.767 56.457 664.948 56.8872C665.13 57.3202 665.2 57.7456 665.2 58.11H660.2H655.2C655.2 59.9911 655.943 61.6944 657.224 62.9755L660.76 59.44ZM660.2 58.11H665.2V25.49H660.2H655.2V58.11H660.2ZM660.2 25.49H665.2C665.2 25.8544 665.13 26.2798 664.948 26.7128C664.767 27.143 664.521 27.4696 664.295 27.6955L660.76 24.16L657.224 20.6245C655.943 21.9056 655.2 23.6089 655.2 25.49H660.2ZM660.76 24.16L664.295 27.6955C664.07 27.9214 663.743 28.167 663.313 28.3482C662.88 28.5305 662.454 28.6 662.09 28.6V23.6V18.6C660.209 18.6 658.505 19.3434 657.224 20.6245L660.76 24.16ZM662.09 23.6V28.6H674.34V23.6V18.6H662.09V23.6ZM674.34 23.6V28.6C673.976 28.6 673.55 28.5305 673.117 28.3482C672.687 28.167 672.36 27.9214 672.134 27.6955L675.67 24.16L679.206 20.6245C677.924 19.3434 676.221 18.6 674.34 18.6V23.6ZM675.67 24.16L672.134 27.6955C671.909 27.4696 671.663 27.143 671.482 26.7128C671.299 26.2798 671.23 25.8544 671.23 25.49H676.23H681.23C681.23 23.6089 680.487 21.9056 679.206 20.6245L675.67 24.16ZM676.23 25.49H671.23V27.8H676.23H681.23V25.49H676.23ZM676.23 27.8L680.061 31.0131C680.689 30.2638 681.643 29.5248 683.112 28.8903L681.13 24.3L679.148 19.7097C676.51 20.8485 674.197 22.4428 672.399 24.5869L676.23 27.8ZM681.13 24.3L683.161 28.8691C684.598 28.2301 686.144 27.9 687.85 27.9V22.9V17.9C684.796 17.9 681.862 18.5033 679.099 19.7309L681.13 24.3ZM687.85 22.9V27.9C690.346 27.9 692.26 28.7208 693.913 30.433L697.51 26.96L701.107 23.487C697.533 19.7858 693.007 17.9 687.85 17.9V22.9ZM697.51 26.96L693.943 30.4641C695.322 31.8677 696.43 34.3415 696.43 38.79H701.43H706.43C706.43 32.7852 704.924 27.3723 701.077 23.4559L697.51 26.96Z" fill="#FFFCF2" mask="url(#path-1-outside-1_3_12491)"/>
<path d="M705.337 0C705.39 10.4037 714.152 18.8288 724.983 18.9004C724.997 18.9003 725.01 18.8997 725.024 18.8994V18.9004C725.01 18.9001 724.997 18.9005 724.983 18.9004C714.451 18.9406 705.861 26.8802 705.305 36.8682C705.324 37.2095 705.336 37.5535 705.336 37.8994C705.336 37.9309 705.335 37.9626 705.335 37.9941H705.278C705.278 37.9617 705.276 37.929 705.276 37.8965C705.276 37.5515 705.286 37.2086 705.305 36.8682C704.747 26.8561 696.116 18.9025 685.549 18.9023C685.516 18.9023 685.483 18.9032 685.45 18.9033V18.9004C685.483 18.9005 685.516 18.9023 685.549 18.9023C696.444 18.9022 705.282 10.4482 705.335 0H705.337Z" fill="#FFFCF2"/>
<path d="M705.307 5.78448C705.344 13.0292 711.453 18.8943 718.999 18.93V18.931C711.442 18.9668 705.324 24.8505 705.305 32.1097C705.305 32.1209 705.306 32.1326 705.306 32.1439C705.306 32.1548 705.305 32.1661 705.305 32.1771V32.1097C705.286 24.8284 699.132 18.931 691.543 18.931C691.521 18.931 691.498 18.9309 691.475 18.931V18.93C691.498 18.9301 691.521 18.931 691.543 18.931C699.121 18.931 705.267 13.0513 705.304 5.78448H705.307Z" fill="url(#paint0_radial_3_12491)"/>
<defs>
<radialGradient id="paint0_radial_3_12491" cx="0" cy="0" r="1" gradientUnits="userSpaceOnUse" gradientTransform="translate(705.237 18.9808) rotate(90) scale(13.1963 13.7617)">
<stop stop-color="#E8E163"/>
<stop offset="1" stop-color="#DB901C"/>
</radialGradient>
</defs>
</svg>
