<svg width="446" height="62" viewBox="0 0 446 62" fill="none" xmlns="http://www.w3.org/2000/svg">
<mask id="path-1-outside-1_3_9557" maskUnits="userSpaceOnUse" x="-0.949951" y="-0.800049" width="447" height="63" fill="black">
<rect fill="white" x="-0.949951" y="-0.800049" width="447" height="63"/>
<path d="M25.17 55.2H15.16C14.2734 55.2 13.5267 54.9433 12.92 54.43C12.36 53.87 12.0334 53.24 11.94 52.54L5.50005 7.94995V7.73995C5.50005 7.31995 5.64005 6.96995 5.92005 6.68995C6.24672 6.36328 6.62005 6.19995 7.04005 6.19995H20.06C21.6001 6.19995 22.4401 6.82995 22.58 8.08995L24.9601 27.8299L27.83 19.0799C28.2967 17.7266 29.0901 17.05 30.21 17.05H37.35C38.47 17.05 39.2634 17.7266 39.7301 19.0799L42.6 27.7599L44.9801 8.08995C45.1201 6.82995 45.9601 6.19995 47.5001 6.19995H60.5201C60.9401 6.19995 61.2901 6.36328 61.5701 6.68995C61.8967 6.96995 62.0601 7.31995 62.0601 7.73995V7.94995L55.6201 52.54C55.5267 53.24 55.1767 53.87 54.5701 54.43C54.0101 54.9433 53.2867 55.2 52.4001 55.2H42.3901C40.9434 55.2 39.9867 54.57 39.5201 53.31L33.78 38.96L28.0401 53.31C27.5734 54.57 26.6167 55.2 25.17 55.2ZM85.4351 34.48V53.31C85.4351 53.8233 85.2485 54.2666 84.8751 54.64C84.5018 55.0133 84.0585 55.2 83.5451 55.2H69.8951C69.3818 55.2 68.9385 55.0133 68.5651 54.64C68.1918 54.2666 68.0051 53.8233 68.0051 53.31V7.38995C68.0051 6.87662 68.1918 6.43328 68.5651 6.05995C68.9385 5.68662 69.3818 5.49995 69.8951 5.49995H83.5451C84.0585 5.49995 84.5018 5.68662 84.8751 6.05995C85.2485 6.43328 85.4351 6.87662 85.4351 7.38995V22.4399C88.0951 19.5466 91.5018 18.0999 95.6551 18.0999C99.8085 18.0999 103.238 19.4533 105.945 22.1599C108.652 24.8666 110.005 28.8099 110.005 33.99V53.24C110.005 53.7533 109.818 54.1966 109.445 54.57C109.072 54.9433 108.628 55.13 108.115 55.13H94.3951C93.8818 55.13 93.4385 54.9433 93.0651 54.57C92.6918 54.1966 92.5051 53.7533 92.5051 53.24V34.48C92.5051 31.9133 91.3151 30.63 88.9351 30.63C86.6018 30.63 85.4351 31.9133 85.4351 34.48ZM115.627 39.38V34.62C115.627 29.3 117.517 25.2166 121.297 22.37C125.077 19.5233 129.954 18.0999 135.927 18.0999C141.9 18.0999 146.777 19.5233 150.557 22.37C154.337 25.2166 156.227 29.3 156.227 34.62V39.38C156.227 44.7466 154.407 48.8533 150.767 51.7C147.127 54.5 142.18 55.9 135.927 55.9C129.674 55.9 124.727 54.5 121.087 51.7C117.447 48.8533 115.627 44.7466 115.627 39.38ZM139.077 39.94V34.06C139.077 32.2866 138.844 31.05 138.377 30.3499C137.91 29.65 137.094 29.3 135.927 29.3C134.76 29.3 133.944 29.65 133.477 30.3499C133.01 31.05 132.777 32.2866 132.777 34.06V39.94C132.777 41.8066 133.01 43.0666 133.477 43.72C133.944 44.3733 134.76 44.7 135.927 44.7C137.094 44.7 137.91 44.35 138.377 43.65C138.844 42.95 139.077 41.7133 139.077 39.94ZM201.127 55.2H191.117C190.23 55.2 189.484 54.9433 188.877 54.43C188.317 53.87 187.99 53.24 187.897 52.54L181.457 7.94995V7.73995C181.457 7.31995 181.597 6.96995 181.877 6.68995C182.204 6.36328 182.577 6.19995 182.997 6.19995H196.017C197.557 6.19995 198.397 6.82995 198.537 8.08995L200.917 27.8299L203.787 19.0799C204.254 17.7266 205.047 17.05 206.167 17.05H213.307C214.427 17.05 215.22 17.7266 215.687 19.0799L218.557 27.7599L220.937 8.08995C221.077 6.82995 221.917 6.19995 223.457 6.19995H236.477C236.897 6.19995 237.247 6.36328 237.527 6.68995C237.854 6.96995 238.017 7.31995 238.017 7.73995V7.94995L231.577 52.54C231.484 53.24 231.134 53.87 230.527 54.43C229.967 54.9433 229.244 55.2 228.357 55.2H218.347C216.9 55.2 215.944 54.57 215.477 53.31L209.737 38.96L203.997 53.31C203.53 54.57 202.574 55.2 201.127 55.2ZM280.922 41.13H260.062V41.48C260.062 44.3266 260.972 45.75 262.792 45.75C263.305 45.75 263.935 45.3766 264.682 44.63C265.429 43.8833 266.245 43.51 267.132 43.51H280.362C281.389 43.51 281.902 44.0233 281.902 45.05C281.902 47.3366 280.175 49.7166 276.722 52.19C273.315 54.6633 268.672 55.9 262.792 55.9C256.959 55.9 252.175 54.3833 248.442 51.35C244.755 48.27 242.912 44.0466 242.912 38.68V35.32C242.912 30.2333 244.802 26.1033 248.582 22.9299C252.362 19.7099 257.309 18.0999 263.422 18.0999C269.582 18.0999 274.342 19.8966 277.702 23.49C281.109 27.0833 282.812 31.6333 282.812 37.14V39.24C282.812 39.7533 282.625 40.1966 282.252 40.57C281.879 40.9433 281.435 41.13 280.922 41.13ZM265.662 32.1C265.662 29.3 264.729 27.9 262.862 27.9C260.995 27.9 260.062 29.3 260.062 32.1V32.38H265.662V32.1ZM325.42 6.19995H340.61C342.29 6.19995 343.34 6.96995 343.76 8.50995L359.37 53.17C359.417 53.31 359.44 53.5433 359.44 53.87C359.44 54.15 359.277 54.4533 358.95 54.78C358.67 55.06 358.32 55.2 357.9 55.2H344.95C343.55 55.2 342.64 54.6166 342.22 53.45L340.54 48.83H325.49L323.81 53.45C323.39 54.6166 322.48 55.2 321.08 55.2H308.13C307.71 55.2 307.337 55.06 307.01 54.78C306.73 54.4533 306.59 54.15 306.59 53.87C306.59 53.5433 306.614 53.31 306.66 53.17L322.27 8.50995C322.69 6.96995 323.74 6.19995 325.42 6.19995ZM329.06 35.18H336.97L332.98 22.1599L329.06 35.18ZM379.331 20.6899V23.1399C382.598 20.2466 386.238 18.7999 390.251 18.7999H393.611C394.125 18.7999 394.568 18.9866 394.941 19.3599C395.315 19.7333 395.501 20.1766 395.501 20.6899V31.61C395.501 32.1233 395.315 32.5666 394.941 32.9399C394.568 33.3133 394.125 33.5 393.611 33.5H384.581C383.321 33.5 382.318 33.8033 381.571 34.4099C380.871 34.9699 380.475 35.7399 380.381 36.72V53.31C380.381 53.8233 380.195 54.2666 379.821 54.64C379.448 55.0133 379.005 55.2 378.491 55.2H365.191C364.678 55.2 364.235 55.0133 363.861 54.64C363.488 54.2666 363.301 53.8233 363.301 53.31V20.6899C363.301 20.1766 363.488 19.7333 363.861 19.3599C364.235 18.9866 364.678 18.7999 365.191 18.7999H377.441C377.955 18.7999 378.398 18.9866 378.771 19.3599C379.145 19.7333 379.331 20.1766 379.331 20.6899ZM438.08 41.13H417.22V41.48C417.22 44.3266 418.13 45.75 419.95 45.75C420.464 45.75 421.094 45.3766 421.84 44.63C422.587 43.8833 423.404 43.51 424.29 43.51H437.52C438.547 43.51 439.06 44.0233 439.06 45.05C439.06 47.3366 437.334 49.7166 433.88 52.19C430.474 54.6633 425.83 55.9 419.95 55.9C414.117 55.9 409.334 54.3833 405.6 51.35C401.914 48.27 400.07 44.0466 400.07 38.68V35.32C400.07 30.2333 401.96 26.1033 405.74 22.9299C409.52 19.7099 414.467 18.0999 420.58 18.0999C426.74 18.0999 431.5 19.8966 434.86 23.49C438.267 27.0833 439.97 31.6333 439.97 37.14V39.24C439.97 39.7533 439.784 40.1966 439.41 40.57C439.037 40.9433 438.594 41.13 438.08 41.13ZM422.82 32.1C422.82 29.3 421.887 27.9 420.02 27.9C418.154 27.9 417.22 29.3 417.22 32.1V32.38H422.82V32.1Z"/>
</mask>
<path d="M25.17 55.2H15.16C14.2734 55.2 13.5267 54.9433 12.92 54.43C12.36 53.87 12.0334 53.24 11.94 52.54L5.50005 7.94995V7.73995C5.50005 7.31995 5.64005 6.96995 5.92005 6.68995C6.24672 6.36328 6.62005 6.19995 7.04005 6.19995H20.06C21.6001 6.19995 22.4401 6.82995 22.58 8.08995L24.9601 27.8299L27.83 19.0799C28.2967 17.7266 29.0901 17.05 30.21 17.05H37.35C38.47 17.05 39.2634 17.7266 39.7301 19.0799L42.6 27.7599L44.9801 8.08995C45.1201 6.82995 45.9601 6.19995 47.5001 6.19995H60.5201C60.9401 6.19995 61.2901 6.36328 61.5701 6.68995C61.8967 6.96995 62.0601 7.31995 62.0601 7.73995V7.94995L55.6201 52.54C55.5267 53.24 55.1767 53.87 54.5701 54.43C54.0101 54.9433 53.2867 55.2 52.4001 55.2H42.3901C40.9434 55.2 39.9867 54.57 39.5201 53.31L33.78 38.96L28.0401 53.31C27.5734 54.57 26.6167 55.2 25.17 55.2ZM85.4351 34.48V53.31C85.4351 53.8233 85.2485 54.2666 84.8751 54.64C84.5018 55.0133 84.0585 55.2 83.5451 55.2H69.8951C69.3818 55.2 68.9385 55.0133 68.5651 54.64C68.1918 54.2666 68.0051 53.8233 68.0051 53.31V7.38995C68.0051 6.87662 68.1918 6.43328 68.5651 6.05995C68.9385 5.68662 69.3818 5.49995 69.8951 5.49995H83.5451C84.0585 5.49995 84.5018 5.68662 84.8751 6.05995C85.2485 6.43328 85.4351 6.87662 85.4351 7.38995V22.4399C88.0951 19.5466 91.5018 18.0999 95.6551 18.0999C99.8085 18.0999 103.238 19.4533 105.945 22.1599C108.652 24.8666 110.005 28.8099 110.005 33.99V53.24C110.005 53.7533 109.818 54.1966 109.445 54.57C109.072 54.9433 108.628 55.13 108.115 55.13H94.3951C93.8818 55.13 93.4385 54.9433 93.0651 54.57C92.6918 54.1966 92.5051 53.7533 92.5051 53.24V34.48C92.5051 31.9133 91.3151 30.63 88.9351 30.63C86.6018 30.63 85.4351 31.9133 85.4351 34.48ZM115.627 39.38V34.62C115.627 29.3 117.517 25.2166 121.297 22.37C125.077 19.5233 129.954 18.0999 135.927 18.0999C141.9 18.0999 146.777 19.5233 150.557 22.37C154.337 25.2166 156.227 29.3 156.227 34.62V39.38C156.227 44.7466 154.407 48.8533 150.767 51.7C147.127 54.5 142.18 55.9 135.927 55.9C129.674 55.9 124.727 54.5 121.087 51.7C117.447 48.8533 115.627 44.7466 115.627 39.38ZM139.077 39.94V34.06C139.077 32.2866 138.844 31.05 138.377 30.3499C137.91 29.65 137.094 29.3 135.927 29.3C134.76 29.3 133.944 29.65 133.477 30.3499C133.01 31.05 132.777 32.2866 132.777 34.06V39.94C132.777 41.8066 133.01 43.0666 133.477 43.72C133.944 44.3733 134.76 44.7 135.927 44.7C137.094 44.7 137.91 44.35 138.377 43.65C138.844 42.95 139.077 41.7133 139.077 39.94ZM201.127 55.2H191.117C190.23 55.2 189.484 54.9433 188.877 54.43C188.317 53.87 187.99 53.24 187.897 52.54L181.457 7.94995V7.73995C181.457 7.31995 181.597 6.96995 181.877 6.68995C182.204 6.36328 182.577 6.19995 182.997 6.19995H196.017C197.557 6.19995 198.397 6.82995 198.537 8.08995L200.917 27.8299L203.787 19.0799C204.254 17.7266 205.047 17.05 206.167 17.05H213.307C214.427 17.05 215.22 17.7266 215.687 19.0799L218.557 27.7599L220.937 8.08995C221.077 6.82995 221.917 6.19995 223.457 6.19995H236.477C236.897 6.19995 237.247 6.36328 237.527 6.68995C237.854 6.96995 238.017 7.31995 238.017 7.73995V7.94995L231.577 52.54C231.484 53.24 231.134 53.87 230.527 54.43C229.967 54.9433 229.244 55.2 228.357 55.2H218.347C216.9 55.2 215.944 54.57 215.477 53.31L209.737 38.96L203.997 53.31C203.53 54.57 202.574 55.2 201.127 55.2ZM280.922 41.13H260.062V41.48C260.062 44.3266 260.972 45.75 262.792 45.75C263.305 45.75 263.935 45.3766 264.682 44.63C265.429 43.8833 266.245 43.51 267.132 43.51H280.362C281.389 43.51 281.902 44.0233 281.902 45.05C281.902 47.3366 280.175 49.7166 276.722 52.19C273.315 54.6633 268.672 55.9 262.792 55.9C256.959 55.9 252.175 54.3833 248.442 51.35C244.755 48.27 242.912 44.0466 242.912 38.68V35.32C242.912 30.2333 244.802 26.1033 248.582 22.9299C252.362 19.7099 257.309 18.0999 263.422 18.0999C269.582 18.0999 274.342 19.8966 277.702 23.49C281.109 27.0833 282.812 31.6333 282.812 37.14V39.24C282.812 39.7533 282.625 40.1966 282.252 40.57C281.879 40.9433 281.435 41.13 280.922 41.13ZM265.662 32.1C265.662 29.3 264.729 27.9 262.862 27.9C260.995 27.9 260.062 29.3 260.062 32.1V32.38H265.662V32.1ZM325.42 6.19995H340.61C342.29 6.19995 343.34 6.96995 343.76 8.50995L359.37 53.17C359.417 53.31 359.44 53.5433 359.44 53.87C359.44 54.15 359.277 54.4533 358.95 54.78C358.67 55.06 358.32 55.2 357.9 55.2H344.95C343.55 55.2 342.64 54.6166 342.22 53.45L340.54 48.83H325.49L323.81 53.45C323.39 54.6166 322.48 55.2 321.08 55.2H308.13C307.71 55.2 307.337 55.06 307.01 54.78C306.73 54.4533 306.59 54.15 306.59 53.87C306.59 53.5433 306.614 53.31 306.66 53.17L322.27 8.50995C322.69 6.96995 323.74 6.19995 325.42 6.19995ZM329.06 35.18H336.97L332.98 22.1599L329.06 35.18ZM379.331 20.6899V23.1399C382.598 20.2466 386.238 18.7999 390.251 18.7999H393.611C394.125 18.7999 394.568 18.9866 394.941 19.3599C395.315 19.7333 395.501 20.1766 395.501 20.6899V31.61C395.501 32.1233 395.315 32.5666 394.941 32.9399C394.568 33.3133 394.125 33.5 393.611 33.5H384.581C383.321 33.5 382.318 33.8033 381.571 34.4099C380.871 34.9699 380.475 35.7399 380.381 36.72V53.31C380.381 53.8233 380.195 54.2666 379.821 54.64C379.448 55.0133 379.005 55.2 378.491 55.2H365.191C364.678 55.2 364.235 55.0133 363.861 54.64C363.488 54.2666 363.301 53.8233 363.301 53.31V20.6899C363.301 20.1766 363.488 19.7333 363.861 19.3599C364.235 18.9866 364.678 18.7999 365.191 18.7999H377.441C377.955 18.7999 378.398 18.9866 378.771 19.3599C379.145 19.7333 379.331 20.1766 379.331 20.6899ZM438.08 41.13H417.22V41.48C417.22 44.3266 418.13 45.75 419.95 45.75C420.464 45.75 421.094 45.3766 421.84 44.63C422.587 43.8833 423.404 43.51 424.29 43.51H437.52C438.547 43.51 439.06 44.0233 439.06 45.05C439.06 47.3366 437.334 49.7166 433.88 52.19C430.474 54.6633 425.83 55.9 419.95 55.9C414.117 55.9 409.334 54.3833 405.6 51.35C401.914 48.27 400.07 44.0466 400.07 38.68V35.32C400.07 30.2333 401.96 26.1033 405.74 22.9299C409.52 19.7099 414.467 18.0999 420.58 18.0999C426.74 18.0999 431.5 19.8966 434.86 23.49C438.267 27.0833 439.97 31.6333 439.97 37.14V39.24C439.97 39.7533 439.784 40.1966 439.41 40.57C439.037 40.9433 438.594 41.13 438.08 41.13ZM422.82 32.1C422.82 29.3 421.887 27.9 420.02 27.9C418.154 27.9 417.22 29.3 417.22 32.1V32.38H422.82V32.1Z" fill="#173679"/>
<path d="M12.92 54.43L9.03096 58.319C9.13876 58.4268 9.25099 58.5301 9.36737 58.6286L12.92 54.43ZM11.94 52.54L17.3918 51.813C17.3892 51.7933 17.3864 51.7735 17.3836 51.7538L11.94 52.54ZM5.50005 7.94995H4.88758e-05C4.88758e-05 8.21303 0.0189242 8.47577 0.0565295 8.73614L5.50005 7.94995ZM5.92005 6.68995L9.80913 10.579L9.80914 10.579L5.92005 6.68995ZM22.58 8.08995L17.1137 8.69732C17.1156 8.71432 17.1175 8.73132 17.1196 8.7483L22.58 8.08995ZM24.9601 27.8299L19.4996 28.4883C19.8082 31.048 21.8535 33.0498 24.4193 33.3033C26.9851 33.5568 29.3826 31.9939 30.1861 29.5441L24.9601 27.8299ZM27.83 19.0799L22.6305 17.287C22.6215 17.3132 22.6126 17.3395 22.604 17.3658L27.83 19.0799ZM39.7301 19.0799L44.952 17.3533C44.9447 17.3312 44.9372 17.3091 44.9296 17.287L39.7301 19.0799ZM42.6 27.76L37.3781 29.4866C38.1866 31.9317 40.5835 33.4885 43.1462 33.2328C45.7088 32.977 47.7509 30.9773 48.0602 28.4206L42.6 27.76ZM44.9801 8.08995L50.4402 8.75061C50.4424 8.73286 50.4444 8.7151 50.4464 8.69733L44.9801 8.08995ZM61.57 6.68995L57.3941 10.2693C57.5774 10.4831 57.7769 10.6826 57.9907 10.8659L61.57 6.68995ZM62.0601 7.94995L67.5036 8.73614C67.5412 8.47577 67.5601 8.21303 67.5601 7.94995H62.0601ZM55.6201 52.54L50.1765 51.7538C50.1737 51.7735 50.1709 51.7933 50.1683 51.813L55.6201 52.54ZM54.5701 54.43L58.2865 58.4843C58.2912 58.48 58.2959 58.4757 58.3006 58.4714L54.5701 54.43ZM39.5201 53.31L44.6777 51.3997C44.6612 51.3554 44.6442 51.3112 44.6267 51.2673L39.5201 53.31ZM33.7801 38.96L38.8867 36.9173C38.0514 34.8292 36.029 33.46 33.78 33.46C31.5311 33.46 29.5087 34.8292 28.6734 36.9173L33.7801 38.96ZM28.0401 53.31L22.9334 51.2673C22.9159 51.3112 22.8989 51.3554 22.8824 51.3997L28.0401 53.31ZM25.17 55.2V49.7H15.16V55.2V60.7H25.17V55.2ZM15.16 55.2V49.7C15.2511 49.7 15.4549 49.714 15.723 49.8062C15.9993 49.9012 16.2586 50.0501 16.4727 50.2313L12.92 54.43L9.36737 58.6286C11.0833 60.0805 13.1332 60.7 15.16 60.7V55.2ZM12.92 54.43L16.8091 50.5409C16.8822 50.614 17.0132 50.7657 17.1377 51.0057C17.2655 51.2521 17.3541 51.5299 17.3918 51.813L11.94 52.54L6.4883 53.2669C6.76049 55.3083 7.72615 57.0142 9.03096 58.319L12.92 54.43ZM11.94 52.54L17.3836 51.7538L10.9436 7.16376L5.50005 7.94995L0.0565295 8.73614L6.49653 53.3261L11.94 52.54ZM5.50005 7.94995H11V7.73995H5.50005H4.88758e-05V7.94995H5.50005ZM5.50005 7.73995H11C11 8.14989 10.9296 8.66027 10.7117 9.2051C10.4912 9.75635 10.1688 10.2194 9.80913 10.579L5.92005 6.68995L2.03097 2.80086C0.652086 4.17973 4.88758e-05 5.95946 4.88758e-05 7.73995H5.50005ZM5.92005 6.68995L9.80914 10.579C9.55188 10.8363 9.16949 11.1338 8.64956 11.3613C8.11954 11.5932 7.56497 11.6999 7.04005 11.6999V6.19995V0.699947C5.00862 0.699947 3.27581 1.55601 2.03095 2.80087L5.92005 6.68995ZM7.04005 6.19995V11.6999H20.06V6.19995V0.699947H7.04005V6.19995ZM20.06 6.19995V11.6999C20.1725 11.6999 19.4295 11.7358 18.545 11.0724C17.503 10.2909 17.1738 9.23869 17.1137 8.69732L22.58 8.08995L28.0464 7.48258C27.8463 5.6812 27.0271 3.684 25.1451 2.27245C23.4206 0.979103 21.4876 0.699947 20.06 0.699947V6.19995ZM22.58 8.08995L17.1196 8.7483L19.4996 28.4883L24.9601 27.8299L30.4205 27.1716L28.0405 7.43159L22.58 8.08995ZM24.9601 27.8299L30.1861 29.5441L33.0561 20.7941L27.83 19.0799L22.604 17.3658L19.734 26.1158L24.9601 27.8299ZM27.83 19.0799L33.0296 20.8729C33.0572 20.7928 32.923 21.2484 32.3443 21.742C31.6686 22.3183 30.8536 22.5499 30.21 22.5499V17.0499V11.5499C28.4465 11.5499 26.6748 12.1199 25.2058 13.3729C23.8337 14.5432 23.0696 16.0137 22.6305 17.287L27.83 19.0799ZM30.21 17.0499V22.5499H37.35V17.0499V11.5499H30.21V17.0499ZM37.35 17.0499V22.5499C36.7065 22.5499 35.8915 22.3183 35.2158 21.742C34.6371 21.2484 34.5029 20.7928 34.5305 20.8729L39.7301 19.0799L44.9296 17.287C44.4905 16.0137 43.7264 14.5432 42.3543 13.3729C40.8853 12.1199 39.1136 11.5499 37.35 11.5499V17.0499ZM39.7301 19.0799L34.5081 20.8066L37.3781 29.4866L42.6 27.76L47.822 26.0333L44.952 17.3533L39.7301 19.0799ZM42.6 27.76L48.0602 28.4206L50.4402 8.75061L44.9801 8.08995L39.5199 7.42929L37.1399 27.0993L42.6 27.76ZM44.9801 8.08995L50.4464 8.69733C50.3863 9.2387 50.0571 10.2909 49.0151 11.0724C48.1306 11.7358 47.3876 11.6999 47.5001 11.6999V6.19995V0.699947C46.0725 0.699947 44.1395 0.979103 42.4151 2.27245C40.533 3.684 39.7138 5.6812 39.5137 7.48257L44.9801 8.08995ZM47.5001 6.19995V11.6999H60.5201V6.19995V0.699947H47.5001V6.19995ZM60.5201 6.19995V11.6999C59.9976 11.6999 59.3869 11.5935 58.7717 11.3064C58.16 11.021 57.7054 10.6324 57.3941 10.2693L61.57 6.68995L65.746 3.11061C64.4504 1.59905 62.5901 0.699947 60.5201 0.699947V6.19995ZM61.57 6.68995L57.9907 10.8659C57.6276 10.5546 57.239 10.1 56.9535 9.48833C56.6665 8.87313 56.5601 8.26238 56.5601 7.73995H62.0601H67.5601C67.5601 5.66989 66.6609 3.80964 65.1494 2.51403L61.57 6.68995ZM62.0601 7.73995H56.5601V7.94995H62.0601H67.5601V7.73995H62.0601ZM62.0601 7.94995L56.6165 7.16376L50.1765 51.7538L55.6201 52.54L61.0636 53.3261L67.5036 8.73614L62.0601 7.94995ZM55.6201 52.54L50.1683 51.813C50.2145 51.4662 50.3272 51.1408 50.4797 50.8664C50.6266 50.602 50.7746 50.4484 50.8395 50.3885L54.5701 54.43L58.3006 58.4714C59.6826 57.1957 60.781 55.4476 61.0718 53.2669L55.6201 52.54ZM54.5701 54.43L50.8536 50.3756C51.123 50.1286 51.4422 49.9398 51.7683 49.8241C52.081 49.7131 52.3123 49.7 52.4001 49.7V55.2V60.7C54.4177 60.7 56.5449 60.0808 58.2865 58.4843L54.5701 54.43ZM52.4001 55.2V49.7H42.3901V55.2V60.7H52.4001V55.2ZM42.3901 55.2V49.7C42.4601 49.7 42.9832 49.7196 43.6125 50.134C44.2742 50.5698 44.5768 51.1274 44.6777 51.3997L39.5201 53.31L34.3624 55.2202C34.93 56.7525 35.9442 58.2551 37.5626 59.3209C39.1485 60.3653 40.8734 60.7 42.3901 60.7V55.2ZM39.5201 53.31L44.6267 51.2673L38.8867 36.9173L33.7801 38.96L28.6734 41.0026L34.4134 55.3526L39.5201 53.31ZM33.7801 38.96L28.6734 36.9173L22.9334 51.2673L28.0401 53.31L33.1467 55.3526L38.8867 41.0026L33.7801 38.96ZM28.0401 53.31L22.8824 51.3997C22.9833 51.1274 23.2859 50.5698 23.9476 50.134C24.5769 49.7196 25.1 49.7 25.17 49.7V55.2V60.7C26.6867 60.7 28.4116 60.3653 29.9975 59.3209C31.6159 58.2551 32.6301 56.7525 33.1977 55.2202L28.0401 53.31ZM84.8751 54.6399L80.986 50.7509L80.986 50.7509L84.8751 54.6399ZM68.5651 54.6399L72.4542 50.7509V50.7509L68.5651 54.6399ZM68.5651 6.05995L72.4542 9.94903V9.94903L68.5651 6.05995ZM84.8751 6.05995L80.986 9.94903L80.986 9.94904L84.8751 6.05995ZM85.4351 22.4399H79.9351C79.9351 24.7066 81.3257 26.7411 83.4375 27.5644C85.5494 28.3876 87.95 27.831 89.4841 26.1623L85.4351 22.4399ZM105.945 22.16L102.056 26.049L102.056 26.049L105.945 22.16ZM109.445 54.57L105.556 50.6809L109.445 54.57ZM93.0651 54.57L96.9542 50.6809L96.9542 50.6809L93.0651 54.57ZM85.4351 34.4799H79.9351V53.31H85.4351H90.9351V34.4799H85.4351ZM85.4351 53.31H79.9351C79.9351 52.8834 80.0163 52.3916 80.2261 51.8931C80.4347 51.3978 80.7189 51.018 80.986 50.7509L84.8751 54.6399L88.7642 58.529C90.1361 57.1572 90.9351 55.3279 90.9351 53.31H85.4351ZM84.8751 54.6399L80.986 50.7509C81.2532 50.4837 81.6329 50.1995 82.1283 49.991C82.6268 49.7811 83.1186 49.7 83.5451 49.7V55.2V60.7C85.563 60.7 87.3923 59.9009 88.7642 58.529L84.8751 54.6399ZM83.5451 55.2V49.7H69.8951V55.2V60.7H83.5451V55.2ZM69.8951 55.2V49.7C70.3216 49.7 70.8135 49.7811 71.3119 49.991C71.8073 50.1995 72.1871 50.4837 72.4542 50.7509L68.5651 54.6399L64.676 58.529C66.0479 59.9009 67.8772 60.7 69.8951 60.7V55.2ZM68.5651 54.6399L72.4542 50.7509C72.7214 51.018 73.0055 51.3978 73.2141 51.8931C73.424 52.3916 73.5051 52.8834 73.5051 53.31H68.0051H62.5051C62.5051 55.3279 63.3042 57.1572 64.676 58.529L68.5651 54.6399ZM68.0051 53.31H73.5051V7.38995H68.0051H62.5051V53.31H68.0051ZM68.0051 7.38995H73.5051C73.5051 7.81646 73.424 8.30833 73.2141 8.80676C73.0055 9.30214 72.7214 9.68188 72.4542 9.94903L68.5651 6.05995L64.676 2.17086C63.3042 3.54273 62.5051 5.37202 62.5051 7.38995H68.0051ZM68.5651 6.05995L72.4542 9.94903C72.1871 10.2162 71.8073 10.5004 71.3119 10.7089C70.8135 10.9188 70.3216 10.9999 69.8951 10.9999V5.49995V-5.34058e-05C67.8772 -5.34058e-05 66.0479 0.798996 64.676 2.17087L68.5651 6.05995ZM69.8951 5.49995V10.9999H83.5451V5.49995V-5.34058e-05H69.8951V5.49995ZM83.5451 5.49995V10.9999C83.1186 10.9999 82.6268 10.9188 82.1283 10.7089C81.6329 10.5004 81.2532 10.2162 80.986 9.94903L84.8751 6.05995L88.7642 2.17087C87.3923 0.798996 85.563 -5.34058e-05 83.5451 -5.34058e-05V5.49995ZM84.8751 6.05995L80.986 9.94904C80.7189 9.68188 80.4347 9.30214 80.2261 8.80677C80.0163 8.30833 79.9351 7.81646 79.9351 7.38995H85.4351H90.9351C90.9351 5.37202 90.1361 3.54273 88.7642 2.17086L84.8751 6.05995ZM85.4351 7.38995H79.9351V22.4399H85.4351H90.9351V7.38995H85.4351ZM85.4351 22.4399L89.4841 26.1623C91.0378 24.4723 92.9423 23.5999 95.6551 23.5999V18.0999V12.5999C90.0613 12.5999 85.1525 14.6209 81.3862 18.7176L85.4351 22.4399ZM95.6551 18.0999V23.5999C98.4866 23.5999 100.474 24.4667 102.056 26.049L105.945 22.16L109.834 18.2709C106.003 14.4399 101.13 12.5999 95.6551 12.5999V18.0999ZM105.945 22.16L102.056 26.049C103.409 27.4021 104.505 29.7391 104.505 33.99H110.005H115.505C115.505 27.8808 113.895 22.3312 109.834 18.2709L105.945 22.16ZM110.005 33.99H104.505V53.24H110.005H115.505V33.99H110.005ZM110.005 53.24H104.505C104.505 52.8134 104.586 52.3216 104.796 51.8231C105.005 51.3278 105.289 50.948 105.556 50.6809L109.445 54.57L113.334 58.459C114.706 57.0872 115.505 55.2579 115.505 53.24H110.005ZM109.445 54.57L105.556 50.6809C105.823 50.4137 106.203 50.1295 106.698 49.921C107.197 49.7111 107.689 49.63 108.115 49.63V55.13V60.63C110.133 60.63 111.962 59.8309 113.334 58.459L109.445 54.57ZM108.115 55.13V49.63H94.3951V55.13V60.63H108.115V55.13ZM94.3951 55.13V49.63C94.8216 49.63 95.3135 49.7111 95.8119 49.921C96.3073 50.1295 96.6871 50.4137 96.9542 50.6809L93.0651 54.57L89.176 58.459C90.5479 59.8309 92.3772 60.63 94.3951 60.63V55.13ZM93.0651 54.57L96.9542 50.6809C97.2214 50.948 97.5055 51.3278 97.7141 51.8231C97.924 52.3216 98.0051 52.8134 98.0051 53.24H92.5051H87.0051C87.0051 55.2579 87.8042 57.0872 89.176 58.459L93.0651 54.57ZM92.5051 53.24H98.0051V34.4799H92.5051H87.0051V53.24H92.5051ZM92.5051 34.4799H98.0051C98.0051 32.4476 97.5425 29.8985 95.6456 27.8528C93.676 25.7287 91.0839 25.1299 88.9351 25.1299V30.6299V36.13C89.1663 36.13 88.3593 36.1729 87.5797 35.3321C86.8727 34.5697 87.0051 33.9456 87.0051 34.4799H92.5051ZM88.9351 30.6299V25.1299C86.7784 25.1299 84.191 25.7472 82.2405 27.8928C80.3803 29.9389 79.9351 32.4716 79.9351 34.4799H85.4351H90.9351C90.9351 33.9216 91.0733 34.5293 90.3798 35.2922C90.0306 35.6762 89.6289 35.9128 89.2973 36.0344C88.9972 36.1444 88.8416 36.13 88.9351 36.13V30.6299ZM121.297 22.3699L124.606 26.7634V26.7634L121.297 22.3699ZM150.557 22.3699L153.866 17.9765V17.9765L150.557 22.3699ZM150.767 51.7L154.12 56.0594C154.132 56.0504 154.144 56.0414 154.155 56.0324L150.767 51.7ZM121.087 51.7L117.699 56.0324C117.71 56.0414 117.722 56.0504 117.734 56.0594L121.087 51.7ZM138.377 30.3499L142.953 27.2991V27.2991L138.377 30.3499ZM133.477 30.3499L138.053 33.4008V33.4008L133.477 30.3499ZM133.477 43.72L137.953 40.5231L137.953 40.5231L133.477 43.72ZM115.627 39.38H121.127V34.6199H115.627H110.127V39.38H115.627ZM115.627 34.6199H121.127C121.127 30.7813 122.391 28.4314 124.606 26.7634L121.297 22.3699L117.988 17.9765C112.643 22.0018 110.127 27.8186 110.127 34.6199H115.627ZM121.297 22.3699L124.606 26.7634C127.207 24.8047 130.83 23.5999 135.927 23.5999V18.0999V12.5999C129.077 12.5999 122.947 14.2419 117.988 17.9765L121.297 22.3699ZM135.927 18.0999V23.5999C141.024 23.5999 144.647 24.8047 147.248 26.7634L150.557 22.3699L153.866 17.9765C148.907 14.2419 142.777 12.5999 135.927 12.5999V18.0999ZM150.557 22.3699L147.248 26.7634C149.463 28.4314 150.727 30.7813 150.727 34.6199H156.227H161.727C161.727 27.8186 159.211 22.0018 153.866 17.9765L150.557 22.3699ZM156.227 34.6199H150.727V39.38H156.227H161.727V34.6199H156.227ZM156.227 39.38H150.727C150.727 43.3623 149.461 45.7392 147.379 47.3675L150.767 51.7L154.155 56.0324C159.353 51.9674 161.727 46.1309 161.727 39.38H156.227ZM150.767 51.7L147.414 47.3405C145.03 49.1741 141.401 50.4 135.927 50.4V55.9V61.4C142.96 61.4 149.224 59.8258 154.12 56.0594L150.767 51.7ZM135.927 55.9V50.4C130.453 50.4 126.824 49.1741 124.44 47.3405L121.087 51.7L117.734 56.0594C122.63 59.8258 128.894 61.4 135.927 61.4V55.9ZM121.087 51.7L124.475 47.3675C122.393 45.7392 121.127 43.3623 121.127 39.38H115.627H110.127C110.127 46.1309 112.501 51.9674 117.699 56.0324L121.087 51.7ZM139.077 39.9399H144.577V34.06H139.077H133.577V39.9399H139.077ZM139.077 34.06H144.577C144.577 32.1691 144.397 29.4651 142.953 27.2991L138.377 30.3499L133.801 33.4008C133.624 33.1363 133.542 32.9304 133.511 32.8451C133.479 32.7578 133.482 32.7411 133.497 32.8222C133.512 32.9006 133.533 33.041 133.55 33.2557C133.566 33.4686 133.577 33.7347 133.577 34.06H139.077ZM138.377 30.3499L142.953 27.2991C141.1 24.5194 138.156 23.8 135.927 23.8V29.3V34.7999C135.987 34.7999 135.702 34.8125 135.248 34.6177C134.733 34.3973 134.193 33.9895 133.801 33.4008L138.377 30.3499ZM135.927 29.3V23.8C133.698 23.8 130.754 24.5194 128.901 27.2991L133.477 30.3499L138.053 33.4008C137.661 33.9895 137.121 34.3973 136.606 34.6177C136.152 34.8125 135.867 34.7999 135.927 34.7999V29.3ZM133.477 30.3499L128.901 27.2991C127.457 29.4651 127.277 32.1691 127.277 34.06H132.777H138.277C138.277 33.7347 138.288 33.4686 138.304 33.2557C138.321 33.041 138.342 32.9006 138.357 32.8222C138.372 32.7411 138.375 32.7578 138.343 32.8452C138.312 32.9304 138.23 33.1363 138.053 33.4008L133.477 30.3499ZM132.777 34.06H127.277V39.9399H132.777H138.277V34.06H132.777ZM132.777 39.9399H127.277C127.277 41.0719 127.345 42.214 127.544 43.2864C127.729 44.2883 128.104 45.6597 129.001 46.9168L133.477 43.72L137.953 40.5231C138.188 40.8535 138.297 41.1191 138.336 41.2265C138.377 41.3386 138.376 41.3695 138.36 41.2835C138.345 41.2018 138.323 41.0511 138.305 40.8169C138.288 40.585 138.277 40.2949 138.277 39.9399H132.777ZM133.477 43.72L129.001 46.9168C130.912 49.592 133.836 50.2 135.927 50.2V44.7V39.2C135.828 39.2 136.067 39.1821 136.482 39.3483C136.954 39.537 137.516 39.9124 137.953 40.5231L133.477 43.72ZM135.927 44.7V50.2C138.156 50.2 141.1 49.4805 142.953 46.7008L138.377 43.65L133.801 40.5991C134.193 40.0104 134.733 39.6026 135.248 39.3822C135.702 39.1874 135.987 39.2 135.927 39.2V44.7ZM138.377 43.65L142.953 46.7008C144.397 44.5348 144.577 41.8308 144.577 39.9399H139.077H133.577C133.577 40.2652 133.566 40.5313 133.55 40.7442C133.533 40.9589 133.512 41.0993 133.497 41.1777C133.482 41.2588 133.479 41.2421 133.511 41.1548C133.542 41.0695 133.624 40.8636 133.801 40.5991L138.377 43.65ZM188.877 54.43L184.988 58.319C185.096 58.4268 185.208 58.5301 185.324 58.6286L188.877 54.43ZM187.897 52.54L193.349 51.813C193.346 51.7933 193.343 51.7735 193.341 51.7538L187.897 52.54ZM181.457 7.94995H175.957C175.957 8.21303 175.976 8.47577 176.014 8.73614L181.457 7.94995ZM181.877 6.68995L185.766 10.579L185.766 10.579L181.877 6.68995ZM198.537 8.08995L193.071 8.69732C193.073 8.71432 193.075 8.73132 193.077 8.7483L198.537 8.08995ZM200.917 27.8299L195.457 28.4883C195.765 31.048 197.811 33.0498 200.376 33.3033C202.942 33.5568 205.34 31.9939 206.143 29.5441L200.917 27.8299ZM203.787 19.0799L198.588 17.287C198.578 17.3132 198.57 17.3395 198.561 17.3658L203.787 19.0799ZM215.687 19.0799L220.909 17.3533C220.902 17.3312 220.894 17.3091 220.887 17.287L215.687 19.0799ZM218.557 27.76L213.335 29.4866C214.144 31.9317 216.541 33.4885 219.103 33.2328C221.666 32.977 223.708 30.9773 224.017 28.4206L218.557 27.76ZM220.937 8.08995L226.397 8.75061C226.399 8.73286 226.401 8.7151 226.403 8.69733L220.937 8.08995ZM237.527 6.68995L233.351 10.2693C233.534 10.4831 233.734 10.6826 233.948 10.8659L237.527 6.68995ZM238.017 7.94995L243.461 8.73614C243.498 8.47577 243.517 8.21303 243.517 7.94995H238.017ZM231.577 52.54L226.134 51.7538C226.131 51.7735 226.128 51.7933 226.125 51.813L231.577 52.54ZM230.527 54.43L234.244 58.4843C234.248 58.48 234.253 58.4757 234.258 58.4714L230.527 54.43ZM215.477 53.31L220.635 51.3997C220.618 51.3554 220.601 51.3112 220.584 51.2673L215.477 53.31ZM209.737 38.96L214.844 36.9173C214.008 34.8292 211.986 33.46 209.737 33.46C207.488 33.46 205.466 34.8292 204.63 36.9173L209.737 38.96ZM203.997 53.31L198.89 51.2673C198.873 51.3112 198.856 51.3554 198.839 51.3997L203.997 53.31ZM201.127 55.2V49.7H191.117V55.2V60.7H201.127V55.2ZM191.117 55.2V49.7C191.208 49.7 191.412 49.714 191.68 49.8062C191.956 49.9012 192.216 50.0501 192.43 50.2313L188.877 54.43L185.324 58.6286C187.04 60.0805 189.09 60.7 191.117 60.7V55.2ZM188.877 54.43L192.766 50.5409C192.839 50.614 192.97 50.7657 193.095 51.0057C193.222 51.2521 193.311 51.5299 193.349 51.813L187.897 52.54L182.445 53.2669C182.718 55.3083 183.683 57.0142 184.988 58.319L188.877 54.43ZM187.897 52.54L193.341 51.7538L186.901 7.16376L181.457 7.94995L176.014 8.73614L182.454 53.3261L187.897 52.54ZM181.457 7.94995H186.957V7.73995H181.457H175.957V7.94995H181.457ZM181.457 7.73995H186.957C186.957 8.14989 186.887 8.66027 186.669 9.2051C186.448 9.75635 186.126 10.2194 185.766 10.579L181.877 6.68995L177.988 2.80086C176.609 4.17973 175.957 5.95946 175.957 7.73995H181.457ZM181.877 6.68995L185.766 10.579C185.509 10.8363 185.127 11.1338 184.607 11.3613C184.077 11.5932 183.522 11.6999 182.997 11.6999V6.19995V0.699947C180.966 0.699947 179.233 1.55601 177.988 2.80087L181.877 6.68995ZM182.997 6.19995V11.6999H196.017V6.19995V0.699947H182.997V6.19995ZM196.017 6.19995V11.6999C196.13 11.6999 195.387 11.7358 194.502 11.0724C193.46 10.2909 193.131 9.23869 193.071 8.69732L198.537 8.08995L204.003 7.48258C203.803 5.6812 202.984 3.684 201.102 2.27245C199.378 0.979103 197.445 0.699947 196.017 0.699947V6.19995ZM198.537 8.08995L193.077 8.7483L195.457 28.4883L200.917 27.8299L206.378 27.1716L203.998 7.43159L198.537 8.08995ZM200.917 27.8299L206.143 29.5441L209.013 20.7941L203.787 19.0799L198.561 17.3658L195.691 26.1158L200.917 27.8299ZM203.787 19.0799L208.987 20.8729C209.014 20.7928 208.88 21.2484 208.301 21.742C207.626 22.3183 206.811 22.5499 206.167 22.5499V17.0499V11.5499C204.404 11.5499 202.632 12.1199 201.163 13.3729C199.791 14.5432 199.027 16.0137 198.588 17.287L203.787 19.0799ZM206.167 17.0499V22.5499H213.307V17.0499V11.5499H206.167V17.0499ZM213.307 17.0499V22.5499C212.664 22.5499 211.849 22.3183 211.173 21.742C210.594 21.2484 210.46 20.7928 210.488 20.8729L215.687 19.0799L220.887 17.287C220.448 16.0137 219.683 14.5432 218.311 13.3729C216.842 12.1199 215.071 11.5499 213.307 11.5499V17.0499ZM215.687 19.0799L210.465 20.8066L213.335 29.4866L218.557 27.76L223.779 26.0333L220.909 17.3533L215.687 19.0799ZM218.557 27.76L224.017 28.4206L226.397 8.75061L220.937 8.08995L215.477 7.42929L213.097 27.0993L218.557 27.76ZM220.937 8.08995L226.403 8.69733C226.343 9.2387 226.014 10.2909 224.972 11.0724C224.088 11.7358 223.345 11.6999 223.457 11.6999V6.19995V0.699947C222.03 0.699947 220.097 0.979103 218.372 2.27245C216.49 3.684 215.671 5.6812 215.471 7.48257L220.937 8.08995ZM223.457 6.19995V11.6999H236.477V6.19995V0.699947H223.457V6.19995ZM236.477 6.19995V11.6999C235.955 11.6999 235.344 11.5935 234.729 11.3064C234.117 11.021 233.662 10.6324 233.351 10.2693L237.527 6.68995L241.703 3.11061C240.407 1.59905 238.547 0.699947 236.477 0.699947V6.19995ZM237.527 6.68995L233.948 10.8659C233.585 10.5546 233.196 10.1 232.911 9.48833C232.623 8.87313 232.517 8.26238 232.517 7.73995H238.017H243.517C243.517 5.66989 242.618 3.80964 241.106 2.51403L237.527 6.68995ZM238.017 7.73995H232.517V7.94995H238.017H243.517V7.73995H238.017ZM238.017 7.94995L232.574 7.16376L226.134 51.7538L231.577 52.54L237.021 53.3261L243.461 8.73614L238.017 7.94995ZM231.577 52.54L226.125 51.813C226.172 51.4662 226.284 51.1408 226.437 50.8664C226.584 50.602 226.732 50.4484 226.797 50.3885L230.527 54.43L234.258 58.4714C235.64 57.1957 236.738 55.4476 237.029 53.2669L231.577 52.54ZM230.527 54.43L226.811 50.3756C227.08 50.1286 227.399 49.9398 227.725 49.8241C228.038 49.7131 228.269 49.7 228.357 49.7V55.2V60.7C230.375 60.7 232.502 60.0808 234.244 58.4843L230.527 54.43ZM228.357 55.2V49.7H218.347V55.2V60.7H228.357V55.2ZM218.347 55.2V49.7C218.417 49.7 218.94 49.7196 219.57 50.134C220.231 50.5698 220.534 51.1274 220.635 51.3997L215.477 53.31L210.319 55.2202C210.887 56.7525 211.901 58.2551 213.52 59.3209C215.106 60.3653 216.83 60.7 218.347 60.7V55.2ZM215.477 53.31L220.584 51.2673L214.844 36.9173L209.737 38.96L204.63 41.0026L210.37 55.3526L215.477 53.31ZM209.737 38.96L204.63 36.9173L198.89 51.2673L203.997 53.31L209.104 55.3526L214.844 41.0026L209.737 38.96ZM203.997 53.31L198.839 51.3997C198.94 51.1274 199.243 50.5698 199.905 50.134C200.534 49.7196 201.057 49.7 201.127 49.7V55.2V60.7C202.644 60.7 204.369 60.3653 205.955 59.3209C207.573 58.2551 208.587 56.7525 209.155 55.2202L203.997 53.31ZM260.062 41.13V35.63C257.025 35.63 254.562 38.0924 254.562 41.13H260.062ZM276.722 52.19L273.52 47.7185C273.51 47.7254 273.5 47.7323 273.491 47.7393L276.722 52.19ZM248.442 51.35L244.916 55.5708C244.935 55.5868 244.954 55.6028 244.974 55.6186L248.442 51.35ZM248.582 22.93L252.118 27.1423C252.129 27.1339 252.139 27.1253 252.149 27.1168L248.582 22.93ZM277.702 23.49L273.685 27.2464C273.693 27.2556 273.702 27.2648 273.711 27.274L277.702 23.49ZM282.252 40.57L278.363 36.6809V36.6809L282.252 40.57ZM260.062 32.38H254.562C254.562 35.4175 257.025 37.88 260.062 37.88V32.38ZM265.662 32.38V37.88C268.7 37.88 271.162 35.4175 271.162 32.38H265.662ZM280.922 41.13V35.63H260.062V41.13V46.63H280.922V41.13ZM260.062 41.13H254.562V41.4799H260.062H265.562V41.13H260.062ZM260.062 41.4799H254.562C254.562 43.3126 254.823 45.631 256.111 47.6451C257.667 50.0785 260.179 51.25 262.792 51.25V45.75V40.25C263.062 40.25 263.565 40.3063 264.14 40.6061C264.733 40.9151 265.14 41.3468 265.379 41.7198C265.593 42.0557 265.626 42.2694 265.612 42.2017C265.599 42.1384 265.562 41.9156 265.562 41.4799H260.062ZM262.792 45.75V51.25C264.369 51.25 265.632 50.6883 266.454 50.2016C267.296 49.7025 268.003 49.0877 268.571 48.519L264.682 44.63L260.793 40.7409C260.615 40.9189 260.634 40.8641 260.846 40.7383C261.037 40.6249 261.728 40.25 262.792 40.25V45.75ZM264.682 44.63L268.571 48.519C268.561 48.5294 268.424 48.6629 268.141 48.7921C267.841 48.9292 267.488 49.0099 267.132 49.0099V43.5099V38.0099C264.513 38.0099 262.36 39.174 260.793 40.7409L264.682 44.63ZM267.132 43.5099V49.0099H280.362V43.5099V38.0099H267.132V43.5099ZM280.362 43.5099V49.0099C280.028 49.0099 278.767 48.9226 277.628 47.784C276.49 46.6455 276.402 45.3844 276.402 45.0499H281.902H287.402C287.402 43.6888 287.058 41.6578 285.406 40.0059C283.754 38.354 281.723 38.0099 280.362 38.0099V43.5099ZM281.902 45.0499H276.402C276.402 44.74 276.532 44.8004 276.155 45.3202C275.756 45.8707 274.96 46.6868 273.52 47.7185L276.722 52.19L279.925 56.6614C283.646 53.996 287.402 50.1794 287.402 45.0499H281.902ZM276.722 52.19L273.491 47.7393C271.331 49.3076 267.959 50.4 262.792 50.4V55.9V61.4C269.385 61.4 275.3 60.019 279.953 56.6406L276.722 52.19ZM262.792 55.9V50.4C257.944 50.4 254.467 49.1588 251.91 47.0813L248.442 51.35L244.974 55.6186C249.884 59.6078 255.974 61.4 262.792 61.4V55.9ZM248.442 51.35L251.968 47.1291C249.689 45.2246 248.412 42.6319 248.412 38.68H242.912H237.412C237.412 45.4613 239.822 51.3153 244.916 55.5708L248.442 51.35ZM242.912 38.68H248.412V35.32H242.912H237.412V38.68H242.912ZM242.912 35.32H248.412C248.412 31.8012 249.627 29.2343 252.118 27.1423L248.582 22.93L245.046 18.7175C239.978 22.9722 237.412 28.6653 237.412 35.32H242.912ZM248.582 22.93L252.149 27.1168C254.719 24.9276 258.303 23.5999 263.422 23.5999V18.0999V12.5999C256.315 12.5999 250.006 14.4923 245.016 18.7431L248.582 22.93ZM263.422 18.0999V23.5999C268.469 23.5999 271.615 25.0329 273.685 27.2464L277.702 23.49L281.719 19.7335C277.069 14.7604 270.695 12.5999 263.422 12.5999V18.0999ZM277.702 23.49L273.711 27.274C276.037 29.7276 277.312 32.8698 277.312 37.1399H282.812H288.312C288.312 30.3968 286.181 24.439 281.694 19.7059L277.702 23.49ZM282.812 37.1399H277.312V39.24H282.812H288.312V37.1399H282.812ZM282.812 39.24H277.312C277.312 38.8134 277.393 38.3216 277.603 37.8231C277.812 37.3278 278.096 36.948 278.363 36.6809L282.252 40.57L286.141 44.459C287.513 43.0872 288.312 41.2579 288.312 39.24H282.812ZM282.252 40.57L278.363 36.6809C278.63 36.4137 279.01 36.1295 279.505 35.921C280.004 35.7111 280.496 35.63 280.922 35.63V41.13V46.63C282.94 46.63 284.769 45.8309 286.141 44.459L282.252 40.57ZM265.662 32.1H271.162C271.162 30.2625 270.887 27.9227 269.538 25.8991C267.927 23.482 265.398 22.4 262.862 22.4V27.9V33.3999C262.638 33.3999 262.175 33.3554 261.627 33.0818C261.057 32.7968 260.642 32.3855 260.386 32.0008C260.154 31.6528 260.11 31.417 260.118 31.4556C260.126 31.492 260.162 31.6882 260.162 32.1H265.662ZM262.862 27.9V22.4C260.327 22.4 257.797 23.482 256.186 25.8991C254.837 27.9227 254.562 30.2625 254.562 32.1H260.062H265.562C265.562 31.6882 265.598 31.492 265.606 31.4556C265.615 31.417 265.57 31.6528 265.338 32.0008C265.082 32.3855 264.667 32.7968 264.097 33.0818C263.55 33.3554 263.086 33.3999 262.862 33.3999V27.9ZM260.062 32.1H254.562V32.38H260.062H265.562V32.1H260.062ZM260.062 32.38V37.88H265.662V32.38V26.88H260.062V32.38ZM265.662 32.38H271.162V32.1H265.662H260.162V32.38H265.662ZM343.76 8.50995L338.454 9.95709C338.488 10.0809 338.526 10.2035 338.568 10.3247L343.76 8.50995ZM359.37 53.17L364.588 51.4307C364.58 51.4055 364.571 51.3803 364.562 51.3552L359.37 53.17ZM358.95 54.78L355.061 50.8909L355.061 50.8909L358.95 54.78ZM342.22 53.45L347.395 51.587C347.393 51.5814 347.391 51.5759 347.389 51.5704L342.22 53.45ZM340.54 48.83L345.709 46.9504C344.919 44.7768 342.853 43.3299 340.54 43.3299V48.83ZM325.49 48.83V43.3299C323.177 43.3299 321.112 44.7768 320.321 46.9504L325.49 48.83ZM323.81 53.45L318.641 51.5704C318.639 51.5759 318.637 51.5814 318.635 51.587L323.81 53.45ZM307.01 54.78L302.834 58.3593C303.018 58.5731 303.217 58.7726 303.431 58.9559L307.01 54.78ZM306.66 53.17L301.468 51.3552C301.46 51.3803 301.451 51.4055 301.443 51.4307L306.66 53.17ZM322.27 8.50995L327.462 10.3247C327.505 10.2035 327.543 10.0809 327.576 9.95709L322.27 8.50995ZM329.06 35.18L323.794 33.5943C323.292 35.26 323.608 37.0648 324.646 38.4609C325.684 39.857 327.321 40.68 329.06 40.68V35.18ZM336.97 35.18V40.68C338.715 40.68 340.355 39.8525 341.393 38.45C342.43 37.0475 342.74 35.2362 342.229 33.5684L336.97 35.18ZM332.98 22.16L338.239 20.5484C337.529 18.2329 335.389 16.654 332.967 16.66C330.545 16.6659 328.412 18.2553 327.714 20.5743L332.98 22.16ZM325.42 6.19995V11.6999H340.61V6.19995V0.699947H325.42V6.19995ZM340.61 6.19995V11.6999C340.61 11.6999 340.608 11.6999 340.605 11.6998C340.601 11.6997 340.595 11.6995 340.588 11.6991C340.573 11.6982 340.551 11.6964 340.521 11.6926C340.462 11.6851 340.372 11.6697 340.259 11.6378C340.024 11.5714 339.719 11.4425 339.405 11.2127C338.717 10.708 338.495 10.1078 338.454 9.95709L343.76 8.50995L349.066 7.0628C348.605 5.37212 347.648 3.6169 345.91 2.34222C344.2 1.08826 342.28 0.699947 340.61 0.699947V6.19995ZM343.76 8.50995L338.568 10.3247L354.178 54.9847L359.37 53.17L364.562 51.3552L348.952 6.69519L343.76 8.50995ZM359.37 53.17L354.153 54.9092C354.066 54.6508 354.02 54.4394 353.995 54.306C353.969 54.1675 353.956 54.0606 353.95 53.9972C353.938 53.8771 353.94 53.8243 353.94 53.8699H359.44H364.94C364.94 53.4923 364.938 52.4813 364.588 51.4307L359.37 53.17ZM359.44 53.8699H353.94C353.94 52.913 354.224 52.1673 354.475 51.6999C354.717 51.2509 354.966 50.9859 355.061 50.8909L358.95 54.78L362.839 58.669C363.561 57.9476 364.94 56.3128 364.94 53.8699H359.44ZM358.95 54.78L355.061 50.8909C355.421 50.5312 355.884 50.2088 356.435 49.9883C356.98 49.7704 357.49 49.7 357.9 49.7V55.2V60.7C359.681 60.7 361.461 60.0479 362.839 58.669L358.95 54.78ZM357.9 55.2V49.7H344.95V55.2V60.7H357.9V55.2ZM344.95 55.2V49.7C344.996 49.7 345.528 49.7106 346.186 50.1321C346.898 50.5885 347.258 51.2054 347.395 51.587L342.22 53.45L337.045 55.3129C337.603 56.8612 338.628 58.353 340.25 59.3928C341.817 60.3976 343.504 60.7 344.95 60.7V55.2ZM342.22 53.45L347.389 51.5704L345.709 46.9504L340.54 48.83L335.371 50.7095L337.051 55.3295L342.22 53.45ZM340.54 48.83V43.3299H325.49V48.83V54.33H340.54V48.83ZM325.49 48.83L320.321 46.9504L318.641 51.5704L323.81 53.45L328.979 55.3295L330.659 50.7095L325.49 48.83ZM323.81 53.45L318.635 51.587C318.773 51.2054 319.133 50.5885 319.845 50.1321C320.502 49.7106 321.034 49.7 321.08 49.7V55.2V60.7C322.526 60.7 324.213 60.3976 325.781 59.3928C327.403 58.353 328.428 56.8612 328.985 55.3129L323.81 53.45ZM321.08 55.2V49.7H308.13V55.2V60.7H321.08V55.2ZM308.13 55.2V49.7C308.544 49.7 309.003 49.7714 309.466 49.9451C309.928 50.1182 310.303 50.3587 310.59 50.604L307.01 54.78L303.431 58.9559C304.728 60.0675 306.363 60.7 308.13 60.7V55.2ZM307.01 54.78L311.186 51.2006C311.322 51.3587 312.09 52.2915 312.09 53.8699H306.59H301.09C301.09 56.0084 302.139 57.5479 302.834 58.3593L307.01 54.78ZM306.59 53.8699H312.09C312.09 53.8243 312.092 53.8771 312.08 53.9972C312.074 54.0606 312.061 54.1675 312.035 54.306C312.01 54.4395 311.964 54.6509 311.878 54.9092L306.66 53.17L301.443 51.4307C301.092 52.4813 301.09 53.4923 301.09 53.8699H306.59ZM306.66 53.17L311.852 54.9847L327.462 10.3247L322.27 8.50995L317.078 6.69519L301.468 51.3552L306.66 53.17ZM322.27 8.50995L327.576 9.95709C327.535 10.1078 327.313 10.708 326.625 11.2127C326.312 11.4425 326.007 11.5714 325.771 11.6378C325.658 11.6697 325.569 11.6851 325.51 11.6926C325.48 11.6964 325.458 11.6982 325.443 11.6991C325.435 11.6995 325.43 11.6997 325.426 11.6998C325.422 11.6999 325.42 11.6999 325.42 11.6999V6.19995V0.699947C323.751 0.699947 321.83 1.08826 320.12 2.34222C318.382 3.6169 317.425 5.37211 316.964 7.0628L322.27 8.50995ZM329.06 35.18V40.68H336.97V35.18V29.68H329.06V35.18ZM336.97 35.18L342.229 33.5684L338.239 20.5484L332.98 22.16L327.722 23.7715L331.712 36.7915L336.97 35.18ZM332.98 22.16L327.714 20.5743L323.794 33.5943L329.06 35.18L334.327 36.7656L338.247 23.7456L332.98 22.16ZM379.331 23.1399H373.831C373.831 25.304 375.1 27.267 377.074 28.1553C379.047 29.0436 381.358 28.692 382.978 27.2572L379.331 23.1399ZM394.941 32.9399L391.052 29.0509V29.0509L394.941 32.9399ZM381.571 34.41L385.007 38.7047C385.018 38.6961 385.029 38.6873 385.039 38.6786L381.571 34.41ZM380.381 36.72L374.906 36.1985C374.889 36.3718 374.881 36.5458 374.881 36.72H380.381ZM379.821 54.6399L383.71 58.529L383.71 58.529L379.821 54.6399ZM363.861 54.6399L359.972 58.529V58.529L363.861 54.6399ZM363.861 19.36L359.972 15.4709V15.4709L363.861 19.36ZM378.771 19.36L374.882 23.249V23.249L378.771 19.36ZM379.331 20.6899H373.831V23.1399H379.331H384.831V20.6899H379.331ZM379.331 23.1399L382.978 27.2572C385.334 25.1705 387.703 24.2999 390.251 24.2999V18.7999V13.2999C384.772 13.2999 379.862 15.3227 375.685 19.0227L379.331 23.1399ZM390.251 18.7999V24.2999H393.611V18.7999V13.2999H390.251V18.7999ZM393.611 18.7999V24.2999C393.185 24.2999 392.693 24.2188 392.194 24.0089C391.699 23.8004 391.319 23.5162 391.052 23.249L394.941 19.36L398.83 15.4709C397.458 14.099 395.629 13.2999 393.611 13.2999V18.7999ZM394.941 19.36L391.052 23.249C390.785 22.9819 390.501 22.6021 390.292 22.1068C390.082 21.6083 390.001 21.1165 390.001 20.6899H395.501H401.001C401.001 18.672 400.202 16.8427 398.83 15.4709L394.941 19.36ZM395.501 20.6899H390.001V31.61H395.501H401.001V20.6899H395.501ZM395.501 31.61H390.001C390.001 31.1834 390.082 30.6916 390.292 30.1931C390.501 29.6978 390.785 29.318 391.052 29.0509L394.941 32.9399L398.83 36.829C400.202 35.4572 401.001 33.6279 401.001 31.61H395.501ZM394.941 32.9399L391.052 29.0509C391.319 28.7837 391.699 28.4995 392.194 28.291C392.693 28.0811 393.185 28 393.611 28V33.5V39C395.629 39 397.458 38.2009 398.83 36.829L394.941 32.9399ZM393.611 33.5V28H384.581V33.5V39H393.611V33.5ZM384.581 33.5V28C382.453 28 380.098 28.5204 378.103 30.1413L381.571 34.41L385.039 38.6786C384.81 38.865 384.596 38.9555 384.475 38.9921C384.369 39.0243 384.385 39 384.581 39V33.5ZM381.571 34.41L378.135 30.1152C376.153 31.7014 375.125 33.8973 374.906 36.1985L380.381 36.72L385.856 37.2414C385.846 37.3539 385.801 37.6097 385.638 37.9262C385.47 38.2531 385.239 38.5188 385.007 38.7047L381.571 34.41ZM380.381 36.72H374.881V53.31H380.381H385.881V36.72H380.381ZM380.381 53.31H374.881C374.881 52.8834 374.962 52.3916 375.172 51.8931C375.381 51.3978 375.665 51.018 375.932 50.7509L379.821 54.6399L383.71 58.529C385.082 57.1572 385.881 55.3279 385.881 53.31H380.381ZM379.821 54.6399L375.932 50.7509C376.199 50.4837 376.579 50.1995 377.074 49.991C377.573 49.7811 378.065 49.7 378.491 49.7V55.2V60.7C380.509 60.7 382.338 59.9009 383.71 58.529L379.821 54.6399ZM378.491 55.2V49.7H365.191V55.2V60.7H378.491V55.2ZM365.191 55.2V49.7C365.618 49.7 366.11 49.7811 366.608 49.991C367.103 50.1995 367.483 50.4837 367.75 50.7509L363.861 54.6399L359.972 58.529C361.344 59.9009 363.173 60.7 365.191 60.7V55.2ZM363.861 54.6399L367.75 50.7509C368.017 51.018 368.302 51.3978 368.51 51.8931C368.72 52.3916 368.801 52.8834 368.801 53.31H363.301H357.801C357.801 55.3279 358.6 57.1572 359.972 58.529L363.861 54.6399ZM363.301 53.31H368.801V20.6899H363.301H357.801V53.31H363.301ZM363.301 20.6899H368.801C368.801 21.1165 368.72 21.6083 368.51 22.1068C368.302 22.6021 368.017 22.9819 367.75 23.249L363.861 19.36L359.972 15.4709C358.6 16.8427 357.801 18.672 357.801 20.6899H363.301ZM363.861 19.36L367.75 23.249C367.483 23.5162 367.103 23.8004 366.608 24.0089C366.11 24.2188 365.618 24.2999 365.191 24.2999V18.7999V13.2999C363.173 13.2999 361.344 14.099 359.972 15.4709L363.861 19.36ZM365.191 18.7999V24.2999H377.441V18.7999V13.2999H365.191V18.7999ZM377.441 18.7999V24.2999C377.015 24.2999 376.523 24.2188 376.024 24.0089C375.529 23.8004 375.149 23.5162 374.882 23.249L378.771 19.36L382.66 15.4709C381.288 14.099 379.459 13.2999 377.441 13.2999V18.7999ZM378.771 19.36L374.882 23.249C374.615 22.9819 374.331 22.6021 374.122 22.1068C373.912 21.6083 373.831 21.1165 373.831 20.6899H379.331H384.831C384.831 18.672 384.032 16.8427 382.66 15.4709L378.771 19.36ZM417.22 41.13V35.63C414.183 35.63 411.72 38.0924 411.72 41.13H417.22ZM433.88 52.19L430.678 47.7185C430.668 47.7254 430.659 47.7323 430.649 47.7393L433.88 52.19ZM405.6 51.35L402.074 55.5708C402.093 55.5868 402.113 55.6028 402.132 55.6186L405.6 51.35ZM405.74 22.93L409.277 27.1423C409.287 27.1339 409.297 27.1253 409.307 27.1168L405.74 22.93ZM434.86 23.49L430.843 27.2464C430.852 27.2556 430.86 27.2648 430.869 27.274L434.86 23.49ZM439.41 40.57L435.521 36.6809V36.6809L439.41 40.57ZM417.22 32.38H411.72C411.72 35.4175 414.183 37.88 417.22 37.88V32.38ZM422.82 32.38V37.88C425.858 37.88 428.32 35.4175 428.32 32.38H422.82ZM438.08 41.13V35.63H417.22V41.13V46.63H438.08V41.13ZM417.22 41.13H411.72V41.4799H417.22H422.72V41.13H417.22ZM417.22 41.4799H411.72C411.72 43.3126 411.981 45.631 413.269 47.6451C414.825 50.0785 417.338 51.25 419.95 51.25V45.75V40.25C420.22 40.25 420.724 40.3063 421.299 40.6061C421.891 40.9151 422.298 41.3468 422.537 41.7198C422.751 42.0557 422.785 42.2694 422.77 42.2017C422.757 42.1384 422.72 41.9156 422.72 41.4799H417.22ZM419.95 45.75V51.25C421.527 51.25 422.79 50.6883 423.612 50.2016C424.454 49.7025 425.161 49.0877 425.729 48.519L421.84 44.63L417.951 40.7409C417.773 40.9189 417.792 40.8641 418.004 40.7383C418.195 40.6249 418.887 40.25 419.95 40.25V45.75ZM421.84 44.63L425.729 48.519C425.719 48.5294 425.582 48.6629 425.3 48.7921C425 48.9292 424.646 49.0099 424.29 49.0099V43.5099V38.0099C421.671 38.0099 419.518 39.174 417.951 40.7409L421.84 44.63ZM424.29 43.5099V49.0099H437.52V43.5099V38.0099H424.29V43.5099ZM437.52 43.5099V49.0099C437.186 49.0099 435.925 48.9226 434.786 47.784C433.648 46.6455 433.56 45.3844 433.56 45.0499H439.06H444.56C444.56 43.6888 444.216 41.6578 442.564 40.0059C440.913 38.354 438.882 38.0099 437.52 38.0099V43.5099ZM439.06 45.0499H433.56C433.56 44.74 433.691 44.8004 433.314 45.3202C432.914 45.8707 432.118 46.6868 430.678 47.7185L433.88 52.19L437.083 56.6614C440.804 53.996 444.56 50.1794 444.56 45.0499H439.06ZM433.88 52.19L430.649 47.7393C428.489 49.3076 425.118 50.4 419.95 50.4V55.9V61.4C426.543 61.4 432.458 60.019 437.112 56.6406L433.88 52.19ZM419.95 55.9V50.4C415.102 50.4 411.625 49.1588 409.069 47.0813L405.6 51.35L402.132 55.6186C407.042 59.6078 413.132 61.4 419.95 61.4V55.9ZM405.6 51.35L409.127 47.1291C406.847 45.2246 405.57 42.6319 405.57 38.68H400.07H394.57C394.57 45.4613 396.98 51.3153 402.074 55.5708L405.6 51.35ZM400.07 38.68H405.57V35.32H400.07H394.57V38.68H400.07ZM400.07 35.32H405.57C405.57 31.8012 406.785 29.2343 409.277 27.1423L405.74 22.93L402.204 18.7175C397.136 22.9722 394.57 28.6653 394.57 35.32H400.07ZM405.74 22.93L409.307 27.1168C411.877 24.9276 415.461 23.5999 420.58 23.5999V18.0999V12.5999C413.473 12.5999 407.164 14.4923 402.174 18.7431L405.74 22.93ZM420.58 18.0999V23.5999C425.627 23.5999 428.773 25.0329 430.843 27.2464L434.86 23.49L438.878 19.7335C434.228 14.7604 427.853 12.5999 420.58 12.5999V18.0999ZM434.86 23.49L430.869 27.274C433.195 29.7276 434.47 32.8698 434.47 37.1399H439.97H445.47C445.47 30.3968 443.339 24.439 438.852 19.7059L434.86 23.49ZM439.97 37.1399H434.47V39.24H439.97H445.47V37.1399H439.97ZM439.97 39.24H434.47C434.47 38.8134 434.552 38.3216 434.761 37.8231C434.97 37.3278 435.254 36.948 435.521 36.6809L439.41 40.57L443.299 44.459C444.671 43.0872 445.47 41.2579 445.47 39.24H439.97ZM439.41 40.57L435.521 36.6809C435.788 36.4137 436.168 36.1295 436.664 35.921C437.162 35.7111 437.654 35.63 438.08 35.63V41.13V46.63C440.098 46.63 441.928 45.8309 443.299 44.459L439.41 40.57ZM422.82 32.1H428.32C428.32 30.2625 428.046 27.9227 426.697 25.8991C425.085 23.482 422.556 22.4 420.02 22.4V27.9V33.3999C419.796 33.3999 419.333 33.3554 418.786 33.0818C418.216 32.7968 417.801 32.3855 417.544 32.0008C417.312 31.6528 417.268 31.417 417.276 31.4556C417.284 31.492 417.32 31.6882 417.32 32.1H422.82ZM420.02 27.9V22.4C417.485 22.4 414.956 23.482 413.344 25.8991C411.995 27.9227 411.72 30.2625 411.72 32.1H417.22H422.72C422.72 31.6882 422.756 31.492 422.764 31.4556C422.773 31.417 422.729 31.6528 422.497 32.0008C422.24 32.3855 421.825 32.7968 421.255 33.0818C420.708 33.3554 420.245 33.3999 420.02 33.3999V27.9ZM417.22 32.1H411.72V32.38H417.22H422.72V32.1H417.22ZM417.22 32.38V37.88H422.82V32.38V26.88H417.22V32.38ZM422.82 32.38H428.32V32.1H422.82H417.32V32.38H422.82Z" fill="white" mask="url(#path-1-outside-1_3_9557)"/>
</svg>
